<svg width="240" height="106" viewBox="0 0 240 106" fill="none" xmlns="http://www.w3.org/2000/svg">
<g filter="url(#filter0_d_472_43)">
<rect x="4" y="4" width="260" height="98" rx="10" fill="white"/>
</g>
<path d="M112.69 72.6092C111.644 73.2635 110.453 73.7643 109.124 74.1138C107.793 74.4632 106.496 74.6369 105.231 74.6369C103.181 74.6369 101.272 74.254 99.5044 73.4906C97.7372 72.7271 96.1769 71.6699 94.8258 70.3166C93.4726 68.9633 92.4153 67.4053 91.6519 65.638C90.8884 63.8707 90.5078 61.9632 90.5078 59.9111C90.5078 57.8589 90.8906 56.007 91.6519 54.2175C92.4153 52.428 93.4726 50.8588 94.8258 49.5055C96.1791 48.1522 97.7372 47.095 99.5044 46.3316C101.272 45.5681 103.179 45.1875 105.231 45.1875C106.496 45.1875 107.795 45.3611 109.124 45.7106C110.455 46.06 111.644 46.5608 112.69 47.2152C113.039 46.6053 113.509 46.1134 114.097 45.7439C114.687 45.3722 115.352 45.1875 116.093 45.1875C117.184 45.1875 118.101 45.5481 118.842 46.267C119.583 46.9859 119.955 47.8918 119.955 48.9825V70.9064C119.955 71.9971 119.583 72.8918 118.842 73.5907C118.101 74.2896 117.184 74.6369 116.093 74.6369C115.352 74.6369 114.687 74.4521 114.097 74.0804C113.507 73.7087 113.039 73.219 112.69 72.6092ZM97.0494 59.9133C97.0494 61.616 97.519 63.1429 98.4561 64.494C99.3931 65.8472 100.562 66.8288 101.957 67.4387C102.567 67.7013 103.255 68.2132 104.018 68.9767C104.782 69.7401 105.185 70.8419 105.229 72.282C105.274 70.8419 105.665 69.7401 106.407 68.9767C107.148 68.2132 107.824 67.7013 108.437 67.4387C109.877 66.8288 111.065 65.8472 112.002 64.494C112.939 63.1407 113.409 61.6138 113.409 59.9133C113.409 58.7781 113.202 57.7098 112.788 56.7059C112.374 55.7021 111.795 54.8296 111.054 54.0884C110.313 53.3472 109.44 52.7685 108.437 52.3545C107.433 51.9405 106.364 51.7335 105.229 51.7335C104.094 51.7335 103.026 51.9405 102.022 52.3545C101.018 52.7685 100.145 53.3472 99.4043 54.0884C98.6631 54.8296 98.0844 55.7021 97.6704 56.7059C97.2564 57.7098 97.0494 58.7781 97.0494 59.9133Z" fill="#046734"/>
<mask id="mask0_472_43" style="mask-type:luminance" maskUnits="userSpaceOnUse" x="90" y="45" width="30" height="30">
<path d="M104.026 68.9745C103.263 68.211 102.575 67.6991 101.965 67.4364C100.569 66.8266 99.401 65.845 98.4639 64.4917C97.5268 63.1385 97.0572 61.6116 97.0572 59.9111C97.0572 58.7759 97.2642 57.7075 97.6782 56.7037C98.0922 55.6999 98.6709 54.8274 99.4121 54.0862C100.153 53.345 101.026 52.7663 102.03 52.3523C103.033 51.9383 104.102 51.7313 105.237 51.7313C106.372 51.7313 107.44 51.9383 108.444 52.3523C109.448 52.7663 110.321 53.345 111.062 54.0862C111.803 54.8274 112.382 55.6999 112.796 56.7037C113.21 57.7075 113.417 58.7759 113.417 59.9111C113.417 61.6138 112.947 63.1407 112.01 64.4917C111.071 65.845 109.882 66.8266 108.444 67.4364C107.834 67.6991 107.158 68.211 106.414 68.9745C105.673 69.7379 105.279 70.8397 105.237 72.2798C105.192 70.8397 104.79 69.7379 104.026 68.9745ZM114.104 45.7417C113.515 46.1134 113.047 46.6031 112.698 47.2152C111.652 46.5608 110.461 46.06 109.132 45.7106C107.801 45.3611 106.503 45.1875 105.239 45.1875C103.189 45.1875 101.28 45.5681 99.5122 46.3316C97.745 47.095 96.1847 48.1522 94.8336 49.5055C93.4804 50.8588 92.4231 52.428 91.6597 54.2175C90.8962 56.007 90.5156 57.9034 90.5156 59.9111C90.5156 61.9187 90.8985 63.8707 91.6597 65.638C92.4231 67.4053 93.4804 68.9656 94.8336 70.3166C96.1869 71.6699 97.745 72.7271 99.5122 73.4906C101.28 74.254 103.187 74.6369 105.239 74.6369C106.503 74.6369 107.803 74.4632 109.132 74.1138C110.463 73.7644 111.652 73.2635 112.698 72.6092C113.047 73.219 113.517 73.7109 114.104 74.0826C114.694 74.4543 115.358 74.6391 116.101 74.6391C117.192 74.6391 118.109 74.2896 118.85 73.593C119.591 72.8941 119.963 72.0015 119.963 70.9087V48.9847C119.963 47.8941 119.591 46.9882 118.85 46.2692C118.109 45.5481 117.192 45.1897 116.101 45.1897C115.36 45.1897 114.694 45.3745 114.104 45.7462" fill="white"/>
</mask>
<g mask="url(#mask0_472_43)">
<path d="M119.949 45.1875H90.5V74.6369H119.949V45.1875Z" fill="#046734"/>
</g>
<path d="M144.985 49.0492C144.985 47.9586 145.357 47.0416 146.098 46.3004C146.839 45.5592 147.756 45.1875 148.847 45.1875C149.938 45.1875 150.855 45.5592 151.596 46.3004C152.337 47.0416 152.709 47.9586 152.709 49.0492C152.709 49.0492 152.72 49.4632 152.742 50.2935C152.764 51.1214 152.787 52.192 152.807 53.5008C152.829 54.8096 152.84 56.2942 152.84 57.9501V63.0539C152.84 67.156 152.818 71.8012 152.775 76.994C152.775 80.1345 151.914 82.9279 150.191 85.3696C148.469 87.8135 146.232 89.5808 143.483 90.6714C142.96 90.8895 142.437 90.9986 141.914 90.9986C140.823 90.9986 139.906 90.6269 139.165 89.8857C138.424 89.1445 138.052 88.2275 138.052 87.1369C138.052 86.2644 138.292 85.512 138.771 84.8799C139.252 84.2478 139.861 83.8004 140.603 83.5378C141.867 83.057 142.915 82.229 143.743 81.0516C144.573 79.8741 144.987 78.5431 144.987 77.0585V72.9364C142.937 74.0715 140.647 74.6369 138.116 74.6369C136.066 74.6369 134.157 74.2563 132.389 73.4906C130.622 72.7271 129.062 71.6699 127.711 70.3166C126.358 68.9633 125.3 67.4053 124.537 65.638C123.773 63.8707 123.391 61.9632 123.391 59.9111V49.1783C123.391 48.1745 123.74 47.3243 124.437 46.6254C125.136 45.9265 125.986 45.5792 126.99 45.5792C127.994 45.5792 128.844 45.9287 129.543 46.6254C130.242 47.3243 130.591 48.1745 130.591 49.1783V59.9111C130.591 61.438 131.016 62.8335 131.866 64.1C132.717 65.3642 133.796 66.259 135.105 66.7843C135.673 67.0469 136.305 67.5255 137.004 68.2244C137.702 68.9233 138.072 69.9249 138.116 71.2336C138.161 69.9249 138.53 68.921 139.229 68.2244C139.928 67.5255 140.538 67.0469 141.061 66.7843C142.851 66.1299 144.159 64.8657 144.987 62.9893" fill="#046734"/>
<mask id="mask1_472_43" style="mask-type:luminance" maskUnits="userSpaceOnUse" x="123" y="45" width="30" height="46">
<path d="M146.092 46.2982C145.351 47.0394 144.98 47.9564 144.98 49.047V62.9871C144.152 64.8634 142.843 66.1277 141.053 66.7821C140.53 67.0447 139.918 67.5233 139.221 68.2221C138.523 68.921 138.153 69.9226 138.109 71.2314C138.064 69.9226 137.695 68.9188 136.996 68.2221C136.297 67.5233 135.665 67.0447 135.097 66.7821C133.788 66.259 132.709 65.3642 131.859 64.1C131.008 62.8357 130.583 61.438 130.583 59.9111V49.1783C130.583 48.1745 130.234 47.3243 129.535 46.6254C128.836 45.9265 127.986 45.5792 126.982 45.5792C125.978 45.5792 125.128 45.9287 124.429 46.6254C123.73 47.3243 123.383 48.1745 123.383 49.1783V59.9111C123.383 61.961 123.766 63.8707 124.529 65.638C125.293 67.4053 126.35 68.9656 127.703 70.3166C129.056 71.6699 130.614 72.7271 132.382 73.4906C134.149 74.254 136.056 74.6369 138.109 74.6369C140.639 74.6369 142.93 74.0693 144.98 72.9364V77.0585C144.98 78.5409 144.566 79.8719 143.735 81.0516C142.907 82.229 141.859 83.0592 140.595 83.5378C139.854 83.8004 139.242 84.2456 138.763 84.8799C138.282 85.512 138.044 86.2644 138.044 87.1369C138.044 88.2275 138.416 89.1445 139.157 89.8857C139.898 90.6269 140.815 90.9986 141.906 90.9986C142.429 90.9986 142.952 90.8895 143.477 90.6714C146.226 89.5808 148.461 87.8135 150.186 85.3696C151.908 82.9257 152.77 80.1345 152.77 76.994C152.814 71.8012 152.837 67.156 152.837 63.0539V57.9502C152.837 56.2919 152.825 54.8096 152.803 53.5008C152.781 52.192 152.759 51.1237 152.739 50.2935C152.716 49.4655 152.705 49.0492 152.705 49.0492C152.705 47.9586 152.336 47.0416 151.592 46.3004C150.851 45.5592 149.934 45.1875 148.844 45.1875C147.753 45.1875 146.836 45.5592 146.095 46.3004" fill="white"/>
</mask>
<g mask="url(#mask1_472_43)">
<path d="M152.832 45.1875H123.383V90.9986H152.832V45.1875Z" fill="#046734"/>
</g>
<path d="M179.635 72.6092C178.589 73.2635 177.398 73.7643 176.07 74.1138C174.739 74.4632 173.441 74.6369 172.177 74.6369C170.127 74.6369 168.217 74.254 166.45 73.4906C164.682 72.7271 163.122 71.6699 161.771 70.3166C160.418 68.9633 159.361 67.4053 158.597 65.638C157.834 63.8707 157.453 61.9632 157.453 59.9111C157.453 57.8589 157.834 56.007 158.597 54.2175C159.361 52.428 160.418 50.8588 161.771 49.5055C163.124 48.1522 164.682 47.095 166.45 46.3316C168.217 45.5681 170.127 45.1875 172.177 45.1875C173.441 45.1875 174.741 45.3611 176.07 45.7106C177.401 46.06 178.589 46.5608 179.635 47.2152C179.985 46.6053 180.454 46.1134 181.042 45.7439C181.632 45.3722 182.297 45.1875 183.039 45.1875C184.129 45.1875 185.046 45.5481 185.787 46.267C186.529 46.9859 186.9 47.8918 186.9 48.9825V70.9064C186.9 71.9971 186.529 72.8918 185.787 73.5907C185.046 74.2896 184.129 74.6369 183.039 74.6369C182.297 74.6369 181.632 74.4521 181.042 74.0804C180.452 73.7087 179.985 73.219 179.635 72.6092ZM163.995 59.9133C163.995 61.616 164.464 63.1429 165.401 64.494C166.338 65.8472 167.507 66.8288 168.903 67.4387C169.512 67.7013 170.2 68.2132 170.964 68.9767C171.727 69.7401 172.13 70.8419 172.174 72.282C172.219 70.8419 172.611 69.7401 173.352 68.9767C174.093 68.2132 174.77 67.7013 175.382 67.4387C176.822 66.8288 178.01 65.8472 178.95 64.494C179.887 63.1407 180.356 61.6138 180.356 59.9133C180.356 58.7781 180.149 57.7098 179.735 56.7059C179.321 55.7021 178.743 54.8296 178.002 54.0884C177.26 53.3472 176.388 52.7685 175.384 52.3545C174.38 51.9405 173.312 51.7335 172.177 51.7335C171.042 51.7335 169.973 51.9405 168.969 52.3545C167.966 52.7685 167.093 53.3472 166.352 54.0884C165.611 54.8296 165.032 55.7021 164.618 56.7059C164.204 57.7098 163.997 58.7781 163.997 59.9133" fill="#046734"/>
<mask id="mask2_472_43" style="mask-type:luminance" maskUnits="userSpaceOnUse" x="157" y="45" width="30" height="30">
<path d="M170.966 68.9745C170.202 68.211 169.515 67.6991 168.905 67.4364C167.509 66.8266 166.341 65.845 165.404 64.4917C164.467 63.1385 163.997 61.6116 163.997 59.9111C163.997 58.7759 164.204 57.7075 164.618 56.7037C165.032 55.6999 165.611 54.8274 166.352 54.0862C167.093 53.345 167.966 52.7663 168.969 52.3523C169.973 51.9383 171.042 51.7313 172.177 51.7313C173.312 51.7313 174.38 51.9383 175.384 52.3523C176.388 52.7663 177.26 53.345 178.002 54.0862C178.743 54.8274 179.321 55.6999 179.735 56.7037C180.149 57.7075 180.356 58.7759 180.356 59.9111C180.356 61.6138 179.887 63.1407 178.95 64.4917C178.01 65.845 176.822 66.8266 175.384 67.4364C174.774 67.6991 174.098 68.211 173.354 68.9745C172.613 69.7379 172.221 70.8397 172.177 72.2798C172.132 70.8397 171.729 69.7379 170.966 68.9745ZM181.044 45.7417C180.454 46.1134 179.987 46.6031 179.638 47.2152C178.591 46.5608 177.401 46.06 176.072 45.7106C174.741 45.3611 173.443 45.1875 172.177 45.1875C170.127 45.1875 168.217 45.5681 166.45 46.3316C164.682 47.095 163.122 48.1522 161.771 49.5055C160.418 50.8588 159.361 52.428 158.597 54.2175C157.834 56.007 157.453 57.9034 157.453 59.9111C157.453 61.9187 157.834 63.8707 158.597 65.638C159.361 67.4053 160.418 68.9656 161.771 70.3166C163.124 71.6699 164.682 72.7271 166.45 73.4906C168.217 74.254 170.127 74.6369 172.177 74.6369C173.441 74.6369 174.741 74.4632 176.072 74.1138C177.403 73.7644 178.591 73.2635 179.638 72.6092C179.987 73.219 180.457 73.7109 181.044 74.0826C181.634 74.4543 182.3 74.6391 183.041 74.6391C184.131 74.6391 185.048 74.2896 185.79 73.593C186.531 72.8941 186.902 72.0015 186.902 70.9087V48.9847C186.902 47.8941 186.531 46.9882 185.79 46.2692C185.048 45.5481 184.131 45.1897 183.041 45.1897C182.3 45.1897 181.634 45.3745 181.044 45.7462" fill="white"/>
</mask>
<g mask="url(#mask2_472_43)">
<path d="M186.902 45.1875H157.453V74.6369H186.902V45.1875Z" fill="#046734"/>
</g>
<path d="M193.422 34.0386C192.877 32.3025 194.099 31.8573 195.98 31.9196C197.07 31.9552 196.625 32.0999 196.954 33.0971C198.223 36.9432 200.95 70.4435 197.382 73.5997C193.756 76.807 189.574 73.8801 191.644 68.4603C193.821 62.7623 197.05 45.5793 193.424 34.0408" fill="#046734"/>
<mask id="mask3_472_43" style="mask-type:luminance" maskUnits="userSpaceOnUse" x="191" y="31" width="9" height="44">
<path d="M193.414 34.0319C197.042 45.5703 193.811 62.7556 191.636 68.4514C189.566 73.8712 193.748 76.7959 197.374 73.5908C200.942 70.4346 198.215 36.9365 196.947 33.0881C196.617 32.0932 197.062 31.9463 195.972 31.9107C195.863 31.9062 195.758 31.9063 195.654 31.9063C193.955 31.9063 192.9 32.3959 193.414 34.0319Z" fill="white"/>
</mask>
<g mask="url(#mask3_472_43)">
<path d="M200.946 31.8516H189.57V76.7968H200.946V31.8516Z" fill="#046734"/>
</g>
<path d="M208.049 86.628H209.561V79.7169H210.818C210.981 79.7169 211.072 79.8104 211.072 79.9707V80.467H212.399V79.1738C212.399 78.6307 212.214 78.4349 211.66 78.4349H205.948C205.394 78.4349 205.209 78.6307 205.209 79.1738V80.467H206.536V79.9707C206.536 79.8082 206.627 79.7169 206.79 79.7169H208.047M188.634 86.628H190.112C190.666 86.628 190.898 86.3965 190.898 85.8423V82.103C190.898 81.6289 190.817 80.95 190.817 80.95H190.84C190.84 80.95 191.198 81.6422 191.521 82.103L194.637 86.6258H195.988V79.9684C195.988 79.806 196.079 79.7147 196.242 79.7147H196.738V78.4327H195.26C194.706 78.4327 194.477 78.6753 194.477 79.2184V82.9688C194.477 83.4429 194.557 84.1218 194.557 84.1218H194.532C194.532 84.1218 194.174 83.4407 193.851 82.9688L190.748 78.4349H189.386V85.0922C189.386 85.2525 189.295 85.3459 189.132 85.3459H188.636V86.6258L188.634 86.628ZM175.402 83.2804L176.105 81.226C176.254 80.7764 176.428 80.0018 176.428 80.0018H176.45C176.45 80.0018 176.624 80.7742 176.773 81.226L177.476 83.2804H175.399H175.402ZM172.679 86.628H173.592C174.169 86.628 174.364 86.4789 174.549 85.958L175.057 84.5269H177.825L178.333 85.958C178.518 86.4766 178.725 86.628 179.301 86.628H180.2V85.3482H180.016C179.82 85.3482 179.726 85.3014 179.657 85.0944L177.233 78.4371H175.653L173.218 85.0944C173.149 85.3014 173.058 85.3482 172.86 85.3482H172.675V86.628H172.679ZM159.886 82.2766V79.7147H161.108C161.847 79.7147 162.296 80.1754 162.296 80.9834C162.296 81.7914 161.847 82.2766 161.085 82.2766H159.886ZM158.374 86.628H159.886V83.5698H160.647C161.074 83.5698 161.248 83.6276 161.419 83.9504L162.47 86.0159C162.735 86.5345 163.002 86.628 163.612 86.628H164.408V85.3482H164.259C164.006 85.3482 163.81 85.3259 163.683 85.0833L162.886 83.503C162.737 83.2025 162.483 83.0868 162.483 83.0868V83.0645C162.828 82.9955 163.845 82.3834 163.845 80.9077C163.845 79.432 162.795 78.4371 161.295 78.4371H157.624V79.7192H158.374V86.6302V86.628ZM129.602 83.7078C129.602 85.5195 130.881 86.766 132.831 86.766C134.781 86.766 136.039 85.5195 136.039 83.7078V79.9684C136.039 79.806 136.132 79.7147 136.292 79.7147H136.789V78.4327H135.311C134.757 78.4327 134.525 78.6753 134.525 79.2184V83.6499C134.525 84.7338 133.844 85.3571 132.818 85.3571C131.792 85.3571 131.111 84.7338 131.111 83.661V79.2184C131.111 78.6753 130.879 78.4327 130.325 78.4327H128.849V79.7147H129.346C129.508 79.7147 129.599 79.8082 129.599 79.9684V83.7078H129.602ZM115.942 83.2804L116.645 81.226C116.794 80.7764 116.968 80.0018 116.968 80.0018H116.99C116.99 80.0018 117.164 80.7742 117.313 81.226L118.016 83.2804H115.94H115.942ZM113.22 86.628H114.132C114.709 86.628 114.905 86.4789 115.09 85.958L115.597 84.5269H118.366L118.873 85.958C119.058 86.4766 119.265 86.628 119.842 86.628H120.741V85.3482H120.556C120.36 85.3482 120.267 85.3014 120.198 85.0944L117.774 78.4371H116.194L113.758 85.0944C113.689 85.3014 113.598 85.3482 113.4 85.3482H113.215V86.628H113.22ZM101.65 86.628H103.162V79.7169H104.419C104.582 79.7169 104.673 79.8104 104.673 79.9707V80.467H105.999V79.1738C105.999 78.6307 105.815 78.4349 105.26 78.4349H99.5491C98.9949 78.4349 98.8101 78.6307 98.8101 79.1738V80.467H100.137V79.9707C100.137 79.8082 100.228 79.7169 100.39 79.7169H101.648V86.628H101.65ZM84.761 85.4973C84.761 85.4973 85.7648 86.766 87.5766 86.766C89.3884 86.766 90.2987 85.6598 90.2987 84.3555C90.2987 81.6667 86.4459 81.9449 86.4459 80.5471C86.4459 80.0285 86.9534 79.6702 87.6456 79.6702C88.1887 79.6702 88.7295 79.9239 88.7295 80.3045V80.674H90.0917V79.9128C90.0917 78.7465 88.6138 78.2969 87.6567 78.2969C86.0764 78.2969 84.9212 79.2762 84.9212 80.605C84.9212 83.1558 88.7741 83.04 88.7741 84.4356C88.7741 85.0699 88.2198 85.4038 87.5966 85.4038C86.4548 85.4038 85.6112 84.4356 85.6112 84.4356L84.7587 85.4973H84.761ZM70.9522 85.8423C70.9522 86.3965 71.1837 86.628 71.7357 86.628H75.4505C75.9936 86.628 76.2362 86.3965 76.2362 85.8423V84.5959H74.8629V85.0922C74.8629 85.2525 74.7716 85.3459 74.6092 85.3459H72.7172C72.5548 85.3459 72.4635 85.2525 72.4635 85.0922V83.1424H75.1166V81.8626H72.4635V79.7169H74.3087C74.4689 79.7169 74.5624 79.8104 74.5624 79.9707V80.467H75.9357V79.2206C75.9357 78.6775 75.6931 78.4349 75.1523 78.4349H70.2021V79.7169H70.9522V85.8445V85.8423ZM57.2592 82.2766V79.7147H58.4811C59.2201 79.7147 59.6697 80.1754 59.6697 80.9834C59.6697 81.7914 59.2201 82.2766 58.4589 82.2766H57.2592ZM55.7479 86.628H57.2592V83.5698H58.0204C58.4477 83.5698 58.6214 83.6276 58.7927 83.9504L59.8433 86.0159C60.1082 86.5345 60.373 86.628 60.9851 86.628H61.782V85.3482H61.6328C61.3791 85.3482 61.1832 85.3259 61.0564 85.0833L60.2595 83.503C60.1104 83.2025 59.8567 83.0868 59.8567 83.0868V83.0645C60.2039 82.9955 61.2188 82.3834 61.2188 80.9077C61.2188 79.432 60.1683 78.4371 58.6681 78.4371H55V79.7192H55.7501V86.6302L55.7479 86.628Z" fill="#046734"/>
<path fill-rule="evenodd" clip-rule="evenodd" d="M197.459 17.5247L197.967 17.0572C198.447 16.6165 199.142 16.0556 199.85 16C199.801 16.0824 199.462 16.3383 199.344 16.434C199.026 16.6989 198.025 17.5603 197.976 17.8964C198.289 17.8474 198.77 17.4712 199.607 17.4134C199.538 17.5469 198.107 18.179 197.875 18.455L198.875 18.1568C198.788 18.2903 198.561 18.3794 198.501 18.5285C198.81 18.4617 199.211 18.3193 199.531 18.4328C199.489 18.4662 198.786 18.7021 198.588 18.8223C198.396 18.938 198.416 19.0137 198.207 19.1161C198.047 19.194 197.829 19.2274 197.697 19.2919C198.094 19.2875 198.485 19.2252 198.879 19.1784C198.652 19.4188 197.401 19.6748 197.085 19.9129C197.314 19.8662 198.245 19.5991 198.485 19.7282C198.18 19.9552 197.192 20.0443 196.783 20.525L198.02 20.347C197.98 20.3625 197.312 20.6474 197.259 20.6831C197.635 20.6163 198.203 20.4516 198.577 20.6141C198.479 20.7098 197.728 20.9702 197.544 21.0503C197.35 21.1349 197.228 21.2128 197.056 21.304C196.898 21.3886 196.687 21.4398 196.547 21.5199L197.835 21.2951C197.624 21.4042 197.37 21.5266 197.136 21.6401C196.936 21.7358 196.527 21.8894 196.397 22.0029L197.537 21.8382C197.417 21.9718 197.107 22.1432 197.034 22.2678L197.359 22.2344C197.288 22.3479 196.604 22.733 196.411 22.851C196.355 22.8844 196.311 22.9111 196.246 22.9511L196.135 23.0201C196.135 23.0201 196.124 23.029 196.117 23.0357C196.081 23.0691 196.093 23.058 196.068 23.0891C196.48 22.9912 196.898 22.8354 197.323 22.8443C197.323 23.0357 196.892 23.3095 196.754 23.4363L196.983 23.5521C196.905 23.6367 196.553 23.8281 196.418 23.906C196.259 23.9972 195.955 24.1508 195.852 24.251C197.188 23.9883 196.78 24.2065 197.212 23.5632C197.328 23.3918 197.412 23.2605 197.528 23.0802L198.924 21.2083L199.502 20.5718C199.587 20.4939 199.627 20.4293 199.712 20.3492C200.248 19.8306 200.809 19.2808 201.486 18.8C201.862 18.5329 203.224 17.6003 203.654 17.5959C203.199 17.9186 202.801 18.1746 202.349 18.5418C202.167 18.691 201.212 19.4433 201.141 19.5702C201.399 19.4611 202.02 19.1361 202.323 19.1072L201.434 19.7193C201.267 19.8506 200.711 20.2691 200.626 20.4026C200.936 20.2557 201.178 20.0687 201.679 19.8462C201.937 19.7326 202.647 19.4633 202.895 19.4522C202.683 19.5457 202.565 19.7326 202.407 19.8417C202.414 19.8462 202.423 19.8462 202.427 19.8551C202.445 19.8973 202.605 19.9218 202.634 19.9352C201.975 20.2201 201.261 20.7498 200.74 21.2217C200.582 21.3664 200.273 21.5912 200.172 21.7425L201.359 21.1883C201.584 21.0948 202.418 20.761 202.639 20.7387C202.427 20.939 201.145 21.8627 200.833 22.0808C200.658 22.2033 200.404 22.4503 200.226 22.5305L201.187 22.3056C201.454 22.25 202.047 22.2077 202.256 22.1365C202.169 22.4704 198.599 23.8681 198.483 24.0084L198.53 24.1063C198.906 24.0373 199.703 23.5988 200.751 23.5165L201.472 23.4608C201.871 23.4297 203.03 23.5187 203.306 23.6589C202.946 23.699 202.307 23.6211 202.084 23.8837C202.334 23.9104 202.63 23.886 202.895 23.9038C204.862 24.0217 205.984 24.774 206.291 24.8408C206.351 24.8542 207.642 24.5092 208.047 24.4847C207.963 24.5804 207.851 24.6316 207.751 24.7139C207.687 24.7674 207.709 24.7384 207.66 24.8119L209.924 24.2621C209.924 24.2621 209.91 24.271 209.908 24.2821C209.892 24.3534 209.485 24.5759 209.425 24.6116C209.298 24.6895 209.02 24.8608 208.935 24.9477L211.388 24.8698L211.27 24.9543C211.021 25.0701 210.44 25.2303 210.28 25.3795C210.387 25.4217 211.215 25.5197 211.424 25.5642C211.767 25.6376 212.25 25.7378 212.41 25.9826C211.971 25.9448 211.186 25.8135 210.76 25.9381C210.513 26.0094 210.5 26.0027 210.257 25.9671C210.598 26.1985 211.662 26.735 211.773 27.0176C211.493 26.9954 210.972 26.8329 210.685 26.7439C210.28 26.617 210.019 26.4122 209.701 26.2943C209.906 26.5658 210.849 27.3181 211.161 27.6542C210.987 27.6164 210.674 27.4672 210.498 27.4005C210.273 27.3137 210.046 27.2269 209.806 27.1401C209.556 27.0488 209.271 27.0065 209.091 26.9375C208.864 26.8529 208.648 26.6993 208.448 26.6237C208.595 26.804 209.935 27.7477 210.233 28.1261C210.128 28.1261 209.565 27.8701 209.394 27.81C208.305 27.4316 208.348 27.4784 207.357 26.8908C207.255 26.8284 207.081 26.7083 206.983 26.6793C207.181 26.8685 208.41 27.9057 208.426 28.2374C208 28.1372 207.088 27.6364 206.741 27.4205C206.402 27.2091 205.537 26.6348 205.071 26.5569C205.138 26.666 205.781 27.2157 205.939 27.3515C206.151 27.5362 206.665 28.0059 206.676 28.2797C206.48 28.2663 205.143 27.2536 204.713 27.1668C204.791 27.2959 206.093 28.3019 206.362 28.5178C206.451 28.589 206.416 28.5401 206.469 28.638C206.298 28.5979 205.922 28.3598 205.744 28.2685C205.134 27.9569 204.145 27.3537 203.585 27.1178C203.642 27.1712 203.716 27.2358 203.789 27.287C204.335 27.6564 204.853 28.0793 205.383 28.4688C205.216 28.4533 204.292 28.0081 204.045 27.8968C203.907 27.8345 203.691 27.7188 203.562 27.6943C203.636 27.8167 204.266 28.3286 204.415 28.4399C204.951 28.8406 204.637 28.6736 205.692 28.7048C206.618 28.7315 207.635 28.7404 208.521 28.8606L207.095 28.9875C207.397 29.1121 208.241 29.1277 208.677 29.3035C209.042 29.4504 208.733 29.3725 209.196 29.4526C209.59 29.5216 210.945 29.8021 211.041 30.2361L209.692 30.0202C209.697 30.0313 209.703 30.0313 209.708 30.0425C209.712 30.0514 209.721 30.0536 209.723 30.0581C209.728 30.0603 209.737 30.0692 209.741 30.0714L210.974 30.8304C211.243 31.004 211.98 31.5338 212.087 31.8832C211.735 31.7986 211.388 31.507 211.045 31.4024C211.097 31.4737 211.159 31.5004 211.232 31.5671C211.593 31.8966 212.312 32.6021 212.212 33.1185L212.098 33.1074C211.74 32.9338 210.727 32.1792 210.52 31.9633C210.099 31.5271 209.645 30.7414 209.091 30.4409C209.218 30.7592 209.556 31.2088 209.741 31.4937C209.855 31.6695 210.355 32.3996 210.393 32.5509C210.113 32.4708 209.325 31.7318 209.147 31.4981C208.791 31.0307 208.461 30.6345 208.076 30.2539C208.279 30.6835 208.773 31.2333 209.042 31.7497C209.191 32.0368 209.332 32.2861 209.478 32.5621C209.612 32.8114 209.828 33.1207 209.941 33.3856C209.919 33.3678 209.915 33.3656 209.89 33.3411L209.748 33.1586C209.688 33.0829 209.628 33.0094 209.567 32.9293C209.452 32.778 209.327 32.6199 209.214 32.4619C209.102 32.3061 208.98 32.1503 208.86 31.9945C208.292 31.2667 207.64 30.6101 207.026 29.9267L206.896 29.8132C207.043 30.156 207.814 31.1954 208.065 31.5115C208.285 31.7897 209.056 33.0517 209.118 33.3611C208.833 33.399 208.519 32.8648 208.37 32.6644C207.958 32.1125 207.566 31.4959 207.181 30.9105C207.083 30.7592 206.986 30.619 206.888 30.4676C206.801 30.3318 206.669 30.1092 206.58 30.0247C206.654 30.9128 208.281 32.611 208.381 33.4234C208.239 33.4056 208.254 33.3722 208.167 33.2788C207.713 32.7846 206.458 31.1843 206.117 30.679C206.033 30.5544 205.91 30.3563 205.819 30.2606C205.957 30.6612 207.095 32.8314 207.384 33.3455C207.455 33.4702 207.609 33.6416 207.62 33.7862C207.317 33.8352 207.141 33.4835 206.992 33.2721C206.828 33.0384 206.678 32.8069 206.516 32.571C206.28 32.226 206.055 31.8543 205.79 31.5337C205.679 31.4002 205.592 31.349 205.49 31.2488C205.519 31.5449 206.605 33.1096 206.669 33.5392C206.373 33.2788 205.572 31.9989 205.267 31.5805C205.12 31.3824 204.944 31.0285 204.784 30.9039L205.744 33.1096C205.715 33.0829 205.559 32.8893 205.525 32.8492C205.452 32.7579 205.37 32.6466 205.296 32.5509L204.858 31.99L205.151 33.0184L204.648 32.2727C204.326 31.7986 203.427 30.4209 202.948 30.2228C202.977 30.3496 203.46 31.28 203.564 31.5271C203.765 32.0078 203.758 32.0902 204.145 32.3885C204.252 32.4708 204.315 32.5064 204.421 32.5999C204.597 32.7513 204.731 32.8893 204.907 33.0406C205.08 33.1875 205.238 33.3277 205.403 33.4969C205.652 33.7506 206.086 34.2069 206.191 34.6677C206.048 34.6231 206.077 34.5719 205.928 34.5408C205.991 34.6076 206.097 34.7634 206.171 34.8635C206.382 35.1573 206.767 35.6247 206.801 35.9875L206.525 35.9007C206.79 36.3214 207.529 37.4766 207.575 38.0575C207.413 38.0241 207.335 37.8572 207.215 37.7704C207.161 37.8728 207.324 38.4315 207.353 38.5984C207.448 39.1704 207.497 39.58 207.497 40.1386C207.284 39.965 206.638 38.0575 206.414 37.826C206.44 38.6585 206.429 38.5383 206.525 39.3774C206.104 38.8054 205.953 37.3275 205.537 36.6464L205.396 36.4972L205.521 38.792L205.289 38.1733C205.187 38.2823 205.189 38.4114 205.098 38.5116C204.813 37.5523 204.804 36.495 204.648 35.5046C204.608 35.2419 204.599 35.1996 204.539 35.1284L204.582 37.6658C204.45 37.1383 204.348 36.2903 204.266 35.7049C204.246 35.5646 204.203 35.1573 204.17 35.0594C204.134 35.1774 204.134 37.2585 204.152 37.4922C204.036 37.4632 204.137 37.5078 204.05 37.441C203.809 37.2651 203.845 36.9023 203.807 36.6174C203.785 36.455 203.758 36.2524 203.731 36.081C203.698 35.8562 203.738 35.7004 203.533 35.6737L203.631 36.7221C203.217 36.4394 203.286 35.6359 203.248 35.2018L203.095 33.626C203.028 33.7618 203.035 35.5246 203.017 35.9141C203.006 36.1767 202.964 36.4483 202.957 36.682C202.832 36.5017 202.532 34.2915 202.158 33.8797L202.287 35.7182C202.26 35.6937 202.274 35.7182 202.24 35.6604L201.964 35.0906L201.931 35.4712C201.844 35.3265 201.359 33.4702 201.303 33.2053L201.216 33.971C201.183 34.3627 201.129 34.6677 201.203 35.0416C201.076 34.9526 200.894 34.6499 200.867 34.4228C200.769 34.5096 200.778 34.7545 200.851 34.8657L201.412 35.4645C201.459 35.5157 201.497 35.5669 201.546 35.6225C201.917 36.0521 202.414 36.662 202.541 37.2896C202.403 37.2429 202.474 37.2229 202.356 37.145C202.538 37.5478 203.26 38.3135 203.386 39.0591C203.215 39.0013 203.124 38.8855 202.972 38.8165C203.05 39.0436 203.52 39.8715 203.691 40.2833C203.847 40.6595 204.208 41.5743 204.145 42.0194C204.083 41.9237 203.921 41.6789 203.912 41.6054C203.901 41.8013 204.421 43.4773 204.174 43.9247C204.145 43.8156 203.985 43.3393 203.91 43.2258C203.876 43.1768 203.892 43.1969 203.856 43.1657C203.894 43.4573 204.19 45.2001 204.088 45.5696C203.972 45.4627 203.698 44.8128 203.616 44.6458C203.589 44.5902 203.562 44.5368 203.54 44.4856L203.426 44.332L203.471 45.1778C203.264 44.9708 202.926 44.0449 202.895 43.6554C202.739 43.8223 202.777 44.4567 202.797 44.6414C202.732 44.5613 202.688 44.4121 202.65 44.3009C202.452 43.7222 202.358 43.297 202.311 42.6961C202.305 42.5959 202.354 42.5336 202.307 42.4468C202.209 42.518 202.14 42.5981 202.084 42.7294C202.053 42.8007 202.042 42.8474 202.031 42.9253C202.026 42.9587 202.024 42.9876 202.018 43.0233C202.018 43.0322 202.011 43.0611 202.009 43.07C201.986 43.1613 202.002 43.1034 201.986 43.1368C201.9 42.3889 201.802 42.3221 201.986 41.5208L201.815 41.7479C201.59 42.0906 201.579 42.311 201.45 42.5759C201.39 41.9371 201.539 41.2538 201.648 40.6483C201.552 40.7685 201.501 40.8976 201.426 41.0379C201.345 41.1825 201.281 41.296 201.207 41.4407C201.118 41.6166 200.889 42.1151 200.782 42.242L201.06 39.7002C200.896 39.8871 200.66 40.8398 200.524 40.9755C200.551 40.221 200.709 39.6156 200.555 38.841C200.497 38.8989 200.535 38.8455 200.497 38.93C200.31 39.3663 200.186 40.0385 199.983 40.5215C199.861 40.3278 200.032 38.8566 200.059 38.5561C199.832 38.8544 199.652 39.3552 199.52 39.7335C199.498 39.7959 199.48 39.8693 199.46 39.9428L199.36 39.7291C199.364 39.0391 199.474 38.0531 199.567 37.5144C199.614 37.2429 199.712 36.9535 199.743 36.7265C199.558 36.9268 199.351 37.3497 199.211 37.6391C198.95 38.1755 198.997 38.5561 198.91 38.7742C198.821 38.2734 198.804 37.9106 198.906 37.3787C198.955 37.1249 199.14 36.682 199.157 36.5329C198.89 36.7888 198.483 37.7392 198.452 38.1466C198.305 37.4388 198.365 36.6887 198.387 35.9831C198.37 36.0054 198.367 36.0031 198.347 36.0387C198.22 36.2546 197.918 37.0893 197.929 37.2451C197.938 37.3698 198.078 37.7971 198.2 38.1644L196.887 37.0314L196.551 35.9074C196.54 35.8696 196.531 35.8273 196.518 35.7917L196.446 35.6737C196.424 35.7561 196.391 35.8384 196.369 35.9364C196.349 36.0298 196.344 36.1255 196.324 36.2079C196.182 35.7894 196.371 35.3287 196.291 35.0772L195.714 33.33C195.661 33.1697 195.674 33.0695 195.514 33.0562C195.543 33.2521 195.701 33.9443 195.654 34.0511C195.258 33.6527 194.739 32.2749 194.575 32.1214C194.47 32.2549 194.477 32.4864 194.492 32.6734C194.563 33.5726 195.578 34.2425 195.554 35.8807C195.431 35.2508 194.724 34.7099 194.454 34.0511C194.388 33.8886 194.258 33.3834 194.205 33.2921C194.083 33.4835 194.163 33.8219 194.181 34.0333C194.227 34.6432 194.915 35.6403 195.02 36.7732C194.948 36.7599 195.033 36.8 194.971 36.7488C194.833 36.6375 194.766 36.4038 194.619 36.3125C194.646 36.6664 194.946 37.461 194.937 37.6101C194.644 37.3119 194.321 36.7599 194.265 36.7176C194.388 37.3186 194.425 37.441 194.459 38.0152C194.454 38.0086 194.45 37.9908 194.45 37.9952L194.35 37.7303C194.152 37.2407 193.653 36.8623 193.299 36.1945L193.195 36.0677C193.183 36.5351 193.497 37.0381 193.66 37.441C193.753 37.6702 194.094 38.6407 194.083 38.8699C193.784 38.7164 193.39 38.0286 193.175 37.6947C193.094 37.5701 192.985 37.3386 192.896 37.2607C192.883 37.7927 193.453 38.5427 193.669 38.9679C193.851 39.3284 193.813 39.5889 193.925 39.9895C194.014 40.3122 194.152 40.6506 194.23 40.9622C193.833 40.8309 193.368 39.7914 193.101 39.5488C193.186 40.0585 193.515 40.8731 193.62 41.5164C193.328 41.5609 192.22 39.7246 192.077 39.4754C191.993 39.324 191.71 38.8254 191.623 38.7364C191.352 39.1704 192.665 41.6166 193.003 42.1975C193.106 42.3733 193.562 43.139 193.595 43.2659C193.141 42.9008 192.355 41.4919 192.097 41.3072C192.157 41.5832 192.525 42.863 192.478 43.001C192.284 42.6805 192.088 42.36 191.888 42.0461L192.418 44.0271C192.253 43.9336 191.955 43.346 191.866 43.1835C191.73 42.9342 191.541 42.5046 191.383 42.2887C191.298 42.6805 191.503 43.3994 191.576 43.78C191.438 43.7132 191.234 43.3104 191.169 43.1768C191.209 43.8446 191.316 44.5101 191.352 45.1778C191.12 45.111 190.831 44.6525 190.699 44.332C190.457 43.74 190.372 42.9654 190.401 42.3065C190.406 42.193 190.468 41.7412 190.39 41.6455C190.308 41.9749 190.225 42.3088 190.165 42.6738C190.123 42.9364 190.074 43.5307 190.005 43.7466C189.518 43.0856 189.934 41.4719 190.072 40.8709C189.88 41.1269 189.678 41.7412 189.533 42.0773C189.478 42.2064 189.429 42.38 189.333 42.4779L189.46 41.4429C189.284 41.5854 189.255 41.8859 189.075 42.0194C188.939 41.3784 189.431 40.4213 189.676 39.9962C189.961 39.4976 190.243 39.0057 190.606 38.5606C190.668 38.4849 190.695 38.4426 190.74 38.3558C190.446 38.447 190.032 38.9968 189.849 39.2572L189.324 40.0184C189.188 40.2232 189.09 40.4369 188.926 40.635C188.774 40.3902 189.308 39.4242 189.413 39.2594L189.818 38.6652C189.936 38.4893 190.205 38.2601 190.272 38.1065C189.627 38.2912 188.97 39.0858 188.529 39.3774L188.707 38.9501L188.465 38.9835C188.456 38.6607 189.678 37.2985 190.056 36.9335C190.15 36.8445 190.254 36.751 190.328 36.6508C190.07 36.6931 189.52 37.1338 189.34 37.2874C189.133 37.4632 188.623 37.9485 188.451 38.0486C188.509 37.9039 188.952 37.461 189.135 37.2473C189.337 37.0092 189.598 36.6686 189.805 36.4683C189.498 36.5484 188.289 37.628 187.98 37.7036C188.142 36.9023 189.273 35.9831 189.907 35.4623C190.056 35.3398 190.212 35.2085 190.381 35.0861C190.55 34.9637 190.695 34.8457 190.864 34.7211C191.04 34.592 191.191 34.4785 191.345 34.3538C190.944 34.3872 189.989 35.0683 189.696 35.282L188.612 36.13C188.529 36.2012 188.342 36.3726 188.242 36.4193C188.305 36.15 188.603 35.8251 188.616 35.6782C188.643 35.3777 188.614 33.9866 188.576 33.7284C188.34 34.1246 188.2 35.4422 188.133 36.012L188.098 36.2769C188.098 36.2769 188.093 36.2925 188.091 36.2992L188.075 36.3392C188.075 36.3392 188.071 36.3526 188.066 36.3593L187.971 35.8473C187.859 36.0321 187.757 36.7844 187.699 37.0671C187.675 37.1872 187.67 37.3653 187.597 37.4699L187.325 35.9297C187.272 36.0343 187.047 37.7125 186.824 38.0998L186.566 36.4193C186.415 36.6464 186.263 37.7815 186.121 38.131C185.963 37.924 185.93 36.8467 185.876 36.5017C185.863 36.524 185.44 39.0881 185.326 39.4709C185.133 39.3284 184.977 38.5739 184.932 38.3046C184.926 38.3179 184.741 39.1548 184.628 39.4731C184.57 39.3596 184.507 37.826 184.238 37.4143L184.116 39.0881C184.084 39.3663 184.055 39.6245 184.022 39.8938C184.002 40.0652 183.989 40.5994 183.889 40.7018C183.857 40.3145 183.802 40.0496 183.708 39.6979C183.668 39.5466 183.626 39.4086 183.579 39.2505C183.541 39.1215 183.512 38.9323 183.419 38.8299C183.165 39.0324 182.958 40.1386 182.9 40.4124C182.822 40.7819 182.655 41.9348 182.589 42.1485C182.551 42.1151 182.573 42.1752 182.524 42.0595C182.471 41.9371 182.466 41.808 182.455 41.67C182.351 40.3033 182.905 38.5806 182.894 38.2311C182.856 38.3469 182.78 38.4982 182.738 38.6318C182.689 38.7831 182.638 38.9478 182.591 39.097C182.433 39.6178 181.905 41.6967 181.814 41.9215C181.734 41.5431 181.939 40.201 181.923 39.6868C181.498 39.9405 181.002 42.0217 180.87 42.6827L180.799 43.0233C180.781 43.0833 180.799 43.0455 180.775 43.09C180.77 43.0967 180.766 43.1056 180.761 43.1123C180.757 43.119 180.75 43.1279 180.746 43.1345C180.741 43.1412 180.735 43.1501 180.728 43.1568C180.748 42.567 180.744 42.1819 180.828 41.6255C180.861 41.4051 180.91 41.1825 180.962 40.9599C181.002 40.7863 181.12 40.4436 181.126 40.2944C180.706 40.5949 180.565 41.2938 180.383 41.5008C180.39 40.7507 180.824 39.8782 181.117 39.2083C181.206 39.0013 181.411 38.7208 181.454 38.5116C181.331 38.6318 181.242 38.7609 181.135 38.8766C181.342 38.3647 182.008 37.441 182.339 36.9513C182.502 36.7132 182.62 36.5707 182.789 36.3414C183.163 35.8295 183.566 35.3821 183.969 34.9036C184.218 34.6076 184.483 34.3471 184.772 34.0845C185.54 33.3901 186.252 32.7357 187.174 32.1881C188.3 31.5182 188.97 31.231 190.212 30.8104C190.27 30.2895 190.395 29.9178 190.624 29.5662C190.165 29.6129 189.622 30.57 189.538 30.9573C189.342 30.7369 189.529 30.1115 189.564 29.8822C189.273 30.1204 188.959 31.0619 188.854 31.1353C188.914 30.8237 188.921 30.4654 189.021 30.0046C189.09 29.6841 189.237 29.2301 189.273 28.9407C188.885 29.1878 188.572 30.1627 188.398 30.6501L188.32 30.7881L188.2 29.6507C187.98 29.7865 187.639 31.1242 187.554 31.4848L187.261 29.9957L186.722 32.0857C186.655 31.9878 186.515 30.2539 186.484 29.9668C186.246 30.2651 186.121 32.1036 185.994 32.5198C185.892 32.3729 185.832 31.5538 185.732 31.329C185.607 31.487 185.542 31.9945 185.498 32.2326C185.458 32.4441 185.384 33.0295 185.329 33.1719C184.921 32.6711 185.03 30.2339 184.939 30.1003C184.605 30.363 184.65 31.5404 184.599 32.0257C184.554 32.4419 184.331 33.6193 184.131 33.8575L183.96 32.0257L183.363 34.1691C183.345 33.4724 183.359 32.7824 183.234 32.0969C183.096 32.1703 183.121 32.2883 183.094 32.4597C182.98 33.1452 182.923 33.8441 182.818 34.5363C182.798 34.6699 182.776 34.7968 182.751 34.9325C182.738 35.0037 182.722 35.0728 182.702 35.1328C182.671 35.2286 182.673 35.2419 182.6 35.2708C182.384 34.9726 182.444 32.7557 182.442 32.4419C182.375 32.4819 182.388 32.4552 182.326 32.5532C182.124 32.8625 182.034 33.3945 181.965 33.7529C181.921 33.9843 181.772 35.1818 181.727 35.2597C181.529 34.6877 181.523 34.4518 181.54 33.8797L181.104 35.0839C181.033 35.2976 180.75 36.2012 180.677 36.2992C180.539 36.0966 180.634 35.0683 180.663 34.8435C180.723 34.3783 180.846 33.9843 180.926 33.557C180.559 33.7351 180.129 34.888 179.875 35.2909C179.829 34.8902 180.038 34.1691 180.167 33.8552C180.303 33.5281 180.434 33.2476 180.643 32.9738C180.688 32.916 180.801 32.7713 180.833 32.709C180.474 32.8714 180.203 33.1875 179.936 33.4435C179.851 33.5258 179.751 33.6549 179.666 33.715C179.637 33.2676 180.352 32.1926 180.67 31.8676C180.781 31.7541 180.861 31.6717 180.971 31.5582L181.567 30.9506C181.104 31.004 180.695 31.2177 180.405 31.4536C180.249 31.5827 180.129 31.7029 180 31.832C179.933 31.8988 179.869 31.9767 179.815 32.0524L179.626 32.2883C179.733 31.7697 180.367 31.1442 180.688 30.8349C180.868 30.6612 181.158 30.4342 181.38 30.2695C181.48 30.1961 182.106 29.7798 182.139 29.7264C181.841 29.7309 181.422 29.8488 181.164 29.9534C180.915 30.0536 180.686 30.1983 180.445 30.2918C180.81 29.9379 181.494 29.5973 181.999 29.3547C182.295 29.2123 182.558 29.0921 182.86 28.9563L183.635 28.6247C183.777 28.5534 183.693 28.6269 183.728 28.5378C183.374 28.5423 182.845 28.569 182.58 28.7582C182.649 28.6625 183.69 28.2374 183.884 28.1639C184.692 27.8545 184.2 28.066 184.828 27.2513C185.082 26.9219 185.424 26.6036 185.772 26.3388C185.963 26.1919 186.108 26.0828 186.31 25.9404C186.455 25.838 186.755 25.6866 186.873 25.5709C186.146 25.6376 184.434 27.0666 183.742 27.6141C183.588 27.7343 183.472 27.8545 183.332 27.948C183.325 27.7633 183.677 27.3982 183.773 27.2936C183.86 27.1979 183.958 27.1222 184.058 27.0265C184.147 26.942 184.303 26.8396 184.358 26.755L184.067 26.8062C184.167 26.4367 184.774 25.878 185.102 25.6354C185.313 25.4774 185.516 25.3305 185.758 25.1725C185.925 25.0634 186.324 24.8519 186.457 24.7384C185.571 24.5715 183.719 25.9315 182.934 26.4946C182.791 26.597 182.638 26.7461 182.48 26.824C182.598 26.2943 183.303 25.8068 183.728 25.5086C183.844 25.4284 184.182 25.2637 184.262 25.1658C183.524 25.1969 181.874 26.7283 181.563 26.8129C181.598 26.5903 181.745 26.4345 181.801 26.2386C181.496 26.3566 181.22 26.5257 180.886 26.6526C180.565 26.775 180.207 26.8863 179.849 26.9687C179.853 26.962 179.862 26.9442 179.867 26.9509L180.031 26.8351C180.094 26.7951 180.143 26.7661 180.214 26.7216C180.345 26.6437 180.452 26.5703 180.583 26.4768C180.824 26.3054 181.064 26.1407 181.3 25.9604C181.427 25.8647 182.595 25.03 182.655 24.8764C181.859 24.8319 180.715 25.4796 180.33 25.5464C180.39 25.3772 180.772 25.2348 180.902 25.1035C180.557 25.1391 180.129 25.3216 179.726 25.3527C179.292 25.3861 178.858 25.4329 178.422 25.4306C178.402 25.1658 180.254 24.6405 180.376 24.6093L182.13 24.2042C182.306 24.1686 182.58 24.1352 182.745 24.0774C182.497 23.8971 182.108 23.8259 181.841 23.6678C181.945 23.561 182.431 23.561 182.6 23.5476C183.715 23.4608 184.812 23.719 185.841 23.8414C185.749 23.6656 185.233 23.4631 184.988 23.3673L184.022 23.0001C184.632 23.0357 184.973 23.0802 185.522 23.2427C185.976 23.3762 186.439 23.6033 186.809 23.7146C186.753 23.6122 186.103 23.0936 185.936 22.9756C185.883 22.9378 185.665 22.753 185.654 22.7486C186.27 22.6662 187.879 23.63 188.456 24.093C188.258 23.7591 187.421 23.0468 187.294 22.7731C187.55 22.8354 188.623 23.7012 188.825 23.8726C189.064 24.0751 189.193 24.2621 189.406 24.2643C189.887 24.2666 190.408 24.4135 190.893 24.3756C190.731 24.1241 189.498 24.093 189.426 23.7925C189.711 23.7212 190.005 23.8414 190.277 23.8503C190.065 23.6589 189.782 23.5276 189.569 23.3495C189.409 23.216 189.026 22.9111 188.934 22.7797L189.544 22.7375C189.222 22.3836 188.16 22.1654 187.786 21.5578C188.198 21.7225 188.772 21.8783 189.275 21.8961C189.19 21.6958 188.552 21.3552 188.3 21.2172C188.064 21.0904 187.383 20.7988 187.223 20.6719L188.636 20.9991C188.503 20.8678 188.316 20.7966 188.158 20.692C187.862 20.4961 187.071 19.8751 186.982 19.5279C187.341 19.5301 188.029 19.9063 188.138 20.1088C188.118 19.8283 187.45 19.1206 187.225 18.918C187.063 18.7711 186.617 18.3905 186.555 18.2837C186.871 18.3148 187.127 18.4751 187.381 18.6398C187.55 18.7488 187.884 19.056 188 19.2407L187.819 18.4261C188.195 18.4907 188.723 19.7638 188.952 19.9552C189.05 19.7171 188.905 19.2786 188.854 19.0449C189.028 19.125 189.135 19.2942 189.239 19.4522C189.46 19.7838 189.638 20.1578 189.787 20.5384C189.827 20.643 189.867 20.7365 189.907 20.8389C189.969 20.9969 189.965 21.057 190.043 21.1438C190.027 20.8589 189.956 20.5762 189.905 20.2958C190.292 20.5673 190.584 21.6335 190.826 22.1387C190.753 21.5177 190.363 20.663 190.156 20.0554C190.626 20.3803 191.245 22.2945 191.547 22.8576C191.563 22.2812 191.396 21.7047 191.292 21.1438C191.361 21.1727 191.407 21.2707 191.441 21.3419C191.694 21.8649 191.835 22.4325 191.95 23.0045L192.017 23.2828C192.017 23.2828 192.024 23.2983 192.028 23.305C192.073 22.9623 191.924 22.6106 191.884 22.2812L192.004 22.4481C192.037 22.506 192.084 22.5661 192.104 22.6084C192.044 22.1988 191.95 21.7781 191.964 21.3619C192.431 21.6379 192.62 23.995 192.745 24.3022L192.816 22.8487C192.965 22.9066 192.979 23.1136 193.005 23.2538C193.037 23.4274 193.054 23.5877 193.07 23.768C193.099 24.1352 193.11 24.4869 193.139 24.8386C193.161 24.7919 193.15 24.8275 193.17 24.7562L193.337 24.0596C193.459 24.6405 193.484 25.2548 193.573 25.8714L193.762 25.4151C193.787 25.4485 193.767 25.4151 193.793 25.4774C193.849 25.6043 193.88 26.0828 193.907 26.2364L193.931 26.1941C193.931 26.1941 193.94 26.1785 193.945 26.1741C193.949 26.1696 193.954 26.1607 193.958 26.154C194.003 26.0939 193.949 26.1429 194.018 26.0917C194.294 26.1985 194.47 27.2558 194.539 27.623C194.648 28.2084 194.728 28.8027 194.871 29.3814C194.855 28.9785 194.75 28.5557 194.706 28.1595C194.672 27.8523 194.635 27.3448 194.552 27.0755C194.076 25.5152 194.089 25.6799 193.969 24.1308C193.962 24.044 193.976 23.9817 193.994 23.9038C194.256 23.9972 194.372 25.1168 194.588 25.2125C194.69 24.36 194.503 24.34 194.201 23.4942C194.154 23.3673 193.586 21.925 193.976 21.8427C194.06 22.0207 194.192 22.6707 194.254 22.8999C194.323 23.147 194.448 23.7057 194.597 23.8726C194.59 23.4875 194.381 22.1076 194.31 21.698C194.212 21.1304 194.003 20.2935 194.009 19.7215C194.096 19.8172 194.63 21.4131 194.635 21.5978C194.628 21.0459 194.368 18.9759 194.717 18.7266L194.902 19.6814C194.953 20.0153 195.029 20.3826 195.053 20.7164L195.118 19.2318C195.262 19.4744 195.282 20.2935 195.434 20.5695C195.383 19.9218 195.369 17.745 195.83 17.5313C195.799 18.0633 195.772 18.7021 195.776 19.2274C195.863 18.8334 195.919 18.4417 196.01 18.041C196.057 17.8385 196.188 17.0417 196.413 16.9571L196.502 18.2592C196.553 18.208 196.518 18.2592 196.555 18.1835C196.555 18.1813 196.587 18.1078 196.587 18.1011C196.885 17.2999 197.332 16.6944 197.958 16.1291C198.038 16.0579 198.031 16.0467 198.134 16.0401C197.94 16.4274 197.553 16.9927 197.481 17.5091M190.141 25.01C190.121 24.9365 189.985 24.6494 189.943 24.6205C189.912 24.5982 189.6 24.5003 189.533 24.4958L190.141 25.01ZM196.647 24.4335C196.738 24.3845 196.852 24.1798 196.88 24.0796L196.3 24.458L196.647 24.4335ZM191.071 24.9365C191.007 24.9187 190.944 24.9031 190.875 24.8853C190.744 24.8475 190.602 24.8119 190.477 24.774C190.508 24.8497 190.686 24.9855 190.78 24.9966C190.926 25.0144 191.149 25.01 191.287 25.0144L191.071 24.9365ZM204.039 24.7318C203.958 24.6628 203.874 24.596 203.792 24.5359C203.994 24.872 204.355 25.1903 204.573 25.5108C204.682 25.493 204.762 25.464 204.84 25.4017L204.036 24.7318H204.039ZM186.994 26.0005C186.918 25.9626 186.869 25.9849 186.773 26.0316C186.315 26.2609 185.974 26.5302 185.594 26.8529L184.445 27.9436C184.886 27.8679 184.912 27.7254 185.115 27.4917C185.447 27.1089 185.91 26.7617 186.317 26.4501C186.466 26.3365 186.836 26.0605 186.994 26.0005ZM196.175 25.4885L196.237 25.2459L196.03 25.424C195.975 25.4818 196.004 25.4462 195.986 25.4952L196.175 25.4885ZM205.977 24.9632C205.866 24.8898 205.334 24.734 205.247 24.7228C205.323 24.872 205.459 25.0144 205.545 25.1368L205.979 24.9632H205.977ZM186.11 27.5051C186.288 27.4784 186.437 27.4517 186.615 27.425C186.851 27.3871 186.913 27.425 187.038 27.3092C187.928 26.4723 188.347 26.4545 188.948 26.0494C188.402 26.0338 187.73 26.3699 187.318 26.6103C187.034 26.775 186.237 27.327 186.112 27.5073M192.538 26.4189C192.46 26.272 191.901 26.0249 191.795 25.9982C191.866 26.0962 191.957 26.1807 192.046 26.2831C192.18 26.4367 192.224 26.4634 192.538 26.4189ZM187.323 27.3404C188.463 27.2781 187.986 27.445 188.674 26.9063C188.843 26.775 189.664 26.2186 189.731 26.1384C189.166 26.2253 188.803 26.4055 188.374 26.6482C188.091 26.8062 187.508 27.149 187.325 27.3426M202.73 25.9804C202.634 25.9181 202.521 25.8335 202.434 25.7623C202.365 25.7066 202.349 25.7066 202.28 25.6577C202.169 25.5798 201.964 25.3928 201.857 25.3527C201.882 25.4996 202.269 26.2787 202.367 26.5235C202.512 26.4968 202.919 26.2898 203.021 26.2097L202.728 25.9804H202.73ZM202.1 26.6593C202.02 26.5324 201.951 26.5079 201.828 26.4078C201.722 26.321 201.681 26.2542 201.579 26.1652L201.054 25.7133C201.083 25.789 201.786 26.7105 201.875 26.7772C201.96 26.7594 202.04 26.7194 202.102 26.6593M185.113 27.7432C185.756 27.6075 185.556 27.6186 185.818 27.3693C185.981 27.2135 186.203 27.0688 186.379 26.9108C186.061 26.9887 185.228 27.4962 185.113 27.7432ZM201.105 27.1712C201.054 27.1222 201.005 27.0755 200.898 27.0777V27.2847C200.936 27.2691 200.985 27.2513 201.012 27.238L201.105 27.1712ZM200.306 27.5808C200.199 27.5385 199.772 27.3493 199.672 27.356C199.763 27.485 199.885 27.6453 199.977 27.7789C200.094 27.7321 200.246 27.6609 200.306 27.5808ZM199.732 27.9169C199.683 27.8367 199.418 27.7321 199.318 27.6787C199.193 27.6141 199.015 27.5184 198.886 27.4739C198.855 27.5296 198.906 27.465 198.861 27.5385L198.565 27.5607C198.621 27.6587 199.166 28.086 199.289 28.1639L199.732 27.9146V27.9169ZM194.497 29.7197C194.443 29.5795 194.359 29.4259 194.29 29.2835C194.214 29.1232 194.156 28.9941 194.087 28.8294C193.833 28.2173 194.067 28.175 193.493 28.1817C193.499 28.2173 194.374 29.7242 194.432 29.7687L194.497 29.722V29.7197ZM198.363 28.1483C198.43 28.2351 198.652 28.4243 198.73 28.4755C198.819 28.4177 198.957 28.3709 199.028 28.2819L198.363 28.1506V28.1483ZM204.539 28.6937C204.417 28.6202 204.123 28.5289 203.981 28.4822L202.256 27.8768C202.285 28.017 202.71 28.5957 202.803 28.7849L204.539 28.6959V28.6937ZM198.514 28.5979C198.405 28.5289 197.775 28.3843 197.68 28.3687C197.744 28.4688 198.029 28.7404 198.127 28.8183L198.516 28.5979H198.514ZM197.136 29.1878C197.19 29.2412 197.259 29.2746 197.341 29.2612L197.891 28.9452C197.655 28.9452 197.319 29.0965 197.136 29.19M190.401 30.7547C190.577 30.7258 190.782 30.6612 190.973 30.619C191.458 30.5121 191.352 30.6056 191.436 30.3697C191.499 30.1983 191.568 30.0714 191.643 29.9023C191.703 29.7665 191.803 29.5951 191.848 29.466C191.463 29.5105 190.528 30.5121 190.401 30.7547ZM201.624 28.7204C201.653 28.796 201.702 28.8339 201.766 28.9073L201.96 28.8628L201.624 28.7181V28.7204ZM192.168 30.4231C192.32 30.0647 192.502 29.8666 192.62 29.6107C192.391 29.6975 191.917 30.2918 191.806 30.4654L192.168 30.4209V30.4231ZM200.72 29.0854C200.595 29.0208 200.108 29.0231 199.934 29.0364C199.204 29.0943 198.57 29.1544 197.849 29.417C197.826 29.4794 197.927 29.4972 197.769 29.5105C197.139 29.5595 196.954 29.7865 196.458 29.9379L196.535 30.1404C196.86 30.0825 197.245 29.9468 197.568 29.8577C197.915 29.7643 198.252 29.6752 198.601 29.5862L200.72 29.0832V29.0854ZM196.785 29.584C196.785 29.584 196.794 29.5706 196.798 29.5662L196.311 29.6173L196.411 29.8177L196.785 29.584ZM193.172 30.0848C192.999 30.0848 192.723 30.2317 192.651 30.3875C192.729 30.3875 193.028 30.3941 193.025 30.363L193.172 30.0848ZM195.93 30.0981C195.93 30.0981 195.912 30.0781 195.883 30.0603L195.679 30.0002L195.788 30.176L195.93 30.0981ZM195.863 30.2495C195.919 30.3541 195.928 30.3341 196.059 30.2918C196.15 30.2628 196.193 30.2562 196.275 30.2094C196.113 30.1248 195.995 30.1137 195.863 30.2495ZM202.481 31.3401C202.467 31.1843 201.9 30.4342 201.497 30.3519C200.858 30.2183 196.273 30.2829 196.017 30.4631C198.096 30.3007 200.66 30.4476 202.481 31.3423M203.231 31.6918C203.075 31.3579 202.955 31.0129 202.663 30.8771C202.696 31.0196 202.763 31.3223 202.814 31.4469C202.866 31.5716 203.166 31.694 203.228 31.6918M197.662 32.384C197.651 32.2037 197.535 31.9121 197.401 31.852C197.328 31.9166 197.326 31.9878 197.328 32.1058C197.41 32.2438 197.559 32.2927 197.662 32.384ZM198.071 32.6756C198.038 32.5042 197.947 32.3462 197.842 32.2794C197.773 32.3462 197.784 32.3328 197.769 32.4463C197.84 32.5309 197.969 32.6266 198.071 32.6756ZM190.668 33.5659C190.746 33.5258 191.098 33.2231 191.14 33.1385C191.018 33.1808 190.955 33.2343 190.846 33.3055C190.697 33.4034 190.708 33.3767 190.668 33.5659ZM189.814 33.232C189.651 33.3166 189.495 33.8063 189.484 33.9621C189.564 33.9042 189.811 33.675 189.84 33.5904L189.814 33.232ZM198.556 32.8247L198.539 33.025C198.563 33.0473 198.57 33.0584 198.601 33.0784C198.648 33.1096 198.605 33.0829 198.674 33.1074L198.556 32.8225V32.8247ZM189.742 34.1891C189.204 34.6766 189.391 34.4228 189.25 34.937L190.212 33.9999C190.412 33.8152 190.477 33.8308 190.428 33.6149C190.212 33.7662 189.947 34.0021 189.742 34.1891ZM199.48 33.7217C199.462 33.6416 199.313 33.4056 199.26 33.2788C199.157 33.0339 199.131 32.8915 198.986 32.8692C199.002 33.0673 198.959 33.3455 199.091 33.4479L199.482 33.7217H199.48ZM200.072 34.158C200.057 34.011 200.012 33.8753 199.979 33.7284L199.908 33.4079C199.867 33.301 199.89 33.3567 199.85 33.3166C199.859 33.5058 199.87 33.6616 199.87 33.8441C199.87 33.9287 199.823 34.0422 200.072 34.158ZM189.055 34.8346C188.943 34.8925 188.834 34.9971 188.799 35.1262C188.763 35.253 188.716 35.4311 188.707 35.5713C188.825 35.4956 188.95 35.2708 189.081 35.164L189.055 34.8346ZM197.294 35.3599C197.268 34.9837 197.35 34.7901 197.412 34.4696C197.277 34.5541 197.161 34.6699 197.065 34.7923C197.083 34.8969 197.219 35.3109 197.294 35.3599ZM200.553 34.0667C200.444 33.468 200.475 33.2343 200.293 32.5509C200.266 32.4485 200.097 31.95 200.097 31.9366C200.092 32.1481 200.199 34.2492 200.31 34.3805L200.718 34.7522L200.553 34.0667ZM197.639 36.4661C197.697 36.6442 197.751 36.8 197.806 36.9736C197.869 36.8467 197.855 36.1879 197.873 35.9764C197.9 35.6314 197.971 35.3777 198.013 35.0638C197.951 35.1106 197.967 35.0906 197.924 35.164L197.579 35.943C197.49 36.1834 197.562 36.2235 197.642 36.4683" fill="#046734"/>
<mask id="mask4_472_43" style="mask-type:luminance" maskUnits="userSpaceOnUse" x="178" y="16" width="35" height="30">
<path d="M194.957 36.7666C194.957 36.7666 194.968 36.771 194.962 36.7643C194.957 36.7643 194.957 36.7643 194.957 36.7666ZM198.004 35.0549C197.962 35.371 197.891 35.6247 197.864 35.9675C197.849 36.179 197.86 36.8378 197.797 36.9647C197.742 36.7911 197.688 36.6353 197.63 36.4572C197.55 36.2146 197.479 36.1723 197.568 35.9319L197.913 35.1529C197.955 35.0817 197.94 35.1017 198.002 35.0527M188.79 35.1195C188.825 34.9904 188.934 34.8858 189.046 34.8279L189.072 35.1573C188.941 35.2642 188.816 35.489 188.698 35.5646C188.707 35.4244 188.754 35.2464 188.79 35.1195ZM197.403 34.4629C197.341 34.7834 197.259 34.977 197.285 35.3532C197.21 35.3042 197.072 34.8902 197.056 34.7856C197.154 34.6654 197.268 34.5497 197.403 34.4629ZM189.733 34.1824C189.94 33.9955 190.203 33.7595 190.421 33.6082C190.47 33.8219 190.403 33.8085 190.205 33.9932L189.244 34.9303C189.384 34.4161 189.195 34.6699 189.736 34.1824M199.863 33.8397C199.863 33.6571 199.852 33.5013 199.843 33.3122C199.883 33.3522 199.863 33.2966 199.901 33.4034L199.972 33.7217C200.005 33.8686 200.048 34.0044 200.065 34.1513C199.816 34.0378 199.865 33.922 199.863 33.8397ZM189.805 33.2253L189.831 33.5837C189.802 33.6683 189.555 33.8975 189.475 33.9554C189.486 33.7996 189.642 33.3099 189.805 33.2253ZM191.131 33.1296C191.089 33.2142 190.737 33.5169 190.659 33.557C190.699 33.3678 190.688 33.3945 190.837 33.2966C190.946 33.2253 191.009 33.1697 191.131 33.1296ZM199.079 33.4412C198.948 33.3389 198.99 33.0606 198.975 32.8625C199.12 32.8848 199.146 33.0273 199.249 33.2721C199.302 33.399 199.451 33.6349 199.469 33.715L199.077 33.4412H199.079ZM198.592 33.0718C198.561 33.0517 198.554 33.0406 198.53 33.0184L198.547 32.818L198.665 33.1029C198.596 33.0784 198.639 33.1029 198.592 33.0718ZM197.76 32.4396C197.775 32.3261 197.764 32.3395 197.833 32.2727C197.938 32.3395 198.029 32.4975 198.062 32.6689C197.96 32.6199 197.831 32.5242 197.76 32.4396ZM200.299 34.3739C200.186 34.2425 200.081 32.1414 200.086 31.9299C200.086 31.9433 200.255 32.4419 200.281 32.5443C200.464 33.2298 200.433 33.4613 200.542 34.06L200.707 34.7456L200.299 34.3739ZM197.321 32.0991C197.319 31.9834 197.321 31.9121 197.395 31.8454C197.528 31.9055 197.642 32.197 197.655 32.3773C197.553 32.2861 197.403 32.2371 197.321 32.0991ZM202.808 31.4403C202.756 31.3156 202.687 31.0129 202.656 30.8705C202.948 31.0062 203.068 31.3512 203.224 31.6851H203.222C203.153 31.6851 202.859 31.5627 202.81 31.4403M201.486 30.3452C201.891 30.4298 202.456 31.1776 202.472 31.3334C200.651 30.4409 198.085 30.2918 196.008 30.4542C196.264 30.2762 200.849 30.2116 201.488 30.343M195.854 30.2428C195.986 30.107 196.104 30.1182 196.266 30.2027C196.184 30.2495 196.141 30.2562 196.05 30.2829C195.988 30.3029 195.954 30.3185 195.93 30.3185C195.901 30.3185 195.885 30.2984 195.854 30.2428ZM193.163 30.0781L193.016 30.3563C193.016 30.3808 192.834 30.3808 192.716 30.3808C192.685 30.3808 192.658 30.3808 192.642 30.3808C192.714 30.225 192.99 30.0803 193.163 30.0781ZM195.67 29.9957L195.874 30.0558C195.903 30.0736 195.91 30.0848 195.921 30.0937L195.779 30.1738L195.67 29.9957ZM192.611 29.604C192.491 29.86 192.311 30.0558 192.16 30.4164L191.797 30.4609C191.908 30.2851 192.382 29.693 192.611 29.6062M196.789 29.5595C196.789 29.5595 196.778 29.5662 196.776 29.5773L196.402 29.811L196.304 29.6107L196.791 29.5573M191.839 29.4571C191.794 29.5862 191.694 29.7576 191.634 29.8933C191.559 30.0647 191.49 30.1916 191.427 30.363C191.343 30.6011 191.449 30.5077 190.964 30.6123C190.771 30.6546 190.566 30.7169 190.392 30.748C190.519 30.5054 191.456 29.5038 191.839 29.4593M196.451 29.9334C196.947 29.7821 197.132 29.555 197.762 29.5061C197.918 29.4927 197.82 29.4771 197.842 29.4126C198.563 29.1477 199.197 29.0876 199.927 29.032C200.101 29.0186 200.589 29.0164 200.713 29.0809L198.594 29.5817C198.245 29.673 197.909 29.7598 197.561 29.8555C197.239 29.9423 196.854 30.0781 196.529 30.136L196.451 29.9334ZM197.127 29.1811C197.312 29.0898 197.648 28.9363 197.882 28.9363L197.332 29.2523C197.319 29.2523 197.308 29.2545 197.297 29.2545C197.23 29.2545 197.172 29.2234 197.127 29.1789M201.617 28.7137L201.953 28.8561L201.759 28.9006C201.693 28.8272 201.646 28.7871 201.617 28.7137ZM197.668 28.362C197.764 28.3776 198.394 28.5223 198.503 28.5913L198.113 28.8116C198.016 28.7337 197.733 28.4622 197.668 28.362ZM193.484 28.1728C194.06 28.1661 193.824 28.2084 194.078 28.8205C194.147 28.9852 194.205 29.1165 194.281 29.2746C194.347 29.417 194.434 29.5706 194.488 29.7108L194.423 29.7576C194.363 29.7131 193.488 28.2062 193.484 28.1706M198.354 28.1417L199.019 28.273C198.948 28.3642 198.81 28.4087 198.721 28.4666C198.643 28.4177 198.421 28.2285 198.354 28.1417ZM202.245 27.8679L203.97 28.4733C204.112 28.5223 204.406 28.6113 204.528 28.6847L202.792 28.7738C202.699 28.5868 202.273 28.0059 202.245 27.8657M198.877 27.4672C199.006 27.5095 199.184 27.6075 199.309 27.672C199.411 27.7254 199.674 27.83 199.723 27.9102L199.28 28.1595C199.157 28.0816 198.612 27.6542 198.556 27.5563L198.852 27.534C198.877 27.494 198.872 27.494 198.868 27.494C198.864 27.494 198.861 27.494 198.877 27.4695M199.663 27.3493C199.763 27.3404 200.19 27.5318 200.297 27.5741C200.237 27.6564 200.083 27.7277 199.968 27.7722C199.876 27.6386 199.754 27.4784 199.663 27.3493ZM200.889 27.0733C200.998 27.0688 201.045 27.1178 201.096 27.1668L201.003 27.2335C200.976 27.2469 200.927 27.2669 200.889 27.2803V27.0733ZM186.37 26.9041C186.194 27.0622 185.972 27.2068 185.809 27.3626C185.547 27.6119 185.747 27.6008 185.104 27.7366C185.22 27.4917 186.052 26.982 186.37 26.9041ZM189.72 26.1295C189.653 26.2097 188.832 26.7661 188.663 26.8974C187.975 27.4361 188.451 27.2691 187.312 27.3315C187.494 27.1378 188.077 26.7951 188.36 26.637C188.79 26.3966 189.152 26.2141 189.718 26.1273M187.307 26.6014C187.719 26.361 188.391 26.0249 188.937 26.0405C188.338 26.4478 187.917 26.4656 187.027 27.3025C186.902 27.4183 186.84 27.3804 186.604 27.4183C186.424 27.445 186.275 27.4717 186.099 27.4984C186.223 27.3203 187.02 26.7683 187.305 26.6014M192.037 26.2764C191.948 26.1741 191.857 26.0895 191.786 25.9915C191.892 26.0183 192.451 26.2653 192.529 26.4122C192.44 26.4256 192.373 26.4323 192.318 26.4323C192.182 26.4323 192.131 26.3877 192.035 26.2764M185.585 26.8462C185.965 26.5235 186.306 26.2542 186.764 26.0249C186.86 25.9782 186.909 25.9559 186.985 25.9938C186.827 26.0539 186.457 26.3299 186.308 26.4434C185.898 26.755 185.438 27.1022 185.106 27.485C184.903 27.7188 184.879 27.8634 184.436 27.9369L185.585 26.844V26.8462ZM201.043 25.7066L201.568 26.1585C201.67 26.2475 201.71 26.3143 201.817 26.4011C201.94 26.5013 202.011 26.5257 202.089 26.6526C202.026 26.7149 201.946 26.7528 201.862 26.7706C201.773 26.7038 201.067 25.7846 201.04 25.7066M201.848 25.3461C201.955 25.3861 202.16 25.5731 202.271 25.651C202.34 25.6977 202.354 25.6977 202.425 25.7556C202.512 25.8268 202.627 25.9114 202.721 25.9737L203.015 26.203C202.912 26.2854 202.505 26.4923 202.36 26.5168C202.26 26.272 201.875 25.493 201.851 25.3461M196.228 25.2392L196.166 25.4818L195.977 25.4885C195.995 25.4396 195.966 25.4729 196.021 25.4173L196.228 25.2392ZM190.771 24.9899C190.679 24.9788 190.499 24.843 190.468 24.7674C190.593 24.8052 190.735 24.8408 190.866 24.8787C190.935 24.8987 190.998 24.912 191.062 24.9298L191.278 25.0077C191.14 25.0033 190.918 25.0078 190.771 24.9899ZM205.238 24.7184C205.325 24.7273 205.857 24.8853 205.968 24.9588L205.534 25.1324C205.447 25.0122 205.314 24.8675 205.238 24.7184ZM203.785 24.5292C203.865 24.5893 203.949 24.6561 204.03 24.7251L204.833 25.395C204.755 25.4596 204.675 25.4863 204.566 25.5041C204.348 25.1836 203.987 24.8653 203.785 24.5292ZM189.526 24.4891C189.593 24.4936 189.905 24.5893 189.936 24.6138C189.978 24.6449 190.112 24.9298 190.132 25.0033L189.526 24.4891ZM196.871 24.0729C196.843 24.1753 196.729 24.3801 196.638 24.4268L196.291 24.4513L196.871 24.0707M197.958 17.0506L197.45 17.518C197.521 17.0016 197.909 16.4363 198.102 16.049C198 16.0534 198.007 16.0645 197.927 16.138C197.299 16.7011 196.854 17.3088 196.555 18.11C196.555 18.1145 196.524 18.1879 196.524 18.1924C196.486 18.2658 196.524 18.2169 196.471 18.2681L196.382 16.966C196.159 17.0528 196.026 17.8474 195.979 18.0499C195.888 18.4506 195.832 18.8423 195.745 19.2363C195.741 18.711 195.767 18.0722 195.799 17.5402C195.338 17.7539 195.351 19.9307 195.402 20.5784C195.251 20.3024 195.231 19.4856 195.086 19.2407L195.022 20.7253C194.995 20.3915 194.922 20.0242 194.871 19.6881L194.686 18.7333C194.339 18.9826 194.599 21.0525 194.603 21.6045C194.599 21.422 194.065 19.8239 193.978 19.7282C193.971 20.3002 194.181 21.1349 194.278 21.7047C194.35 22.112 194.557 23.4942 194.566 23.8793C194.416 23.7123 194.292 23.1537 194.223 22.9066C194.158 22.6774 194.029 22.0274 193.945 21.8494C193.555 21.9339 194.125 23.374 194.169 23.5009C194.472 24.3467 194.659 24.369 194.557 25.2192C194.341 25.1235 194.225 24.0061 193.962 23.9104C193.945 23.9861 193.931 24.0484 193.938 24.1375C194.06 25.6888 194.045 25.5219 194.521 27.0822C194.603 27.3515 194.639 27.859 194.675 28.1661C194.719 28.5623 194.824 28.983 194.839 29.3881C194.695 28.8094 194.615 28.2173 194.508 27.6297C194.439 27.2625 194.265 26.203 193.987 26.0984C193.918 26.1496 193.974 26.1028 193.927 26.1607C193.922 26.1674 193.918 26.1741 193.913 26.1807C193.909 26.1852 193.905 26.1963 193.9 26.2008L193.876 26.2431C193.849 26.0895 193.818 25.6109 193.762 25.4841C193.735 25.424 193.755 25.4574 193.731 25.4217L193.542 25.8758C193.453 25.2593 193.428 24.6449 193.306 24.064L193.139 24.7607C193.119 24.8319 193.13 24.7963 193.108 24.843C193.079 24.4914 193.065 24.1419 193.039 23.7724C193.025 23.5899 193.008 23.4319 192.976 23.2583C192.952 23.1203 192.936 22.9111 192.787 22.8532L192.716 24.3066C192.589 23.9995 192.402 21.6446 191.935 21.3686C191.921 21.7848 192.015 22.2033 192.075 22.615C192.055 22.5727 192.006 22.5126 191.975 22.4548L191.855 22.2878C191.897 22.615 192.044 22.9689 191.999 23.3117C191.995 23.305 191.99 23.2961 191.988 23.2894L191.921 23.0112C191.806 22.4392 191.665 21.8716 191.412 21.3486C191.378 21.2773 191.332 21.1816 191.263 21.1505C191.367 21.7114 191.534 22.2878 191.518 22.8643C191.216 22.3012 190.599 20.387 190.127 20.0621C190.334 20.6697 190.724 21.5244 190.795 22.1454C190.552 21.6401 190.261 20.574 189.874 20.3024C189.925 20.5829 189.998 20.8656 190.012 21.1505C189.934 21.0637 189.936 21.0036 189.876 20.8455C189.836 20.7431 189.796 20.6497 189.756 20.5451C189.609 20.1644 189.428 19.7905 189.208 19.4589C189.103 19.3008 188.997 19.1317 188.823 19.0516C188.874 19.2853 189.019 19.7237 188.921 19.9619C188.692 19.7705 188.164 18.4973 187.788 18.4328L187.968 19.2474C187.85 19.0627 187.517 18.7555 187.35 18.6465C187.096 18.4817 186.84 18.3193 186.524 18.2881C186.586 18.3949 187.031 18.7756 187.194 18.9225C187.419 19.125 188.086 19.8306 188.106 20.1132C187.997 19.9107 187.31 19.5345 186.951 19.5323C187.04 19.8773 187.833 20.4983 188.126 20.6942C188.282 20.7988 188.471 20.87 188.605 21.0013L187.192 20.6741C187.352 20.7988 188.035 21.0904 188.269 21.2195C188.52 21.3552 189.159 21.6958 189.244 21.8983C188.741 21.8827 188.166 21.7247 187.755 21.56C188.129 22.1676 189.19 22.3858 189.513 22.7397L188.903 22.782C188.997 22.9133 189.377 23.2182 189.538 23.3518C189.753 23.5298 190.036 23.6612 190.245 23.8526C189.974 23.8437 189.68 23.7212 189.395 23.7925C189.469 24.093 190.699 24.1219 190.862 24.3756C190.377 24.4135 189.856 24.2666 189.375 24.2643C189.164 24.2643 189.032 24.0751 188.794 23.8726C188.592 23.699 187.519 22.8332 187.263 22.7731C187.39 23.0468 188.227 23.7613 188.425 24.0952C187.848 23.63 186.239 22.6662 185.622 22.7486C185.633 22.7553 185.852 22.9378 185.905 22.9756C186.072 23.0936 186.722 23.6122 186.778 23.7146C186.406 23.6033 185.945 23.3763 185.491 23.2427C184.941 23.0802 184.599 23.0357 183.991 23.0001L184.955 23.3673C185.199 23.4631 185.716 23.6634 185.807 23.8414C184.779 23.719 183.681 23.4608 182.566 23.5476C182.397 23.561 181.912 23.5632 181.807 23.6678C182.074 23.8259 182.466 23.8971 182.713 24.0774C182.549 24.1352 182.275 24.1686 182.099 24.2042L180.345 24.6116C180.223 24.6449 178.371 25.168 178.391 25.4329C178.827 25.4351 179.261 25.3906 179.695 25.355C180.098 25.3238 180.525 25.1413 180.87 25.1057C180.741 25.237 180.361 25.3795 180.298 25.5486C180.683 25.4818 181.827 24.8341 182.624 24.8787C182.562 25.0322 181.393 25.8669 181.269 25.9626C181.031 26.1429 180.792 26.3076 180.55 26.479C180.416 26.5725 180.312 26.6459 180.18 26.7238C180.109 26.7661 180.06 26.7973 179.998 26.8373L179.833 26.9531C179.833 26.9531 179.822 26.9642 179.815 26.9709C180.174 26.8885 180.53 26.775 180.853 26.6548C181.186 26.528 181.462 26.3588 181.767 26.2408C181.712 26.4367 181.565 26.5925 181.529 26.8151C181.841 26.7305 183.49 25.1969 184.229 25.168C184.147 25.2682 183.811 25.4306 183.695 25.5108C183.267 25.809 182.564 26.2965 182.446 26.8262C182.604 26.7483 182.756 26.5992 182.9 26.4968C183.686 25.9337 185.538 24.5737 186.424 24.7407C186.29 24.8542 185.892 25.0656 185.725 25.1747C185.482 25.3305 185.282 25.4796 185.068 25.6376C184.743 25.8803 184.136 26.4389 184.033 26.8084L184.325 26.7572C184.267 26.8418 184.111 26.9442 184.022 27.0288C183.92 27.1245 183.824 27.2001 183.737 27.2959C183.641 27.4005 183.29 27.7655 183.296 27.9502C183.434 27.8568 183.552 27.7388 183.706 27.6164C184.4 27.0688 186.11 25.6399 186.838 25.5731C186.72 25.6888 186.419 25.8402 186.275 25.9426C186.072 26.085 185.925 26.1941 185.736 26.341C185.391 26.6081 185.046 26.9264 184.794 27.2536C184.167 28.0682 184.661 27.8568 183.851 28.1661C183.657 28.2396 182.618 28.6647 182.546 28.7604C182.811 28.5712 183.341 28.5445 183.695 28.5401C183.657 28.6291 183.742 28.5534 183.601 28.6269L182.827 28.9585C182.526 29.0943 182.261 29.2145 181.965 29.3569C181.46 29.5995 180.777 29.9401 180.412 30.294C180.65 30.2005 180.881 30.0558 181.129 29.9557C181.387 29.8511 181.805 29.7353 182.103 29.7286C182.07 29.7821 181.445 30.1983 181.344 30.2717C181.122 30.4342 180.835 30.6635 180.652 30.8371C180.332 31.1442 179.697 31.7719 179.59 32.2905L179.78 32.0546C179.833 31.9789 179.898 31.901 179.964 31.8342C180.094 31.7051 180.214 31.5849 180.372 31.4558C180.661 31.2199 181.071 31.0062 181.534 30.9528L180.935 31.5605C180.826 31.674 180.746 31.7563 180.634 31.8698C180.316 32.1926 179.602 33.2676 179.631 33.7172C179.715 33.6572 179.815 33.5281 179.9 33.4457C180.167 33.1897 180.439 32.8737 180.797 32.7112C180.766 32.7713 180.652 32.9182 180.608 32.9761C180.398 33.2498 180.265 33.5325 180.131 33.8597C180.002 34.1735 179.793 34.8947 179.84 35.2976C180.094 34.8947 180.523 33.7417 180.89 33.5637C180.81 33.991 180.688 34.385 180.628 34.8524C180.599 35.0772 180.503 36.1055 180.641 36.3081C180.717 36.2101 180.999 35.3065 181.068 35.0928L181.505 33.8886C181.487 34.4607 181.494 34.6988 181.692 35.2686C181.736 35.1885 181.885 33.9932 181.93 33.7618C181.999 33.4034 182.088 32.8737 182.29 32.5621C182.353 32.4664 182.339 32.4931 182.406 32.4508C182.408 32.7646 182.348 34.9815 182.564 35.2797C182.638 35.2508 182.635 35.2352 182.667 35.1417C182.687 35.0817 182.7 35.0127 182.715 34.9414C182.742 34.8057 182.764 34.6788 182.784 34.5452C182.887 33.853 182.947 33.1541 183.06 32.4686C183.089 32.295 183.065 32.1792 183.201 32.1058C183.328 32.7913 183.314 33.4813 183.332 34.178L183.929 32.0346L184.098 33.8664C184.3 33.6282 184.521 32.4508 184.565 32.0346C184.616 31.5471 184.572 30.3719 184.906 30.1093C184.999 30.2428 184.888 32.68 185.297 33.1808C185.353 33.0362 185.427 32.453 185.467 32.2416C185.511 32.0034 185.573 31.4959 185.7 31.3379C185.8 31.5627 185.861 32.3818 185.963 32.5265C186.09 32.1102 186.214 30.2717 186.453 29.9735C186.484 30.2606 186.624 31.9945 186.691 32.0924L187.229 30.0024L187.523 31.4915C187.61 31.1331 187.948 29.7932 188.169 29.6574L188.289 30.7948L188.367 30.6568C188.54 30.1693 188.854 29.1945 189.241 28.9474C189.206 29.2367 189.059 29.6908 188.99 30.0113C188.89 30.4698 188.883 30.8304 188.823 31.142C188.928 31.0686 189.241 30.1271 189.533 29.8889C189.497 30.1182 189.31 30.7436 189.506 30.9639C189.591 30.5767 190.134 29.6196 190.593 29.5728C190.363 29.9245 190.239 30.2962 190.181 30.817C188.939 31.2399 188.271 31.5248 187.143 32.1948C186.219 32.7446 185.509 33.3967 184.741 34.0912C184.452 34.3538 184.187 34.6142 183.937 34.9103C183.535 35.3888 183.132 35.834 182.758 36.3481C182.591 36.5774 182.471 36.7198 182.308 36.958C181.977 37.4477 181.309 38.3714 181.104 38.8833C181.211 38.7698 181.3 38.6407 181.422 38.5183C181.378 38.7253 181.175 39.0079 181.086 39.2149C180.795 39.8827 180.358 40.7552 180.352 41.5075C180.534 41.3005 180.674 40.6016 181.095 40.3011C181.088 40.4525 180.97 40.7952 180.93 40.9666C180.879 41.1892 180.83 41.4118 180.797 41.6321C180.712 42.1864 180.717 42.5714 180.697 43.1612C180.703 43.1546 180.71 43.1457 180.715 43.139C180.719 43.1323 180.726 43.1234 180.73 43.1167C180.735 43.1101 180.739 43.1034 180.743 43.0945C180.768 43.05 180.752 43.0878 180.768 43.0277L180.839 42.6872C180.97 42.0261 181.467 39.945 181.892 39.6913C181.91 40.2054 181.703 41.5498 181.783 41.9259C181.872 41.7011 182.402 39.6223 182.56 39.1014C182.606 38.9523 182.658 38.7876 182.707 38.6362C182.751 38.5027 182.827 38.3536 182.865 38.2356C182.876 38.5828 182.319 40.3056 182.426 41.6722C182.437 41.8102 182.442 41.9393 182.495 42.0617C182.546 42.1797 182.522 42.1196 182.56 42.1507C182.626 41.9348 182.793 40.7841 182.871 40.4146C182.929 40.1386 183.136 39.0346 183.39 38.8321C183.483 38.9345 183.512 39.1237 183.55 39.2528C183.597 39.4086 183.639 39.5488 183.679 39.7002C183.773 40.0541 183.828 40.3189 183.86 40.704C183.957 40.6016 183.971 40.0674 183.991 39.896C184.022 39.6267 184.051 39.3685 184.084 39.0903L184.207 37.4165C184.476 37.826 184.538 39.3596 184.596 39.4731C184.71 39.1548 184.895 38.3179 184.901 38.3046C184.948 38.5739 185.104 39.3285 185.295 39.4709C185.411 39.0881 185.834 36.524 185.845 36.5017C185.898 36.8467 185.932 37.924 186.09 38.131C186.23 37.7815 186.384 36.6464 186.535 36.4193L186.793 38.0998C187.016 37.7125 187.241 36.0343 187.294 35.9297L187.565 37.4699C187.641 37.3631 187.643 37.1872 187.668 37.0671C187.728 36.7844 187.828 36.0321 187.939 35.8473L188.035 36.3593C188.035 36.3593 188.042 36.3437 188.044 36.3392L188.06 36.2992C188.06 36.2992 188.064 36.2836 188.066 36.2769L188.1 36.012C188.169 35.4422 188.309 34.1246 188.543 33.7284C188.58 33.9866 188.612 35.3777 188.583 35.6782C188.569 35.8251 188.271 36.15 188.209 36.4193C188.309 36.3704 188.496 36.2012 188.578 36.13L189.662 35.282C189.956 35.0683 190.911 34.3872 191.311 34.3538C191.158 34.4785 191.007 34.592 190.831 34.7211C190.662 34.8457 190.517 34.9659 190.348 35.0861C190.179 35.2085 190.025 35.3376 189.874 35.4623C189.239 35.9853 188.109 36.9023 187.946 37.7036C188.255 37.628 189.466 36.5484 189.771 36.4683C189.564 36.6686 189.304 37.0092 189.101 37.2473C188.919 37.461 188.476 37.9039 188.418 38.0486C188.589 37.9462 189.097 37.461 189.306 37.2874C189.486 37.1338 190.036 36.6931 190.294 36.6508C190.221 36.751 190.116 36.8422 190.021 36.9313C189.642 37.2941 188.422 38.6585 188.431 38.9812L188.674 38.9478L188.496 39.3752C188.937 39.0836 189.593 38.2868 190.239 38.1043C190.172 38.2578 189.903 38.4871 189.785 38.6629L189.379 39.2572C189.275 39.4219 188.741 40.3857 188.892 40.6328C189.057 40.4324 189.152 40.2188 189.29 40.0162L189.816 39.255C189.998 38.9946 190.412 38.4448 190.706 38.3536C190.662 38.4404 190.635 38.4827 190.573 38.5583C190.207 39.0035 189.927 39.4932 189.642 39.994C189.4 40.4191 188.905 41.3762 189.041 42.0172C189.221 41.8836 189.253 41.5832 189.426 41.4407L189.299 42.4757C189.393 42.3778 189.444 42.2019 189.5 42.0751C189.647 41.7412 189.847 41.1247 190.038 40.8687C189.9 41.4697 189.484 43.0833 189.972 43.7444C190.043 43.5285 190.09 42.9364 190.132 42.6716C190.192 42.3088 190.274 41.9749 190.357 41.6433C190.435 41.739 190.372 42.1886 190.368 42.3043C190.339 42.9632 190.423 43.7377 190.666 44.3298C190.797 44.6503 191.087 45.1088 191.318 45.1756C191.283 44.5079 191.178 43.8423 191.136 43.1746C191.2 43.3082 191.403 43.711 191.543 43.7778C191.47 43.3972 191.267 42.676 191.349 42.2865C191.507 42.5024 191.697 42.932 191.832 43.1813C191.921 43.3438 192.22 43.9314 192.384 44.0249L191.855 42.0439C192.055 42.3555 192.253 42.6783 192.444 42.9988C192.491 42.8608 192.124 41.5832 192.064 41.3049C192.324 41.4897 193.108 42.8986 193.562 43.2636C193.526 43.1345 193.072 42.3711 192.97 42.1953C192.631 41.6143 191.318 39.1682 191.59 38.7342C191.677 38.8232 191.959 39.324 192.044 39.4731C192.184 39.7224 193.295 41.5587 193.586 41.5142C193.482 40.8709 193.15 40.0563 193.068 39.5466C193.335 39.7892 193.8 40.8286 194.196 40.9599C194.118 40.6461 193.98 40.31 193.891 39.9873C193.78 39.5866 193.82 39.3262 193.635 38.9656C193.419 38.5405 192.849 37.7904 192.863 37.2585C192.952 37.3364 193.059 37.5679 193.141 37.6925C193.357 38.0241 193.751 38.7119 194.049 38.8677C194.06 38.6362 193.72 37.668 193.626 37.4365C193.464 37.0337 193.148 36.5306 193.161 36.0654L193.266 36.1923C193.62 36.8601 194.118 37.2384 194.316 37.7281L194.416 37.993C194.416 37.993 194.423 38.0063 194.428 38.013C194.394 37.4388 194.356 37.3163 194.234 36.7154C194.29 36.7577 194.612 37.3097 194.906 37.6079C194.915 37.4588 194.615 36.6642 194.588 36.3103C194.733 36.4015 194.799 36.6353 194.937 36.7465C194.951 36.7577 194.957 36.7643 194.96 36.7666C194.964 36.7666 194.973 36.7666 194.986 36.7688C194.882 35.6359 194.196 34.6387 194.147 34.0289C194.132 33.8174 194.049 33.4791 194.172 33.2877C194.225 33.3767 194.354 33.8842 194.421 34.0467C194.69 34.7055 195.398 35.2464 195.52 35.8763C195.545 34.2403 194.53 33.5681 194.459 32.6689C194.445 32.4819 194.436 32.2505 194.541 32.1169C194.704 32.2705 195.224 33.6482 195.618 34.0467C195.665 33.9376 195.507 33.2454 195.478 33.0517C195.638 33.0651 195.625 33.163 195.678 33.3255L196.255 35.0728C196.335 35.322 196.146 35.785 196.288 36.2034C196.311 36.1189 196.313 36.0254 196.333 35.9319C196.355 35.834 196.388 35.7516 196.411 35.6693L196.482 35.7872C196.495 35.8206 196.504 35.8629 196.515 35.903L196.851 37.0292L198.165 38.1621C198.042 37.7971 197.902 37.3675 197.893 37.2429C197.882 37.0893 198.187 36.2524 198.314 36.0365C198.334 36.0009 198.336 36.0031 198.354 35.9809C198.332 36.6887 198.272 37.4365 198.418 38.1443C198.45 37.737 198.857 36.7866 199.124 36.5306C199.106 36.6775 198.921 37.1227 198.872 37.3764C198.77 37.9106 198.79 38.2712 198.879 38.772C198.966 38.5539 198.919 38.1733 199.18 37.6369C199.32 37.3475 199.527 36.9246 199.712 36.7243C199.68 36.9491 199.585 37.2407 199.536 37.51C199.442 38.0486 199.333 39.0346 199.329 39.7269L199.429 39.9405C199.449 39.8671 199.469 39.7936 199.489 39.7313C199.623 39.3529 199.801 38.8521 200.028 38.5539C200.001 38.8544 199.83 40.3256 199.952 40.5192C200.155 40.0362 200.279 39.3641 200.466 38.9278C200.502 38.8432 200.466 38.8944 200.524 38.8388C200.678 39.6133 200.52 40.2188 200.493 40.9733C200.629 40.8375 200.862 39.8849 201.027 39.6979L200.749 42.2398C200.853 42.1151 201.083 41.6143 201.174 41.4407C201.247 41.296 201.314 41.1803 201.392 41.0379C201.47 40.8976 201.519 40.7685 201.615 40.6483C201.506 41.2538 201.356 41.9371 201.417 42.5759C201.546 42.311 201.557 42.0906 201.782 41.7479L201.953 41.5208C201.77 42.3221 201.866 42.3911 201.953 43.1368C201.96 43.1234 201.96 43.1234 201.962 43.1256C201.962 43.1256 201.962 43.1256 201.977 43.07C201.977 43.0611 201.984 43.0344 201.986 43.0233C201.993 42.9899 201.995 42.9587 202 42.9275C202.011 42.8496 202.022 42.8029 202.053 42.7317C202.109 42.6004 202.18 42.5202 202.276 42.449C202.32 42.538 202.271 42.5981 202.28 42.6983C202.327 43.3015 202.42 43.7244 202.618 44.3031C202.656 44.4144 202.703 44.5635 202.765 44.6436C202.745 44.4567 202.707 43.8245 202.863 43.6576C202.894 44.0449 203.233 44.973 203.44 45.18L203.395 44.3342L203.509 44.4878C203.533 44.539 203.558 44.5924 203.584 44.6481C203.667 44.815 203.941 45.4649 204.056 45.5718C204.159 45.2023 203.865 43.4595 203.825 43.1679C203.858 43.1991 203.845 43.1791 203.878 43.228C203.954 43.3415 204.114 43.8156 204.143 43.9269C204.39 43.4773 203.869 41.8013 203.88 41.6077C203.889 41.6811 204.052 41.9259 204.114 42.0216C204.174 41.5765 203.816 40.6617 203.66 40.2855C203.489 39.8738 203.019 39.0458 202.941 38.8187C203.093 38.8877 203.184 39.0035 203.355 39.0614C203.228 38.3179 202.507 37.55 202.325 37.1472C202.443 37.2229 202.371 37.2451 202.509 37.2919C202.383 36.6642 201.886 36.0543 201.514 35.6247C201.466 35.5691 201.428 35.5179 201.381 35.4667L200.82 34.868C200.747 34.7567 200.738 34.5141 200.836 34.425C200.862 34.6521 201.045 34.9548 201.172 35.0438C201.098 34.6699 201.152 34.3672 201.185 33.9732L201.272 33.2075C201.325 33.4724 201.813 35.3287 201.9 35.4734L201.933 35.0928L202.209 35.6626C202.242 35.7205 202.229 35.696 202.256 35.7205L202.127 33.882C202.5 34.2937 202.801 36.5017 202.926 36.6842C202.932 36.4505 202.975 36.179 202.986 35.9163C203.004 35.5268 202.997 33.764 203.064 33.6282L203.217 35.2041C203.255 35.6381 203.186 36.4394 203.6 36.7243L203.502 35.6759C203.709 35.7049 203.667 35.8607 203.7 36.0833C203.727 36.2546 203.754 36.4572 203.776 36.6197C203.816 36.9046 203.78 37.2652 204.018 37.4432C204.072 37.4811 204.056 37.4811 204.061 37.4811C204.063 37.4811 204.076 37.481 204.121 37.4922C204.103 37.2585 204.103 35.1774 204.139 35.0594C204.172 35.1573 204.214 35.5646 204.234 35.7049C204.317 36.2903 204.419 37.1405 204.55 37.668L204.508 35.1306C204.568 35.2018 204.577 35.2441 204.617 35.5068C204.773 36.4973 204.78 37.5545 205.067 38.5138C205.156 38.4137 205.154 38.2823 205.258 38.1755L205.49 38.7943L205.365 36.4995L205.505 36.6486C205.924 37.3319 206.075 38.8076 206.494 39.3796C206.398 38.5427 206.409 38.6607 206.382 37.8283C206.607 38.0598 207.253 39.9673 207.466 40.1409C207.466 39.5822 207.417 39.1704 207.322 38.6006C207.295 38.4315 207.13 37.875 207.184 37.7726C207.302 37.8594 207.382 38.0264 207.544 38.0598C207.497 37.4788 206.758 36.3214 206.494 35.903L206.77 35.9898C206.736 35.6247 206.349 35.1596 206.14 34.8657C206.068 34.7656 205.962 34.612 205.897 34.543C206.046 34.5742 206.017 34.6231 206.16 34.6699C206.055 34.2091 205.621 33.7551 205.372 33.4991C205.207 33.33 205.049 33.1897 204.875 33.0428C204.7 32.8937 204.568 32.7557 204.39 32.6021C204.283 32.5109 204.219 32.473 204.114 32.3907C203.727 32.0924 203.734 32.0101 203.533 31.5293C203.429 31.28 202.948 30.3519 202.917 30.2228C203.395 30.4209 204.294 31.7986 204.617 32.2727L205.12 33.0161L204.826 31.9878L205.265 32.5487C205.338 32.6444 205.421 32.7557 205.494 32.847C205.525 32.887 205.683 33.0807 205.712 33.1074L204.753 30.9016C204.913 31.0263 205.091 31.3802 205.236 31.5783C205.541 31.9945 206.342 33.2765 206.638 33.537C206.574 33.1096 205.488 31.5427 205.459 31.2466C205.561 31.3468 205.65 31.398 205.761 31.5315C206.026 31.852 206.251 32.226 206.487 32.5687C206.649 32.8047 206.796 33.0339 206.963 33.2699C207.112 33.4813 207.29 33.833 207.591 33.784C207.582 33.6371 207.426 33.468 207.357 33.3433C207.07 32.8292 205.93 30.659 205.792 30.2584C205.884 30.3541 206.006 30.55 206.091 30.6746C206.431 31.1799 207.689 32.7802 208.141 33.2743C208.227 33.3678 208.212 33.4034 208.354 33.419C208.254 32.6066 206.627 30.9083 206.554 30.0202C206.643 30.1048 206.774 30.3296 206.861 30.4631C206.959 30.6145 207.054 30.7547 207.155 30.9061C207.54 31.4915 207.931 32.108 208.343 32.66C208.492 32.8603 208.806 33.3945 209.091 33.3567C209.029 33.0473 208.259 31.7853 208.038 31.507C207.787 31.191 207.017 30.1538 206.872 29.811L207.001 29.9245C207.615 30.6078 208.268 31.2644 208.835 31.9923C208.955 32.1458 209.075 32.3039 209.189 32.4597C209.302 32.6177 209.427 32.7757 209.543 32.9271C209.603 33.0072 209.663 33.0807 209.723 33.1563L209.866 33.3389C209.89 33.3633 209.895 33.3633 209.917 33.3834C209.803 33.1185 209.587 32.8091 209.456 32.5598C209.309 32.2861 209.169 32.0346 209.02 31.7474C208.753 31.231 208.256 30.6813 208.054 30.2517C208.439 30.6323 208.768 31.0285 209.124 31.4959C209.305 31.7296 210.09 32.4686 210.371 32.5487C210.333 32.3974 209.832 31.6673 209.719 31.4915C209.534 31.2066 209.198 30.7592 209.069 30.4387C209.623 30.7391 210.077 31.5248 210.498 31.9611C210.705 32.177 211.717 32.9315 212.076 33.1052L212.189 33.1163C212.292 32.5999 211.571 31.8943 211.21 31.5649C211.137 31.4981 211.074 31.4714 211.023 31.4002C211.366 31.5048 211.713 31.7986 212.065 31.881C211.958 31.5338 211.221 31.004 210.952 30.8282L209.719 30.0692C209.719 30.0692 209.705 30.0581 209.701 30.0558C209.696 30.0536 209.688 30.0514 209.685 30.0402C209.683 30.0313 209.674 30.0291 209.67 30.018L211.019 30.2339C210.923 29.8021 209.57 29.5194 209.173 29.4504C208.71 29.3703 209.018 29.4482 208.655 29.3013C208.221 29.1255 207.377 29.1121 207.072 28.9852L208.499 28.8584C207.613 28.7382 206.596 28.7293 205.67 28.7026C205.398 28.6937 205.216 28.7003 205.089 28.7048C204.722 28.7204 204.791 28.7337 204.392 28.4355C204.243 28.3242 203.613 27.8145 203.54 27.6898C203.667 27.7143 203.885 27.83 204.023 27.8924C204.27 28.0037 205.191 28.4488 205.361 28.4644C204.829 28.0749 204.312 27.6498 203.767 27.2825C203.694 27.2335 203.62 27.1668 203.562 27.1133C204.123 27.3515 205.111 27.9525 205.721 28.2641C205.899 28.3553 206.275 28.5935 206.447 28.6336C206.391 28.5356 206.429 28.5846 206.34 28.5134C206.071 28.2975 204.769 27.2914 204.691 27.1623C205.12 27.2469 206.458 28.2596 206.654 28.2752C206.643 28.0014 206.129 27.5296 205.917 27.347C205.761 27.2091 205.116 26.6615 205.049 26.5524C205.514 26.6303 206.38 27.2046 206.718 27.4161C207.066 27.632 207.978 28.1328 208.403 28.2329C208.388 27.9013 207.159 26.8663 206.961 26.6749C207.057 26.7016 207.23 26.824 207.335 26.8863C208.325 27.4739 208.281 27.4294 209.369 27.8056C209.541 27.8657 210.102 28.1194 210.208 28.1216C209.91 27.7432 208.568 26.8017 208.423 26.6214C208.624 26.6971 208.837 26.8485 209.067 26.9353C209.249 27.0021 209.534 27.0443 209.781 27.1378C210.021 27.2269 210.248 27.3137 210.473 27.3982C210.649 27.465 210.963 27.6141 211.137 27.652C210.825 27.3159 209.881 26.5613 209.676 26.292C209.995 26.41 210.257 26.6125 210.66 26.7416C210.945 26.8307 211.468 26.9954 211.749 27.0154C211.637 26.7327 210.573 26.1941 210.233 25.9648C210.475 26.0005 210.489 26.0071 210.736 25.9359C211.163 25.8113 211.949 25.9404 212.385 25.9804C212.225 25.7334 211.742 25.6332 211.399 25.562C211.19 25.5175 210.362 25.4195 210.255 25.3772C210.415 25.2281 210.996 25.0678 211.246 24.9521L211.364 24.8675L208.911 24.9454C208.995 24.8608 209.274 24.6895 209.4 24.6093C209.458 24.5737 209.868 24.3489 209.883 24.2777C209.886 24.2666 209.895 24.2643 209.899 24.2577L207.635 24.8074C207.684 24.734 207.662 24.7629 207.727 24.7095C207.825 24.6271 207.938 24.5759 208.023 24.4802C207.618 24.5047 206.327 24.8497 206.267 24.8364C205.959 24.7696 204.84 24.0151 202.87 23.8993C202.754 23.8926 202.632 23.8926 202.512 23.8926C202.356 23.8926 202.202 23.8926 202.062 23.8793C202.285 23.6166 202.923 23.6923 203.284 23.6545C203.008 23.5142 201.848 23.4252 201.45 23.4564L200.731 23.512C199.683 23.5944 198.886 24.0329 198.51 24.1019L198.463 24.0039C198.579 23.8615 202.151 22.4659 202.236 22.132C202.024 22.2033 201.432 22.2478 201.167 22.3034L200.206 22.5282C200.384 22.4481 200.64 22.2033 200.813 22.0786C201.125 21.8583 202.407 20.9368 202.618 20.7365C202.396 20.7587 201.561 21.0926 201.339 21.1861L200.152 21.7403C200.252 21.5889 200.562 21.3619 200.72 21.2195C201.241 20.7476 201.953 20.2179 202.612 19.933C202.581 19.9174 202.423 19.8951 202.405 19.8528C202.4 19.8417 202.389 19.8439 202.385 19.8395C202.543 19.7304 202.661 19.5434 202.872 19.45C202.625 19.4611 201.915 19.7304 201.657 19.8439C201.156 20.0665 200.916 20.2535 200.604 20.4004C200.686 20.2668 201.245 19.8462 201.412 19.7171L202.3 19.105C201.997 19.1339 201.376 19.4589 201.118 19.5679C201.192 19.4388 202.147 18.6865 202.329 18.5396C202.781 18.1701 203.182 17.9164 203.633 17.5937C203.206 17.5981 201.842 18.5307 201.466 18.7978C200.789 19.2786 200.228 19.8261 199.692 20.347C199.607 20.4293 199.567 20.4916 199.482 20.5695L198.904 21.2061L197.508 23.078C197.392 23.2583 197.308 23.3896 197.192 23.561C196.76 24.202 197.17 23.9861 195.832 24.2488C195.932 24.1464 196.239 23.995 196.397 23.9038C196.533 23.8259 196.885 23.6344 196.963 23.5499L196.733 23.4341C196.871 23.3073 197.303 23.0335 197.303 22.8421C196.878 22.8354 196.46 22.989 196.048 23.0869C196.072 23.0557 196.059 23.0669 196.097 23.0335C196.101 23.029 196.108 23.0224 196.115 23.0179L196.226 22.9489C196.291 22.9088 196.335 22.8821 196.391 22.8487C196.584 22.733 197.27 22.3457 197.339 22.2322L197.014 22.2656C197.087 22.1409 197.395 21.9696 197.517 21.836L196.377 22.0007C196.506 21.8872 196.916 21.7358 197.116 21.6379C197.35 21.5244 197.602 21.4042 197.815 21.2929L196.526 21.5177C196.667 21.4376 196.878 21.3864 197.036 21.3018C197.208 21.2106 197.33 21.1304 197.524 21.0481C197.708 20.968 198.458 20.7075 198.556 20.6118C198.182 20.4493 197.615 20.6163 197.239 20.6808C197.292 20.6452 197.96 20.3603 198 20.3447L196.762 20.5228C197.172 20.0398 198.16 19.9508 198.465 19.726C198.225 19.5969 197.294 19.8617 197.065 19.9107C197.379 19.6748 198.63 19.4166 198.859 19.1762C198.465 19.2252 198.073 19.2853 197.677 19.2897C197.809 19.2274 198.027 19.1918 198.187 19.1161C198.396 19.0159 198.374 18.938 198.568 18.8223C198.766 18.7021 199.469 18.4662 199.511 18.4328C199.191 18.3193 198.79 18.4595 198.481 18.5285C198.541 18.3771 198.768 18.2881 198.855 18.1568L197.855 18.455C198.089 18.179 199.518 17.5469 199.587 17.4134C198.75 17.4735 198.272 17.8474 197.955 17.8964C198.004 17.5603 199.006 16.6989 199.324 16.434C199.44 16.3361 199.778 16.0801 199.83 16C199.122 16.0556 198.427 16.6165 197.947 17.0572" fill="white"/>
</mask>
<g mask="url(#mask4_472_43)">
<path d="M212.402 15.9922H178.383V45.5684H212.402V15.9922Z" fill="#046734"/>
</g>
<path d="M73.3805 61.5836L82.0544 38.8984H91.3359L79.7774 69.3717C78.4509 72.8372 76.3475 74.5711 73.4718 74.5711C70.5961 74.5711 68.4749 72.875 67.1127 69.483L55 38.8984H64.4017" fill="#046734"/>
<mask id="mask5_472_43" style="mask-type:luminance" maskUnits="userSpaceOnUse" x="55" y="38" width="37" height="37">
<path d="M82.0544 38.9062L73.3805 61.5914L64.4017 38.9062H55L67.1127 69.4908C68.4771 72.8829 70.5961 74.5789 73.4718 74.5789C76.3475 74.5789 78.4486 72.845 79.7774 69.3795L91.3359 38.9062H82.0544Z" fill="white"/>
</mask>
<g mask="url(#mask5_472_43)">
<path d="M91.3359 38.9062H55V74.5789H91.3359V38.9062Z" fill="#046734"/>
</g>
<defs>
<filter id="filter0_d_472_43" x="0" y="0" width="268" height="106" filterUnits="userSpaceOnUse" color-interpolation-filters="sRGB">
<feFlood flood-opacity="0" result="BackgroundImageFix"/>
<feColorMatrix in="SourceAlpha" type="matrix" values="0 0 0 0 0 0 0 0 0 0 0 0 0 0 0 0 0 0 127 0" result="hardAlpha"/>
<feOffset/>
<feGaussianBlur stdDeviation="2"/>
<feComposite in2="hardAlpha" operator="out"/>
<feColorMatrix type="matrix" values="0 0 0 0 0 0 0 0 0 0 0 0 0 0 0 0 0 0 0.25 0"/>
<feBlend mode="normal" in2="BackgroundImageFix" result="effect1_dropShadow_472_43"/>
<feBlend mode="normal" in="SourceGraphic" in2="effect1_dropShadow_472_43" result="shape"/>
</filter>
</defs>
</svg>
