<svg width="30" height="34" viewBox="0 0 30 34" fill="none" xmlns="http://www.w3.org/2000/svg">
<path d="M11.8275 11.0602C10.5151 10.1742 9.7314 8.6998 9.7314 7.11602V4.62528C9.7314 4.38203 9.53426 4.18489 9.29102 4.18489C9.04777 4.18489 8.85063 4.38203 8.85063 4.62528V7.11602C8.85063 8.99296 9.77928 10.7405 11.3345 11.7899C12.6865 12.7048 13.431 14.202 13.431 15.7378V31.7759C13.431 32.5159 12.8304 33.1181 12.0922 33.1181H2.21975C1.48137 33.1181 0.880772 32.5159 0.880772 31.7759V15.7379C0.880772 14.1531 1.66444 12.677 2.97689 11.7903C4.54347 10.733 5.4611 8.9714 5.4611 7.11608V4.62528C5.4611 4.38203 5.26396 4.18489 5.02071 4.18489C4.77747 4.18489 4.58033 4.38203 4.58033 4.62528V7.11602C4.58033 8.66988 3.8157 10.1617 2.48407 11.0602C0.928646 12.1114 0 13.8599 0 15.7379V31.7759C0 33.0019 0.995765 33.999 2.21982 33.999H12.0922C13.316 33.999 14.3118 33.0019 14.3118 31.7759V15.7379C14.3118 13.9142 13.4251 12.1408 11.8275 11.0602ZM9.83715 0H4.47465C3.96375 0 3.54805 0.415769 3.54805 0.926606V2.37473C3.54805 2.8891 3.96381 3.30487 4.47465 3.30487H9.83715C10.3481 3.30487 10.7638 2.8891 10.7638 2.37473V0.926674C10.7638 0.415769 10.3481 0 9.83715 0ZM9.88298 2.37473C9.88298 2.40288 9.86183 2.42403 9.83715 2.42403H4.47465C4.44997 2.42403 4.42882 2.40288 4.42882 2.37473V0.926674C4.42882 0.902057 4.44997 0.880908 4.47465 0.880908H9.83715C9.86183 0.880908 9.88298 0.902057 9.88298 0.926674V2.37473Z" fill="white"/>
<path d="M9.77802 14.3281H4.53528C3.3268 14.3281 2.34375 15.3111 2.34375 16.5231V29.038C2.34375 30.25 3.32673 31.233 4.53528 31.233H9.77802C10.9865 31.233 11.9731 30.25 11.9731 29.038V16.5231C11.9731 15.3111 10.9866 14.3281 9.77802 14.3281ZM9.70056 27.16H4.59879C4.35568 27.16 4.1584 26.9628 4.1584 26.7197C4.1584 26.4766 4.35568 26.2793 4.59879 26.2793H9.70056C9.94367 26.2793 10.141 26.4766 10.141 26.7197C10.141 26.9628 9.94367 27.16 9.70056 27.16ZM9.70056 25.1799H4.59879C4.35568 25.1799 4.1584 24.9827 4.1584 24.7396C4.1584 24.4964 4.35568 24.2992 4.59879 24.2992H9.70056C9.94367 24.2992 10.141 24.4964 10.141 24.7396C10.141 24.9827 9.94367 25.1799 9.70056 25.1799ZM9.70056 23.1998H4.59879C4.35568 23.1998 4.1584 23.0026 4.1584 22.7595C4.1584 22.5163 4.35568 22.3191 4.59879 22.3191H9.70056C9.94367 22.3191 10.141 22.5163 10.141 22.7595C10.141 23.0026 9.94367 23.1998 9.70056 23.1998ZM8.77389 20.5327H5.53947C4.77845 20.5327 4.15834 19.9126 4.15834 19.1516C4.15834 18.3905 4.77845 17.7704 5.53947 17.7704H8.77389C9.53491 17.7704 10.155 18.3905 10.155 19.1516C10.155 19.9126 9.53491 20.5327 8.77389 20.5327Z" fill="white"/>
<path d="M9.27407 19.1486C9.27407 19.4234 9.05211 19.6489 8.77378 19.6489H5.53936C5.26456 19.6489 5.03906 19.4234 5.03906 19.1486C5.03906 18.8703 5.26456 18.6483 5.53936 18.6483H8.77378C9.05211 18.6482 9.27407 18.8702 9.27407 19.1486ZM29.4734 18.1797H16.9867C16.7436 18.1797 16.5463 18.377 16.5463 18.6201V20.3676C16.5463 23.7183 19.1042 26.7941 22.7896 27.0303V33.1151H21.1372C20.894 33.1151 20.6968 33.3123 20.6968 33.5555C20.6968 33.7986 20.894 33.9958 21.1372 33.9958H25.3229C25.566 33.9958 25.7633 33.7985 25.7633 33.5555C25.7633 33.3123 25.566 33.1151 25.3229 33.1151H23.6704V27.0303C27.2677 26.7977 29.9137 23.8099 29.9137 20.3676V18.6201C29.9137 18.377 29.7165 18.1797 29.4734 18.1797ZM17.6737 22.0236C19.7701 22.7424 21.6903 22.6437 23.3991 21.7241C25.5554 21.0829 27.2713 21.0406 28.8955 21.6008C27.6341 27.4742 19.3403 27.7103 17.6737 22.0236ZM29.0329 20.3676C29.0329 20.4839 29.0223 20.6002 29.0153 20.7199C27.2607 20.1597 25.3651 20.2126 23.1031 20.8926C22.6345 21.037 20.8799 22.39 17.4623 21.0018C17.4059 20.4592 17.4376 20.2478 17.4271 19.0605H29.0329V20.3676Z" fill="white"/>
</svg>
