<svg width="32" height="33" viewBox="0 0 32 33" fill="none" xmlns="http://www.w3.org/2000/svg">
<path d="M22.5 21L23.5 15.8447H18.6073V12.8142C18.6073 11.5366 19.1123 13 21 13L24 12V6.5C24 6.5 20.1626 5 18.5 5C15.0289 5 11 8.45106 11 12.5L9.5 15.5L6.5 17.5L10 23.5L12 21L13.5 32C15.0734 32.2618 17.0339 32.2618 18.6073 32L20 21.5L22.5 21Z" fill="white"/>
<path d="M32 16.0978C32 7.20724 24.8366 0 16 0C7.16344 0 0 7.20724 0 16.0978C0 24.1327 5.85097 30.7924 13.5 32V20.7511H9.4375V16.0978H13.5V12.5513C13.5 8.51675 15.8887 6.28821 19.5434 6.28821C21.294 6.28821 23.125 6.60262 23.125 6.60262V10.5642H21.1074C19.1198 10.5642 18.5 11.8051 18.5 13.0781V16.0978H22.9375L22.2281 20.7511H18.5V32C26.149 30.7924 32 24.1327 32 16.0978Z" fill="#1877F2"/>
</svg>
