<svg width="29" height="30" viewBox="0 0 29 30" fill="none" xmlns="http://www.w3.org/2000/svg">
<path d="M24.9438 6.9497C25.2695 6.9345 25.5758 6.79057 25.7953 6.54955C26.0148 6.30854 26.1296 5.99019 26.1144 5.66454C26.0992 5.33888 25.9553 5.03261 25.7143 4.81308C25.4733 4.59355 25.1549 4.47876 24.8293 4.49396L24.3689 4.51512L24.3477 4.05473C24.3402 3.89348 24.301 3.7353 24.2323 3.5892C24.1637 3.44311 24.0669 3.31197 23.9476 3.20327C23.8282 3.09457 23.6886 3.01045 23.5368 2.95569C23.3849 2.90093 23.2238 2.87662 23.0625 2.88415C22.9013 2.89167 22.7431 2.93088 22.597 2.99954C22.4509 3.0682 22.3198 3.16496 22.2111 3.28429C22.1024 3.40363 22.0183 3.54321 21.9635 3.69506C21.9087 3.84691 21.8844 4.00806 21.892 4.16931L22.0277 7.08544L24.9438 6.9497ZM25.5121 10.5698L25.4956 10.9249L25.1405 10.9084C25.0157 10.9019 24.8909 10.9201 24.7733 10.962C24.6556 11.0039 24.5474 11.0686 24.4548 11.1525C24.3622 11.2364 24.2872 11.3377 24.2339 11.4507C24.1807 11.5637 24.1503 11.6861 24.1445 11.8109C24.1387 11.9356 24.1576 12.0603 24.2002 12.1777C24.2428 12.2952 24.3082 12.403 24.3926 12.4951C24.477 12.5872 24.5788 12.6616 24.6921 12.7142C24.8054 12.7668 24.9279 12.7965 25.0527 12.8016L27.3005 12.9058L27.4047 10.6581C27.4105 10.5338 27.3918 10.4096 27.3496 10.2926C27.3074 10.1756 27.2425 10.068 27.1588 9.97601C27.075 9.88404 26.9739 9.80947 26.8613 9.75655C26.7487 9.70364 26.6268 9.67343 26.5025 9.66763C26.3783 9.66184 26.2541 9.68058 26.137 9.72278C26.02 9.76498 25.9124 9.82982 25.8205 9.9136C25.7285 9.99738 25.6539 10.0984 25.601 10.211C25.5481 10.3236 25.5179 10.4456 25.5121 10.5698Z" fill="white"/>
<path d="M20.9577 1.29032C21.314 1.29032 21.6028 1.00147 21.6028 0.645161C21.6028 0.288849 21.314 0 20.9577 0C20.6013 0 20.3125 0.288849 20.3125 0.645161C20.3125 1.00147 20.6013 1.29032 20.9577 1.29032Z" fill="white"/>
<path d="M27.4108 3.2122C27.7671 3.2122 28.0559 2.92335 28.0559 2.56704C28.0559 2.21072 27.7671 1.92188 27.4108 1.92188C27.0545 1.92188 26.7656 2.21072 26.7656 2.56704C26.7656 2.92335 27.0545 3.2122 27.4108 3.2122Z" fill="white"/>
<path d="M21.5983 10.3138C21.9546 10.3138 22.2434 10.0249 22.2434 9.6686C22.2434 9.31229 21.9546 9.02344 21.5983 9.02344C21.242 9.02344 20.9531 9.31229 20.9531 9.6686C20.9531 10.0249 21.242 10.3138 21.5983 10.3138Z" fill="white"/>
<path d="M4.06531 6.95051L6.98144 7.08625L7.11718 4.17012C7.12621 3.84815 7.00851 3.53549 6.78941 3.29939C6.57031 3.06328 6.2673 2.9226 5.94554 2.90759C5.62379 2.89257 5.309 3.00443 5.06886 3.21911C4.82873 3.43378 4.68243 3.73413 4.66144 4.05554L4.64028 4.51593L4.17989 4.49477C3.85424 4.47958 3.53589 4.59437 3.29488 4.81389C3.05386 5.03342 2.90992 5.3397 2.89473 5.66535C2.87954 5.991 2.99433 6.30935 3.21385 6.55037C3.43338 6.79138 3.73966 6.93532 4.06531 6.95051ZM1.60389 10.6584L1.70815 12.9061L3.95589 12.8019C4.0807 12.7968 4.20327 12.7671 4.31657 12.7145C4.42986 12.6619 4.53164 12.5875 4.61605 12.4954C4.70046 12.4033 4.76583 12.2955 4.80841 12.178C4.85099 12.0606 4.86993 11.9359 4.86415 11.8112C4.85836 11.6864 4.82797 11.564 4.77471 11.451C4.72146 11.338 4.64639 11.2367 4.55382 11.1528C4.46126 11.0689 4.35303 11.0042 4.23536 10.9623C4.11768 10.9204 3.99289 10.9022 3.86815 10.9087L3.51305 10.9252L3.49654 10.5701C3.49362 10.4438 3.46549 10.3194 3.41379 10.2042C3.36209 10.0889 3.28787 9.98515 3.19549 9.899C3.10311 9.81284 2.99444 9.74603 2.87587 9.70248C2.7573 9.65893 2.63121 9.63953 2.50503 9.64541C2.37885 9.6513 2.25512 9.68235 2.14112 9.73674C2.02711 9.79114 1.92513 9.86778 1.84117 9.96215C1.75721 10.0565 1.69297 10.1667 1.65222 10.2863C1.61147 10.4059 1.59504 10.5324 1.60389 10.6584Z" fill="white"/>
<path d="M8.05141 1.29032C8.40772 1.29032 8.69657 1.00147 8.69657 0.645161C8.69657 0.288849 8.40772 0 8.05141 0C7.6951 0 7.40625 0.288849 7.40625 0.645161C7.40625 1.00147 7.6951 1.29032 8.05141 1.29032Z" fill="white"/>
<path d="M1.59829 3.2122C1.9546 3.2122 2.24345 2.92335 2.24345 2.56704C2.24345 2.21072 1.9546 1.92188 1.59829 1.92188C1.24197 1.92188 0.953125 2.21072 0.953125 2.56704C0.953125 2.92335 1.24197 3.2122 1.59829 3.2122Z" fill="white"/>
<path d="M7.41079 10.3138C7.7671 10.3138 8.05595 10.0249 8.05595 9.6686C8.05595 9.31229 7.7671 9.02344 7.41079 9.02344C7.05447 9.02344 6.76562 9.31229 6.76562 9.6686C6.76562 10.0249 7.05447 10.3138 7.41079 10.3138Z" fill="white"/>
<path d="M14.5037 12.5786C15.7486 12.5786 16.7618 11.5655 16.7618 10.3206C16.7618 9.07566 15.7486 8.0625 14.5037 8.0625C13.2588 8.0625 12.2457 9.07566 12.2457 10.3206C12.2457 11.5655 13.2588 12.5786 14.5037 12.5786ZM14.5037 8.70766C15.393 8.70766 16.1166 9.43127 16.1166 10.3206C16.1166 11.2099 15.393 11.9335 14.5037 11.9335C13.6145 11.9335 12.8908 11.2099 12.8908 10.3206C12.8908 9.43127 13.6145 8.70766 14.5037 8.70766ZM0 26.127C0.165161 28.2891 1.97729 29.998 4.18116 29.998H24.8263C27.0302 29.998 28.8423 28.2891 29.0075 26.127H0Z" fill="white"/>
<path d="M1.28125 25.4819H3.86344C3.97596 21.823 5.99093 18.4372 9.18009 16.5879C9.25394 16.5473 9.34075 16.5372 9.42195 16.5598C9.50315 16.5824 9.5723 16.6358 9.61458 16.7087C9.65687 16.7816 9.66894 16.8682 9.64822 16.9499C9.6275 17.0316 9.57563 17.1019 9.5037 17.1459C6.51273 18.8795 4.6206 22.0517 4.5086 25.4813H27.7251C27.5532 18.3371 21.6885 12.5781 14.5034 12.5781C7.31841 12.5781 1.45312 18.3371 1.28125 25.4819ZM14.5029 15.1593C15.8825 15.1593 17.2255 15.4204 18.4952 15.9361C18.5353 15.9514 18.5719 15.9746 18.6029 16.0042C18.6339 16.0339 18.6587 16.0694 18.6758 16.1088C18.6929 16.1481 18.702 16.1905 18.7025 16.2334C18.703 16.2763 18.695 16.3189 18.6788 16.3587C18.6627 16.3984 18.6388 16.4346 18.6085 16.465C18.5782 16.4954 18.5422 16.5194 18.5025 16.5357C18.4628 16.552 18.4203 16.5603 18.3773 16.5599C18.3344 16.5596 18.292 16.5507 18.2526 16.5337C17.0618 16.05 15.7883 15.8023 14.5029 15.8044C14.4174 15.8044 14.3353 15.7705 14.2748 15.71C14.2143 15.6495 14.1803 15.5674 14.1803 15.4819C14.1803 15.3963 14.2143 15.3143 14.2748 15.2538C14.3353 15.1933 14.4174 15.1593 14.5029 15.1593Z" fill="white"/>
</svg>
