<svg width="29" height="29" viewBox="0 0 29 29" fill="none" xmlns="http://www.w3.org/2000/svg">
<path d="M28.3218 14.8154C28.3218 13.6234 28.2255 12.7536 28.0169 11.8516H14.4531V17.2316H22.4147C22.2543 18.5686 21.3875 20.5821 19.4612 21.9351L19.4342 22.1152L23.7228 25.4492L24.02 25.479C26.7487 22.95 28.3218 19.229 28.3218 14.8154Z" fill="#4285F4"/>
<path d="M14.4447 29.005C18.3452 29.005 21.6197 27.7163 24.0115 25.4935L19.4528 21.9496C18.2329 22.8033 16.5956 23.3993 14.4447 23.3993C10.6244 23.3993 7.38198 20.8704 6.22615 17.375L6.05673 17.3894L1.59738 20.8527L1.53906 21.0154C3.9147 25.7511 8.79444 29.005 14.4447 29.005Z" fill="#34A853"/>
<path d="M6.22802 17.3595C5.92304 16.4575 5.74654 15.4909 5.74654 14.4923C5.74654 13.4935 5.92304 12.5271 6.21197 11.625L6.20389 11.4329L1.68866 7.91406L1.54093 7.98458C0.561817 9.94978 0 12.1566 0 14.4923C0 16.828 0.561817 19.0347 1.54093 20.9999L6.22802 17.3595Z" fill="#FBBC05"/>
<path d="M14.4447 5.60556C17.1574 5.60556 18.9873 6.78144 20.0307 7.7641L24.1078 3.76928C21.6038 1.43362 18.3452 0 14.4447 0C8.79444 0 3.9147 3.2538 1.53906 7.98953L6.2101 11.63C7.38199 8.13456 10.6244 5.60556 14.4447 5.60556Z" fill="#EB4335"/>
</svg>
