<svg width="30" height="30" viewBox="0 0 30 30" fill="none" xmlns="http://www.w3.org/2000/svg">
<path d="M9.99578 15.0095C9.99578 14.0204 10.2891 13.0535 10.8386 12.2311C11.3881 11.4086 12.1692 10.7676 13.083 10.3891C13.9968 10.0106 15.0024 9.91157 15.9725 10.1045C16.9426 10.2975 17.8337 10.7738 18.5331 11.4732C19.2325 12.1726 19.7088 13.0637 19.9018 14.0338C20.0948 15.0039 19.9957 16.0095 19.6172 16.9233C19.2387 17.8371 18.5977 18.6182 17.7753 19.1677C16.9529 19.7172 15.9859 20.0106 14.9968 20.0106C14.3399 20.0114 13.6892 19.8826 13.082 19.6316C12.4749 19.3805 11.9233 19.0122 11.4587 18.5476C10.9941 18.0831 10.6258 17.5314 10.3748 16.9243C10.1237 16.3172 9.99495 15.6665 9.99578 15.0095ZM7.29268 15.0095C7.29393 16.533 7.74684 18.0219 8.59414 19.288C9.44144 20.5541 10.6451 21.5406 12.053 22.1227C13.4608 22.7048 15.0097 22.8565 16.5037 22.5585C17.9978 22.2605 19.3699 21.5263 20.4467 20.4486C21.5235 19.3709 22.2567 17.9981 22.5534 16.5038C22.8502 15.0096 22.6972 13.4608 22.1139 12.0535C21.5306 10.6461 20.5432 9.44322 19.2764 8.59695C18.0096 7.75069 16.5203 7.29901 14.9968 7.29901C13.9846 7.29901 12.9822 7.49849 12.0471 7.88606C11.112 8.27362 10.2624 8.84167 9.54693 9.55774C8.83145 10.2738 8.2641 11.1239 7.8773 12.0593C7.49051 12.9947 7.29185 13.9972 7.29268 15.0095ZM21.2197 6.99515C21.2197 7.34991 21.3247 7.69675 21.5214 7.99198C21.7181 8.2872 21.9978 8.51763 22.3252 8.65425C22.6526 8.79086 23.0131 8.82756 23.3613 8.75971C23.7096 8.69187 24.0299 8.52252 24.2821 8.27298C24.5343 8.02344 24.707 7.70487 24.7785 7.35739C24.85 7.0099 24.8171 6.64902 24.6839 6.3202C24.5507 5.99137 24.3233 5.70929 24.0301 5.50948C23.737 5.30967 23.3913 5.20105 23.0365 5.1973C22.5602 5.19897 22.1039 5.38892 21.7671 5.72572C21.4303 6.06252 21.2403 6.51884 21.2387 6.99515H21.2197ZM8.94493 27.2526C7.99393 27.2426 7.05172 27.0692 6.15953 26.7398C5.50006 26.4884 4.90523 26.0926 4.41865 25.5813C3.92186 25.0978 3.53909 24.5095 3.29816 23.8595C2.96604 22.9656 2.79043 22.0212 2.77907 21.0677C2.70943 19.4915 2.69044 19.0167 2.69044 15.0095C2.69044 11.0023 2.69044 10.5275 2.77907 8.94492C2.78977 7.99343 2.9654 7.051 3.29816 6.15953C3.54608 5.51113 3.92792 4.92229 4.41877 4.43143C4.90963 3.94058 5.49847 3.55874 6.14687 3.31082C7.03834 2.97806 7.98077 2.80243 8.93226 2.79173C10.5149 2.72209 10.9897 2.7031 14.9968 2.7031C19.004 2.7031 19.4788 2.7031 21.0614 2.79173C22.0128 2.80357 22.955 2.97917 23.8468 3.31082C24.4969 3.55175 25.0851 3.93452 25.5687 4.43131C26.0669 4.91743 26.4517 5.50754 26.6955 6.15953C27.0249 7.05172 27.1983 7.99393 27.2083 8.94492C27.2842 10.5275 27.2969 11.0023 27.2969 15.0095C27.2969 19.0167 27.2969 19.4915 27.2083 21.0677C27.1981 22.0208 27.0246 22.965 26.6955 23.8595C26.4425 24.5049 26.0588 25.0911 25.5686 25.5813C25.0784 26.0715 24.4922 26.4551 23.8468 26.7082C22.9544 27.0368 22.0123 27.2102 21.0614 27.2209C19.4788 27.2969 19.004 27.3096 14.9968 27.3096C10.9897 27.3096 10.5149 27.3096 8.93226 27.2209L8.94493 27.2526ZM8.81832 0.126609C7.57406 0.14864 6.34283 0.384179 5.17831 0.822958C4.17601 1.19703 3.26829 1.78705 2.51952 2.55117C1.7554 3.29994 1.16538 4.20766 0.791306 5.20996C0.352527 6.37449 0.116987 7.60572 0.0949568 8.84997C0.0189914 10.4516 0 10.9643 0 15.0411C0 19.118 5.65986e-08 19.6244 0.0949568 21.226C0.11636 22.4703 0.35192 23.7016 0.791306 24.866C1.16739 25.8513 1.75269 26.7433 2.50686 27.4805C3.25709 28.2443 4.16425 28.8362 5.16565 29.215C6.33189 29.6477 7.56207 29.883 8.80566 29.9114C10.4073 29.981 10.92 30 14.9968 30C19.0736 30 19.5801 30 21.1817 29.9114C22.4253 29.8837 23.6556 29.6484 24.8217 29.215C25.8187 28.8275 26.7241 28.2368 27.4805 27.4805C28.2368 26.7241 28.8275 25.8187 29.215 24.8217C29.6484 23.6556 29.8837 22.4253 29.9114 21.1817C29.981 19.5801 30 19.0673 30 14.9968C30 10.9264 30 10.4073 29.9114 8.80566C29.883 7.56207 29.6477 6.33189 29.215 5.16565C28.8308 4.16763 28.2347 3.26483 27.4678 2.51952C26.719 1.7554 25.8113 1.16538 24.809 0.791306C23.6447 0.35192 22.4133 0.11636 21.169 0.0949568C19.5674 0.0189914 19.0547 0 14.9842 0C10.9137 0 10.3946 5.65986e-08 8.79299 0.0949568L8.81832 0.126609Z" fill="url(#paint0_radial_14_49)"/>
<defs>
<radialGradient id="paint0_radial_14_49" cx="0" cy="0" r="1" gradientUnits="userSpaceOnUse" gradientTransform="translate(5.21078 30.4612) scale(36.2169)">
<stop stop-color="#FBE18A"/>
<stop offset="0.21" stop-color="#FCBB45"/>
<stop offset="0.38" stop-color="#F75274"/>
<stop offset="0.52" stop-color="#D53692"/>
<stop offset="0.74" stop-color="#8F39CE"/>
<stop offset="1" stop-color="#5B4FE9"/>
</radialGradient>
</defs>
</svg>
