<svg width="39" height="11" viewBox="0 0 39 11" fill="none" xmlns="http://www.w3.org/2000/svg">
<path fill-rule="evenodd" clip-rule="evenodd" d="M32.7188 10.6496L38.1866 5.44193L35.5971 0.0546875L32.7188 10.6496Z" fill="#097939"/>
<path fill-rule="evenodd" clip-rule="evenodd" d="M30.8672 10.6496L36.335 5.44193L33.7455 0.0546875L30.8672 10.6496Z" fill="#ED752E"/>
<path fill-rule="evenodd" clip-rule="evenodd" d="M4.74216 0.110515L2.44063 8.67057L10.6129 8.7301L12.8584 0.110515H14.9299L12.239 10.1314C12.1777 10.3262 12.061 10.4969 11.9045 10.6207C11.7479 10.7446 11.5589 10.8156 11.3627 10.8245H0.889858C0.751968 10.8356 0.613606 10.8104 0.487459 10.7512C0.361311 10.692 0.251417 10.6007 0.167852 10.4856C0.0842869 10.3706 0.0297264 10.2355 0.00917343 10.0927C-0.0113795 9.94985 0.00273237 9.80395 0.050216 9.66832L2.61649 0.110515H4.74216ZM30.0068 0.0509931H32.0861L29.2048 10.8245H27.0791L30.0068 0.0509931ZM15.1628 4.54339L25.5216 4.48386L26.2124 2.20891H15.6807L16.3136 0.113542L27.5371 0.00357838C27.6885 -0.0102131 27.8408 0.016 27.9799 0.0798045C28.119 0.143609 28.2405 0.24295 28.3332 0.368674C28.4259 0.494398 28.4868 0.642461 28.5103 0.799215C28.5338 0.955969 28.5191 1.11637 28.4676 1.26564L27.4106 5.30103C27.3018 5.65929 27.0899 5.97383 26.8038 6.20183C26.5176 6.42983 26.1711 6.56021 25.8115 6.5752H16.5445L15.4517 11H13.4381L15.1628 4.54339Z" fill="white"/>
</svg>
