<svg width="45" height="45" viewBox="0 0 45 45" fill="none" xmlns="http://www.w3.org/2000/svg">
<rect width="45" height="45" fill="white"/>
<path fill-rule="evenodd" clip-rule="evenodd" d="M35.7188 27.6496L41.1866 22.4419L38.5971 17.0547L35.7188 27.6496Z" fill="#097939"/>
<path fill-rule="evenodd" clip-rule="evenodd" d="M33.8672 27.6496L39.335 22.4419L36.7455 17.0547L33.8672 27.6496Z" fill="#ED752E"/>
<path fill-rule="evenodd" clip-rule="evenodd" d="M7.74216 17.1105L5.44063 25.6706L13.6129 25.7301L15.8584 17.1105H17.9299L15.239 27.1314C15.1777 27.3262 15.061 27.4969 14.9045 27.6207C14.7479 27.7446 14.5589 27.8156 14.3627 27.8245H3.88986C3.75197 27.8356 3.61361 27.8104 3.48746 27.7512C3.36131 27.692 3.25142 27.6007 3.16785 27.4856C3.08429 27.3706 3.02973 27.2355 3.00917 27.0927C2.98862 26.9499 3.00273 26.8039 3.05022 26.6683L5.61649 17.1105H7.74216ZM33.0068 17.051H35.0861L32.2048 27.8245H30.0791L33.0068 17.051ZM18.1628 21.5434L28.5216 21.4839L29.2124 19.2089H18.6807L19.3136 17.1135L30.5371 17.0036C30.6885 16.9898 30.8408 17.016 30.9799 17.0798C31.119 17.1436 31.2405 17.243 31.3332 17.3687C31.4259 17.4944 31.4868 17.6425 31.5103 17.7992C31.5338 17.956 31.5191 18.1164 31.4676 18.2656L30.4106 22.301C30.3018 22.6593 30.0899 22.9738 29.8038 23.2018C29.5176 23.4298 29.1711 23.5602 28.8115 23.5752H19.5445L18.4517 28H16.4381L18.1628 21.5434Z" fill="#111111"/>
</svg>
