<svg xmlns="http://www.w3.org/2000/svg" viewBox="0 0 1024 1024"><path d="M920.9 814.9 818.6 918.6c-5.6 8.2-26.4 31.6-85 31.6-18.9 0-41.7-2.4-69.2-8.6l-.5-.1c-4.1-1.1-102.5-27.6-223.2-110.6C369.9 782.2 306.1 724 251.2 658c-68.6-82.3-123.5-177-163.3-281.7-1.7-3.8-10.6-24.9-13.3-53.4-4-41.5 7.1-79.3 32-109.2l.4-.5L222.5 96.8l.6-.5c2.7-2.3 27.6-21.8 54.9-15.1 16.5 4 29.3 16.3 38 36.5l83.6 159.1c2.9 3.8 9.9 14.2 12.8 28.7 3.4 16.6 2.1 41.8-22.8 67.6l-.6.6-36.7 33.9-.9.5c-6.5 4.6-3.2 10.5-2.1 12.4l.3.6c.3.7 22.1 42.9 64.3 95.1 38.5 47.7 102.5 113.9 189 159 3.3.3 13.4-.1 25.7-12.4l.2-.2 33.1-31.8c2.9-3.8 10.7-12.5 24.2-18.1 14.6-6 39.1-9.6 73 7.8l.8.4 157.4 92.3c5.7 2.6 27.5 14 32.2 38 3.7 20.1-5.9 41.5-28.6 63.7z"/></svg>