<svg width="264" height="201" viewBox="0 0 264 201" fill="none" xmlns="http://www.w3.org/2000/svg">
<path d="M29.9844 74.8203H36.0318V200.484H29.9844V74.8203Z" fill="black"/>
<path d="M36.5412 200.993H29.4688V74.3047H36.5412V200.993ZM30.4937 199.968H35.5162V75.3297H30.4937V199.968Z" fill="white"/>
<path d="M35.2721 80.1536C52.1981 80.1536 65.9192 66.4324 65.9192 49.5065C65.9192 32.5806 52.1981 18.8594 35.2721 18.8594C18.3462 18.8594 4.625 32.5806 4.625 49.5065C4.625 66.4324 18.3462 80.1536 35.2721 80.1536Z" fill="white"/>
<path d="M35.2768 80.663C18.096 80.663 4.11719 66.6842 4.11719 49.5034C4.11719 32.3225 18.096 18.3438 35.2768 18.3438C52.4576 18.3438 66.4364 32.3225 66.4364 49.5034C66.4364 66.6842 52.4576 80.663 35.2768 80.663ZM35.2768 19.3687C18.6597 19.3687 5.14217 32.8863 5.14217 49.5034C5.14217 66.1205 18.6597 79.638 35.2768 79.638C51.8939 79.638 65.4114 66.1205 65.4114 49.5034C65.4114 32.8863 51.8939 19.3687 35.2768 19.3687Z" fill="white"/>
<path d="M31.1627 80.2317C48.0887 80.2317 61.8099 66.5106 61.8099 49.5846C61.8099 32.6587 48.0887 18.9375 31.1627 18.9375C14.2368 18.9375 0.515625 32.6587 0.515625 49.5846C0.515625 66.5106 14.2368 80.2317 31.1627 80.2317Z" fill="black"/>
<path d="M31.1596 80.7411C13.9767 80.7411 0 66.7623 0 49.5815C0 32.4007 13.9767 18.4219 31.1596 18.4219C48.3425 18.4219 62.3192 32.3986 62.3192 49.5815C62.3192 66.7644 48.3404 80.7411 31.1596 80.7411ZM31.1596 19.4469C14.5425 19.4469 1.02499 32.9644 1.02499 49.5815C1.02499 66.1986 14.5425 79.7161 31.1596 79.7161C47.7767 79.7161 61.2942 66.1965 61.2942 49.5815C61.2942 32.9664 47.7767 19.4469 31.1596 19.4469Z" fill="white"/>
<path d="M34.5787 30.7718V67.1342C34.5787 67.4596 34.6428 67.7818 34.7674 68.0824C34.892 68.3829 35.0746 68.656 35.3047 68.886C35.5349 69.116 35.8082 69.2984 36.1088 69.4227C36.4095 69.547 36.7318 69.6109 37.0571 69.6106C37.3825 69.6109 37.7047 69.547 38.0054 69.4227C38.3061 69.2984 38.5793 69.116 38.8095 68.886C39.0397 68.656 39.2223 68.3829 39.3468 68.0824C39.4714 67.7818 39.5355 67.4596 39.5355 67.1342V55.5006L42.1349 55.5293C42.1349 55.5293 41.9873 42.4956 41.1509 38.207C39.9947 32.2847 34.5787 30.7718 34.5787 30.7718ZM28.9474 32.0797V39.0147H27.1025V32.0797C27.1025 31.9117 27.0694 31.7453 27.0051 31.5901C26.9408 31.4349 26.8466 31.2939 26.7278 31.1751C26.609 31.0564 26.468 30.9621 26.3128 30.8978C26.1576 30.8336 25.9913 30.8005 25.8233 30.8005C25.4844 30.801 25.1595 30.936 24.9201 31.1759C24.6806 31.4157 24.5461 31.7408 24.5461 32.0797V39.0147H22.736V32.0448C22.736 31.7059 22.6015 31.3808 22.3621 31.141C22.1226 30.9012 21.7978 30.7662 21.4589 30.7656C21.1196 30.7656 20.7942 30.9004 20.5544 31.1403C20.3145 31.3802 20.1797 31.7055 20.1797 32.0448V40.8187C20.1792 41.8809 20.478 42.9218 21.0418 43.822C21.6056 44.7223 22.4116 45.4455 23.3674 45.9088V67.1137C23.3669 67.77 23.6266 68.3997 24.0897 68.8647C24.5528 69.3297 25.1814 69.592 25.8376 69.5942C26.4949 69.5942 27.1253 69.3331 27.5901 68.8683C28.0549 68.4035 28.316 67.7731 28.316 67.1158V45.9006C29.2647 45.4346 30.0637 44.712 30.6225 43.8148C31.1812 42.9176 31.4773 41.8818 31.4771 40.8249V39.5949L31.5017 32.0776C31.502 31.9094 31.4691 31.7427 31.405 31.5871C31.3408 31.4316 31.2467 31.2902 31.1279 31.171C31.0091 31.0519 30.868 30.9573 30.7127 30.8926C30.5573 30.828 30.3908 30.7946 30.2225 30.7943C30.0544 30.7949 29.888 30.8286 29.7328 30.8935C29.5777 30.9584 29.4369 31.0532 29.3185 31.1726C29.2 31.292 29.1063 31.4336 29.0426 31.5892C28.979 31.7448 28.9466 31.9115 28.9474 32.0797Z" fill="white"/>
<path d="M71.875 67.4531H185.513V188.924H71.875V67.4531Z" fill="black"/>
<path d="M186.03 189.434H71.3672V66.9375H186.03V189.434ZM72.3922 188.409H185.005V67.9625H72.3922V188.409Z" fill="white"/>
<path d="M121 112.523H174.271V161.924H121V112.523Z" fill="black"/>
<path d="M174.78 162.437H120.484V112.008H174.78V162.437ZM121.509 161.412H173.755V113.033H121.509V161.412Z" fill="white"/>
<path d="M121 112.523H124.134V161.924H121V112.523Z" fill="white"/>
<path d="M124.648 162.435H120.484V112.005H124.648V162.435ZM121.516 161.41H123.623V113.03H121.509L121.516 161.41ZM183.484 67.4531H245.603V188.924H183.484V67.4531Z" fill="white"/>
<path d="M246.116 189.434H182.977V66.9375H246.116V189.434ZM184.002 188.409H245.091V67.9625H184.002V188.409Z" fill="white"/>
<path d="M162.469 83.7656H183.487V115.038H162.469V83.7656Z" fill="black"/>
<path d="M184 115.555H161.961V83.2578H184.004L184 115.555ZM162.982 114.53H182.975V84.2828H162.986L162.982 114.53Z" fill="white"/>
<path d="M160.954 83.7656H183.201L163.121 115.038H140.875L160.954 83.7656Z" fill="white"/>
<path d="M163.399 115.555H139.938L160.675 83.2578H184.139L163.399 115.555ZM141.811 114.53H162.84L182.259 84.2828H161.235L141.811 114.53Z" fill="white"/>
<path d="M138.705 83.7656H160.951L140.871 115.038H118.625L138.705 83.7656Z" fill="black"/>
<path d="M141.15 115.555H117.68L138.423 83.2578H161.887L141.15 115.555ZM119.562 114.53H140.59L160.012 84.2828H138.983L119.562 114.53Z" fill="white"/>
<path d="M183.484 62.5703H248.091V72.156H183.484V62.5703Z" fill="black"/>
<path d="M248.607 72.6695H182.977V62.0547H248.607V72.6695ZM184.002 71.6445H247.582V63.0797H184.002V71.6445Z" fill="white"/>
<path d="M81.7422 112.523H117.133V190.679H81.7422V112.523Z" fill="black"/>
<path d="M117.642 191.188H81.2266V112.008H117.642V191.188ZM82.2515 190.163H116.617V113.033H82.2515V190.163Z" fill="white"/>
<path d="M116.462 83.7656H138.709L118.629 115.038H96.3828L116.462 83.7656Z" fill="white"/>
<path d="M118.914 115.555H95.4442L116.182 83.2578H139.646L118.914 115.555ZM97.3261 114.53H118.349L137.774 84.2828H116.741L97.3261 114.53ZM81.7422 112.525H84.6224V190.681H81.7422V112.525Z" fill="white"/>
<path d="M85.1318 191.188H81.2266V112.008H85.1318V191.188ZM82.2515 190.163H84.1068V113.033H82.2515V190.163Z" fill="white"/>
<path d="M94.2123 83.7656H116.459L96.3791 115.038H74.1328L94.2123 83.7656Z" fill="black"/>
<path d="M96.6573 115.555H73.1953L93.9308 83.2578H117.395L96.6573 115.555ZM75.069 114.53H96.0976L115.519 84.2828H94.4904L75.069 114.53Z" fill="white"/>
<path d="M96.3088 114.852C96.3088 117.802 95.1369 120.631 93.0509 122.717C90.9649 124.803 88.1357 125.975 85.1856 125.975C82.2356 125.975 79.4064 124.803 77.3204 122.717C75.2344 120.631 74.0625 117.802 74.0625 114.852H96.3088Z" fill="black"/>
<path d="M85.1825 126.492C82.0977 126.488 79.1404 125.261 76.9591 123.08C74.7778 120.898 73.5507 117.941 73.5469 114.856V114.344H96.8182V114.856C96.8149 117.941 95.588 120.899 93.4066 123.08C91.2252 125.262 88.2675 126.489 85.1825 126.492ZM74.5842 115.369C74.7206 118.088 75.8968 120.651 77.8696 122.527C79.8424 124.403 82.4609 125.45 85.1835 125.45C87.9062 125.45 90.5247 124.403 92.4975 122.527C94.4703 120.651 95.6466 118.088 95.7829 115.369H74.5842Z" fill="white"/>
<path d="M72.0278 83.7656H94.2741L74.1843 115.038H52.1881C52.1641 115.038 52.1404 115.032 52.1196 115.02C52.0989 115.008 52.0819 114.99 52.0704 114.969C52.059 114.948 52.0536 114.924 52.0549 114.9C52.0561 114.876 52.0639 114.853 52.0774 114.833L72.0278 83.7656Z" fill="white"/>
<path d="M74.4783 115.555H52.191C52.0754 115.556 51.9618 115.525 51.8623 115.466C51.7627 115.407 51.6809 115.323 51.6255 115.221C51.57 115.12 51.543 115.005 51.5473 114.89C51.5516 114.774 51.587 114.662 51.6498 114.565L71.7518 83.2578H95.2158L74.4783 115.555ZM52.89 114.53H73.9186L93.3401 84.2828H72.3115L52.89 114.53Z" fill="white"/>
<path d="M74.1252 114.858C74.1214 117.748 72.9927 120.523 70.9781 122.596C68.9635 124.668 66.2213 125.875 63.3323 125.961C60.4432 126.047 57.6342 125.005 55.5002 123.056C53.3662 121.106 52.0748 118.403 51.8994 115.518C51.8946 115.432 51.9076 115.345 51.9374 115.265C51.9673 115.184 52.0134 115.11 52.0729 115.047C52.1325 114.985 52.2042 114.935 52.2837 114.902C52.3631 114.868 52.4486 114.851 52.5349 114.852L74.1252 114.858Z" fill="black"/>
<path d="M62.9998 126.492C60.035 126.49 57.1825 125.357 55.0242 123.325C52.8659 121.292 51.5642 118.513 51.3846 115.553C51.3759 115.398 51.3988 115.243 51.4521 115.097C51.5053 114.951 51.5877 114.818 51.6942 114.705C51.8022 114.591 51.9322 114.5 52.0763 114.438C52.2205 114.376 52.3757 114.344 52.5326 114.344H74.6313V114.856C74.6281 117.941 73.4017 120.898 71.2212 123.079C69.0407 125.26 66.084 126.488 62.9998 126.492ZM52.5326 115.369C52.5154 115.369 52.4984 115.372 52.4826 115.379C52.4667 115.386 52.4524 115.395 52.4404 115.408C52.4291 115.419 52.4204 115.432 52.4148 115.447C52.4091 115.462 52.4066 115.478 52.4076 115.494C52.5484 118.22 53.7348 120.788 55.7201 122.662C57.7053 124.536 60.3366 125.573 63.0667 125.557C65.7968 125.541 68.4156 124.473 70.3786 122.575C72.3416 120.678 73.4976 118.097 73.6063 115.369H52.5326Z" fill="white"/>
<path d="M118.551 114.852C118.551 117.802 117.379 120.631 115.293 122.717C113.207 124.803 110.378 125.975 107.428 125.975C104.478 125.975 101.649 124.803 99.5626 122.717C97.4766 120.631 96.3047 117.802 96.3047 114.852H118.551Z" fill="black"/>
<path d="M107.433 126.492C104.348 126.488 101.39 125.261 99.2091 123.08C97.0278 120.898 95.8007 117.941 95.7969 114.856V114.344H119.066V114.856C119.063 117.941 117.836 120.898 115.655 123.08C113.474 125.261 110.517 126.488 107.433 126.492ZM96.8342 115.369C96.9706 118.088 98.1468 120.651 100.12 122.527C102.092 124.403 104.711 125.45 107.434 125.45C110.156 125.45 112.775 124.403 114.748 122.527C116.72 120.651 117.897 118.088 118.033 115.369H96.8342Z" fill="white"/>
<path d="M140.793 114.852C140.793 117.802 139.621 120.631 137.535 122.717C135.449 124.803 132.62 125.975 129.67 125.975C126.72 125.975 123.891 124.803 121.805 122.717C119.719 120.631 118.547 117.802 118.547 114.852H140.793Z" fill="black"/>
<path d="M129.675 126.492C126.59 126.488 123.633 125.261 121.451 123.08C119.27 120.898 118.043 117.941 118.039 114.856V114.344H141.31V114.856C141.307 117.941 140.08 120.899 137.899 123.08C135.717 125.262 132.76 126.489 129.675 126.492ZM119.076 115.369C119.208 118.091 120.381 120.659 122.355 122.539C124.328 124.42 126.949 125.469 129.675 125.469C132.4 125.469 135.022 124.42 136.995 122.539C138.968 120.659 140.142 118.091 140.273 115.369H119.076Z" fill="white"/>
<path d="M163.043 114.852C163.043 117.802 161.871 120.631 159.785 122.717C157.699 124.803 154.87 125.975 151.92 125.975C148.97 125.975 146.141 124.803 144.055 122.717C141.969 120.631 140.797 117.802 140.797 114.852H163.043Z" fill="black"/>
<path d="M151.915 126.492C148.83 126.488 145.873 125.261 143.692 123.08C141.511 120.898 140.283 117.941 140.28 114.856V114.344H163.551V114.856C163.548 117.941 162.321 120.899 160.139 123.08C157.958 125.262 155 126.489 151.915 126.492ZM141.317 115.369C141.448 118.091 142.622 120.659 144.595 122.539C146.568 124.42 149.19 125.469 151.915 125.469C154.641 125.469 157.262 124.42 159.235 122.539C161.209 120.659 162.382 118.091 162.514 115.369H141.317ZM111.506 155.749H109.018C108.064 155.749 107.15 155.37 106.476 154.695C105.801 154.021 105.422 153.107 105.422 152.153V137.775C105.422 136.822 105.801 135.908 106.476 135.234C107.15 134.56 108.064 134.181 109.018 134.181H111.506C111.751 134.181 111.985 134.279 112.158 134.452C112.331 134.625 112.429 134.859 112.429 135.104C112.428 135.348 112.331 135.583 112.158 135.756C111.985 135.928 111.751 136.026 111.506 136.026H109.018C108.554 136.026 108.109 136.21 107.78 136.538C107.452 136.866 107.267 137.311 107.267 137.775V152.153C107.267 152.618 107.452 153.063 107.78 153.391C108.108 153.719 108.553 153.904 109.018 153.904H111.506C111.751 153.904 111.985 154.001 112.158 154.174C112.331 154.347 112.429 154.582 112.429 154.827C112.428 155.071 112.331 155.305 112.158 155.478C111.985 155.651 111.751 155.749 111.506 155.749Z" fill="white"/>
<path d="M200.258 88.9297H210.213V112.523H200.258V88.9297Z" fill="black"/>
<path d="M210.728 113.034H199.75V88.4141H210.728V113.034ZM200.775 112.009H209.703V89.439H200.775V112.009Z" fill="white"/>
<path d="M207.359 88.9297H238.419V112.523H207.359V88.9297Z" fill="black"/>
<path d="M238.925 113.034H206.852V88.4141H238.936L238.925 113.034ZM207.866 112.009H237.9V89.439H207.877L207.866 112.009Z" fill="white"/>
<path d="M221.828 95.9297H233.626V98.3261H221.828V95.9297ZM221.92 100.815H233.718V103.211H221.92V100.815ZM221.92 105.792H233.718V108.189H221.92V105.792Z" fill="white"/>
<path d="M69.3906 62.5703H185.518V72.156H69.3906V62.5703Z" fill="black"/>
<path d="M186.027 72.6695H68.875V62.0547H186.027V72.6695ZM69.9 71.6445H185.002V63.0797H69.9V71.6445Z" fill="white"/>
<path d="M69.3906 185.883H185.518V195.468H69.3906V185.883Z" fill="black"/>
<path d="M186.027 195.984H68.875V185.375H186.027V195.984ZM69.9 194.959H185.002V186.4H69.9V194.959Z" fill="white"/>
<path d="M183.484 185.883H248.091V195.468H183.484V185.883Z" fill="black"/>
<path d="M248.607 195.984H182.977V185.375H248.607V195.984ZM184.002 194.959H247.582V186.4H184.002V194.959Z" fill="white"/>
<path d="M183.484 194.18H251.131V200.262H183.484V194.18Z" fill="black"/>
<path d="M251.643 200.771H182.969V193.664H251.643V200.771ZM183.994 199.746H250.618V194.689H183.994V199.746Z" fill="white"/>
<path d="M62.9375 194.18H185.516V200.262H62.9375V194.18Z" fill="black"/>
<path d="M186.033 200.771H62.4297V193.664H186.043L186.033 200.771ZM63.4547 199.746H185.018V194.689H63.4547V199.746Z" fill="white"/>
<path d="M88.5786 23.0611H79.9688V22.0362H88.1932C88.3982 21.4212 88.9251 20.2383 90.0546 19.5413C90.9003 19.0385 91.9029 18.8682 92.8672 19.0637C93.23 17.2823 94.6179 14.6562 98.0085 14.6562C99.339 14.6562 101.655 15.3245 102.451 17.7312C103.215 17.4463 104.611 17.1019 105.977 17.6574C107.174 18.1433 108.064 19.199 108.629 20.798H112.973V21.823H107.879L107.768 21.4622C107.309 19.9718 106.579 19.0022 105.595 18.6086C104.068 17.9936 102.369 18.8812 102.352 18.8915L101.737 19.2195L101.6 18.541C101.147 16.286 99.1258 15.671 98.0024 15.671C94.2099 15.671 93.8122 19.5495 93.7979 19.7156L93.7425 20.3183L93.1562 20.1645C92.1456 19.898 91.2826 19.9759 90.5938 20.3982C89.415 21.1219 89.0768 22.6306 89.0727 22.6532L88.9866 23.0632L88.5786 23.0611Z" fill="white"/>
<path d="M195.893 26.2397C203.139 26.2397 209.013 20.3657 209.013 13.1198C209.013 5.87395 203.139 0 195.893 0C188.647 0 182.773 5.87395 182.773 13.1198C182.773 20.3657 188.647 26.2397 195.893 26.2397Z" fill="white"/>
<path d="M159.406 21.9319H209.631C209.631 21.9319 207.991 15.577 202.661 17.627C202.661 17.627 200.611 10.4521 193.026 13.937C193.026 13.937 182.366 -0.617796 169.656 17.832C169.656 17.832 163.711 13.527 159.406 21.9319Z" fill="black"/>
<path d="M210.293 22.4473H158.568L158.95 21.7011C160.481 18.7143 162.396 16.9268 164.643 16.3876C166.828 15.8649 168.693 16.6828 169.513 17.144C173.759 11.1274 178.25 8.04216 182.869 7.97656H183.023C188.422 7.97656 192.188 12.095 193.184 13.3065C195.556 12.2959 197.655 12.1975 199.426 13.0113C201.565 13.9932 202.594 16.0248 202.975 16.9759C204.369 16.5496 205.64 16.6275 206.784 17.2117C209.244 18.4806 210.092 21.6683 210.127 21.8036L210.293 22.4473ZM160.274 21.4223H208.914C208.563 20.5101 207.756 18.8681 206.306 18.126C205.308 17.6135 204.143 17.6073 202.842 18.1075L202.319 18.3125L202.165 17.7754C202.165 17.7488 201.345 15.0264 198.988 13.9481C197.409 13.2265 195.474 13.3803 193.236 14.4094L192.856 14.5836L192.608 14.2474C192.569 14.1941 188.617 8.9175 182.873 9.00565C178.504 9.07125 174.199 12.1421 170.075 18.1301L169.778 18.5626L169.351 18.2531C169.333 18.2408 167.289 16.8038 164.864 17.3921C163.117 17.8123 161.572 19.1674 160.27 21.4223H160.274ZM143.93 44.5871H133.68V43.5621H143.134C143.388 42.7872 144.096 41.1021 145.613 40.4871C146.615 40.0771 147.755 40.2063 149.007 40.8725C149.579 39.7471 150.967 38.39 153.454 38.8553L153.265 39.8639C150.477 39.3412 149.78 41.6556 149.751 41.756L149.563 42.4161L148.985 42.0471C147.82 41.3071 146.816 41.1 146 41.4321C144.532 42.0348 144.024 44.1668 144.02 44.1873L143.93 44.5871Z" fill="white"/>
<path d="M18 200H264V201H18V200Z" fill="white"/>
</svg>
