<svg width="45" height="45" viewBox="0 0 45 45" fill="none" xmlns="http://www.w3.org/2000/svg">
<rect x="6" y="6" width="33.7344" height="33.7344" rx="7" fill="#4CAF50"/>
<path d="M31.7524 13.9395C29.4735 11.7366 26.4749 10.4922 23.2815 10.4922C14.1158 10.4922 8.36056 20.4225 12.9374 28.3217L11.2422 34.4808L17.5742 32.8296C20.3329 34.3199 22.5928 34.1879 23.2875 34.2759C33.9154 34.2759 39.2059 21.418 31.7374 13.9785L31.7524 13.9395Z" fill="#ECEFF1"/>
<path d="M23.3073 32.2291L23.3013 32.2281H23.2853C20.1048 32.2281 18.0728 30.7218 17.8729 30.6349L14.1246 31.6094L15.1292 27.9661L14.8903 27.5913C13.9007 26.0161 13.375 24.2019 13.375 22.3338C13.375 13.545 24.1149 9.15009 30.3299 15.3621C36.53 21.5092 32.1771 32.2291 23.3073 32.2291Z" fill="#4CAF50"/>
<path d="M28.7438 24.7946L28.7348 24.8696C28.434 24.7196 26.9687 24.003 26.6958 23.904C26.0831 23.6771 26.256 23.868 25.0796 25.2154C24.9047 25.4103 24.7308 25.4253 24.4339 25.2904C24.134 25.1404 23.1715 24.8256 22.032 23.8061C21.1445 23.0114 20.5487 22.0369 20.3728 21.7371C20.08 21.2313 20.6927 21.1593 21.2504 20.1038C21.3504 19.8939 21.2994 19.729 21.2254 19.5801C21.1505 19.4302 20.5537 17.9608 20.3039 17.3751C20.064 16.7914 19.8171 16.8654 19.6322 16.8654C19.0565 16.8154 18.6357 16.8234 18.2648 17.2092C16.6516 18.9824 17.0584 20.8115 18.4387 22.7566C21.1515 26.3069 22.5968 26.9606 25.2395 27.8681C25.9532 28.095 26.6039 28.063 27.1186 27.9891C27.6923 27.8981 28.8848 27.2684 29.1337 26.5638C29.3885 25.8591 29.3885 25.2744 29.3136 25.1394C29.2396 25.0045 29.0437 24.9295 28.7438 24.7946Z" fill="#FAFAFA"/>
</svg>
