<svg width="34" height="34" viewBox="0 0 34 34" fill="none" xmlns="http://www.w3.org/2000/svg">
<rect width="33.7344" height="33.7344" rx="7" fill="#4CAF50"/>
<path d="M25.7524 7.93955C23.4735 5.7366 20.4749 4.49219 17.2815 4.49219C8.11582 4.49219 2.36056 14.4225 6.93738 22.3217L5.24219 28.4808L11.5742 26.8296C14.3329 28.3199 16.5928 28.1879 17.2875 28.2759C27.9154 28.2759 33.2059 15.418 25.7374 7.97853L25.7524 7.93955Z" fill="#ECEFF1"/>
<path d="M17.3073 26.2291L17.3013 26.2281H17.2853C14.1048 26.2281 12.0728 24.7218 11.8729 24.6349L8.12464 25.6094L9.12917 21.9661L8.89028 21.5913C7.90075 20.0161 7.375 18.2019 7.375 16.3338C7.375 7.545 18.1149 3.15009 24.3299 9.36213C30.53 15.5092 26.1771 26.2291 17.3073 26.2291Z" fill="#4CAF50"/>
<path d="M22.7438 18.7946L22.7348 18.8696C22.434 18.7196 20.9687 18.003 20.6958 17.904C20.0831 17.6771 20.256 17.868 19.0796 19.2154C18.9047 19.4103 18.7308 19.4253 18.4339 19.2904C18.134 19.1404 17.1715 18.8256 16.032 17.8061C15.1445 17.0114 14.5487 16.0369 14.3728 15.7371C14.08 15.2313 14.6927 15.1593 15.2504 14.1038C15.3504 13.8939 15.2994 13.729 15.2254 13.5801C15.1505 13.4302 14.5537 11.9608 14.3039 11.3751C14.064 10.7914 13.8171 10.8654 13.6322 10.8654C13.0565 10.8154 12.6357 10.8234 12.2648 11.2092C10.6516 12.9824 11.0584 14.8115 12.4387 16.7566C15.1515 20.3069 16.5968 20.9606 19.2395 21.8681C19.9532 22.095 20.6039 22.063 21.1186 21.9891C21.6923 21.8981 22.8848 21.2684 23.1337 20.5638C23.3885 19.8591 23.3885 19.2744 23.3136 19.1394C23.2396 19.0045 23.0437 18.9295 22.7438 18.7946Z" fill="#FAFAFA"/>
</svg>
