<svg width="33" height="23" viewBox="0 0 33 23" fill="none" xmlns="http://www.w3.org/2000/svg">
<path d="M11 17.5V5.5L24.5 7.5L23.5 17.5H11Z" fill="white"/>
<path d="M32.3125 3.58909C32.1258 2.89419 31.7578 2.25974 31.2451 1.74902C30.7324 1.23831 30.093 0.869184 29.3906 0.678466C26.8194 0 16.5 0 16.5 0C16.5 0 6.1875 0 3.60938 0.678466C2.90701 0.869184 2.26758 1.23831 1.75489 1.74902C1.2422 2.25974 0.874169 2.89419 0.6875 3.58909C0 6.1469 0 11.5 0 11.5C0 11.5 0 16.8463 0.6875 19.4109C0.874169 20.1058 1.2422 20.7403 1.75489 21.251C2.26758 21.7617 2.90701 22.1308 3.60938 22.3215C6.1875 23 16.5 23 16.5 23C16.5 23 26.8125 23 29.3906 22.3215C30.093 22.1308 30.7324 21.7617 31.2451 21.251C31.7578 20.7403 32.1258 20.1058 32.3125 19.4109C33 16.8463 33 11.5 33 11.5C33 11.5 33 6.1469 32.3125 3.58909ZM13.1244 16.351V6.64218L21.7525 11.5L13.1244 16.351Z" fill="#EC0000"/>
</svg>
