<svg width="18" height="21" viewBox="0 0 18 21" fill="none" xmlns="http://www.w3.org/2000/svg">
<path d="M12.2519 3.34928C12.6698 2.8918 12.9885 2.36042 13.1895 1.78565C13.3906 1.21089 13.4702 0.604054 13.4236 0C12.1407 0.0983648 10.9498 0.671489 10.1074 1.59589C9.70409 2.03894 9.39842 2.55435 9.20855 3.11162C9.01868 3.66889 8.94846 4.25667 9.00205 4.84018C9.62787 4.84513 10.2465 4.71324 10.81 4.45471C11.3736 4.19617 11.8669 3.81794 12.2519 3.34928ZM15.0375 11.1608C15.0449 10.3562 15.2681 9.56677 15.6858 8.86687C16.1036 8.16697 16.7022 7.57972 17.4252 7.16052C16.9689 6.53607 16.3657 6.02117 15.6635 5.65668C14.9612 5.29219 14.1792 5.08812 13.3794 5.06066C11.655 4.89267 10.0632 6.0161 9.14575 6.0161C8.22827 6.0161 6.93495 5.08166 5.49794 5.10266C4.55849 5.13205 3.6431 5.39221 2.84105 5.85776C2.039 6.3233 1.37768 6.97834 0.921583 7.75898C-1.02392 10.9718 0.424153 15.749 2.36966 18.3423C3.25397 19.6127 4.35937 21.0511 5.8185 20.9986C7.27763 20.9461 7.75295 20.1377 9.44421 20.1377C11.1355 20.1377 11.655 20.9986 13.092 20.9671C14.529 20.9356 15.546 19.6652 16.4745 18.3948C17.1323 17.4724 17.6461 16.4646 18 15.4025C17.1239 15.0476 16.3765 14.4568 15.85 13.703C15.3236 12.9491 15.0411 12.0654 15.0375 11.1608Z" fill="#179428"/>
</svg>
