<svg width="26" height="26" viewBox="0 0 26 26" fill="none" xmlns="http://www.w3.org/2000/svg">
<path fill-rule="evenodd" clip-rule="evenodd" d="M3 0C1.34315 0 0 1.34315 0 3V23C0 24.6569 1.34315 26 3 26H23C24.6569 26 26 24.6569 26 23V3C26 1.34315 24.6569 0 23 0H3ZM19.7438 12.3794L15.62 8.23683C15.4542 8.08073 15.2346 7.99648 15.0074 8.00011C14.7802 8.00374 14.5634 8.09596 14.4027 8.25727C14.242 8.41859 14.15 8.63635 14.1462 8.86455C14.1424 9.09274 14.2271 9.31347 14.3823 9.48009L17.0131 12.1247H6.87526C6.64313 12.1247 6.4205 12.2174 6.25636 12.3823C6.09221 12.5472 6 12.7708 6 13.004L6.00792 13.1233C6.03664 13.3339 6.14033 13.5269 6.29978 13.6666C6.45924 13.8063 6.66368 13.8833 6.87526 13.8832H17.0131L14.3823 16.5199C14.2271 16.6865 14.1424 16.9073 14.1462 17.1355C14.15 17.3636 14.242 17.5814 14.4027 17.7427C14.5634 17.904 14.7802 17.9963 15.0074 17.9999C15.2346 18.0035 15.4542 17.9183 15.62 17.7622L19.7438 13.6216C19.825 13.5401 19.8895 13.4432 19.9334 13.3367C19.9774 13.2301 20 13.1159 20 13.0005C20 12.8851 19.9774 12.7709 19.9334 12.6643C19.8895 12.5578 19.825 12.4609 19.7438 12.3794Z" fill="white"/>
</svg>
