<svg width="26" height="26" viewBox="0 0 26 26" fill="none" xmlns="http://www.w3.org/2000/svg">
<path d="M21.1429 0H4.85714C4.49721 0 4.15201 0.136962 3.8975 0.380756C3.64298 0.62455 3.5 0.955205 3.5 1.29998V24.6997C3.49998 24.9482 3.57433 25.1915 3.71423 25.4008C3.85413 25.61 4.05373 25.7765 4.28937 25.8805C4.52501 25.9845 4.78683 26.0215 5.0438 25.9874C5.30077 25.9532 5.54213 25.8492 5.73929 25.6876L13 19.8507L20.1793 25.6226C20.3061 25.7431 20.4565 25.8384 20.6218 25.9031C20.7872 25.9678 20.9642 26.0006 21.1429 25.9996C21.3209 26.004 21.4975 25.9684 21.6586 25.8956C21.9064 25.7981 22.1186 25.6325 22.2683 25.4197C22.418 25.2068 22.4987 24.9563 22.5 24.6997V1.29998C22.5 0.955205 22.357 0.62455 22.1025 0.380756C21.848 0.136962 21.5028 0 21.1429 0Z" fill="white"/>
</svg>
