<svg width="18" height="18" viewBox="0 0 18 18" fill="none" xmlns="http://www.w3.org/2000/svg">
<path d="M9 0.9C4.52663 0.9 0.9 4.52663 0.9 9C0.9 13.4734 4.52663 17.1 9 17.1C13.4734 17.1 17.1 13.4734 17.1 9C17.1 4.52663 13.4734 0.9 9 0.9ZM9 16.1426C5.06312 16.1426 1.8574 12.9369 1.8574 9C1.8574 5.06312 5.06312 1.8574 9 1.8574C12.9369 1.8574 16.1426 5.06312 16.1426 9C16.1426 12.9369 12.9369 16.1426 9 16.1426Z" fill="white" stroke="white" stroke-width="0.2"/>
<path d="M11.8342 6.14545C11.6607 5.97381 11.3602 5.97444 11.1876 6.14731L8.9916 8.34612L6.79563 6.14731C6.62236 5.97381 6.32037 5.97381 6.14709 6.14731C5.97389 6.32074 5.97389 6.6229 6.14709 6.79633L8.34324 8.99532L6.14709 11.1943C5.97389 11.3677 5.97389 11.6699 6.14709 11.8433C6.24236 11.9387 6.35824 11.9772 6.47136 11.9772C6.58449 11.9772 6.70036 11.9387 6.79563 11.8433L8.9916 9.64452L11.1876 11.8433C11.2828 11.9387 11.3987 11.9772 11.5118 11.9772C11.625 11.9772 11.7408 11.9387 11.8361 11.8433C12.0093 11.6699 12.0093 11.3677 11.8361 11.1943L9.63995 8.99532L11.8344 6.79807C12.0248 6.62423 12.0248 6.31924 11.8342 6.14545Z" fill="white" stroke="white" stroke-width="0.2"/>
</svg>
