<svg width="82" height="44" viewBox="0 0 82 44" fill="none" xmlns="http://www.w3.org/2000/svg">
<path d="M4.48428 12.9759C5.92787 12.9759 7.12262 12.4553 7.90365 11.497L6.67311 10.3615C6.42273 10.6718 6.10528 10.9214 5.74461 11.0915C5.38394 11.2616 4.98941 11.3477 4.59068 11.3434C4.23847 11.359 3.8869 11.301 3.5583 11.1733C3.22971 11.0456 2.93129 10.8509 2.68203 10.6015C2.43277 10.3522 2.23812 10.0538 2.11045 9.72516C1.98279 9.39655 1.92491 9.04496 1.94049 8.69276C1.92494 8.34058 1.98285 7.98902 2.11053 7.66043C2.23821 7.33185 2.43287 7.03342 2.68213 6.78414C2.93139 6.53486 3.22979 6.34017 3.55837 6.21246C3.88694 6.08475 4.2385 6.02681 4.59068 6.04233C4.98819 6.03848 5.38152 6.12364 5.74185 6.29154C6.10218 6.45945 6.42037 6.70585 6.67311 7.0127L7.90365 5.87718C7.12287 4.93076 5.92885 4.41015 4.49712 4.41015C1.91679 4.40966 0 6.19537 0 8.69276C0 11.1901 1.91679 12.9759 4.48428 12.9759ZM13.6064 6.46839L11.8081 10.7868L10.0214 6.46839H8.11545L10.8733 12.8811L10.8486 12.9403C10.6 13.5081 10.3161 13.733 9.80737 13.733C9.42386 13.725 9.05534 13.5826 8.76615 13.3306L8.09175 14.6438C8.60061 15.0326 9.22639 15.237 9.86661 15.2237C11.0142 15.2237 11.8908 14.7623 12.5049 13.2242L15.3812 6.46839H13.6064ZM19.9011 6.37385C19.545 6.35614 19.1893 6.41569 18.8584 6.54842C18.5275 6.68115 18.2292 6.88391 17.984 7.14279V4.05469H16.1381V12.8337H17.9011V12.1003C18.3625 12.6564 19.0487 12.9285 19.9006 12.9285C21.687 12.9285 23.0714 11.6508 23.0714 9.65103C23.0714 7.6513 21.6873 6.3736 19.9008 6.3736L19.9011 6.37385ZM19.5814 11.414C18.6584 11.414 17.9606 10.7515 17.9606 9.65103C17.9606 8.55057 18.6587 7.88803 19.5814 7.88803C20.5041 7.88803 21.2022 8.55057 21.2022 9.65103C21.2022 10.7515 20.5041 11.414 19.5814 11.414ZM30.5376 9.67473C30.5376 7.62785 29.094 6.3736 27.2249 6.3736C25.2844 6.3736 23.8292 7.74609 23.8292 9.65103C23.8292 11.5441 25.2609 12.9285 27.4616 12.9285C28.6092 12.9285 29.4966 12.5735 30.0883 11.8991L29.1064 10.8342C28.8962 11.0403 28.646 11.2011 28.3713 11.3069C28.0966 11.4127 27.8031 11.4612 27.509 11.4493C26.5389 11.4493 25.8645 10.9643 25.687 10.1716H30.5026C30.5139 10.0179 30.5376 9.81667 30.5376 9.67473ZM27.2365 7.76979C27.6155 7.75457 27.9865 7.88235 28.2758 8.12779C28.5651 8.37322 28.7516 8.7184 28.7983 9.09488H25.6633C25.7086 8.71569 25.8963 8.36789 26.1884 8.12187C26.4805 7.87585 26.8551 7.75 27.2365 7.76979ZM33.5312 7.30842V6.46913H31.7682V12.8337H33.6139V9.82852C33.6139 8.60982 34.2883 8.05366 35.3058 8.05366C35.4477 8.05366 35.566 8.06551 35.72 8.07835V6.37508C34.7378 6.3736 33.9804 6.69302 33.5309 7.30842H33.5312Z" fill="white"/>
<path d="M0 43.7019H11.0164C18.9497 43.7019 24.3886 38.9211 24.3886 31.5768C24.3886 24.2325 18.951 19.4518 11.0164 19.4518H0V43.7019ZM5.61214 39.0939V24.0593H10.7392C15.5545 24.0593 18.7071 26.9346 18.7071 31.5768C18.7071 36.2191 15.5548 39.0939 10.7392 39.0939H5.61214ZM30.9363 22.4656C32.9456 22.4656 34.2967 21.1491 34.2967 19.3476C34.2967 17.6848 32.9456 16.4375 30.9363 16.4375C28.9269 16.4375 27.5759 17.754 27.5759 19.4515C27.5759 21.1491 28.9269 22.4656 30.9363 22.4656ZM28.234 43.7019H33.6385V25.0647H28.234V43.7019ZM49.9899 24.7867C47.4609 24.7867 45.2785 25.6527 43.8233 27.2463V25.0639H38.6617V43.7011H44.066V34.4867C44.066 31.057 45.9366 29.4635 48.534 29.4635C50.9242 29.4635 52.3108 30.8494 52.3108 33.8632V43.7019H57.7151V33.0318C57.7154 27.3503 54.3895 24.7867 49.9899 24.7867ZM81.0647 34.4531C81.0647 28.4599 76.8384 24.7877 71.3635 24.7877C65.682 24.7877 61.4208 28.8062 61.4208 34.3838C61.4208 39.9266 65.6126 43.9798 72.0561 43.9798C75.4165 43.9798 78.0148 42.9406 79.747 40.9658L76.8729 37.8471C75.591 39.0596 74.1709 39.6491 72.1961 39.6491C69.3553 39.6491 67.3808 38.2287 66.8612 35.9076H80.9598C80.9953 35.4568 81.0647 34.8678 81.0647 34.4531ZM71.3993 28.8743C73.8243 28.8743 75.591 30.3989 75.9734 32.7546H66.7906C67.1729 30.3643 68.9396 28.8743 71.3993 28.8743Z" fill="white"/>
<path d="M62.1488 10.8654H39.5192C39.2491 10.8652 38.99 10.7579 38.7989 10.5669C38.6078 10.376 38.5003 10.117 38.5 9.84687C38.5003 9.57667 38.6076 9.31763 38.7987 9.12662C38.9898 8.93561 39.249 8.82826 39.5192 8.82813H62.1478C62.4181 8.82806 62.6774 8.93534 62.8686 9.12638C63.0598 9.31742 63.1673 9.57656 63.1675 9.84687C63.1673 10.117 63.0599 10.3759 62.8688 10.5669C62.6778 10.7578 62.4189 10.8652 62.1488 10.8654Z" fill="white"/>
<path d="M71.4208 1.35768C69.809 1.35754 68.2334 1.83539 66.8932 2.73078C65.5531 3.62617 64.5086 4.89889 63.8918 6.38797C63.275 7.87704 63.1137 9.51558 63.4282 11.0964C63.7427 12.6771 64.519 14.1291 65.6588 15.2687C67.187 16.7969 69.2596 17.6554 71.4208 17.6554C73.5819 17.6554 75.6546 16.7969 77.1827 15.2687C78.7109 13.7405 79.5694 11.6679 79.5694 9.5067C79.5694 7.34554 78.7109 5.27289 77.1827 3.74472C76.4279 2.9856 75.5299 2.38376 74.5409 1.97402C73.5518 1.56428 72.4913 1.35479 71.4208 1.35768ZM71.4208 0C73.301 0 75.139 0.557558 76.7024 1.60217C78.2658 2.64678 79.4843 4.13152 80.2038 5.86864C80.9234 7.60577 81.1116 9.51725 80.7448 11.3614C80.378 13.2055 79.4726 14.8994 78.143 16.229C76.8135 17.5585 75.1196 18.4639 73.2754 18.8307C71.4313 19.1976 69.5198 19.0093 67.7827 18.2897C66.0456 17.5702 64.5608 16.3517 63.5162 14.7883C62.4716 13.225 61.9141 11.387 61.9141 9.5067C61.9141 6.98537 62.9157 4.5673 64.6985 2.78445C66.4814 1.0016 68.8994 0 71.4208 0Z" fill="white"/>
<path d="M69.9986 4.39062H66.3047V8.08449H69.9986V4.39062ZM69.3829 7.46885H66.9203V5.00627H69.3829V7.46885Z" fill="white"/>
<path d="M67.536 5.63281H68.7673V6.91643H67.536V5.63281ZM66.3047 14.6238H69.9986V10.7705H66.3047V14.6238ZM66.9203 11.4128H69.3829V13.9815H66.9203V11.4128Z" fill="white"/>
<path d="M67.5469 12.097H68.8305V13.3807H67.5469V12.097ZM72.6846 4.39062V8.24396H76.5379V4.39062H72.6846ZM75.8956 7.60166H73.3269V5.03244H75.8956V7.60166Z" fill="white"/>
<path d="M73.9714 5.66832H75.2491V6.94602H73.9714V5.66832ZM67.5824 8.86281H66.3047V10.1405H68.2212V9.50166H67.5824V8.86281ZM70.7769 10.1405H72.0546V11.4185H70.7769V10.1405ZM68.2212 8.86281H69.4989V9.50166H68.2212V8.86281ZM72.0546 12.0573H70.7769V12.6962H71.4157V13.335H72.0546V12.0573ZM70.138 8.86281V9.50166H69.4992V10.1405H70.7769V8.86281H70.138ZM71.4157 6.94627H72.0546V8.22397H71.4157V6.94627ZM72.0546 9.50191V10.1408H73.3325V8.86281H71.4157V9.50166L72.0546 9.50191ZM70.7769 8.22421L71.4157 8.22397V8.86281H70.7769V8.22421ZM72.0546 13.335L73.3325 13.3353V14.6127H72.0546V13.335ZM70.7769 13.3353L71.4157 13.335V14.6127H70.7769V13.3353ZM72.0546 11.4187H72.6934V12.0576L72.0546 12.0573V11.4187ZM72.0546 6.30767V5.02947H71.4157V4.39062H70.7769V6.94627H71.4157V6.30717L72.0546 6.30767ZM73.9711 13.3355H74.61V14.6127H73.9714L73.9711 13.3355ZM73.9711 12.0578H75.2488V12.6966H73.9714L73.9711 12.0578ZM73.3325 12.6962H73.9714V13.335L73.3325 13.3353V12.6962ZM72.6937 12.0573H73.3325V12.6962H72.6937V12.0573ZM75.2493 10.7796V11.4185H75.8882V12.0573H76.5268V10.7796H75.2493ZM75.8882 12.6962H75.2491V14.6127H76.5268V13.335H75.8879L75.8882 12.6962ZM72.6937 10.7796V11.4185H74.6102V10.1405H73.3325V10.7794L72.6937 10.7796ZM73.9714 8.86306V9.50191H75.2491V10.1408H76.5268V8.86281L73.9714 8.86306Z" fill="white"/>
</svg>
