<svg width="92" height="50" viewBox="0 0 92 50" fill="none" xmlns="http://www.w3.org/2000/svg">
<path d="M5.0892 14.7418C6.72751 14.7418 8.08343 14.151 8.96983 13.0634L7.57328 11.7747C7.28913 12.127 6.92886 12.4102 6.51953 12.6032C6.11021 12.7962 5.66247 12.894 5.20994 12.8892C4.81023 12.9068 4.41122 12.841 4.03831 12.6961C3.66539 12.5511 3.32672 12.3301 3.04383 12.0472C2.76094 11.7642 2.54003 11.4255 2.39514 11.0526C2.25026 10.6796 2.18457 10.2806 2.20226 9.88092C2.18461 9.48123 2.25033 9.08225 2.39523 8.70933C2.54014 8.33642 2.76105 7.99774 3.04394 7.71483C3.32682 7.43192 3.66548 7.21097 4.03838 7.06604C4.41127 6.9211 4.81025 6.85534 5.20994 6.87295C5.66107 6.86859 6.10747 6.96523 6.5164 7.15578C6.92534 7.34634 7.28645 7.62598 7.57328 7.97422L8.96983 6.68553C8.08371 5.61144 6.72863 5.0206 5.10376 5.0206C2.17536 5.02004 0 7.04664 0 9.88092C0 12.7152 2.17536 14.7418 5.0892 14.7418ZM15.4418 7.35649L13.401 12.2574L11.3732 7.35649H9.2102L12.34 14.6342L12.312 14.7015C12.0299 15.3458 11.7077 15.601 11.1303 15.601C10.6951 15.592 10.2769 15.4304 9.94867 15.1444L9.1833 16.6348C9.76079 17.076 10.471 17.308 11.1976 17.2928C12.5 17.2928 13.4948 16.7692 14.1918 15.0236L17.4561 7.35649H15.4418ZM22.5857 7.24919C22.1815 7.2291 21.7778 7.29669 21.4023 7.44732C21.0267 7.59795 20.6882 7.82806 20.41 8.12186V4.61719H18.3151V14.5804H20.3159V13.7481C20.8395 14.3793 21.6183 14.688 22.5851 14.688C24.6125 14.688 26.1836 13.2379 26.1836 10.9685C26.1836 8.69897 24.6128 7.24891 22.5854 7.24891L22.5857 7.24919ZM22.2229 12.9693C21.1754 12.9693 20.3834 12.2174 20.3834 10.9685C20.3834 9.71955 21.1757 8.96763 22.2229 8.96763C23.2701 8.96763 24.0623 9.71955 24.0623 10.9685C24.0623 12.2174 23.2701 12.9693 22.2229 12.9693ZM34.657 10.9954C34.657 8.67235 33.0187 7.24891 30.8974 7.24891C28.6952 7.24891 27.0437 8.80654 27.0437 10.9685C27.0437 13.1169 28.6685 14.688 31.1661 14.688C32.4685 14.688 33.4756 14.2851 34.1471 13.5198L33.0327 12.3112C32.7941 12.5451 32.5102 12.7277 32.1985 12.8477C31.8867 12.9678 31.5537 13.0228 31.2199 13.0093C30.1189 13.0093 29.3535 12.4589 29.1521 11.5593H34.6172C34.6301 11.3848 34.657 11.1564 34.657 10.9954ZM30.9106 8.83344C31.3408 8.81618 31.7618 8.96119 32.0901 9.23973C32.4184 9.51828 32.63 9.91001 32.6831 10.3373H29.1252C29.1766 9.90694 29.3896 9.51222 29.7211 9.23302C30.0526 8.95381 30.4778 8.81098 30.9106 8.83344ZM38.0544 8.30984V7.35733H36.0536V14.5804H38.1482V11.1699C38.1482 9.78679 38.9136 9.15561 40.0684 9.15561C40.2295 9.15561 40.3637 9.16906 40.5385 9.18362V7.25059C39.4238 7.24891 38.5643 7.61143 38.0541 8.30984H38.0544Z" fill="black"/>
<path d="M0 49.6141H12.5025C21.506 49.6141 27.6785 44.1885 27.6785 35.8535C27.6785 27.5184 21.5074 22.0928 12.5025 22.0928H0V49.6141ZM6.3692 44.3846V27.3218H12.1879C17.6528 27.3218 21.2306 30.585 21.2306 35.8535C21.2306 41.1219 17.6531 44.3846 12.1879 44.3846H6.3692ZM35.1095 25.5131C37.3899 25.5131 38.9231 24.0191 38.9231 21.9746C38.9231 20.0875 37.3899 18.6719 35.1095 18.6719C32.829 18.6719 31.2958 20.1659 31.2958 22.0925C31.2958 24.0191 32.829 25.5131 35.1095 25.5131ZM32.0427 49.6141H38.1763V28.4628H32.0427V49.6141ZM56.7334 28.1474C53.8632 28.1474 51.3864 29.1301 49.735 30.9388V28.462H43.877V49.6133H50.0103V39.1559C50.0103 35.2635 52.1333 33.4551 55.081 33.4551C57.7937 33.4551 59.3673 35.0279 59.3673 38.4482V49.6141H65.5007V37.5047C65.5009 31.0567 61.7265 28.1474 56.7334 28.1474ZM92 39.1178C92 32.316 87.2036 28.1485 80.9901 28.1485C74.5422 28.1485 69.7063 32.7091 69.7063 39.039C69.7063 45.3295 74.4635 49.9296 81.7762 49.9296C85.5899 49.9296 88.5387 48.7501 90.5046 46.5089L87.2428 42.9695C85.788 44.3456 84.1763 45.0146 81.9351 45.0146C78.7111 45.0146 76.4702 43.4026 75.8805 40.7684H91.8809C91.9213 40.2568 92 39.5884 92 39.1178ZM81.0307 32.7864C83.7829 32.7864 85.788 34.5166 86.2219 37.19H75.8004C76.2343 34.4774 78.2393 32.7864 81.0307 32.7864Z" fill="black"/>
<path d="M84.5186 12.3277H44.8364C44.5298 12.3275 44.2358 12.2057 44.0189 11.989C43.8021 11.7723 43.6801 11.4784 43.6797 11.1718C43.68 10.8651 43.8018 10.5712 44.0187 10.3544C44.2355 10.1376 44.5298 10.0158 44.8364 10.0156H84.5175C84.8243 10.0156 85.1185 10.1373 85.3355 10.3541C85.5525 10.5709 85.6745 10.865 85.6748 11.1718C85.6745 11.4783 85.5526 11.7722 85.3358 11.9889C85.119 12.2056 84.8251 12.3275 84.5186 12.3277Z" fill="#179428"/>
<path d="M91.8361 10.7891C91.8361 4.83045 87.0056 0 81.0469 0C75.0883 0 70.2578 4.83045 70.2578 10.7891C70.2578 16.7478 75.0883 21.5782 81.0469 21.5782C87.0056 21.5782 91.8361 16.7478 91.8361 10.7891Z" fill="white"/>
<path d="M81.0469 1.54082C79.2178 1.54067 77.4296 2.08297 75.9087 3.09915C74.3877 4.11533 73.2023 5.55973 72.5023 7.24968C71.8023 8.93963 71.6192 10.7992 71.9762 12.5932C72.3332 14.3872 73.2141 16.0351 74.5077 17.3284C76.242 19.0627 78.5942 20.037 81.0469 20.037C83.4996 20.037 85.8519 19.0627 87.5862 17.3284C89.3205 15.5941 90.2948 13.2418 90.2948 10.7891C90.2948 8.33642 89.3205 5.98419 87.5862 4.24987C86.7295 3.38835 85.7104 2.70532 84.5879 2.24031C83.4655 1.7753 82.2619 1.53755 81.0469 1.54082ZM81.0469 0C83.1808 0 85.2668 0.632771 87.041 1.81829C88.8153 3.00382 90.1982 4.68885 91.0148 6.6603C91.8314 8.63176 92.045 10.8011 91.6287 12.894C91.2124 14.9869 90.1849 16.9093 88.676 18.4182C87.1671 19.9271 85.2447 20.9546 83.1518 21.3709C81.0589 21.7872 78.8896 21.5736 76.9181 20.757C74.9467 19.9404 73.2616 18.5575 72.0761 16.7832C70.8906 15.009 70.2578 12.923 70.2578 10.7891C70.2578 7.92767 71.3945 5.18341 73.4179 3.16006C75.4412 1.13671 78.1855 0 81.0469 0Z" fill="#179428"/>
<path d="M79.4343 4.98438H75.2422V9.17653H79.4343V4.98438ZM78.7357 8.47784H75.9409V5.68307H78.7357V8.47784Z" fill="#179428"/>
<path d="M76.6396 6.39062H78.037V7.8474H76.6396V6.39062ZM75.2422 16.5945H79.4343V12.2214H75.2422V16.5945ZM75.9409 12.9503H78.7357V15.8656H75.9409V12.9503Z" fill="#179428"/>
<path d="M76.6484 13.7304H78.1052V15.1871H76.6484V13.7304ZM82.4792 4.98438V9.35751H86.8523V4.98438H82.4792ZM86.1234 8.62856H83.2081V5.71276H86.1234V8.62856Z" fill="#179428"/>
<path d="M83.9431 6.43443H85.3931V7.88448H83.9431V6.43443ZM76.6922 10.0598H75.2422V11.5099H77.4173V10.7849H76.6922V10.0598ZM80.3177 11.5099H81.7677V12.9602H80.3177V11.5099ZM77.4173 10.0598H78.8673V10.7849H77.4173V10.0598ZM81.7677 13.6853H80.3177V14.4103H81.0427V15.1353H81.7677V13.6853ZM79.5926 10.0598V10.7849H78.8676V11.5099H80.3177V10.0598H79.5926ZM81.0427 7.88476H81.7677V9.33482H81.0427V7.88476ZM81.7677 10.7852V11.5102H83.218V10.0598H81.0427V10.7849L81.7677 10.7852ZM80.3177 9.3351L81.0427 9.33482V10.0598H80.3177V9.3351ZM81.7677 15.1353L83.218 15.1356V16.5854H81.7677V15.1353ZM80.3177 15.1356L81.0427 15.1353V16.5854H80.3177V15.1356ZM81.7677 12.9605H82.4927V13.6855L81.7677 13.6853V12.9605ZM81.7677 7.16002V5.7094H81.0427V4.98438H80.3177V7.88476H81.0427V7.15946L81.7677 7.16002ZM83.9428 15.1359H84.6678V16.5854H83.9431L83.9428 15.1359ZM83.9428 13.6858H85.3928V14.4108H83.9431L83.9428 13.6858ZM83.218 14.4103H83.9431V15.1353L83.218 15.1356V14.4103ZM82.493 13.6853H83.218V14.4103H82.493V13.6853ZM85.3934 12.2352V12.9602H86.1184V13.6853H86.8432V12.2352H85.3934ZM86.1184 14.4103H85.3931V16.5854H86.8432V15.1353H86.1182L86.1184 14.4103ZM82.493 12.2352V12.9602H84.6681V11.5099H83.218V12.2349L82.493 12.2352ZM83.9431 10.0601V10.7852H85.3931V11.5102H86.8432V10.0598L83.9431 10.0601Z" fill="#179428"/>
</svg>
