<svg width="13" height="15" viewBox="0 0 13 15" fill="none" xmlns="http://www.w3.org/2000/svg">
<path d="M12 8.93164C12 12.6361 9.53035 14.2111 6.4937 14.2111C3.45704 14.2111 1 12.6361 1 8.93164C1 5.22718 3.46964 0.779297 6.5063 0.779297C9.54295 0.779297 12 5.22718 12 8.93164Z" fill="white"/>
<path d="M12 8.93164C12 12.6361 9.53035 14.2111 6.4937 14.2111C3.45704 14.2111 1 12.6361 1 8.93164C1 5.22718 3.46964 0.779297 6.5063 0.779297C9.54295 0.779297 12 5.22718 12 8.93164Z" stroke="#31352E" stroke-width="0.5" stroke-miterlimit="10" stroke-linecap="round"/>
<path d="M6.54319 12.6743C8.45689 12.6743 10.0083 11.1229 10.0083 9.2092C10.0083 7.2955 8.45689 5.74414 6.54319 5.74414C4.62949 5.74414 3.07812 7.2955 3.07812 9.2092C3.07812 11.1229 4.62949 12.6743 6.54319 12.6743Z" fill="#FFB600"/>
<path d="M6.5412 12.0316C8.1 12.0316 9.36365 10.768 9.36365 9.20917C9.36365 7.65037 8.1 6.38672 6.5412 6.38672C4.9824 6.38672 3.71875 7.65037 3.71875 9.20917C3.71875 10.768 4.9824 12.0316 6.5412 12.0316Z" fill="#FFC213"/>
<path d="M6.544 11.4005C7.75485 11.4005 8.73644 10.4189 8.73644 9.20806C8.73644 7.99721 7.75485 7.01562 6.544 7.01562C5.33315 7.01562 4.35156 7.99721 4.35156 9.20806C4.35156 10.4189 5.33315 11.4005 6.544 11.4005Z" fill="#FFCD26"/>
<path d="M6.54592 10.7579C7.40187 10.7579 8.09575 10.064 8.09575 9.20803C8.09575 8.35208 7.40187 7.6582 6.54592 7.6582C5.68998 7.6582 4.99609 8.35208 4.99609 9.20803C4.99609 10.064 5.68998 10.7579 6.54592 10.7579Z" fill="#FFD939"/>
</svg>
