<svg width="343" height="95" viewBox="0 0 343 95" fill="none" xmlns="http://www.w3.org/2000/svg">
<mask id="mask0_296_4" style="mask-type:alpha" maskUnits="userSpaceOnUse" x="0" y="0" width="343" height="95">
<rect width="343" height="95" rx="6" fill="#D9D9D9"/>
</mask>
<g mask="url(#mask0_296_4)">
<mask id="mask1_296_4" style="mask-type:alpha" maskUnits="userSpaceOnUse" x="0" y="0" width="343" height="95">
<rect width="343" height="95" rx="6" fill="#D9D9D9"/>
</mask>
<g mask="url(#mask1_296_4)">
<g filter="url(#filter0_d_296_4)">
<path d="M0 6C0 2.68629 2.68629 0 6 0H337C340.314 0 343 2.68629 343 6V89C343 92.3137 340.314 95 337 95H6C2.68629 95 0 92.3137 0 89V6Z" fill="#179428"/>
</g>
</g>
<path d="M27.5818 70.197L28.931 72.9314C28.9848 73.0388 29.0803 73.1105 29.1997 73.1284L32.2206 73.5702C32.5132 73.612 32.6266 73.9702 32.4177 74.1792L30.2326 76.3105C30.149 76.3941 30.1132 76.5075 30.1311 76.627L30.6445 79.636C30.6923 79.9285 30.3878 80.1494 30.1311 80.0121L27.4265 78.5912C27.3251 78.5374 27.1997 78.5374 27.0982 78.5912L24.3937 80.0121C24.131 80.1494 23.8265 79.9285 23.8802 79.636L24.3937 76.627C24.4116 76.5135 24.3758 76.3941 24.2922 76.3105L22.1071 74.1792C21.8981 73.9762 22.0115 73.618 22.3041 73.5702L25.325 73.1284C25.4385 73.1105 25.54 73.0388 25.5937 72.9314L26.943 70.197C27.0803 69.9343 27.4564 69.9343 27.5818 70.197ZM39.4506 70.197L40.7999 72.9314C40.8536 73.0388 40.9491 73.1105 41.0685 73.1284L44.0895 73.5702C44.382 73.612 44.4954 73.9702 44.2865 74.1792L42.1014 76.3105C42.0178 76.3941 41.982 76.5075 41.9999 76.627L42.5133 79.636C42.5611 79.9285 42.2566 80.1494 41.9999 80.0121L39.2954 78.5912C39.1939 78.5374 39.0685 78.5374 38.967 78.5912L36.2625 80.0121C35.9998 80.1494 35.6953 79.9285 35.749 79.636L36.2625 76.627C36.2804 76.5135 36.2446 76.3941 36.161 76.3105L33.9759 74.1792C33.7669 73.9762 33.8804 73.618 34.1729 73.5702L37.1938 73.1284C37.3073 73.1105 37.4088 73.0388 37.4625 72.9314L38.8118 70.197C38.9491 69.9343 39.3252 69.9343 39.4506 70.197ZM51.3194 70.197L52.6687 72.9314C52.7224 73.0388 52.8179 73.1105 52.9373 73.1284L55.9583 73.5702C56.2508 73.612 56.3643 73.9702 56.1553 74.1792L53.9702 76.3105C53.8866 76.3941 53.8508 76.5075 53.8687 76.627L54.3821 79.636C54.4299 79.9285 54.1254 80.1494 53.8687 80.0121L51.1642 78.5912C51.0627 78.5374 50.9373 78.5374 50.8358 78.5912L48.1313 80.0121C47.8686 80.1494 47.5641 79.9285 47.6179 79.636L48.1313 76.627C48.1492 76.5135 48.1134 76.3941 48.0298 76.3105L45.8447 74.1792C45.6357 73.9762 45.7492 73.618 46.0417 73.5702L49.0627 73.1284C49.1761 73.1105 49.2776 73.0388 49.3313 72.9314L50.6806 70.197C50.8119 69.9343 51.194 69.9343 51.3194 70.197ZM63.1882 70.197L64.5375 72.9314C64.5912 73.0388 64.6868 73.1105 64.8062 73.1284L67.8271 73.5702C68.1196 73.612 68.2331 73.9702 68.0241 74.1792L65.839 76.3105C65.7554 76.3941 65.7196 76.5075 65.7375 76.627L66.251 79.636C66.2987 79.9285 65.9942 80.1494 65.7375 80.0121L63.033 78.5912C62.9315 78.5374 62.8061 78.5374 62.7046 78.5912L60.0001 80.0121C59.7374 80.1494 59.4329 79.9285 59.4867 79.636L60.0001 76.627C60.018 76.5135 59.9822 76.3941 59.8986 76.3105L57.7135 74.1792C57.5046 73.9762 57.618 73.618 57.9105 73.5702L60.9315 73.1284C61.0449 73.1105 61.1464 73.0388 61.2001 72.9314L62.5494 70.197C62.6808 69.9343 63.0569 69.9343 63.1882 70.197ZM75.057 70.197L76.4063 72.9314C76.46 73.0388 76.5556 73.1105 76.675 73.1284L79.6959 73.5702C79.9885 73.612 80.1019 73.9702 79.8929 74.1792L77.7078 76.3105C77.6242 76.3941 77.5884 76.5075 77.6063 76.627L78.1198 79.636C78.1675 79.9285 77.863 80.1494 77.6063 80.0121L74.9018 78.5912C74.8003 78.5374 74.6749 78.5374 74.5735 78.5912L71.8689 80.0121C71.6063 80.1494 71.3018 79.9285 71.3555 79.636L71.8689 76.627C71.8869 76.5135 71.851 76.3941 71.7674 76.3105L69.5823 74.1792C69.3734 73.9762 69.4868 73.618 69.7794 73.5702L72.8003 73.1284C72.9137 73.1105 73.0152 73.0388 73.069 72.9314L74.4182 70.197C74.5496 69.9343 74.9257 69.9343 75.057 70.197Z" fill="white"/>
<path d="M51.4 63.8C64.8758 63.8 75.8 52.8757 75.8 39.4C75.8 25.9242 64.8758 15 51.4 15C37.9243 15 27 25.9242 27 39.4C27 52.8757 37.9243 63.8 51.4 63.8Z" fill="#E0E0E0"/>
<path d="M51.3964 63.0583C64.6673 63.0583 75.4256 52.3001 75.4256 39.0292C75.4256 25.7582 64.6673 15 51.3964 15C38.1254 15 27.3672 25.7582 27.3672 39.0292C27.3672 52.3001 38.1254 63.0583 51.3964 63.0583Z" fill="white"/>
<mask id="mask2_296_4" style="mask-type:luminance" maskUnits="userSpaceOnUse" x="35" y="22" width="33" height="34">
<path d="M66.9729 36.2089H51.7692V42.5129H60.5206C59.7048 46.5177 56.2932 48.8168 51.7692 48.8168C46.4294 48.8168 42.1279 44.5153 42.1279 39.1755C42.1279 33.8357 46.4294 29.5341 51.7692 29.5341C54.0683 29.5341 56.1449 30.35 57.7765 31.6849L62.523 26.9384C59.6306 24.4168 55.9224 22.8594 51.7692 22.8594C42.7212 22.8594 35.4531 30.1275 35.4531 39.1755C35.4531 48.2235 42.7212 55.4916 51.7692 55.4916C59.9273 55.4916 67.3437 49.5585 67.3437 39.1755C67.3437 38.2113 67.1954 37.1731 66.9729 36.2089Z" fill="white"/>
</mask>
<g mask="url(#mask2_296_4)">
<path d="M33.9688 48.8139V29.5312L46.5767 39.1726L33.9688 48.8139Z" fill="#FBBC05"/>
</g>
<mask id="mask3_296_4" style="mask-type:luminance" maskUnits="userSpaceOnUse" x="35" y="22" width="33" height="34">
<path d="M66.9729 36.2089H51.7692V42.5129H60.5206C59.7048 46.5177 56.2932 48.8168 51.7692 48.8168C46.4294 48.8168 42.1279 44.5153 42.1279 39.1755C42.1279 33.8357 46.4294 29.5341 51.7692 29.5341C54.0683 29.5341 56.1449 30.35 57.7765 31.6849L62.523 26.9384C59.6306 24.4168 55.9224 22.8594 51.7692 22.8594C42.7212 22.8594 35.4531 30.1275 35.4531 39.1755C35.4531 48.2235 42.7212 55.4916 51.7692 55.4916C59.9273 55.4916 67.3437 49.5585 67.3437 39.1755C67.3437 38.2113 67.1954 37.1731 66.9729 36.2089Z" fill="white"/>
</mask>
<g mask="url(#mask3_296_4)">
<path d="M33.9688 29.5331L46.5767 39.1744L51.7681 34.6504L69.5675 31.758V21.375H33.9688V29.5331Z" fill="#EA4335"/>
</g>
<mask id="mask4_296_4" style="mask-type:luminance" maskUnits="userSpaceOnUse" x="35" y="22" width="33" height="34">
<path d="M66.9729 36.2089H51.7692V42.5129H60.5206C59.7048 46.5177 56.2932 48.8168 51.7692 48.8168C46.4294 48.8168 42.1279 44.5153 42.1279 39.1755C42.1279 33.8357 46.4294 29.5341 51.7692 29.5341C54.0683 29.5341 56.1449 30.35 57.7765 31.6849L62.523 26.9384C59.6306 24.4168 55.9224 22.8594 51.7692 22.8594C42.7212 22.8594 35.4531 30.1275 35.4531 39.1755C35.4531 48.2235 42.7212 55.4916 51.7692 55.4916C59.9273 55.4916 67.3437 49.5585 67.3437 39.1755C67.3437 38.2113 67.1954 37.1731 66.9729 36.2089Z" fill="white"/>
</mask>
<g mask="url(#mask4_296_4)">
<path d="M33.9688 48.8157L56.218 31.758L62.077 32.4996L69.5675 21.375V56.9738H33.9688V48.8157Z" fill="#34A853"/>
</g>
<mask id="mask5_296_4" style="mask-type:luminance" maskUnits="userSpaceOnUse" x="35" y="22" width="33" height="34">
<path d="M66.9729 36.2089H51.7692V42.5129H60.5206C59.7048 46.5177 56.2932 48.8168 51.7692 48.8168C46.4294 48.8168 42.1279 44.5153 42.1279 39.1755C42.1279 33.8357 46.4294 29.5341 51.7692 29.5341C54.0683 29.5341 56.1449 30.35 57.7765 31.6849L62.523 26.9384C59.6306 24.4168 55.9224 22.8594 51.7692 22.8594C42.7212 22.8594 35.4531 30.1275 35.4531 39.1755C35.4531 48.2235 42.7212 55.4916 51.7692 55.4916C59.9273 55.4916 67.3437 49.5585 67.3437 39.1755C67.3437 38.2113 67.1954 37.1731 66.9729 36.2089Z" fill="white"/>
</mask>
<g mask="url(#mask5_296_4)">
<path d="M69.5668 56.9798L46.5759 39.1804L43.6094 36.9555L69.5668 29.5391V56.9798Z" fill="#4285F4"/>
</g>
<path d="M132.008 29V20.6H135.644C136.396 20.6 137.044 20.724 137.588 20.972C138.132 21.212 138.552 21.56 138.848 22.016C139.144 22.472 139.292 23.016 139.292 23.648C139.292 24.272 139.144 24.812 138.848 25.268C138.552 25.724 138.132 26.076 137.588 26.324C137.044 26.564 136.396 26.684 135.644 26.684H133.088L133.952 25.808V29H132.008ZM133.952 26.024L133.088 25.1H135.536C136.136 25.1 136.584 24.972 136.88 24.716C137.176 24.46 137.324 24.104 137.324 23.648C137.324 23.184 137.176 22.824 136.88 22.568C136.584 22.312 136.136 22.184 135.536 22.184H133.088L133.952 21.26V26.024ZM140.68 29V20.6H142.624V27.416H146.836V29H140.68ZM149.71 23.984H153.754V25.496H149.71V23.984ZM149.854 27.44H154.426V29H147.922V20.6H154.27V22.16H149.854V27.44ZM158.733 29.144C158.061 29.144 157.417 29.056 156.801 28.88C156.185 28.696 155.689 28.46 155.313 28.172L155.973 26.708C156.333 26.964 156.757 27.176 157.245 27.344C157.741 27.504 158.241 27.584 158.745 27.584C159.129 27.584 159.437 27.548 159.669 27.476C159.909 27.396 160.085 27.288 160.197 27.152C160.309 27.016 160.365 26.86 160.365 26.684C160.365 26.46 160.277 26.284 160.101 26.156C159.925 26.02 159.693 25.912 159.405 25.832C159.117 25.744 158.797 25.664 158.445 25.592C158.101 25.512 157.753 25.416 157.401 25.304C157.057 25.192 156.741 25.048 156.453 24.872C156.165 24.696 155.929 24.464 155.745 24.176C155.569 23.888 155.481 23.52 155.481 23.072C155.481 22.592 155.609 22.156 155.865 21.764C156.129 21.364 156.521 21.048 157.041 20.816C157.569 20.576 158.229 20.456 159.021 20.456C159.549 20.456 160.069 20.52 160.581 20.648C161.093 20.768 161.545 20.952 161.937 21.2L161.337 22.676C160.945 22.452 160.553 22.288 160.161 22.184C159.769 22.072 159.385 22.016 159.009 22.016C158.633 22.016 158.325 22.06 158.085 22.148C157.845 22.236 157.673 22.352 157.569 22.496C157.465 22.632 157.413 22.792 157.413 22.976C157.413 23.192 157.501 23.368 157.677 23.504C157.853 23.632 158.085 23.736 158.373 23.816C158.661 23.896 158.977 23.976 159.321 24.056C159.673 24.136 160.021 24.228 160.365 24.332C160.717 24.436 161.037 24.576 161.325 24.752C161.613 24.928 161.845 25.16 162.021 25.448C162.205 25.736 162.297 26.1 162.297 26.54C162.297 27.012 162.165 27.444 161.901 27.836C161.637 28.228 161.241 28.544 160.713 28.784C160.193 29.024 159.533 29.144 158.733 29.144ZM165.413 23.984H169.457V25.496H165.413V23.984ZM165.557 27.44H170.129V29H163.625V20.6H169.973V22.16H165.557V27.44ZM175.074 29V20.6H177.018V27.416H181.23V29H175.074ZM184.104 23.984H188.148V25.496H184.104V23.984ZM184.248 27.44H188.82V29H182.316V20.6H188.664V22.16H184.248V27.44ZM189.263 29L193.007 20.6H194.927L198.683 29H196.643L193.571 21.584H194.339L191.255 29H189.263ZM191.135 27.2L191.651 25.724H195.971L196.499 27.2H191.135ZM201.618 29L197.994 20.6H200.094L203.262 28.04H202.026L205.242 20.6H207.174L203.538 29H201.618ZM209.663 23.984H213.707V25.496H209.663V23.984ZM209.807 27.44H214.379V29H207.875V20.6H214.223V22.16H209.807V27.44ZM223.056 29.144C221.864 29.144 220.932 28.812 220.26 28.148C219.588 27.484 219.252 26.536 219.252 25.304V20.6H221.196V25.232C221.196 26.032 221.36 26.608 221.688 26.96C222.016 27.312 222.476 27.488 223.068 27.488C223.66 27.488 224.12 27.312 224.448 26.96C224.776 26.608 224.94 26.032 224.94 25.232V20.6H226.86V25.304C226.86 26.536 226.524 27.484 225.852 28.148C225.18 28.812 224.248 29.144 223.056 29.144ZM231.541 29.144C230.869 29.144 230.225 29.056 229.609 28.88C228.993 28.696 228.497 28.46 228.121 28.172L228.781 26.708C229.141 26.964 229.565 27.176 230.053 27.344C230.549 27.504 231.049 27.584 231.553 27.584C231.937 27.584 232.245 27.548 232.477 27.476C232.717 27.396 232.893 27.288 233.005 27.152C233.117 27.016 233.173 26.86 233.173 26.684C233.173 26.46 233.085 26.284 232.909 26.156C232.733 26.02 232.501 25.912 232.213 25.832C231.925 25.744 231.605 25.664 231.253 25.592C230.909 25.512 230.561 25.416 230.209 25.304C229.865 25.192 229.549 25.048 229.261 24.872C228.973 24.696 228.737 24.464 228.553 24.176C228.377 23.888 228.289 23.52 228.289 23.072C228.289 22.592 228.417 22.156 228.673 21.764C228.937 21.364 229.329 21.048 229.849 20.816C230.377 20.576 231.037 20.456 231.829 20.456C232.357 20.456 232.877 20.52 233.389 20.648C233.901 20.768 234.353 20.952 234.745 21.2L234.145 22.676C233.753 22.452 233.361 22.288 232.969 22.184C232.577 22.072 232.193 22.016 231.817 22.016C231.441 22.016 231.133 22.06 230.893 22.148C230.653 22.236 230.481 22.352 230.377 22.496C230.273 22.632 230.221 22.792 230.221 22.976C230.221 23.192 230.309 23.368 230.485 23.504C230.661 23.632 230.893 23.736 231.181 23.816C231.469 23.896 231.785 23.976 232.129 24.056C232.481 24.136 232.829 24.228 233.173 24.332C233.525 24.436 233.845 24.576 234.133 24.752C234.421 24.928 234.653 25.16 234.829 25.448C235.013 25.736 235.105 26.1 235.105 26.54C235.105 27.012 234.973 27.444 234.709 27.836C234.445 28.228 234.049 28.544 233.521 28.784C233.001 29.024 232.341 29.144 231.541 29.144ZM238.728 29L242.472 20.6H244.392L248.148 29H246.108L243.036 21.584H243.804L240.72 29H238.728ZM240.6 27.2L241.116 25.724H245.436L245.964 27.2H240.6ZM252.418 29V20.6H256.054C256.806 20.6 257.454 20.724 257.998 20.972C258.542 21.212 258.962 21.56 259.258 22.016C259.554 22.472 259.702 23.016 259.702 23.648C259.702 24.272 259.554 24.812 259.258 25.268C258.962 25.716 258.542 26.06 257.998 26.3C257.454 26.54 256.806 26.66 256.054 26.66H253.498L254.362 25.808V29H252.418ZM257.758 29L255.658 25.952H257.734L259.858 29H257.758ZM254.362 26.024L253.498 25.112H255.946C256.546 25.112 256.994 24.984 257.29 24.728C257.586 24.464 257.734 24.104 257.734 23.648C257.734 23.184 257.586 22.824 257.29 22.568C256.994 22.312 256.546 22.184 255.946 22.184H253.498L254.362 21.26V26.024ZM263.03 23.984H267.074V25.496H263.03V23.984ZM263.174 27.44H267.746V29H261.242V20.6H267.59V22.16H263.174V27.44ZM271.696 29L268.072 20.6H270.172L273.34 28.04H272.104L275.32 20.6H277.252L273.616 29H271.696ZM277.953 29V20.6H279.897V29H277.953ZM283.679 23.984H287.723V25.496H283.679V23.984ZM283.823 27.44H288.395V29H281.891V20.6H288.239V22.16H283.823V27.44ZM291.84 29L289.092 20.6H291.108L293.496 28.04H292.488L294.984 20.6H296.784L299.184 28.04H298.212L300.66 20.6H302.52L299.772 29H297.684L295.56 22.472H296.112L293.928 29H291.84ZM311.26 29.144C310.596 29.144 309.98 29.036 309.412 28.82C308.852 28.604 308.364 28.3 307.948 27.908C307.54 27.516 307.22 27.056 306.988 26.528C306.764 26 306.652 25.424 306.652 24.8C306.652 24.176 306.764 23.6 306.988 23.072C307.22 22.544 307.544 22.084 307.96 21.692C308.376 21.3 308.864 20.996 309.424 20.78C309.984 20.564 310.592 20.456 311.248 20.456C311.912 20.456 312.52 20.564 313.072 20.78C313.632 20.996 314.116 21.3 314.524 21.692C314.94 22.084 315.264 22.544 315.496 23.072C315.728 23.592 315.844 24.168 315.844 24.8C315.844 25.424 315.728 26.004 315.496 26.54C315.264 27.068 314.94 27.528 314.524 27.92C314.116 28.304 313.632 28.604 313.072 28.82C312.52 29.036 311.916 29.144 311.26 29.144ZM311.248 27.488C311.624 27.488 311.968 27.424 312.28 27.296C312.6 27.168 312.88 26.984 313.12 26.744C313.36 26.504 313.544 26.22 313.672 25.892C313.808 25.564 313.876 25.2 313.876 24.8C313.876 24.4 313.808 24.036 313.672 23.708C313.544 23.38 313.36 23.096 313.12 22.856C312.888 22.616 312.612 22.432 312.292 22.304C311.972 22.176 311.624 22.112 311.248 22.112C310.872 22.112 310.524 22.176 310.204 22.304C309.892 22.432 309.616 22.616 309.376 22.856C309.136 23.096 308.948 23.38 308.812 23.708C308.684 24.036 308.62 24.4 308.62 24.8C308.62 25.192 308.684 25.556 308.812 25.892C308.948 26.22 309.132 26.504 309.364 26.744C309.604 26.984 309.884 27.168 310.204 27.296C310.524 27.424 310.872 27.488 311.248 27.488ZM317.305 29V20.6H318.913L323.869 26.648H323.089V20.6H325.009V29H323.413L318.445 22.952H319.225V29H317.305Z" fill="white"/>
<path d="M244.322 54.24C243.216 54.24 242.196 54.0667 241.262 53.72C240.342 53.36 239.536 52.8533 238.842 52.2C238.162 51.5467 237.629 50.78 237.242 49.9C236.869 49.02 236.682 48.0533 236.682 47C236.682 45.9467 236.869 44.98 237.242 44.1C237.629 43.22 238.169 42.4533 238.862 41.8C239.556 41.1467 240.369 40.6467 241.302 40.3C242.236 39.94 243.262 39.76 244.382 39.76C245.622 39.76 246.736 39.9667 247.722 40.38C248.722 40.7933 249.562 41.3933 250.242 42.18L248.162 44.1C247.656 43.5667 247.102 43.1733 246.502 42.92C245.902 42.6533 245.249 42.52 244.542 42.52C243.862 42.52 243.242 42.6267 242.682 42.84C242.122 43.0533 241.636 43.36 241.222 43.76C240.822 44.16 240.509 44.6333 240.282 45.18C240.069 45.7267 239.962 46.3333 239.962 47C239.962 47.6533 240.069 48.2533 240.282 48.8C240.509 49.3467 240.822 49.8267 241.222 50.24C241.636 50.64 242.116 50.9467 242.662 51.16C243.222 51.3733 243.836 51.48 244.502 51.48C245.142 51.48 245.762 51.38 246.362 51.18C246.976 50.9667 247.569 50.6133 248.142 50.12L249.982 52.46C249.222 53.0333 248.336 53.4733 247.322 53.78C246.322 54.0867 245.322 54.24 244.322 54.24ZM247.022 52.04V46.78H249.982V52.46L247.022 52.04ZM259.792 54.24C258.685 54.24 257.659 54.06 256.712 53.7C255.779 53.34 254.965 52.8333 254.272 52.18C253.592 51.5267 253.059 50.76 252.672 49.88C252.299 49 252.112 48.04 252.112 47C252.112 45.96 252.299 45 252.672 44.12C253.059 43.24 253.599 42.4733 254.292 41.82C254.985 41.1667 255.799 40.66 256.732 40.3C257.665 39.94 258.679 39.76 259.772 39.76C260.879 39.76 261.892 39.94 262.812 40.3C263.745 40.66 264.552 41.1667 265.232 41.82C265.925 42.4733 266.465 43.24 266.852 44.12C267.239 44.9867 267.432 45.9467 267.432 47C267.432 48.04 267.239 49.0067 266.852 49.9C266.465 50.78 265.925 51.5467 265.232 52.2C264.552 52.84 263.745 53.34 262.812 53.7C261.892 54.06 260.885 54.24 259.792 54.24ZM259.772 51.48C260.399 51.48 260.972 51.3733 261.492 51.16C262.025 50.9467 262.492 50.64 262.892 50.24C263.292 49.84 263.599 49.3667 263.812 48.82C264.039 48.2733 264.152 47.6667 264.152 47C264.152 46.3333 264.039 45.7267 263.812 45.18C263.599 44.6333 263.292 44.16 262.892 43.76C262.505 43.36 262.045 43.0533 261.512 42.84C260.979 42.6267 260.399 42.52 259.772 42.52C259.145 42.52 258.565 42.6267 258.032 42.84C257.512 43.0533 257.052 43.36 256.652 43.76C256.252 44.16 255.939 44.6333 255.712 45.18C255.499 45.7267 255.392 46.3333 255.392 47C255.392 47.6533 255.499 48.26 255.712 48.82C255.939 49.3667 256.245 49.84 256.632 50.24C257.032 50.64 257.499 50.9467 258.032 51.16C258.565 51.3733 259.145 51.48 259.772 51.48ZM276.667 54.24C275.56 54.24 274.534 54.06 273.587 53.7C272.654 53.34 271.84 52.8333 271.147 52.18C270.467 51.5267 269.934 50.76 269.547 49.88C269.174 49 268.987 48.04 268.987 47C268.987 45.96 269.174 45 269.547 44.12C269.934 43.24 270.474 42.4733 271.167 41.82C271.86 41.1667 272.674 40.66 273.607 40.3C274.54 39.94 275.554 39.76 276.647 39.76C277.754 39.76 278.767 39.94 279.687 40.3C280.62 40.66 281.427 41.1667 282.107 41.82C282.8 42.4733 283.34 43.24 283.727 44.12C284.114 44.9867 284.307 45.9467 284.307 47C284.307 48.04 284.114 49.0067 283.727 49.9C283.34 50.78 282.8 51.5467 282.107 52.2C281.427 52.84 280.62 53.34 279.687 53.7C278.767 54.06 277.76 54.24 276.667 54.24ZM276.647 51.48C277.274 51.48 277.847 51.3733 278.367 51.16C278.9 50.9467 279.367 50.64 279.767 50.24C280.167 49.84 280.474 49.3667 280.687 48.82C280.914 48.2733 281.027 47.6667 281.027 47C281.027 46.3333 280.914 45.7267 280.687 45.18C280.474 44.6333 280.167 44.16 279.767 43.76C279.38 43.36 278.92 43.0533 278.387 42.84C277.854 42.6267 277.274 42.52 276.647 42.52C276.02 42.52 275.44 42.6267 274.907 42.84C274.387 43.0533 273.927 43.36 273.527 43.76C273.127 44.16 272.814 44.6333 272.587 45.18C272.374 45.7267 272.267 46.3333 272.267 47C272.267 47.6533 272.374 48.26 272.587 48.82C272.814 49.3667 273.12 49.84 273.507 50.24C273.907 50.64 274.374 50.9467 274.907 51.16C275.44 51.3733 276.02 51.48 276.647 51.48ZM293.502 54.24C292.395 54.24 291.375 54.0667 290.442 53.72C289.522 53.36 288.715 52.8533 288.022 52.2C287.342 51.5467 286.809 50.78 286.422 49.9C286.049 49.02 285.862 48.0533 285.862 47C285.862 45.9467 286.049 44.98 286.422 44.1C286.809 43.22 287.349 42.4533 288.042 41.8C288.735 41.1467 289.549 40.6467 290.482 40.3C291.415 39.94 292.442 39.76 293.562 39.76C294.802 39.76 295.915 39.9667 296.902 40.38C297.902 40.7933 298.742 41.3933 299.422 42.18L297.342 44.1C296.835 43.5667 296.282 43.1733 295.682 42.92C295.082 42.6533 294.429 42.52 293.722 42.52C293.042 42.52 292.422 42.6267 291.862 42.84C291.302 43.0533 290.815 43.36 290.402 43.76C290.002 44.16 289.689 44.6333 289.462 45.18C289.249 45.7267 289.142 46.3333 289.142 47C289.142 47.6533 289.249 48.2533 289.462 48.8C289.689 49.3467 290.002 49.8267 290.402 50.24C290.815 50.64 291.295 50.9467 291.842 51.16C292.402 51.3733 293.015 51.48 293.682 51.48C294.322 51.48 294.942 51.38 295.542 51.18C296.155 50.9667 296.749 50.6133 297.322 50.12L299.162 52.46C298.402 53.0333 297.515 53.4733 296.502 53.78C295.502 54.0867 294.502 54.24 293.502 54.24ZM296.202 52.04V46.78H299.162V52.46L296.202 52.04ZM302.172 54V40H305.412V51.36H312.432V54H302.172ZM317.222 45.64H323.962V48.16H317.222V45.64ZM317.462 51.4H325.082V54H314.242V40H324.822V42.6H317.462V51.4Z" fill="white"/>
<path d="M318.805 62L317.633 63.2164L322.833 68.6385H300V70.3615H322.833L317.633 75.7836L318.805 77L326 69.5L318.805 62Z" fill="white"/>
<mask id="mask6_296_4" style="mask-type:alpha" maskUnits="userSpaceOnUse" x="95" y="49" width="103" height="103">
<circle cx="146.482" cy="100.479" r="49.0277" transform="rotate(20.1439 146.482 100.479)" stroke="#5CB468" stroke-width="4"/>
</mask>
<g mask="url(#mask6_296_4)">
<rect x="92.1484" y="48" width="107" height="47" fill="white" fill-opacity="0.4"/>
</g>
<mask id="mask7_296_4" style="mask-type:alpha" maskUnits="userSpaceOnUse" x="164" y="63" width="71" height="72">
<circle cx="199.482" cy="98.9792" r="33.4418" transform="rotate(20.1439 199.482 98.9792)" stroke="#5CB468" stroke-width="4"/>
</mask>
<g mask="url(#mask7_296_4)">
<rect x="161.742" y="62.5312" width="74.3179" height="32.6443" fill="white" fill-opacity="0.4"/>
</g>
<mask id="mask8_296_4" style="mask-type:alpha" maskUnits="userSpaceOnUse" x="0" y="0" width="343" height="95">
<path d="M0 6C0 2.68629 2.68629 0 6 0H337C340.314 0 343 2.68629 343 6V89C343 92.3137 340.314 95 337 95H6C2.68629 95 0 92.3137 0 89V6Z" fill="#292929"/>
</mask>
<g mask="url(#mask8_296_4)">
<mask id="mask9_296_4" style="mask-type:alpha" maskUnits="userSpaceOnUse" x="0" y="0" width="343" height="95">
<rect width="343" height="95" rx="6" fill="#D9D9D9"/>
</mask>
<g mask="url(#mask9_296_4)">
<g filter="url(#filter1_d_296_4)">
<path d="M0 6C0 2.68629 2.68629 0 6 0H337C340.314 0 343 2.68629 343 6V89C343 92.3137 340.314 95 337 95H6C2.68629 95 0 92.3137 0 89V6Z" fill="#292929"/>
</g>
</g>
<path d="M23.5818 70.197L24.931 72.9314C24.9848 73.0388 25.0803 73.1105 25.1997 73.1284L28.2206 73.5702C28.5132 73.612 28.6266 73.9702 28.4177 74.1792L26.2326 76.3105C26.149 76.3941 26.1132 76.5075 26.1311 76.627L26.6445 79.636C26.6923 79.9285 26.3878 80.1494 26.1311 80.0121L23.4265 78.5912C23.3251 78.5374 23.1997 78.5374 23.0982 78.5912L20.3937 80.0121C20.131 80.1494 19.8265 79.9285 19.8802 79.636L20.3937 76.627C20.4116 76.5135 20.3758 76.3941 20.2922 76.3105L18.1071 74.1792C17.8981 73.9762 18.0115 73.618 18.3041 73.5702L21.325 73.1284C21.4385 73.1105 21.54 73.0388 21.5937 72.9314L22.943 70.197C23.0803 69.9343 23.4564 69.9343 23.5818 70.197ZM35.4506 70.197L36.7999 72.9314C36.8536 73.0388 36.9491 73.1105 37.0685 73.1284L40.0895 73.5702C40.382 73.612 40.4954 73.9702 40.2865 74.1792L38.1014 76.3105C38.0178 76.3941 37.982 76.5075 37.9999 76.627L38.5133 79.636C38.5611 79.9285 38.2566 80.1494 37.9999 80.0121L35.2954 78.5912C35.1939 78.5374 35.0685 78.5374 34.967 78.5912L32.2625 80.0121C31.9998 80.1494 31.6953 79.9285 31.749 79.636L32.2625 76.627C32.2804 76.5135 32.2446 76.3941 32.161 76.3105L29.9759 74.1792C29.7669 73.9762 29.8804 73.618 30.1729 73.5702L33.1938 73.1284C33.3073 73.1105 33.4088 73.0388 33.4625 72.9314L34.8118 70.197C34.9491 69.9343 35.3252 69.9343 35.4506 70.197ZM47.3194 70.197L48.6687 72.9314C48.7224 73.0388 48.8179 73.1105 48.9373 73.1284L51.9583 73.5702C52.2508 73.612 52.3643 73.9702 52.1553 74.1792L49.9702 76.3105C49.8866 76.3941 49.8508 76.5075 49.8687 76.627L50.3821 79.636C50.4299 79.9285 50.1254 80.1494 49.8687 80.0121L47.1642 78.5912C47.0627 78.5374 46.9373 78.5374 46.8358 78.5912L44.1313 80.0121C43.8686 80.1494 43.5641 79.9285 43.6179 79.636L44.1313 76.627C44.1492 76.5135 44.1134 76.3941 44.0298 76.3105L41.8447 74.1792C41.6357 73.9762 41.7492 73.618 42.0417 73.5702L45.0627 73.1284C45.1761 73.1105 45.2776 73.0388 45.3313 72.9314L46.6806 70.197C46.8119 69.9343 47.194 69.9343 47.3194 70.197ZM59.1882 70.197L60.5375 72.9314C60.5912 73.0388 60.6868 73.1105 60.8062 73.1284L63.8271 73.5702C64.1196 73.612 64.2331 73.9702 64.0241 74.1792L61.839 76.3105C61.7554 76.3941 61.7196 76.5075 61.7375 76.627L62.251 79.636C62.2987 79.9285 61.9942 80.1494 61.7375 80.0121L59.033 78.5912C58.9315 78.5374 58.8061 78.5374 58.7046 78.5912L56.0001 80.0121C55.7374 80.1494 55.4329 79.9285 55.4867 79.636L56.0001 76.627C56.018 76.5135 55.9822 76.3941 55.8986 76.3105L53.7135 74.1792C53.5046 73.9762 53.618 73.618 53.9105 73.5702L56.9315 73.1284C57.0449 73.1105 57.1464 73.0388 57.2001 72.9314L58.5494 70.197C58.6808 69.9343 59.0569 69.9343 59.1882 70.197ZM71.057 70.197L72.4063 72.9314C72.46 73.0388 72.5556 73.1105 72.675 73.1284L75.6959 73.5702C75.9885 73.612 76.1019 73.9702 75.8929 74.1792L73.7078 76.3105C73.6242 76.3941 73.5884 76.5075 73.6063 76.627L74.1198 79.636C74.1675 79.9285 73.863 80.1494 73.6063 80.0121L70.9018 78.5912C70.8003 78.5374 70.6749 78.5374 70.5735 78.5912L67.8689 80.0121C67.6063 80.1494 67.3018 79.9285 67.3555 79.636L67.8689 76.627C67.8869 76.5135 67.851 76.3941 67.7674 76.3105L65.5823 74.1792C65.3734 73.9762 65.4868 73.618 65.7794 73.5702L68.8003 73.1284C68.9137 73.1105 69.0152 73.0388 69.069 72.9314L70.4182 70.197C70.5496 69.9343 70.9257 69.9343 71.057 70.197Z" fill="#F4C309"/>
<path d="M47.4 63.8C60.8758 63.8 71.8 52.8757 71.8 39.4C71.8 25.9242 60.8758 15 47.4 15C33.9243 15 23 25.9242 23 39.4C23 52.8757 33.9243 63.8 47.4 63.8Z" fill="#E0E0E0"/>
<path d="M47.3964 63.0583C60.6673 63.0583 71.4256 52.3001 71.4256 39.0292C71.4256 25.7582 60.6673 15 47.3964 15C34.1254 15 23.3672 25.7582 23.3672 39.0292C23.3672 52.3001 34.1254 63.0583 47.3964 63.0583Z" fill="white"/>
<mask id="mask10_296_4" style="mask-type:luminance" maskUnits="userSpaceOnUse" x="31" y="22" width="33" height="34">
<path d="M62.9729 36.2089H47.7692V42.5129H56.5206C55.7048 46.5177 52.2932 48.8168 47.7692 48.8168C42.4294 48.8168 38.1279 44.5153 38.1279 39.1755C38.1279 33.8357 42.4294 29.5341 47.7692 29.5341C50.0683 29.5341 52.1449 30.35 53.7765 31.6849L58.523 26.9384C55.6306 24.4168 51.9224 22.8594 47.7692 22.8594C38.7212 22.8594 31.4531 30.1275 31.4531 39.1755C31.4531 48.2235 38.7212 55.4916 47.7692 55.4916C55.9273 55.4916 63.3437 49.5585 63.3437 39.1755C63.3437 38.2113 63.1954 37.1731 62.9729 36.2089Z" fill="white"/>
</mask>
<g mask="url(#mask10_296_4)">
<path d="M29.9688 48.8139V29.5312L42.5767 39.1726L29.9688 48.8139Z" fill="#FBBC05"/>
</g>
<mask id="mask11_296_4" style="mask-type:luminance" maskUnits="userSpaceOnUse" x="31" y="22" width="33" height="34">
<path d="M62.9729 36.2089H47.7692V42.5129H56.5206C55.7048 46.5177 52.2932 48.8168 47.7692 48.8168C42.4294 48.8168 38.1279 44.5153 38.1279 39.1755C38.1279 33.8357 42.4294 29.5341 47.7692 29.5341C50.0683 29.5341 52.1449 30.35 53.7765 31.6849L58.523 26.9384C55.6306 24.4168 51.9224 22.8594 47.7692 22.8594C38.7212 22.8594 31.4531 30.1275 31.4531 39.1755C31.4531 48.2235 38.7212 55.4916 47.7692 55.4916C55.9273 55.4916 63.3437 49.5585 63.3437 39.1755C63.3437 38.2113 63.1954 37.1731 62.9729 36.2089Z" fill="white"/>
</mask>
<g mask="url(#mask11_296_4)">
<path d="M29.9688 29.5331L42.5767 39.1744L47.7681 34.6504L65.5675 31.758V21.375H29.9688V29.5331Z" fill="#EA4335"/>
</g>
<mask id="mask12_296_4" style="mask-type:luminance" maskUnits="userSpaceOnUse" x="31" y="22" width="33" height="34">
<path d="M62.9729 36.2089H47.7692V42.5129H56.5206C55.7048 46.5177 52.2932 48.8168 47.7692 48.8168C42.4294 48.8168 38.1279 44.5153 38.1279 39.1755C38.1279 33.8357 42.4294 29.5341 47.7692 29.5341C50.0683 29.5341 52.1449 30.35 53.7765 31.6849L58.523 26.9384C55.6306 24.4168 51.9224 22.8594 47.7692 22.8594C38.7212 22.8594 31.4531 30.1275 31.4531 39.1755C31.4531 48.2235 38.7212 55.4916 47.7692 55.4916C55.9273 55.4916 63.3437 49.5585 63.3437 39.1755C63.3437 38.2113 63.1954 37.1731 62.9729 36.2089Z" fill="white"/>
</mask>
<g mask="url(#mask12_296_4)">
<path d="M29.9688 48.8157L52.218 31.758L58.077 32.4996L65.5675 21.375V56.9738H29.9688V48.8157Z" fill="#34A853"/>
</g>
<path d="M131.008 29V20.6H134.644C135.396 20.6 136.044 20.724 136.588 20.972C137.132 21.212 137.552 21.56 137.848 22.016C138.144 22.472 138.292 23.016 138.292 23.648C138.292 24.272 138.144 24.812 137.848 25.268C137.552 25.724 137.132 26.076 136.588 26.324C136.044 26.564 135.396 26.684 134.644 26.684H132.088L132.952 25.808V29H131.008ZM132.952 26.024L132.088 25.1H134.536C135.136 25.1 135.584 24.972 135.88 24.716C136.176 24.46 136.324 24.104 136.324 23.648C136.324 23.184 136.176 22.824 135.88 22.568C135.584 22.312 135.136 22.184 134.536 22.184H132.088L132.952 21.26V26.024ZM139.68 29V20.6H141.624V27.416H145.836V29H139.68ZM148.71 23.984H152.754V25.496H148.71V23.984ZM148.854 27.44H153.426V29H146.922V20.6H153.27V22.16H148.854V27.44ZM157.733 29.144C157.061 29.144 156.417 29.056 155.801 28.88C155.185 28.696 154.689 28.46 154.313 28.172L154.973 26.708C155.333 26.964 155.757 27.176 156.245 27.344C156.741 27.504 157.241 27.584 157.745 27.584C158.129 27.584 158.437 27.548 158.669 27.476C158.909 27.396 159.085 27.288 159.197 27.152C159.309 27.016 159.365 26.86 159.365 26.684C159.365 26.46 159.277 26.284 159.101 26.156C158.925 26.02 158.693 25.912 158.405 25.832C158.117 25.744 157.797 25.664 157.445 25.592C157.101 25.512 156.753 25.416 156.401 25.304C156.057 25.192 155.741 25.048 155.453 24.872C155.165 24.696 154.929 24.464 154.745 24.176C154.569 23.888 154.481 23.52 154.481 23.072C154.481 22.592 154.609 22.156 154.865 21.764C155.129 21.364 155.521 21.048 156.041 20.816C156.569 20.576 157.229 20.456 158.021 20.456C158.549 20.456 159.069 20.52 159.581 20.648C160.093 20.768 160.545 20.952 160.937 21.2L160.337 22.676C159.945 22.452 159.553 22.288 159.161 22.184C158.769 22.072 158.385 22.016 158.009 22.016C157.633 22.016 157.325 22.06 157.085 22.148C156.845 22.236 156.673 22.352 156.569 22.496C156.465 22.632 156.413 22.792 156.413 22.976C156.413 23.192 156.501 23.368 156.677 23.504C156.853 23.632 157.085 23.736 157.373 23.816C157.661 23.896 157.977 23.976 158.321 24.056C158.673 24.136 159.021 24.228 159.365 24.332C159.717 24.436 160.037 24.576 160.325 24.752C160.613 24.928 160.845 25.16 161.021 25.448C161.205 25.736 161.297 26.1 161.297 26.54C161.297 27.012 161.165 27.444 160.901 27.836C160.637 28.228 160.241 28.544 159.713 28.784C159.193 29.024 158.533 29.144 157.733 29.144ZM164.413 23.984H168.457V25.496H164.413V23.984ZM164.557 27.44H169.129V29H162.625V20.6H168.973V22.16H164.557V27.44ZM174.074 29V20.6H176.018V27.416H180.23V29H174.074ZM183.104 23.984H187.148V25.496H183.104V23.984ZM183.248 27.44H187.82V29H181.316V20.6H187.664V22.16H183.248V27.44ZM188.263 29L192.007 20.6H193.927L197.683 29H195.643L192.571 21.584H193.339L190.255 29H188.263ZM190.135 27.2L190.651 25.724H194.971L195.499 27.2H190.135ZM200.618 29L196.994 20.6H199.094L202.262 28.04H201.026L204.242 20.6H206.174L202.538 29H200.618ZM208.663 23.984H212.707V25.496H208.663V23.984ZM208.807 27.44H213.379V29H206.875V20.6H213.223V22.16H208.807V27.44ZM222.056 29.144C220.864 29.144 219.932 28.812 219.26 28.148C218.588 27.484 218.252 26.536 218.252 25.304V20.6H220.196V25.232C220.196 26.032 220.36 26.608 220.688 26.96C221.016 27.312 221.476 27.488 222.068 27.488C222.66 27.488 223.12 27.312 223.448 26.96C223.776 26.608 223.94 26.032 223.94 25.232V20.6H225.86V25.304C225.86 26.536 225.524 27.484 224.852 28.148C224.18 28.812 223.248 29.144 222.056 29.144ZM230.541 29.144C229.869 29.144 229.225 29.056 228.609 28.88C227.993 28.696 227.497 28.46 227.121 28.172L227.781 26.708C228.141 26.964 228.565 27.176 229.053 27.344C229.549 27.504 230.049 27.584 230.553 27.584C230.937 27.584 231.245 27.548 231.477 27.476C231.717 27.396 231.893 27.288 232.005 27.152C232.117 27.016 232.173 26.86 232.173 26.684C232.173 26.46 232.085 26.284 231.909 26.156C231.733 26.02 231.501 25.912 231.213 25.832C230.925 25.744 230.605 25.664 230.253 25.592C229.909 25.512 229.561 25.416 229.209 25.304C228.865 25.192 228.549 25.048 228.261 24.872C227.973 24.696 227.737 24.464 227.553 24.176C227.377 23.888 227.289 23.52 227.289 23.072C227.289 22.592 227.417 22.156 227.673 21.764C227.937 21.364 228.329 21.048 228.849 20.816C229.377 20.576 230.037 20.456 230.829 20.456C231.357 20.456 231.877 20.52 232.389 20.648C232.901 20.768 233.353 20.952 233.745 21.2L233.145 22.676C232.753 22.452 232.361 22.288 231.969 22.184C231.577 22.072 231.193 22.016 230.817 22.016C230.441 22.016 230.133 22.06 229.893 22.148C229.653 22.236 229.481 22.352 229.377 22.496C229.273 22.632 229.221 22.792 229.221 22.976C229.221 23.192 229.309 23.368 229.485 23.504C229.661 23.632 229.893 23.736 230.181 23.816C230.469 23.896 230.785 23.976 231.129 24.056C231.481 24.136 231.829 24.228 232.173 24.332C232.525 24.436 232.845 24.576 233.133 24.752C233.421 24.928 233.653 25.16 233.829 25.448C234.013 25.736 234.105 26.1 234.105 26.54C234.105 27.012 233.973 27.444 233.709 27.836C233.445 28.228 233.049 28.544 232.521 28.784C232.001 29.024 231.341 29.144 230.541 29.144ZM237.728 29L241.472 20.6H243.392L247.148 29H245.108L242.036 21.584H242.804L239.72 29H237.728ZM239.6 27.2L240.116 25.724H244.436L244.964 27.2H239.6ZM251.418 29V20.6H255.054C255.806 20.6 256.454 20.724 256.998 20.972C257.542 21.212 257.962 21.56 258.258 22.016C258.554 22.472 258.702 23.016 258.702 23.648C258.702 24.272 258.554 24.812 258.258 25.268C257.962 25.716 257.542 26.06 256.998 26.3C256.454 26.54 255.806 26.66 255.054 26.66H252.498L253.362 25.808V29H251.418ZM256.758 29L254.658 25.952H256.734L258.858 29H256.758ZM253.362 26.024L252.498 25.112H254.946C255.546 25.112 255.994 24.984 256.29 24.728C256.586 24.464 256.734 24.104 256.734 23.648C256.734 23.184 256.586 22.824 256.29 22.568C255.994 22.312 255.546 22.184 254.946 22.184H252.498L253.362 21.26V26.024ZM262.03 23.984H266.074V25.496H262.03V23.984ZM262.174 27.44H266.746V29H260.242V20.6H266.59V22.16H262.174V27.44ZM270.696 29L267.072 20.6H269.172L272.34 28.04H271.104L274.32 20.6H276.252L272.616 29H270.696ZM276.953 29V20.6H278.897V29H276.953ZM282.679 23.984H286.723V25.496H282.679V23.984ZM282.823 27.44H287.395V29H280.891V20.6H287.239V22.16H282.823V27.44ZM290.84 29L288.092 20.6H290.108L292.496 28.04H291.488L293.984 20.6H295.784L298.184 28.04H297.212L299.66 20.6H301.52L298.772 29H296.684L294.56 22.472H295.112L292.928 29H290.84ZM310.26 29.144C309.596 29.144 308.98 29.036 308.412 28.82C307.852 28.604 307.364 28.3 306.948 27.908C306.54 27.516 306.22 27.056 305.988 26.528C305.764 26 305.652 25.424 305.652 24.8C305.652 24.176 305.764 23.6 305.988 23.072C306.22 22.544 306.544 22.084 306.96 21.692C307.376 21.3 307.864 20.996 308.424 20.78C308.984 20.564 309.592 20.456 310.248 20.456C310.912 20.456 311.52 20.564 312.072 20.78C312.632 20.996 313.116 21.3 313.524 21.692C313.94 22.084 314.264 22.544 314.496 23.072C314.728 23.592 314.844 24.168 314.844 24.8C314.844 25.424 314.728 26.004 314.496 26.54C314.264 27.068 313.94 27.528 313.524 27.92C313.116 28.304 312.632 28.604 312.072 28.82C311.52 29.036 310.916 29.144 310.26 29.144ZM310.248 27.488C310.624 27.488 310.968 27.424 311.28 27.296C311.6 27.168 311.88 26.984 312.12 26.744C312.36 26.504 312.544 26.22 312.672 25.892C312.808 25.564 312.876 25.2 312.876 24.8C312.876 24.4 312.808 24.036 312.672 23.708C312.544 23.38 312.36 23.096 312.12 22.856C311.888 22.616 311.612 22.432 311.292 22.304C310.972 22.176 310.624 22.112 310.248 22.112C309.872 22.112 309.524 22.176 309.204 22.304C308.892 22.432 308.616 22.616 308.376 22.856C308.136 23.096 307.948 23.38 307.812 23.708C307.684 24.036 307.62 24.4 307.62 24.8C307.62 25.192 307.684 25.556 307.812 25.892C307.948 26.22 308.132 26.504 308.364 26.744C308.604 26.984 308.884 27.168 309.204 27.296C309.524 27.424 309.872 27.488 310.248 27.488ZM316.305 29V20.6H317.913L322.869 26.648H322.089V20.6H324.009V29H322.413L317.445 22.952H318.225V29H316.305Z" fill="white"/>
<path d="M243.322 54.24C242.216 54.24 241.196 54.0667 240.262 53.72C239.342 53.36 238.536 52.8533 237.842 52.2C237.162 51.5467 236.629 50.78 236.242 49.9C235.869 49.02 235.682 48.0533 235.682 47C235.682 45.9467 235.869 44.98 236.242 44.1C236.629 43.22 237.169 42.4533 237.862 41.8C238.556 41.1467 239.369 40.6467 240.302 40.3C241.236 39.94 242.262 39.76 243.382 39.76C244.622 39.76 245.736 39.9667 246.722 40.38C247.722 40.7933 248.562 41.3933 249.242 42.18L247.162 44.1C246.656 43.5667 246.102 43.1733 245.502 42.92C244.902 42.6533 244.249 42.52 243.542 42.52C242.862 42.52 242.242 42.6267 241.682 42.84C241.122 43.0533 240.636 43.36 240.222 43.76C239.822 44.16 239.509 44.6333 239.282 45.18C239.069 45.7267 238.962 46.3333 238.962 47C238.962 47.6533 239.069 48.2533 239.282 48.8C239.509 49.3467 239.822 49.8267 240.222 50.24C240.636 50.64 241.116 50.9467 241.662 51.16C242.222 51.3733 242.836 51.48 243.502 51.48C244.142 51.48 244.762 51.38 245.362 51.18C245.976 50.9667 246.569 50.6133 247.142 50.12L248.982 52.46C248.222 53.0333 247.336 53.4733 246.322 53.78C245.322 54.0867 244.322 54.24 243.322 54.24ZM246.022 52.04V46.78H248.982V52.46L246.022 52.04ZM258.792 54.24C257.685 54.24 256.659 54.06 255.712 53.7C254.779 53.34 253.965 52.8333 253.272 52.18C252.592 51.5267 252.059 50.76 251.672 49.88C251.299 49 251.112 48.04 251.112 47C251.112 45.96 251.299 45 251.672 44.12C252.059 43.24 252.599 42.4733 253.292 41.82C253.985 41.1667 254.799 40.66 255.732 40.3C256.665 39.94 257.679 39.76 258.772 39.76C259.879 39.76 260.892 39.94 261.812 40.3C262.745 40.66 263.552 41.1667 264.232 41.82C264.925 42.4733 265.465 43.24 265.852 44.12C266.239 44.9867 266.432 45.9467 266.432 47C266.432 48.04 266.239 49.0067 265.852 49.9C265.465 50.78 264.925 51.5467 264.232 52.2C263.552 52.84 262.745 53.34 261.812 53.7C260.892 54.06 259.885 54.24 258.792 54.24ZM258.772 51.48C259.399 51.48 259.972 51.3733 260.492 51.16C261.025 50.9467 261.492 50.64 261.892 50.24C262.292 49.84 262.599 49.3667 262.812 48.82C263.039 48.2733 263.152 47.6667 263.152 47C263.152 46.3333 263.039 45.7267 262.812 45.18C262.599 44.6333 262.292 44.16 261.892 43.76C261.505 43.36 261.045 43.0533 260.512 42.84C259.979 42.6267 259.399 42.52 258.772 42.52C258.145 42.52 257.565 42.6267 257.032 42.84C256.512 43.0533 256.052 43.36 255.652 43.76C255.252 44.16 254.939 44.6333 254.712 45.18C254.499 45.7267 254.392 46.3333 254.392 47C254.392 47.6533 254.499 48.26 254.712 48.82C254.939 49.3667 255.245 49.84 255.632 50.24C256.032 50.64 256.499 50.9467 257.032 51.16C257.565 51.3733 258.145 51.48 258.772 51.48ZM275.667 54.24C274.56 54.24 273.534 54.06 272.587 53.7C271.654 53.34 270.84 52.8333 270.147 52.18C269.467 51.5267 268.934 50.76 268.547 49.88C268.174 49 267.987 48.04 267.987 47C267.987 45.96 268.174 45 268.547 44.12C268.934 43.24 269.474 42.4733 270.167 41.82C270.86 41.1667 271.674 40.66 272.607 40.3C273.54 39.94 274.554 39.76 275.647 39.76C276.754 39.76 277.767 39.94 278.687 40.3C279.62 40.66 280.427 41.1667 281.107 41.82C281.8 42.4733 282.34 43.24 282.727 44.12C283.114 44.9867 283.307 45.9467 283.307 47C283.307 48.04 283.114 49.0067 282.727 49.9C282.34 50.78 281.8 51.5467 281.107 52.2C280.427 52.84 279.62 53.34 278.687 53.7C277.767 54.06 276.76 54.24 275.667 54.24ZM275.647 51.48C276.274 51.48 276.847 51.3733 277.367 51.16C277.9 50.9467 278.367 50.64 278.767 50.24C279.167 49.84 279.474 49.3667 279.687 48.82C279.914 48.2733 280.027 47.6667 280.027 47C280.027 46.3333 279.914 45.7267 279.687 45.18C279.474 44.6333 279.167 44.16 278.767 43.76C278.38 43.36 277.92 43.0533 277.387 42.84C276.854 42.6267 276.274 42.52 275.647 42.52C275.02 42.52 274.44 42.6267 273.907 42.84C273.387 43.0533 272.927 43.36 272.527 43.76C272.127 44.16 271.814 44.6333 271.587 45.18C271.374 45.7267 271.267 46.3333 271.267 47C271.267 47.6533 271.374 48.26 271.587 48.82C271.814 49.3667 272.12 49.84 272.507 50.24C272.907 50.64 273.374 50.9467 273.907 51.16C274.44 51.3733 275.02 51.48 275.647 51.48ZM292.502 54.24C291.395 54.24 290.375 54.0667 289.442 53.72C288.522 53.36 287.715 52.8533 287.022 52.2C286.342 51.5467 285.809 50.78 285.422 49.9C285.049 49.02 284.862 48.0533 284.862 47C284.862 45.9467 285.049 44.98 285.422 44.1C285.809 43.22 286.349 42.4533 287.042 41.8C287.735 41.1467 288.549 40.6467 289.482 40.3C290.415 39.94 291.442 39.76 292.562 39.76C293.802 39.76 294.915 39.9667 295.902 40.38C296.902 40.7933 297.742 41.3933 298.422 42.18L296.342 44.1C295.835 43.5667 295.282 43.1733 294.682 42.92C294.082 42.6533 293.429 42.52 292.722 42.52C292.042 42.52 291.422 42.6267 290.862 42.84C290.302 43.0533 289.815 43.36 289.402 43.76C289.002 44.16 288.689 44.6333 288.462 45.18C288.249 45.7267 288.142 46.3333 288.142 47C288.142 47.6533 288.249 48.2533 288.462 48.8C288.689 49.3467 289.002 49.8267 289.402 50.24C289.815 50.64 290.295 50.9467 290.842 51.16C291.402 51.3733 292.015 51.48 292.682 51.48C293.322 51.48 293.942 51.38 294.542 51.18C295.155 50.9667 295.749 50.6133 296.322 50.12L298.162 52.46C297.402 53.0333 296.515 53.4733 295.502 53.78C294.502 54.0867 293.502 54.24 292.502 54.24ZM295.202 52.04V46.78H298.162V52.46L295.202 52.04ZM301.172 54V40H304.412V51.36H311.432V54H301.172ZM316.222 45.64H322.962V48.16H316.222V45.64ZM316.462 51.4H324.082V54H313.242V40H323.822V42.6H316.462V51.4Z" fill="white"/>
<path d="M317.805 62L316.633 63.2164L321.833 68.6385H299V70.3615H321.833L316.633 75.7836L317.805 77L325 69.5L317.805 62Z" fill="white"/>
<mask id="mask13_296_4" style="mask-type:alpha" maskUnits="userSpaceOnUse" x="95" y="49" width="103" height="103">
<circle cx="146.482" cy="100.479" r="49.0277" transform="rotate(20.1439 146.482 100.479)" stroke="#F4C309" stroke-width="4"/>
</mask>
<g mask="url(#mask13_296_4)">
<rect x="92.1484" y="48" width="107" height="47" fill="white"/>
</g>
<mask id="mask14_296_4" style="mask-type:alpha" maskUnits="userSpaceOnUse" x="164" y="63" width="71" height="72">
<circle cx="199.482" cy="98.9792" r="33.4418" transform="rotate(20.1439 199.482 98.9792)" stroke="#F4C309" stroke-width="4"/>
</mask>
<g mask="url(#mask14_296_4)">
<rect x="161.742" y="62.5312" width="74.3179" height="32.6443" fill="#F4C309"/>
</g>
</g>
</g>
<defs>
<filter id="filter0_d_296_4" x="-10" y="-8" width="363" height="115" filterUnits="userSpaceOnUse" color-interpolation-filters="sRGB">
<feFlood flood-opacity="0" result="BackgroundImageFix"/>
<feColorMatrix in="SourceAlpha" type="matrix" values="0 0 0 0 0 0 0 0 0 0 0 0 0 0 0 0 0 0 127 0" result="hardAlpha"/>
<feOffset dy="2"/>
<feGaussianBlur stdDeviation="5"/>
<feComposite in2="hardAlpha" operator="out"/>
<feColorMatrix type="matrix" values="0 0 0 0 0 0 0 0 0 0 0 0 0 0 0 0 0 0 0.1 0"/>
<feBlend mode="normal" in2="BackgroundImageFix" result="effect1_dropShadow_296_4"/>
<feBlend mode="normal" in="SourceGraphic" in2="effect1_dropShadow_296_4" result="shape"/>
</filter>
<filter id="filter1_d_296_4" x="-10" y="-8" width="363" height="115" filterUnits="userSpaceOnUse" color-interpolation-filters="sRGB">
<feFlood flood-opacity="0" result="BackgroundImageFix"/>
<feColorMatrix in="SourceAlpha" type="matrix" values="0 0 0 0 0 0 0 0 0 0 0 0 0 0 0 0 0 0 127 0" result="hardAlpha"/>
<feOffset dy="2"/>
<feGaussianBlur stdDeviation="5"/>
<feComposite in2="hardAlpha" operator="out"/>
<feColorMatrix type="matrix" values="0 0 0 0 0 0 0 0 0 0 0 0 0 0 0 0 0 0 0.1 0"/>
<feBlend mode="normal" in2="BackgroundImageFix" result="effect1_dropShadow_296_4"/>
<feBlend mode="normal" in="SourceGraphic" in2="effect1_dropShadow_296_4" result="shape"/>
</filter>
</defs>
</svg>
