<svg width="20" height="23" viewBox="0 0 20 23" fill="none" xmlns="http://www.w3.org/2000/svg">
<path d="M10.9075 11L14.5097 7.2187L2.87489 0.354264C2.10379 -0.0830756 1.38141 -0.144456 0.747959 0.333804L10.9075 11ZM15.1236 15.4271L18.8683 13.2161C19.5992 12.7865 20 12.1778 20 11.5026C20 10.8287 19.5992 10.2187 18.8695 9.78903L15.4794 7.79031L11.6628 11.7954L15.1236 15.4271ZM0.121817 1.26347C0.0438542 1.51539 0 1.79672 0 2.1049V20.9092C0 21.3964 0.102327 21.8159 0.287489 22.1496L10.1511 11.7941L0.121817 1.26347ZM10.9075 12.587L1.09879 22.8849C1.28639 22.9604 1.48861 23 1.70179 23C2.08186 23 2.47777 22.8824 2.88098 22.6471L14.1552 16.0013L10.9075 12.587Z" fill="white"/>
</svg>
