<svg width="308" height="210" viewBox="0 0 308 210" fill="none" xmlns="http://www.w3.org/2000/svg">
<g filter="url(#filter0_d_79_245)">
<g filter="url(#filter1_d_79_245)">
<rect x="4" y="3" width="300" height="199" rx="6" fill="#FC8019"/>
</g>
</g>
<rect x="92" y="126" width="125" height="28" rx="2" fill="black" fill-opacity="0.3" stroke="white" stroke-width="2"/>
<path d="M109.908 145.14C109.143 145.14 108.438 145.014 107.794 144.762C107.15 144.51 106.59 144.16 106.114 143.712C105.638 143.255 105.269 142.723 105.008 142.116C104.747 141.5 104.616 140.828 104.616 140.1C104.616 139.372 104.747 138.705 105.008 138.098C105.269 137.482 105.638 136.95 106.114 136.502C106.59 136.045 107.15 135.69 107.794 135.438C108.438 135.186 109.138 135.06 109.894 135.06C110.659 135.06 111.359 135.186 111.994 135.438C112.638 135.69 113.198 136.045 113.674 136.502C114.15 136.95 114.519 137.482 114.78 138.098C115.041 138.705 115.172 139.372 115.172 140.1C115.172 140.828 115.041 141.5 114.78 142.116C114.519 142.732 114.15 143.264 113.674 143.712C113.198 144.16 112.638 144.51 111.994 144.762C111.359 145.014 110.664 145.14 109.908 145.14ZM109.894 143.544C110.389 143.544 110.846 143.46 111.266 143.292C111.686 143.124 112.05 142.886 112.358 142.578C112.666 142.261 112.904 141.897 113.072 141.486C113.249 141.066 113.338 140.604 113.338 140.1C113.338 139.596 113.249 139.139 113.072 138.728C112.904 138.308 112.666 137.944 112.358 137.636C112.05 137.319 111.686 137.076 111.266 136.908C110.846 136.74 110.389 136.656 109.894 136.656C109.399 136.656 108.942 136.74 108.522 136.908C108.111 137.076 107.747 137.319 107.43 137.636C107.122 137.944 106.879 138.308 106.702 138.728C106.534 139.139 106.45 139.596 106.45 140.1C106.45 140.595 106.534 141.052 106.702 141.472C106.879 141.892 107.122 142.261 107.43 142.578C107.738 142.886 108.102 143.124 108.522 143.292C108.942 143.46 109.399 143.544 109.894 143.544ZM116.933 145V137.524H118.599V139.582L118.403 138.98C118.627 138.476 118.977 138.093 119.453 137.832C119.938 137.571 120.54 137.44 121.259 137.44V139.106C121.184 139.087 121.114 139.078 121.049 139.078C120.984 139.069 120.918 139.064 120.853 139.064C120.19 139.064 119.663 139.26 119.271 139.652C118.879 140.035 118.683 140.609 118.683 141.374V145H116.933ZM125.839 145.098C125.121 145.098 124.472 144.939 123.893 144.622C123.324 144.295 122.876 143.847 122.549 143.278C122.223 142.709 122.059 142.037 122.059 141.262C122.059 140.487 122.223 139.815 122.549 139.246C122.876 138.677 123.324 138.233 123.893 137.916C124.472 137.599 125.121 137.44 125.839 137.44C126.465 137.44 127.025 137.58 127.519 137.86C128.014 138.131 128.406 138.546 128.695 139.106C128.985 139.666 129.129 140.385 129.129 141.262C129.129 142.13 128.989 142.849 128.709 143.418C128.429 143.978 128.042 144.398 127.547 144.678C127.053 144.958 126.483 145.098 125.839 145.098ZM126.049 143.6C126.469 143.6 126.843 143.507 127.169 143.32C127.505 143.133 127.771 142.863 127.967 142.508C128.173 142.153 128.275 141.738 128.275 141.262C128.275 140.777 128.173 140.361 127.967 140.016C127.771 139.661 127.505 139.391 127.169 139.204C126.843 139.017 126.469 138.924 126.049 138.924C125.629 138.924 125.251 139.017 124.915 139.204C124.589 139.391 124.323 139.661 124.117 140.016C123.921 140.361 123.823 140.777 123.823 141.262C123.823 141.738 123.921 142.153 124.117 142.508C124.323 142.863 124.589 143.133 124.915 143.32C125.251 143.507 125.629 143.6 126.049 143.6ZM128.317 145V143.236L128.387 141.248L128.247 139.26V134.612H129.983V145H128.317ZM135.801 145.098C134.97 145.098 134.242 144.935 133.617 144.608C133.001 144.272 132.52 143.815 132.175 143.236C131.839 142.657 131.671 141.999 131.671 141.262C131.671 140.515 131.834 139.857 132.161 139.288C132.497 138.709 132.954 138.257 133.533 137.93C134.121 137.603 134.788 137.44 135.535 137.44C136.263 137.44 136.911 137.599 137.481 137.916C138.05 138.233 138.498 138.681 138.825 139.26C139.151 139.839 139.315 140.52 139.315 141.304C139.315 141.379 139.31 141.463 139.301 141.556C139.301 141.649 139.296 141.738 139.287 141.822H133.057V140.66H138.363L137.677 141.024C137.686 140.595 137.597 140.217 137.411 139.89C137.224 139.563 136.967 139.307 136.641 139.12C136.323 138.933 135.955 138.84 135.535 138.84C135.105 138.84 134.727 138.933 134.401 139.12C134.083 139.307 133.831 139.568 133.645 139.904C133.467 140.231 133.379 140.618 133.379 141.066V141.346C133.379 141.794 133.481 142.191 133.687 142.536C133.892 142.881 134.181 143.147 134.555 143.334C134.928 143.521 135.357 143.614 135.843 143.614C136.263 143.614 136.641 143.549 136.977 143.418C137.313 143.287 137.611 143.082 137.873 142.802L138.811 143.88C138.475 144.272 138.05 144.575 137.537 144.79C137.033 144.995 136.454 145.098 135.801 145.098ZM140.996 145V137.524H142.662V139.582L142.466 138.98C142.69 138.476 143.04 138.093 143.516 137.832C144.001 137.571 144.603 137.44 145.322 137.44V139.106C145.247 139.087 145.177 139.078 145.112 139.078C145.046 139.069 144.981 139.064 144.916 139.064C144.253 139.064 143.726 139.26 143.334 139.652C142.942 140.035 142.746 140.609 142.746 141.374V145H140.996ZM150.912 145V135.2H152.41L158.556 142.746H157.814V135.2H159.62V145H158.122L151.976 137.454H152.718V145H150.912ZM165.438 145.098C164.672 145.098 163.991 144.935 163.394 144.608C162.796 144.272 162.325 143.815 161.98 143.236C161.634 142.657 161.462 141.999 161.462 141.262C161.462 140.515 161.634 139.857 161.98 139.288C162.325 138.709 162.796 138.257 163.394 137.93C163.991 137.603 164.672 137.44 165.438 137.44C166.212 137.44 166.898 137.603 167.496 137.93C168.102 138.257 168.574 138.705 168.91 139.274C169.255 139.843 169.428 140.506 169.428 141.262C169.428 141.999 169.255 142.657 168.91 143.236C168.574 143.815 168.102 144.272 167.496 144.608C166.898 144.935 166.212 145.098 165.438 145.098ZM165.438 143.6C165.867 143.6 166.25 143.507 166.586 143.32C166.922 143.133 167.183 142.863 167.37 142.508C167.566 142.153 167.664 141.738 167.664 141.262C167.664 140.777 167.566 140.361 167.37 140.016C167.183 139.661 166.922 139.391 166.586 139.204C166.25 139.017 165.872 138.924 165.452 138.924C165.022 138.924 164.64 139.017 164.304 139.204C163.977 139.391 163.716 139.661 163.52 140.016C163.324 140.361 163.226 140.777 163.226 141.262C163.226 141.738 163.324 142.153 163.52 142.508C163.716 142.863 163.977 143.133 164.304 143.32C164.64 143.507 165.018 143.6 165.438 143.6ZM172.548 145L169.804 137.524H171.456L173.808 144.118H173.024L175.488 137.524H176.958L179.352 144.118H178.582L181.004 137.524H182.558L179.8 145H178.12L175.936 139.162H176.454L174.228 145H172.548Z" fill="white"/>
<path d="M199 147C202.866 147 206 143.866 206 140C206 136.134 202.866 133 199 133C195.134 133 192 136.134 192 140C192 143.866 195.134 147 199 147Z" stroke="white" stroke-width="1.5" stroke-linejoin="round"/>
<path d="M197.6 143.5L201.1 140L197.6 136.5" stroke="white" stroke-width="1.5" stroke-linejoin="round"/>
<path d="M60.9209 119C60.87 118.949 60.8191 118.949 60.7682 118.898C59.9533 117.878 54.9114 111.552 49.7676 103.39C48.2398 100.788 47.2212 98.799 47.4249 98.2378C47.9342 96.8605 56.8976 96.1463 59.6987 97.3706C60.5644 97.7277 60.5135 98.2378 60.5135 98.5439C60.5135 99.7682 60.4626 103.135 60.4626 103.135C60.4626 103.849 61.0228 104.41 61.7358 104.359C62.4488 104.359 63.009 103.798 62.9581 103.084V94.769C62.9581 94.0548 62.1941 93.8507 62.0414 93.8507C60.6154 93.8507 57.6615 93.8507 54.504 93.8507C47.5777 93.8507 45.999 94.1568 44.8276 93.3406C42.2812 91.6572 38.1051 80.3834 38.0032 74.0068C37.8504 65.0285 43.147 57.2746 50.6334 53.4486C53.7401 51.8672 57.2541 51 60.9719 51C72.7872 51 82.5145 59.9272 83.7877 71.4051C83.7877 71.4051 83.7877 71.4051 83.7877 71.4561C84.0424 74.2108 68.7639 74.823 65.7082 74.0068C65.2498 73.9047 65.148 73.3946 65.148 73.1905C65.148 71.099 65.148 65.1305 65.148 65.1305C65.148 64.4164 64.5878 63.8552 63.8748 63.9062C63.1618 63.9062 62.6525 64.4674 62.6525 65.1815V76.1493C62.6525 76.8635 63.2636 77.0165 63.4164 77.0675C65.148 77.0675 69.1713 77.0675 72.8891 77.0675C77.931 77.0675 80.07 77.6797 81.496 78.7509C82.4127 79.4651 82.8201 80.8425 82.4636 82.6279C79.5607 98.4419 61.583 118.133 60.9209 119ZM109.659 83.8627C114.192 85.8012 116.993 87.9948 116.993 92.7389C116.993 97.5852 113.326 100.697 107.673 100.697C103.09 100.697 99.3718 98.6054 97.5384 94.9835L97.2328 94.4224L102.631 91.3106L102.988 91.8717C104.21 93.8612 105.585 94.7284 107.52 94.7284C109.201 94.7284 110.372 93.9632 110.372 92.841C110.372 91.6167 109.557 91.1065 107.011 89.9843L105.687 89.4231C102.224 87.9437 99.0153 85.9032 99.0153 80.904C99.0153 76.4149 102.427 73.3031 107.368 73.3031C111.085 73.3031 113.632 74.7314 115.363 77.8432L115.669 78.4044L110.423 81.7712L110.067 81.108C109.201 79.5266 108.386 79.2206 107.317 79.2206C106.247 79.2206 105.534 79.8327 105.534 80.7509C105.534 81.8222 106.043 82.2813 108.335 83.3016L109.659 83.8627ZM147.906 84.781L151.726 74.1193H158.296L148.619 101.105H147.142L141.235 88.4539C140.98 87.8927 140.675 87.1785 140.42 86.5154C140.165 87.1785 139.86 87.8927 139.605 88.4539L133.494 101.105H132.068L122.239 74.1193H129.216L133.086 84.781C133.341 85.4441 133.596 86.3113 133.799 87.0765C134.054 86.2603 134.359 85.4441 134.716 84.7299L139.758 73.9152H141.184L146.328 84.7299C146.633 85.4441 146.99 86.2603 147.244 87.0765C147.397 86.3113 147.652 85.4441 147.906 84.781ZM165.884 100.34V73.5581H172.505V100.34H165.884ZM194.149 91.3616V85.3931H206.423V97.3811L206.168 97.5851C204.742 98.7584 201.025 100.697 195.983 100.697C187.478 100.697 181.57 95.0345 181.57 86.9745C181.57 79.0675 187.274 73.3031 195.168 73.3031C199.497 73.3031 202.705 74.5274 204.895 77.027L205.303 77.5371L200.821 82.0263L200.312 81.5161C199.038 80.2408 197.765 79.4246 195.168 79.4246C191.145 79.4246 188.293 82.5364 188.293 87.0255C188.293 91.6677 191.297 94.6774 195.983 94.6774C197.511 94.6774 199.14 94.4224 200.261 93.9632V91.3616H194.149ZM227.609 91.3616V85.3931H239.883V97.3811L239.628 97.5851C238.202 98.7584 234.484 100.697 229.443 100.697C220.938 100.697 215.03 95.0345 215.03 86.9745C215.03 79.0675 220.734 73.3031 228.628 73.3031C232.957 73.3031 236.165 74.5274 238.355 77.027L238.762 77.5371L234.281 82.0263L233.771 81.5161C232.498 80.2408 231.225 79.4246 228.628 79.4246C224.604 79.4246 221.752 82.5364 221.752 87.0255C221.752 91.6677 224.757 94.6774 229.443 94.6774C230.97 94.6774 232.6 94.4224 233.721 93.9632V91.3616H227.609ZM264.074 73.6092H271L261.527 91.4126V100.391H254.907V91.8207L244.823 73.6092H252.157L256.842 82.1283C257.351 83.0465 257.861 84.2708 258.268 85.2911C258.624 84.3218 259.134 83.0975 259.643 82.1283L264.074 73.6092Z" fill="white"/>
<defs>
<filter id="filter0_d_79_245" x="0" y="3" width="308" height="207" filterUnits="userSpaceOnUse" color-interpolation-filters="sRGB">
<feFlood flood-opacity="0" result="BackgroundImageFix"/>
<feColorMatrix in="SourceAlpha" type="matrix" values="0 0 0 0 0 0 0 0 0 0 0 0 0 0 0 0 0 0 127 0" result="hardAlpha"/>
<feOffset dy="4"/>
<feGaussianBlur stdDeviation="2"/>
<feComposite in2="hardAlpha" operator="out"/>
<feColorMatrix type="matrix" values="0 0 0 0 0 0 0 0 0 0 0 0 0 0 0 0 0 0 0.25 0"/>
<feBlend mode="normal" in2="BackgroundImageFix" result="effect1_dropShadow_79_245"/>
<feBlend mode="normal" in="SourceGraphic" in2="effect1_dropShadow_79_245" result="shape"/>
</filter>
<filter id="filter1_d_79_245" x="1" y="0" width="306" height="205" filterUnits="userSpaceOnUse" color-interpolation-filters="sRGB">
<feFlood flood-opacity="0" result="BackgroundImageFix"/>
<feColorMatrix in="SourceAlpha" type="matrix" values="0 0 0 0 0 0 0 0 0 0 0 0 0 0 0 0 0 0 127 0" result="hardAlpha"/>
<feOffset/>
<feGaussianBlur stdDeviation="1.5"/>
<feComposite in2="hardAlpha" operator="out"/>
<feColorMatrix type="matrix" values="0 0 0 0 0 0 0 0 0 0 0 0 0 0 0 0 0 0 0.25 0"/>
<feBlend mode="normal" in2="BackgroundImageFix" result="effect1_dropShadow_79_245"/>
<feBlend mode="normal" in="SourceGraphic" in2="effect1_dropShadow_79_245" result="shape"/>
</filter>
</defs>
</svg>
