<svg width="306" height="205" viewBox="0 0 306 205" fill="none" xmlns="http://www.w3.org/2000/svg">
<g filter="url(#filter0_d_70_377)">
<rect x="3" y="3" width="300" height="199" rx="6" fill="#E23744"/>
</g>
<g clip-path="url(#clip0_70_377)">
<path d="M13.044 53H291.956V152H13.044V53Z" fill="#E23744"/>
</g>
<path d="M79.2209 75.5783L79.0279 81.7764L62.8644 99.3476C69.6163 99.3476 73.897 99.2817 76.366 99.1445C75.6508 102.48 75.0685 105.205 74.4828 109.292C71.2362 109.018 66.1745 108.95 61.1095 108.95C55.4643 108.95 50.5298 109.018 46.5704 109.292L46.702 103.024L62.8644 85.5232C55.789 85.5232 53.1917 85.5901 50.2721 85.6582C50.9192 82.5251 51.3743 79.0528 51.8284 75.5783C56.9559 75.7825 58.9686 75.8495 65.6546 75.8495C71.8219 75.8495 75.3251 75.7825 79.2209 75.5783ZM97.5923 73.7373C87.074 73.7373 79.0279 83.1366 79.0279 94.3779C79.0279 102.822 83.8955 109.292 93.3718 109.292C103.953 109.292 111.937 99.8921 111.937 88.5849C111.937 80.211 107.197 73.7373 97.5923 73.7373ZM94.4105 100.258C92.0732 100.258 90.711 98.1437 90.711 93.9897C90.711 87.7916 93.2424 82.8208 96.3595 82.8208C98.6298 82.8208 99.9932 84.866 99.9932 89.0858C99.992 95.2159 97.5276 100.258 94.4105 100.258ZM246.265 73.2709C235.611 73.2709 227.458 82.794 227.458 94.1771C227.458 102.736 232.389 109.292 241.991 109.292C252.71 109.292 260.799 99.7682 260.799 88.3149C260.799 79.8283 256.001 73.2709 246.265 73.2709ZM242.841 100.222C240.502 100.222 239.141 98.108 239.141 93.954C239.141 87.7559 241.674 82.7862 244.79 82.7862C247.059 82.7862 248.425 84.8292 248.425 89.0501C248.423 95.1824 245.957 100.222 242.841 100.222ZM166.526 85.9985C167.37 80.211 166.916 74.9658 160.491 74.9658C155.817 74.9658 150.754 78.9167 147.184 85.5232C147.964 80.0727 147.507 74.9658 141.147 74.9658C136.344 74.9658 131.151 79.1198 127.58 85.9985C128.489 81.5031 128.295 76.394 128.035 75.305C124.335 75.9186 121.091 76.2578 116.546 76.394C116.677 79.5282 116.481 83.6119 115.897 87.497L114.404 97.7119C113.819 101.732 113.17 106.364 112.521 109.292H124.594C124.66 107.519 125.115 104.728 125.439 102.276L126.478 95.2627C127.321 90.697 130.955 85.319 133.746 85.319C135.369 85.319 135.306 86.8844 134.85 89.8133L133.681 97.7119C133.096 101.732 132.448 106.364 131.798 109.292H144.001C144.067 107.519 144.456 104.728 144.78 102.276L145.817 95.2627C146.662 90.697 150.299 85.319 153.088 85.319C154.712 85.319 154.649 86.8153 154.387 88.8605L151.471 109.292H162.609L166.526 85.9985ZM224.84 98.5989L223.541 106.637C221.528 107.726 217.763 109.294 213.414 109.294C206.014 109.294 204.523 105.343 205.69 96.9654L207.573 83.4791H203.931L204.96 74.7493L208.936 74.5574L210.43 68.2232L221.657 64L220.23 74.5574H227.955C227.696 75.6464 226.784 81.6425 226.529 83.4791H218.995L217.307 95.9434C216.853 99.1445 217.114 100.303 219.318 100.303C220.945 100.302 223.345 99.3476 224.84 98.5989ZM182.248 102.94C186.334 102.434 189.147 98.494 189.823 94.5632L189.937 93.5099C188.181 93.1171 185.643 92.8181 183.181 93.1194C180.837 93.405 178.887 94.3791 177.839 95.7894C177.048 96.8025 176.65 98.0142 176.827 99.4592C177.093 101.624 179.486 103.277 182.248 102.94ZM178.769 109.166C173.001 109.875 169.202 107.585 168.062 102.377C167.347 99.0999 168.34 95.3665 170.077 93.1394C172.403 90.2262 176.194 88.3561 180.821 87.7916C184.544 87.3296 187.681 87.5572 190.615 88.1129L190.737 87.6097C190.82 86.8052 190.905 86.0019 190.788 85.0401C190.483 82.5709 188.537 81.1003 183.729 81.6916C180.486 82.09 177.4 83.2615 175.004 84.5949L172.673 77.551C175.921 75.6866 180.014 74.2673 184.699 73.6916C193.647 72.5937 199.935 75.4478 200.741 82.0085C200.954 83.7536 200.979 85.6024 200.76 87.2805C199.61 95.3933 198.874 101.498 198.552 105.589C198.499 106.223 198.504 107.311 198.561 108.854L187.455 108.844C187.692 108.205 187.904 107.338 188.093 106.25C188.217 105.535 188.307 104.632 188.363 103.538C186.016 106.76 182.79 108.672 178.769 109.166Z" fill="white"/>
<path d="M110.559 137.18C109.575 137.18 108.669 137.018 107.841 136.694C107.013 136.37 106.293 135.92 105.681 135.344C105.069 134.756 104.595 134.072 104.259 133.292C103.923 132.5 103.755 131.636 103.755 130.7C103.755 129.764 103.923 128.906 104.259 128.126C104.595 127.334 105.069 126.65 105.681 126.074C106.293 125.486 107.013 125.03 107.841 124.706C108.669 124.382 109.569 124.22 110.541 124.22C111.525 124.22 112.425 124.382 113.241 124.706C114.069 125.03 114.789 125.486 115.401 126.074C116.013 126.65 116.487 127.334 116.823 128.126C117.159 128.906 117.327 129.764 117.327 130.7C117.327 131.636 117.159 132.5 116.823 133.292C116.487 134.084 116.013 134.768 115.401 135.344C114.789 135.92 114.069 136.37 113.241 136.694C112.425 137.018 111.531 137.18 110.559 137.18ZM110.541 135.128C111.177 135.128 111.765 135.02 112.305 134.804C112.845 134.588 113.313 134.282 113.709 133.886C114.105 133.478 114.411 133.01 114.627 132.482C114.855 131.942 114.969 131.348 114.969 130.7C114.969 130.052 114.855 129.464 114.627 128.936C114.411 128.396 114.105 127.928 113.709 127.532C113.313 127.124 112.845 126.812 112.305 126.596C111.765 126.38 111.177 126.272 110.541 126.272C109.905 126.272 109.317 126.38 108.777 126.596C108.249 126.812 107.781 127.124 107.373 127.532C106.977 127.928 106.665 128.396 106.437 128.936C106.221 129.464 106.113 130.052 106.113 130.7C106.113 131.336 106.221 131.924 106.437 132.464C106.665 133.004 106.977 133.478 107.373 133.886C107.769 134.282 108.237 134.588 108.777 134.804C109.317 135.02 109.905 135.128 110.541 135.128ZM119.591 137V127.388H121.733V130.034L121.481 129.26C121.769 128.612 122.219 128.12 122.831 127.784C123.455 127.448 124.229 127.28 125.153 127.28V129.422C125.057 129.398 124.967 129.386 124.883 129.386C124.799 129.374 124.715 129.368 124.631 129.368C123.779 129.368 123.101 129.62 122.597 130.124C122.093 130.616 121.841 131.354 121.841 132.338V137H119.591ZM131.042 137.126C130.118 137.126 129.284 136.922 128.54 136.514C127.808 136.094 127.232 135.518 126.812 134.786C126.392 134.054 126.182 133.19 126.182 132.194C126.182 131.198 126.392 130.334 126.812 129.602C127.232 128.87 127.808 128.3 128.54 127.892C129.284 127.484 130.118 127.28 131.042 127.28C131.846 127.28 132.566 127.46 133.202 127.82C133.838 128.168 134.342 128.702 134.714 129.422C135.086 130.142 135.272 131.066 135.272 132.194C135.272 133.31 135.092 134.234 134.732 134.966C134.372 135.686 133.874 136.226 133.238 136.586C132.602 136.946 131.87 137.126 131.042 137.126ZM131.312 135.2C131.852 135.2 132.332 135.08 132.752 134.84C133.184 134.6 133.526 134.252 133.778 133.796C134.042 133.34 134.174 132.806 134.174 132.194C134.174 131.57 134.042 131.036 133.778 130.592C133.526 130.136 133.184 129.788 132.752 129.548C132.332 129.308 131.852 129.188 131.312 129.188C130.772 129.188 130.286 129.308 129.854 129.548C129.434 129.788 129.092 130.136 128.828 130.592C128.576 131.036 128.45 131.57 128.45 132.194C128.45 132.806 128.576 133.34 128.828 133.796C129.092 134.252 129.434 134.6 129.854 134.84C130.286 135.08 130.772 135.2 131.312 135.2ZM134.228 137V134.732L134.318 132.176L134.138 129.62V123.644H136.37V137H134.228ZM143.849 137.126C142.781 137.126 141.845 136.916 141.041 136.496C140.249 136.064 139.631 135.476 139.187 134.732C138.755 133.988 138.539 133.142 138.539 132.194C138.539 131.234 138.749 130.388 139.169 129.656C139.601 128.912 140.189 128.33 140.933 127.91C141.689 127.49 142.547 127.28 143.507 127.28C144.443 127.28 145.277 127.484 146.009 127.892C146.741 128.3 147.317 128.876 147.737 129.62C148.157 130.364 148.367 131.24 148.367 132.248C148.367 132.344 148.361 132.452 148.349 132.572C148.349 132.692 148.343 132.806 148.331 132.914H140.321V131.42H147.143L146.261 131.888C146.273 131.336 146.159 130.85 145.919 130.43C145.679 130.01 145.349 129.68 144.929 129.44C144.521 129.2 144.047 129.08 143.507 129.08C142.955 129.08 142.469 129.2 142.049 129.44C141.641 129.68 141.317 130.016 141.077 130.448C140.849 130.868 140.735 131.366 140.735 131.942V132.302C140.735 132.878 140.867 133.388 141.131 133.832C141.395 134.276 141.767 134.618 142.247 134.858C142.727 135.098 143.279 135.218 143.903 135.218C144.443 135.218 144.929 135.134 145.361 134.966C145.793 134.798 146.177 134.534 146.513 134.174L147.719 135.56C147.287 136.064 146.741 136.454 146.081 136.73C145.433 136.994 144.689 137.126 143.849 137.126ZM150.529 137V127.388H152.671V130.034L152.419 129.26C152.707 128.612 153.157 128.12 153.769 127.784C154.393 127.448 155.167 127.28 156.091 127.28V129.422C155.995 129.398 155.905 129.386 155.821 129.386C155.737 129.374 155.653 129.368 155.569 129.368C154.717 129.368 154.039 129.62 153.535 130.124C153.031 130.616 152.779 131.354 152.779 132.338V137H150.529ZM163.278 137V124.4H165.204L173.106 134.102H172.152V124.4H174.474V137H172.548L164.646 127.298H165.6V137H163.278ZM181.954 137.126C180.97 137.126 180.094 136.916 179.326 136.496C178.558 136.064 177.952 135.476 177.508 134.732C177.064 133.988 176.842 133.142 176.842 132.194C176.842 131.234 177.064 130.388 177.508 129.656C177.952 128.912 178.558 128.33 179.326 127.91C180.094 127.49 180.97 127.28 181.954 127.28C182.95 127.28 183.832 127.49 184.6 127.91C185.38 128.33 185.986 128.906 186.418 129.638C186.862 130.37 187.084 131.222 187.084 132.194C187.084 133.142 186.862 133.988 186.418 134.732C185.986 135.476 185.38 136.064 184.6 136.496C183.832 136.916 182.95 137.126 181.954 137.126ZM181.954 135.2C182.506 135.2 182.998 135.08 183.43 134.84C183.862 134.6 184.198 134.252 184.438 133.796C184.69 133.34 184.816 132.806 184.816 132.194C184.816 131.57 184.69 131.036 184.438 130.592C184.198 130.136 183.862 129.788 183.43 129.548C182.998 129.308 182.512 129.188 181.972 129.188C181.42 129.188 180.928 129.308 180.496 129.548C180.076 129.788 179.74 130.136 179.488 130.592C179.236 131.036 179.11 131.57 179.11 132.194C179.11 132.806 179.236 133.34 179.488 133.796C179.74 134.252 180.076 134.6 180.496 134.84C180.928 135.08 181.414 135.2 181.954 135.2ZM191.096 137L187.568 127.388H189.692L192.716 135.866H191.708L194.876 127.388H196.766L199.844 135.866H198.854L201.968 127.388H203.966L200.42 137H198.26L195.452 129.494H196.118L193.256 137H191.096Z" fill="white"/>
<defs>
<filter id="filter0_d_70_377" x="0" y="0" width="306" height="205" filterUnits="userSpaceOnUse" color-interpolation-filters="sRGB">
<feFlood flood-opacity="0" result="BackgroundImageFix"/>
<feColorMatrix in="SourceAlpha" type="matrix" values="0 0 0 0 0 0 0 0 0 0 0 0 0 0 0 0 0 0 127 0" result="hardAlpha"/>
<feOffset/>
<feGaussianBlur stdDeviation="1.5"/>
<feComposite in2="hardAlpha" operator="out"/>
<feColorMatrix type="matrix" values="0 0 0 0 0 0 0 0 0 0 0 0 0 0 0 0 0 0 0.25 0"/>
<feBlend mode="normal" in2="BackgroundImageFix" result="effect1_dropShadow_70_377"/>
<feBlend mode="normal" in="SourceGraphic" in2="effect1_dropShadow_70_377" result="shape"/>
</filter>
<clipPath id="clip0_70_377">
<rect width="279" height="99" fill="white" transform="translate(13 53)"/>
</clipPath>
</defs>
</svg>
