<svg width="306" height="205" viewBox="0 0 306 205" fill="none" xmlns="http://www.w3.org/2000/svg">
<g filter="url(#filter0_d_70_376)">
<rect x="3" y="3" width="300" height="199" rx="6" fill="#FC8019"/>
</g>
<path d="M58.9209 131C58.87 130.949 58.8191 130.949 58.7682 130.898C57.9533 129.878 52.9114 123.552 47.7676 115.39C46.2398 112.788 45.2212 110.799 45.4249 110.238C45.9342 108.86 54.8976 108.146 57.6987 109.371C58.5644 109.728 58.5135 110.238 58.5135 110.544C58.5135 111.768 58.4626 115.135 58.4626 115.135C58.4626 115.849 59.0228 116.41 59.7358 116.359C60.4488 116.359 61.009 115.798 60.9581 115.084V106.769C60.9581 106.055 60.1941 105.851 60.0414 105.851C58.6154 105.851 55.6615 105.851 52.504 105.851C45.5777 105.851 43.999 106.157 42.8276 105.341C40.2812 103.657 36.1051 92.3834 36.0032 86.0068C35.8504 77.0285 41.147 69.2746 48.6334 65.4486C51.7401 63.8672 55.2541 63 58.9719 63C70.7872 63 80.5145 71.9272 81.7877 83.4051C81.7877 83.4051 81.7877 83.4051 81.7877 83.4561C82.0424 86.2108 66.7639 86.823 63.7082 86.0068C63.2498 85.9047 63.148 85.3946 63.148 85.1905C63.148 83.099 63.148 77.1305 63.148 77.1305C63.148 76.4164 62.5878 75.8552 61.8748 75.9062C61.1618 75.9062 60.6525 76.4674 60.6525 77.1815V88.1493C60.6525 88.8635 61.2636 89.0165 61.4164 89.0675C63.148 89.0675 67.1713 89.0675 70.8891 89.0675C75.931 89.0675 78.07 89.6797 79.496 90.7509C80.4127 91.4651 80.8201 92.8425 80.4636 94.6279C77.5607 110.442 59.583 130.133 58.9209 131ZM107.659 93.8627C112.192 95.8012 114.993 97.9948 114.993 102.739C114.993 107.585 111.326 110.697 105.673 110.697C101.09 110.697 97.3718 108.605 95.5384 104.984L95.2328 104.422L100.631 101.311L100.988 101.872C102.21 103.861 103.585 104.728 105.52 104.728C107.201 104.728 108.372 103.963 108.372 102.841C108.372 101.617 107.557 101.107 105.011 99.9843L103.687 99.4231C100.224 97.9437 97.0153 95.9032 97.0153 90.904C97.0153 86.4149 100.427 83.3031 105.368 83.3031C109.085 83.3031 111.632 84.7314 113.363 87.8432L113.669 88.4044L108.423 91.7712L108.067 91.108C107.201 89.5266 106.386 89.2206 105.317 89.2206C104.247 89.2206 103.534 89.8327 103.534 90.7509C103.534 91.8222 104.043 92.2813 106.335 93.3016L107.659 93.8627ZM145.906 94.781L149.726 84.1193H156.296L146.619 111.105H145.142L139.235 98.4539C138.98 97.8927 138.675 97.1785 138.42 96.5154C138.165 97.1785 137.86 97.8927 137.605 98.4539L131.494 111.105H130.068L120.239 84.1193H127.216L131.086 94.781C131.341 95.4441 131.596 96.3113 131.799 97.0765C132.054 96.2603 132.359 95.4441 132.716 94.7299L137.758 83.9152H139.184L144.328 94.7299C144.633 95.4441 144.99 96.2603 145.244 97.0765C145.397 96.3113 145.652 95.4441 145.906 94.781ZM163.884 110.34V83.5581H170.505V110.34H163.884ZM192.149 101.362V95.3931H204.423V107.381L204.168 107.585C202.742 108.758 199.025 110.697 193.983 110.697C185.478 110.697 179.57 105.035 179.57 96.9745C179.57 89.0675 185.274 83.3031 193.168 83.3031C197.497 83.3031 200.705 84.5274 202.895 87.027L203.303 87.5371L198.821 92.0263L198.312 91.5161C197.038 90.2408 195.765 89.4246 193.168 89.4246C189.145 89.4246 186.293 92.5364 186.293 97.0255C186.293 101.668 189.297 104.677 193.983 104.677C195.511 104.677 197.14 104.422 198.261 103.963V101.362H192.149ZM225.609 101.362V95.3931H237.883V107.381L237.628 107.585C236.202 108.758 232.484 110.697 227.443 110.697C218.938 110.697 213.03 105.035 213.03 96.9745C213.03 89.0675 218.734 83.3031 226.628 83.3031C230.957 83.3031 234.165 84.5274 236.355 87.027L236.762 87.5371L232.281 92.0263L231.771 91.5161C230.498 90.2408 229.225 89.4246 226.628 89.4246C222.604 89.4246 219.752 92.5364 219.752 97.0255C219.752 101.668 222.757 104.677 227.443 104.677C228.97 104.677 230.6 104.422 231.721 103.963V101.362H225.609ZM262.074 83.6092H269L259.527 101.413V110.391H252.907V101.821L242.823 83.6092H250.157L254.842 92.1283C255.351 93.0465 255.861 94.2708 256.268 95.2911C256.624 94.3218 257.134 93.0975 257.643 92.1283L262.074 83.6092Z" fill="white"/>
<defs>
<filter id="filter0_d_70_376" x="0" y="0" width="306" height="205" filterUnits="userSpaceOnUse" color-interpolation-filters="sRGB">
<feFlood flood-opacity="0" result="BackgroundImageFix"/>
<feColorMatrix in="SourceAlpha" type="matrix" values="0 0 0 0 0 0 0 0 0 0 0 0 0 0 0 0 0 0 127 0" result="hardAlpha"/>
<feOffset/>
<feGaussianBlur stdDeviation="1.5"/>
<feComposite in2="hardAlpha" operator="out"/>
<feColorMatrix type="matrix" values="0 0 0 0 0 0 0 0 0 0 0 0 0 0 0 0 0 0 0.25 0"/>
<feBlend mode="normal" in2="BackgroundImageFix" result="effect1_dropShadow_70_376"/>
<feBlend mode="normal" in="SourceGraphic" in2="effect1_dropShadow_70_376" result="shape"/>
</filter>
</defs>
</svg>
