<svg width="306" height="205" viewBox="0 0 306 205" fill="none" xmlns="http://www.w3.org/2000/svg">
<g filter="url(#filter0_d_79_244)">
<rect x="3" y="3" width="300" height="199" rx="6" fill="#E23744"/>
</g>
<rect x="91" y="125" width="125" height="28" rx="2" fill="black" fill-opacity="0.3" stroke="white" stroke-width="2"/>
<path d="M108.908 144.14C108.143 144.14 107.438 144.014 106.794 143.762C106.15 143.51 105.59 143.16 105.114 142.712C104.638 142.255 104.269 141.723 104.008 141.116C103.747 140.5 103.616 139.828 103.616 139.1C103.616 138.372 103.747 137.705 104.008 137.098C104.269 136.482 104.638 135.95 105.114 135.502C105.59 135.045 106.15 134.69 106.794 134.438C107.438 134.186 108.138 134.06 108.894 134.06C109.659 134.06 110.359 134.186 110.994 134.438C111.638 134.69 112.198 135.045 112.674 135.502C113.15 135.95 113.519 136.482 113.78 137.098C114.041 137.705 114.172 138.372 114.172 139.1C114.172 139.828 114.041 140.5 113.78 141.116C113.519 141.732 113.15 142.264 112.674 142.712C112.198 143.16 111.638 143.51 110.994 143.762C110.359 144.014 109.664 144.14 108.908 144.14ZM108.894 142.544C109.389 142.544 109.846 142.46 110.266 142.292C110.686 142.124 111.05 141.886 111.358 141.578C111.666 141.261 111.904 140.897 112.072 140.486C112.249 140.066 112.338 139.604 112.338 139.1C112.338 138.596 112.249 138.139 112.072 137.728C111.904 137.308 111.666 136.944 111.358 136.636C111.05 136.319 110.686 136.076 110.266 135.908C109.846 135.74 109.389 135.656 108.894 135.656C108.399 135.656 107.942 135.74 107.522 135.908C107.111 136.076 106.747 136.319 106.43 136.636C106.122 136.944 105.879 137.308 105.702 137.728C105.534 138.139 105.45 138.596 105.45 139.1C105.45 139.595 105.534 140.052 105.702 140.472C105.879 140.892 106.122 141.261 106.43 141.578C106.738 141.886 107.102 142.124 107.522 142.292C107.942 142.46 108.399 142.544 108.894 142.544ZM115.933 144V136.524H117.599V138.582L117.403 137.98C117.627 137.476 117.977 137.093 118.453 136.832C118.938 136.571 119.54 136.44 120.259 136.44V138.106C120.184 138.087 120.114 138.078 120.049 138.078C119.984 138.069 119.918 138.064 119.853 138.064C119.19 138.064 118.663 138.26 118.271 138.652C117.879 139.035 117.683 139.609 117.683 140.374V144H115.933ZM124.839 144.098C124.121 144.098 123.472 143.939 122.893 143.622C122.324 143.295 121.876 142.847 121.549 142.278C121.223 141.709 121.059 141.037 121.059 140.262C121.059 139.487 121.223 138.815 121.549 138.246C121.876 137.677 122.324 137.233 122.893 136.916C123.472 136.599 124.121 136.44 124.839 136.44C125.465 136.44 126.025 136.58 126.519 136.86C127.014 137.131 127.406 137.546 127.695 138.106C127.985 138.666 128.129 139.385 128.129 140.262C128.129 141.13 127.989 141.849 127.709 142.418C127.429 142.978 127.042 143.398 126.547 143.678C126.053 143.958 125.483 144.098 124.839 144.098ZM125.049 142.6C125.469 142.6 125.843 142.507 126.169 142.32C126.505 142.133 126.771 141.863 126.967 141.508C127.173 141.153 127.275 140.738 127.275 140.262C127.275 139.777 127.173 139.361 126.967 139.016C126.771 138.661 126.505 138.391 126.169 138.204C125.843 138.017 125.469 137.924 125.049 137.924C124.629 137.924 124.251 138.017 123.915 138.204C123.589 138.391 123.323 138.661 123.117 139.016C122.921 139.361 122.823 139.777 122.823 140.262C122.823 140.738 122.921 141.153 123.117 141.508C123.323 141.863 123.589 142.133 123.915 142.32C124.251 142.507 124.629 142.6 125.049 142.6ZM127.317 144V142.236L127.387 140.248L127.247 138.26V133.612H128.983V144H127.317ZM134.801 144.098C133.97 144.098 133.242 143.935 132.617 143.608C132.001 143.272 131.52 142.815 131.175 142.236C130.839 141.657 130.671 140.999 130.671 140.262C130.671 139.515 130.834 138.857 131.161 138.288C131.497 137.709 131.954 137.257 132.533 136.93C133.121 136.603 133.788 136.44 134.535 136.44C135.263 136.44 135.911 136.599 136.481 136.916C137.05 137.233 137.498 137.681 137.825 138.26C138.151 138.839 138.315 139.52 138.315 140.304C138.315 140.379 138.31 140.463 138.301 140.556C138.301 140.649 138.296 140.738 138.287 140.822H132.057V139.66H137.363L136.677 140.024C136.686 139.595 136.597 139.217 136.411 138.89C136.224 138.563 135.967 138.307 135.641 138.12C135.323 137.933 134.955 137.84 134.535 137.84C134.105 137.84 133.727 137.933 133.401 138.12C133.083 138.307 132.831 138.568 132.645 138.904C132.467 139.231 132.379 139.618 132.379 140.066V140.346C132.379 140.794 132.481 141.191 132.687 141.536C132.892 141.881 133.181 142.147 133.555 142.334C133.928 142.521 134.357 142.614 134.843 142.614C135.263 142.614 135.641 142.549 135.977 142.418C136.313 142.287 136.611 142.082 136.873 141.802L137.811 142.88C137.475 143.272 137.05 143.575 136.537 143.79C136.033 143.995 135.454 144.098 134.801 144.098ZM139.996 144V136.524H141.662V138.582L141.466 137.98C141.69 137.476 142.04 137.093 142.516 136.832C143.001 136.571 143.603 136.44 144.322 136.44V138.106C144.247 138.087 144.177 138.078 144.112 138.078C144.046 138.069 143.981 138.064 143.916 138.064C143.253 138.064 142.726 138.26 142.334 138.652C141.942 139.035 141.746 139.609 141.746 140.374V144H139.996ZM149.912 144V134.2H151.41L157.556 141.746H156.814V134.2H158.62V144H157.122L150.976 136.454H151.718V144H149.912ZM164.438 144.098C163.672 144.098 162.991 143.935 162.394 143.608C161.796 143.272 161.325 142.815 160.98 142.236C160.634 141.657 160.462 140.999 160.462 140.262C160.462 139.515 160.634 138.857 160.98 138.288C161.325 137.709 161.796 137.257 162.394 136.93C162.991 136.603 163.672 136.44 164.438 136.44C165.212 136.44 165.898 136.603 166.496 136.93C167.102 137.257 167.574 137.705 167.91 138.274C168.255 138.843 168.428 139.506 168.428 140.262C168.428 140.999 168.255 141.657 167.91 142.236C167.574 142.815 167.102 143.272 166.496 143.608C165.898 143.935 165.212 144.098 164.438 144.098ZM164.438 142.6C164.867 142.6 165.25 142.507 165.586 142.32C165.922 142.133 166.183 141.863 166.37 141.508C166.566 141.153 166.664 140.738 166.664 140.262C166.664 139.777 166.566 139.361 166.37 139.016C166.183 138.661 165.922 138.391 165.586 138.204C165.25 138.017 164.872 137.924 164.452 137.924C164.022 137.924 163.64 138.017 163.304 138.204C162.977 138.391 162.716 138.661 162.52 139.016C162.324 139.361 162.226 139.777 162.226 140.262C162.226 140.738 162.324 141.153 162.52 141.508C162.716 141.863 162.977 142.133 163.304 142.32C163.64 142.507 164.018 142.6 164.438 142.6ZM171.548 144L168.804 136.524H170.456L172.808 143.118H172.024L174.488 136.524H175.958L178.352 143.118H177.582L180.004 136.524H181.558L178.8 144H177.12L174.936 138.162H175.454L173.228 144H171.548Z" fill="white"/>
<path d="M198 146C201.866 146 205 142.866 205 139C205 135.134 201.866 132 198 132C194.134 132 191 135.134 191 139C191 142.866 194.134 146 198 146Z" stroke="white" stroke-width="1.5" stroke-linejoin="round"/>
<path d="M196.6 142.5L200.1 139L196.6 135.5" stroke="white" stroke-width="1.5" stroke-linejoin="round"/>
<path d="M78.6505 63.5783L78.4575 69.7764L62.294 87.3476C69.0459 87.3476 73.3267 87.2817 75.7956 87.1445C75.0805 90.4795 74.4981 93.2054 73.9124 97.2924C70.6659 97.018 65.6042 96.9499 60.5391 96.9499C54.8939 96.9499 49.9594 97.018 46 97.2924L46.1316 91.024L62.294 73.5232C55.2186 73.5232 52.6214 73.5901 49.7017 73.6582C50.3488 70.5251 50.804 67.0528 51.258 63.5783C56.3856 63.7825 58.3982 63.8495 65.0843 63.8495C71.2516 63.8495 74.7547 63.7825 78.6505 63.5783ZM97.0219 61.7373C86.5036 61.7373 78.4575 71.1366 78.4575 82.3779C78.4575 90.8221 83.3251 97.2924 92.8014 97.2924C103.382 97.2924 111.367 87.8921 111.367 76.5849C111.367 68.211 106.627 61.7373 97.0219 61.7373ZM93.8401 88.258C91.5028 88.258 90.1406 86.1437 90.1406 81.9897C90.1406 75.7916 92.672 70.8208 95.7891 70.8208C98.0595 70.8208 99.4228 72.866 99.4228 77.0858C99.4217 83.2159 96.9572 88.258 93.8401 88.258ZM245.694 61.2709C235.041 61.2709 226.888 70.794 226.888 82.1771C226.888 90.7362 231.819 97.2924 241.42 97.2924C252.139 97.2924 260.229 87.7682 260.229 76.3149C260.229 67.8283 255.431 61.2709 245.694 61.2709ZM242.27 88.2223C239.932 88.2223 238.571 86.108 238.571 81.954C238.571 75.7559 241.103 70.7862 244.219 70.7862C246.489 70.7862 247.854 72.8292 247.854 77.0501C247.853 83.1824 245.386 88.2223 242.27 88.2223ZM165.956 73.9985C166.8 68.211 166.346 62.9658 159.921 62.9658C155.246 62.9658 150.184 66.9167 146.614 73.5232C147.393 68.0727 146.937 62.9658 140.577 62.9658C135.774 62.9658 130.581 67.1198 127.009 73.9985C127.919 69.5031 127.725 64.394 127.465 63.305C123.765 63.9186 120.521 64.2578 115.976 64.394C116.106 67.5282 115.911 71.6119 115.326 75.497L113.834 85.7119C113.249 89.732 112.6 94.3635 111.95 97.2924H124.024C124.09 95.5195 124.545 92.7278 124.868 90.2765L125.907 83.2627C126.751 78.697 130.384 73.319 133.176 73.319C134.799 73.319 134.735 74.8844 134.28 77.8133L133.111 85.7119C132.525 89.732 131.878 94.3635 131.228 97.2924H143.431C143.496 95.5195 143.886 92.7278 144.209 90.2765L145.247 83.2627C146.091 78.697 149.728 73.319 152.518 73.319C154.142 73.319 154.078 74.8153 153.816 76.8605L150.901 97.2924H162.039L165.956 73.9985ZM224.269 86.5989L222.971 94.6369C220.958 95.7259 217.193 97.2936 212.844 97.2936C205.444 97.2936 203.952 93.3426 205.119 84.9654L207.002 71.4791H203.361L204.39 62.7493L208.366 62.5574L209.86 56.2232L221.086 52L219.66 62.5574H227.384C227.125 63.6464 226.214 69.6425 225.958 71.4791H218.424L216.737 83.9434C216.282 87.1445 216.544 88.3027 218.748 88.3027C220.375 88.3016 222.774 87.3476 224.269 86.5989ZM181.677 90.9404C185.764 90.4338 188.576 86.494 189.253 82.5632L189.366 81.5099C187.61 81.1171 185.072 80.8181 182.611 81.1194C180.267 81.405 178.317 82.3791 177.268 83.7894C176.477 84.8025 176.08 86.0142 176.256 87.4592C176.523 89.6237 178.916 91.2773 181.677 90.9404ZM178.199 97.1664C172.431 97.8749 168.632 95.5853 167.492 90.3769C166.777 87.0999 167.77 83.3665 169.507 81.1394C171.833 78.2262 175.624 76.3561 180.25 75.7916C183.973 75.3296 187.11 75.5572 190.045 76.1129L190.166 75.6097C190.25 74.8052 190.335 74.0019 190.218 73.0401C189.913 70.5709 187.966 69.1003 183.159 69.6916C179.916 70.09 176.83 71.2615 174.433 72.5949L172.103 65.551C175.35 63.6866 179.444 62.2673 184.128 61.6916C193.077 60.5937 199.365 63.4478 200.17 70.0085C200.383 71.7536 200.409 73.6024 200.189 75.2805C199.04 83.3933 198.304 89.4977 197.981 93.5892C197.929 94.223 197.933 95.3108 197.99 96.8539L186.885 96.8439C187.122 96.2046 187.334 95.3376 187.522 94.2497C187.647 93.5345 187.736 92.6319 187.792 91.5384C185.446 94.7596 182.219 96.6721 178.199 97.1664Z" fill="white"/>
<defs>
<filter id="filter0_d_79_244" x="0" y="0" width="306" height="205" filterUnits="userSpaceOnUse" color-interpolation-filters="sRGB">
<feFlood flood-opacity="0" result="BackgroundImageFix"/>
<feColorMatrix in="SourceAlpha" type="matrix" values="0 0 0 0 0 0 0 0 0 0 0 0 0 0 0 0 0 0 127 0" result="hardAlpha"/>
<feOffset/>
<feGaussianBlur stdDeviation="1.5"/>
<feComposite in2="hardAlpha" operator="out"/>
<feColorMatrix type="matrix" values="0 0 0 0 0 0 0 0 0 0 0 0 0 0 0 0 0 0 0.25 0"/>
<feBlend mode="normal" in2="BackgroundImageFix" result="effect1_dropShadow_79_244"/>
<feBlend mode="normal" in="SourceGraphic" in2="effect1_dropShadow_79_244" result="shape"/>
</filter>
</defs>
</svg>
