<svg width="11" height="15" viewBox="0 0 11 15" fill="none" xmlns="http://www.w3.org/2000/svg">
<path d="M7.63388 6.58456C7.24541 6.42062 6.91387 6.14568 6.68073 5.79414C6.44759 5.4426 6.3232 5.03006 6.32312 4.60813V3.51562C6.38523 3.51562 6.4448 3.49093 6.48872 3.44698C6.53264 3.40302 6.55731 3.34341 6.55731 3.28125C6.55731 3.21909 6.53264 3.15948 6.48872 3.11552C6.4448 3.07157 6.38523 3.04688 6.32312 3.04688V2.74907C6.39423 2.70798 6.4533 2.64891 6.49441 2.57777C6.53551 2.50663 6.5572 2.42593 6.55731 2.34375V0.703125C6.5571 0.516709 6.48302 0.337988 6.3513 0.206172C6.21959 0.0743556 6.04101 0.000209365 5.85474 0L4.4496 0C4.26334 0.000209365 4.08476 0.0743556 3.95304 0.206172C3.82133 0.337988 3.74724 0.516709 3.74704 0.703125V2.34375C3.74715 2.42593 3.76884 2.50663 3.80994 2.57777C3.85105 2.64891 3.91011 2.70798 3.98123 2.74907V3.04688C3.91911 3.04688 3.85955 3.07157 3.81563 3.11552C3.77171 3.15948 3.74704 3.21909 3.74704 3.28125C3.74704 3.34341 3.77171 3.40302 3.81563 3.44698C3.85955 3.49093 3.91911 3.51562 3.98123 3.51562V4.60813C3.98115 5.03006 3.85676 5.4426 3.62362 5.79414C3.39048 6.14568 3.05893 6.42062 2.67047 6.58456C1.02326 7.28432 0 8.62298 0 10.0781C0 11.1546 0.544316 12.1625 1.53271 12.9162C1.64503 13.0019 1.76154 13.0829 1.88224 13.1594C1.92806 13.6624 2.16014 14.1301 2.53291 14.4707C2.90567 14.8113 3.39219 15.0001 3.89692 15H6.40743C6.91213 15 7.39862 14.8113 7.77137 14.4707C8.14412 14.1302 8.3762 13.6625 8.42205 13.1595C8.54248 13.0828 8.65899 13.0018 8.77158 12.9163C9.76003 12.1625 10.3043 11.1546 10.3043 10.0781C10.3043 8.62298 9.28109 7.28432 7.63388 6.58456ZM4.4496 2.8125H5.85474V3.04688H4.4496V2.8125ZM5.15217 13.5938C2.56953 13.5938 0.468379 12.0166 0.468379 10.0781C0.468379 8.81435 1.3823 7.64104 2.85348 7.01605C3.32665 6.81624 3.73044 6.48124 4.01434 6.05295C4.29824 5.62466 4.44964 5.1221 4.4496 4.60813V3.51562H5.85474V4.60813C5.85471 5.1221 6.00611 5.62466 6.29001 6.05295C6.57391 6.48124 6.9777 6.81624 7.45086 7.01605C8.92204 7.64104 9.83597 8.81435 9.83597 10.0781C9.83597 12.0166 7.73482 13.5938 5.15217 13.5938Z" fill="#1900AF"/>
<path d="M5.1481 7.4375C3.60176 7.4375 2.34375 8.60777 2.34375 10.0462C2.34375 11.4846 3.60176 12.6549 5.1481 12.6549C6.69443 12.6549 7.95245 11.4846 7.95245 10.0462C7.95245 8.60777 6.69443 7.4375 5.1481 7.4375Z" fill="#1900AF"/>
</svg>
