<svg width="14" height="20" viewBox="0 0 14 20" fill="none" xmlns="http://www.w3.org/2000/svg">
<path d="M12.3558 4.03203H10.2393V1.62068C10.2393 1.5201 10.2139 1.42102 10.1653 1.33198C10.1168 1.24294 10.0465 1.1666 9.96051 1.10954C9.87454 1.05248 9.77547 1.01641 9.67183 1.00442C9.56818 0.992437 9.46307 1.0049 9.36553 1.04074L1.17769 4.04949L1.17429 4.05093C1.16889 4.053 1.16362 4.05529 1.15839 4.05768C1.15511 4.05916 1.15182 4.06061 1.14863 4.0622C1.14424 4.06441 1.13998 4.06682 1.13573 4.06925C1.13193 4.07141 1.12812 4.07354 1.12446 4.07585C1.12115 4.07795 1.11799 4.08022 1.11478 4.08244C1.11056 4.08538 1.10633 4.08829 1.10231 4.09143C1.09976 4.09342 1.09736 4.09557 1.09489 4.09765C1.09061 4.10124 1.08635 4.10482 1.08234 4.10864C1.08005 4.11081 1.07792 4.11314 1.0757 4.1154C1.07189 4.11929 1.06807 4.12316 1.06453 4.12725C1.06207 4.13007 1.05982 4.13306 1.05749 4.13598C1.05453 4.13968 1.05152 4.14336 1.04878 4.14721C1.04608 4.15096 1.04366 4.15489 1.04118 4.15878C1.03911 4.16201 1.03696 4.16518 1.03505 4.16849C1.03241 4.17305 1.03006 4.17777 1.0277 4.18249C1.02624 4.18539 1.0247 4.18824 1.02335 4.19118C1.02113 4.19606 1.01921 4.20108 1.01728 4.20611C1.01611 4.20917 1.01485 4.21219 1.01379 4.21529C1.01221 4.21994 1.01092 4.22471 1.0096 4.22947C1.00856 4.23323 1.00746 4.23697 1.00658 4.24079C1.00565 4.24485 1.00496 4.24898 1.00423 4.25311C1.00339 4.25785 1.00255 4.26259 1.00198 4.26739C1.00157 4.27079 1.00134 4.27424 1.00106 4.27769C1.00061 4.28328 1.00026 4.28888 1.00018 4.29452L1 4.29805V18.734C0.999997 18.7689 1.00714 18.8035 1.02101 18.8358C1.03488 18.8681 1.05522 18.8974 1.08085 18.9221C1.10649 18.9468 1.13693 18.9664 1.17042 18.9798C1.20392 18.9931 1.23982 19 1.27607 19H12.3558C12.5266 18.9998 12.6903 18.9344 12.8111 18.818C12.9319 18.7016 12.9998 18.5439 13 18.3793V4.65274C12.9998 4.48818 12.9319 4.3304 12.8111 4.21404C12.6903 4.09767 12.5266 4.03222 12.3558 4.03203ZM9.56231 1.53787C9.57624 1.53274 9.59125 1.53096 9.60606 1.53267C9.62086 1.53437 9.63502 1.53953 9.6473 1.54767C9.65958 1.55582 9.66962 1.56673 9.67655 1.57945C9.68349 1.59216 9.68712 1.60632 9.68712 1.62068V4.03203H2.77482L9.56231 1.53787ZM12.4479 18.3793C12.4478 18.4028 12.4381 18.4253 12.4209 18.442C12.4036 18.4586 12.3802 18.4679 12.3558 18.468H1.55215V4.56407H12.3558C12.3802 4.56409 12.4036 4.57344 12.4209 4.59006C12.4381 4.60669 12.4478 4.62923 12.4479 4.65274V18.3793Z" fill="white" stroke="white" stroke-width="0.6"/>
<path d="M4 8.5H9.5" stroke="white" stroke-linecap="round"/>
<path d="M4 11.5H7.14286" stroke="white" stroke-linecap="round"/>
</svg>
