<svg width="16" height="25" viewBox="0 0 16 25" fill="none" xmlns="http://www.w3.org/2000/svg">
<path d="M4.51553 18.0651H11.4845C11.7494 18.0651 12.0055 17.9696 12.206 17.7958C12.4066 17.622 12.5382 17.3817 12.5769 17.1187C12.6156 16.8556 12.5587 16.5873 12.4168 16.3628C12.2748 16.1383 12.0571 15.9726 11.8035 15.8958V15.3806C11.8024 14.6047 11.5315 13.8536 11.0374 13.2569C10.5434 12.6602 9.85728 12.2554 9.09756 12.1123C9.19103 11.9245 9.23514 11.7159 9.22569 11.5062C9.21625 11.2965 9.15358 11.0928 9.04361 10.9142C8.93365 10.7357 8.78006 10.5884 8.59741 10.4862C8.41476 10.384 8.20911 10.3303 8 10.3303C7.79089 10.3303 7.58524 10.384 7.40259 10.4862C7.21994 10.5884 7.06635 10.7357 6.95638 10.9142C6.84642 11.0928 6.78375 11.2965 6.77431 11.5062C6.76486 11.7159 6.80897 11.9245 6.90244 12.1123C6.14272 12.2554 5.45661 12.6602 4.96258 13.2569C4.46854 13.8536 4.19759 14.6047 4.19651 15.3806V15.8958C3.94288 15.9726 3.72522 16.1383 3.58324 16.3628C3.44126 16.5873 3.38443 16.8556 3.42312 17.1187C3.4618 17.3817 3.59342 17.622 3.79397 17.7958C3.99451 17.9696 4.25061 18.0651 4.51553 18.0651ZM8 11.0702C8.09706 11.0702 8.19194 11.0991 8.27264 11.1532C8.35335 11.2074 8.41625 11.2843 8.45339 11.3743C8.49054 11.4643 8.50025 11.5633 8.48132 11.6589C8.46238 11.7544 8.41564 11.8422 8.34701 11.9111C8.27838 11.98 8.19094 12.0269 8.09574 12.0459C8.00054 12.0649 7.90187 12.0552 7.8122 12.0179C7.72253 11.9806 7.64588 11.9175 7.59196 11.8365C7.53803 11.7555 7.50925 11.6602 7.50925 11.5628C7.5094 11.4322 7.56115 11.307 7.65315 11.2146C7.74515 11.1223 7.86989 11.0704 8 11.0702ZM4.93271 15.3806C4.93349 14.6949 5.20521 14.0375 5.68826 13.5527C6.17131 13.0678 6.82625 12.7951 7.50939 12.7943H8.49061C9.17375 12.7951 9.82868 13.0678 10.3117 13.5527C10.7948 14.0375 11.0665 14.6949 11.0673 15.3806V15.8484H4.93271V15.3806ZM4.51553 16.5873H11.4845C11.5328 16.5873 11.5807 16.5969 11.6253 16.6155C11.67 16.634 11.7105 16.6612 11.7447 16.6955C11.7789 16.7298 11.806 16.7706 11.8245 16.8154C11.843 16.8602 11.8525 16.9083 11.8525 16.9568C11.8525 17.0053 11.843 17.0533 11.8245 17.0981C11.806 17.143 11.7789 17.1837 11.7447 17.218C11.7105 17.2523 11.67 17.2795 11.6253 17.2981C11.5807 17.3166 11.5328 17.3262 11.4845 17.3262H4.51553C4.4672 17.3262 4.41934 17.3166 4.37468 17.2981C4.33003 17.2795 4.28946 17.2523 4.25528 17.218C4.2211 17.1837 4.19399 17.143 4.1755 17.0981C4.157 17.0533 4.14748 17.0053 4.14748 16.9568C4.14748 16.9083 4.157 16.8602 4.1755 16.8154C4.19399 16.7706 4.2211 16.7298 4.25528 16.6955C4.28946 16.6612 4.33003 16.634 4.37468 16.6155C4.41934 16.5969 4.4672 16.5873 4.51553 16.5873ZM15.1411 4.21115H12.319V0.862062C12.319 0.722359 12.2852 0.584751 12.2204 0.461084C12.1557 0.337416 12.062 0.231394 11.9473 0.152143C11.8327 0.0728927 11.7006 0.0227879 11.5624 0.00614196C11.4242 -0.010504 11.2841 0.00680769 11.154 0.0565867L0.236915 4.2354L0.232386 4.2374C0.225184 4.24027 0.218163 4.24346 0.211189 4.24677C0.206816 4.24883 0.20243 4.25084 0.198176 4.25306C0.192317 4.25613 0.186637 4.25948 0.18097 4.26285C0.175901 4.26585 0.170821 4.2688 0.165944 4.27201C0.161534 4.27493 0.157316 4.27808 0.153038 4.28117C0.147407 4.28525 0.141775 4.2893 0.136419 4.29366C0.133016 4.29642 0.129817 4.29941 0.126522 4.30229C0.120818 4.30727 0.115138 4.31225 0.109782 4.31755C0.106727 4.32057 0.103887 4.32381 0.100939 4.32695C0.0958587 4.33234 0.0907666 4.33772 0.0860334 4.3434C0.0827622 4.34732 0.0797663 4.35147 0.0766512 4.35553C0.0727091 4.36067 0.0686951 4.36577 0.0650406 4.37112C0.0614455 4.37633 0.0582107 4.38179 0.0549032 4.38719C0.0521474 4.39168 0.0492834 4.39608 0.0467312 4.40067C0.0432083 4.40701 0.040081 4.41357 0.0369296 4.42013C0.0349885 4.42415 0.0329275 4.42811 0.0311302 4.4322C0.0281702 4.43897 0.0256183 4.44594 0.0230421 4.45293C0.0214843 4.45718 0.019795 4.46138 0.0183933 4.46568C0.0162829 4.47215 0.0145584 4.47876 0.0127979 4.48538C0.011408 4.4906 0.00994634 4.4958 0.00877334 4.50109C0.00753898 4.50674 0.00661711 4.51247 0.00564631 4.5182C0.00451748 4.52479 0.00340548 4.53137 0.00263837 4.53804C0.0020872 4.54277 0.00178807 4.54756 0.00141654 4.55235C0.000817277 4.56012 0.00034987 4.56789 0.000241895 4.57572L1.06335e-09 4.58062V24.6305C-3.67322e-06 24.6791 0.00951478 24.7271 0.0280121 24.7719C0.0465095 24.8168 0.0736235 24.8575 0.107805 24.8918C0.141987 24.9261 0.182567 24.9533 0.227229 24.9719C0.27189 24.9904 0.319758 25 0.368098 25H15.1411C15.3688 24.9997 15.5871 24.9088 15.7481 24.7472C15.9092 24.5856 15.9997 24.3665 16 24.1379V5.07325C15.9997 4.84469 15.9092 4.62556 15.7481 4.46394C15.5871 4.30233 15.3688 4.21141 15.1411 4.21115ZM11.4164 0.747036C11.435 0.739919 11.455 0.737441 11.4747 0.739814C11.4945 0.742187 11.5134 0.749341 11.5297 0.760659C11.5461 0.771977 11.5595 0.787121 11.5687 0.804785C11.578 0.82245 11.5828 0.842106 11.5828 0.862062V4.21115H2.36642L11.4164 0.747036ZM15.2638 24.1379C15.2638 24.1706 15.2508 24.2019 15.2278 24.225C15.2048 24.248 15.1736 24.261 15.1411 24.2611H0.736196V4.95009H15.1411C15.1736 4.95012 15.2048 4.96311 15.2278 4.9862C15.2508 5.00929 15.2638 5.0406 15.2638 5.07325V24.1379Z" fill="white"/>
</svg>
