<svg width="207" height="197" viewBox="0 0 207 197" fill="none" xmlns="http://www.w3.org/2000/svg">
<path d="M1.64062 97.2185L27.1045 97.1079L52.5683 97.0676L103.496 96.9922L154.424 97.0676L179.888 97.1079L205.351 97.2185L179.888 97.3342L154.424 97.3744L103.496 97.4499L52.5683 97.3744L27.1045 97.3342L1.64062 97.2185Z" fill="#EBEBEB"/>
<path d="M1.64062 81.2654L27.1045 81.1547L52.5683 81.1145L103.496 81.0391L154.424 81.1145L179.888 81.1547L205.351 81.2654L179.888 81.3811L154.424 81.4213L103.496 81.4967L52.5683 81.4213L27.1045 81.3811L1.64062 81.2654Z" fill="#EBEBEB"/>
<path d="M1.64062 65.3173L27.1045 65.2016L52.5683 65.1614L103.496 65.0859L154.424 65.1614L179.888 65.2016L205.351 65.3173L179.888 65.4279L154.424 65.4682L103.496 65.5436L52.5683 65.4682L27.1045 65.4279L1.64062 65.3173Z" fill="#EBEBEB"/>
<path d="M1.64062 49.3642L27.1045 49.2485L52.5683 49.2083L103.496 49.1328L154.424 49.2083L179.888 49.2485L205.351 49.3642L179.888 49.4748L154.424 49.515L103.496 49.5955L52.5683 49.515L27.1045 49.4748L1.64062 49.3642Z" fill="#EBEBEB"/>
<path d="M1.64062 33.411L27.1045 33.3004L52.5683 33.2551L103.496 33.1797L154.424 33.2551L179.888 33.2954L205.351 33.411L179.888 33.5217L154.424 33.5619L103.496 33.6424L52.5683 33.5619L27.1045 33.5217L1.64062 33.411Z" fill="#EBEBEB"/>
<path d="M1.64062 17.4579L27.1045 17.3473L52.5683 17.307L103.496 17.2266L154.424 17.302L179.888 17.3473L205.351 17.4579L179.888 17.5686L154.424 17.6138L103.496 17.6893L52.5683 17.6088L27.1045 17.5686L1.64062 17.4579Z" fill="#EBEBEB"/>
<path d="M1.64062 113.192L27.1045 113.082L52.5683 113.041L103.496 112.961L154.424 113.041L179.888 113.082L205.351 113.192L179.888 113.303L154.424 113.348L103.496 113.424L52.5683 113.343L27.1045 113.303L1.64062 113.192Z" fill="#EBEBEB"/>
<path d="M1.64062 129.153L27.1045 129.043L52.5683 128.997L103.496 128.922L154.424 128.997L179.888 129.038L205.351 129.153L179.888 129.264L154.424 129.304L103.496 129.385L52.5683 129.304L27.1045 129.264L1.64062 129.153Z" fill="#EBEBEB"/>
<path d="M1.64062 145.117L27.1045 145.006L52.5683 144.966L103.496 144.891L154.424 144.966L179.888 145.006L205.351 145.117L179.888 145.233L154.424 145.273L103.496 145.348L52.5683 145.273L27.1045 145.233L1.64062 145.117Z" fill="#EBEBEB"/>
<path d="M1.64062 161.083L27.1045 160.972L52.5683 160.932L103.496 160.852L154.424 160.932L179.888 160.972L205.351 161.083L179.888 161.199L154.424 161.239L103.496 161.314L52.5683 161.239L27.1045 161.199L1.64062 161.083Z" fill="#EBEBEB"/>
<path d="M205.346 112.961H1.64062V128.929H205.346V112.961Z" fill="#DBDBDB"/>
<path d="M120.892 0L121.018 18.4981L121.063 32.3843L121.144 120.63L121.063 148.397L121.018 162.284L120.892 176.165L120.771 162.284L120.726 148.397L120.641 120.63L120.726 32.3843L120.771 18.4981L120.892 0Z" fill="#EBEBEB"/>
<path d="M103.501 0L103.622 18.4981L103.667 32.3843L103.753 120.63L103.667 148.397L103.627 162.284L103.501 176.165L103.376 162.284L103.335 148.397L103.25 120.63L103.335 32.3843L103.381 18.4981L103.501 0Z" fill="#EBEBEB"/>
<path d="M86.103 0L86.2237 18.4981L86.269 32.3843L86.3495 120.63L86.269 148.397L86.2237 162.284L86.103 176.165L85.9773 162.284L85.932 148.397L85.8516 120.63L85.932 32.3843L85.9773 18.4981L86.103 0Z" fill="#EBEBEB"/>
<path d="M68.7046 0L68.8253 18.4981L68.8706 32.3843L68.9561 120.63L68.8706 148.397L68.8303 162.284L68.7046 176.165L68.5839 162.284L68.5386 148.397L68.4531 120.63L68.5386 32.3843L68.5839 18.4981L68.7046 0Z" fill="#EBEBEB"/>
<path d="M173.072 0L173.192 18.4981L173.238 32.3843L173.323 120.63L173.238 148.397L173.192 162.284L173.072 176.165L172.946 162.284L172.901 148.397L172.82 120.63L172.906 32.3843L172.946 18.4981L173.072 0Z" fill="#EBEBEB"/>
<path d="M155.681 0L155.807 18.4981L155.847 32.3843L155.933 120.63L155.847 148.397L155.807 162.284L155.681 176.165L155.56 162.284L155.515 148.397L155.43 120.63L155.515 32.3843L155.56 18.4981L155.681 0Z" fill="#EBEBEB"/>
<path d="M138.283 0L138.403 18.4981L138.449 32.3843L138.534 120.63L138.449 148.397L138.403 162.284L138.283 176.165L138.157 162.284L138.117 148.397L138.031 120.63L138.117 32.3843L138.162 18.4981L138.283 0Z" fill="#EBEBEB"/>
<path d="M190.462 0L190.583 18.4981L190.628 32.3843L190.714 120.63L190.628 148.397L190.588 162.284L190.462 176.165L190.342 162.284L190.296 148.397L190.211 120.63L190.296 32.3843L190.342 18.4981L190.462 0Z" fill="#EBEBEB"/>
<path d="M173.072 0L173.192 18.4981L173.238 32.3843L173.323 120.63L173.238 148.397L173.192 162.284L173.072 176.165L172.946 162.284L172.901 148.397L172.82 120.63L172.906 32.3843L172.946 18.4981L173.072 0Z" fill="#EBEBEB"/>
<path d="M51.314 0L51.4347 18.4981L51.4799 32.3843L51.5654 120.63L51.4799 148.397L51.4347 162.284L51.314 176.165L51.1882 162.284L51.143 148.397L51.0625 120.63L51.148 32.3843L51.1882 18.4981L51.314 0Z" fill="#EBEBEB"/>
<path d="M33.9155 0L34.0413 18.4981L34.0815 32.3843L34.167 120.63L34.0865 148.397L34.0413 162.284L33.9155 176.165L33.7948 162.284L33.7496 148.397L33.6641 120.63L33.7496 32.3843L33.7948 18.4981L33.9155 0Z" fill="#EBEBEB"/>
<path d="M16.5249 0L16.6456 18.4981L16.6909 32.3843L16.7764 120.63L16.6909 148.397L16.6456 162.284L16.5249 176.165L16.3992 162.284L16.3589 148.397L16.2734 120.63L16.3589 32.3843L16.3992 18.4981L16.5249 0Z" fill="#EBEBEB"/>
<path d="M4.27603 63.8949H86.0943L88.7247 2.53125H1.64062L4.27603 63.8949Z" fill="#EBEBEB"/>
<path d="M43.4413 58.2598H10.3529L8.19531 8.46875H43.4413V58.2598ZM10.8357 57.7569H42.9384V8.97169H8.73849L10.8357 57.7569Z" fill="#DBDBDB"/>
<path d="M40.4585 41.7798H37.0234V23.8047H40.4585V41.7798ZM37.5264 41.2768H39.9556V24.3076H37.5264V41.2768Z" fill="#DBDBDB"/>
<path d="M80.0103 58.2598H46.9219V8.46875H82.1679L80.0103 58.2598ZM47.4248 57.7569H79.5275L81.6398 8.97169H47.4399L47.4248 57.7569Z" fill="#DBDBDB"/>
<path d="M53.3413 41.7798H49.9062V23.8047H53.3413V41.7798ZM50.4092 41.2768H52.8384V24.3076H50.4092V41.2768Z" fill="#DBDBDB"/>
<path d="M103.497 196.437C158.962 196.437 203.924 193.454 203.924 189.773C203.924 186.093 158.962 183.109 103.497 183.109C48.033 183.109 3.07031 186.093 3.07031 189.773C3.07031 193.454 48.033 196.437 103.497 196.437Z" fill="#EBEBEB"/>
<path d="M103.138 174.967L102.258 174.489L104.928 169.57H146.32L148.996 174.489L148.111 174.967L145.722 170.576H105.527L103.138 174.967Z" fill="#263238"/>
<path d="M110.43 174.907L109.484 174.554L111.335 169.57H139.902L141.753 174.554L140.813 174.907L139.203 170.576H112.034L110.43 174.907Z" fill="#263238"/>
<path d="M196.626 174.967L194.237 170.576H154.043L151.654 174.967L150.773 174.489L153.444 169.57H194.836L197.512 174.489L196.626 174.967Z" fill="#263238"/>
<path d="M189.336 174.907L187.727 170.576H160.558L158.953 174.907L158.008 174.554L159.859 169.57H188.426L190.276 174.554L189.336 174.907Z" fill="#263238"/>
<path d="M199.794 173.648H100.227V176.244H199.794V173.648Z" fill="#455A64"/>
<path d="M0 176.166L25.8763 176.045L51.7475 176L103.5 175.914L155.247 176L181.124 176.045L207 176.166L181.124 176.291L155.247 176.331L103.5 176.417L51.7475 176.331L25.8763 176.286L0 176.166Z" fill="#263238"/>
<path d="M191.611 33.4609H111.141V39.6521H191.611V33.4609Z" fill="#DEDEDE"/>
<path d="M152.569 50.8438H150.18V81.0403H152.569V50.8438Z" fill="#C7C7C7"/>
<path d="M157.822 79.7266H144.906L144.242 97.7771H158.501L157.822 79.7266ZM148.643 95.6597H147.3V82.3066H148.643V95.6597ZM152.023 95.6597H150.685V82.3066H152.023V95.6597ZM155.402 95.6597H154.065V82.3066H155.402V95.6597Z" fill="#C7C7C7"/>
<path d="M153.955 53.8215H148.94L148.438 35.1172H154.458L153.955 53.8215Z" fill="#263238"/>
<path d="M151.448 38.3717C151.898 38.3717 152.262 38.0069 152.262 37.5569C152.262 37.107 151.898 36.7422 151.448 36.7422C150.998 36.7422 150.633 37.107 150.633 37.5569C150.633 38.0069 150.998 38.3717 151.448 38.3717Z" fill="#DEDEDE"/>
<path d="M177.85 50.8438H175.461V75.1458H177.85V50.8438Z" fill="#C7C7C7"/>
<path d="M183.497 82.1758C183.497 87.2455 180.193 91.9077 176.658 91.9077C173.122 91.9077 169.812 87.2455 169.812 82.1758C169.812 77.1062 173.861 74.6016 176.658 74.6016C179.454 74.6016 183.497 77.1163 183.497 82.1758Z" fill="#C7C7C7"/>
<path d="M179.236 53.8215H174.222L173.719 35.1172H179.739L179.236 53.8215Z" fill="#263238"/>
<path d="M176.737 38.3717C177.187 38.3717 177.551 38.0069 177.551 37.5569C177.551 37.107 177.187 36.7422 176.737 36.7422C176.287 36.7422 175.922 37.107 175.922 37.5569C175.922 38.0069 176.287 38.3717 176.737 38.3717Z" fill="#DEDEDE"/>
<path d="M111.094 61.2145V90.8879H129.24V50.7734H125.478V61.2145H111.094ZM113.659 65.3386C113.658 65.1245 113.72 64.9149 113.839 64.7365C113.957 64.558 114.125 64.4186 114.323 64.336C114.52 64.2534 114.738 64.2312 114.948 64.2724C115.158 64.3135 115.351 64.4161 115.503 64.5672C115.655 64.7182 115.758 64.9108 115.8 65.1207C115.842 65.3306 115.821 65.5483 115.74 65.7462C115.658 65.9441 115.519 66.1132 115.341 66.2323C115.163 66.3513 114.954 66.4149 114.74 66.4149C114.454 66.4149 114.18 66.3016 113.977 66.0999C113.775 65.8982 113.66 65.6245 113.659 65.3386Z" fill="#C7C7C7"/>
<path d="M124.855 53.8215H129.869L130.372 35.1172H124.352L124.855 53.8215Z" fill="#263238"/>
<path d="M127.362 38.3717C127.812 38.3717 128.176 38.0069 128.176 37.5569C128.176 37.107 127.812 36.7422 127.362 36.7422C126.912 36.7422 126.547 37.107 126.547 37.5569C126.547 38.0069 126.912 38.3717 127.362 38.3717Z" fill="#DEDEDE"/>
<path d="M137.031 8.46985V33.4609H176.1V8.46985L137.031 8.46985Z" fill="#DEDEDE"/>
<path opacity="0.2" d="M137.031 8.46985V33.4609H176.1V8.46985L137.031 8.46985Z" fill="black"/>
<path d="M186.457 17.6328C184.511 17.6328 182.71 19.2975 180.89 19.2975H176.102V22.6421H180.89C182.71 22.6421 184.511 24.3169 186.457 24.3169C188.761 24.3169 190.481 23.0294 190.481 20.9723C190.481 18.9153 188.761 17.6328 186.457 17.6328ZM186.985 22.2247C186.736 22.2256 186.492 22.1526 186.285 22.0148C186.077 21.8771 185.915 21.6808 185.819 21.4508C185.724 21.2208 185.698 20.9676 185.747 20.7232C185.795 20.4789 185.915 20.2544 186.091 20.0782C186.267 19.9021 186.492 19.7822 186.736 19.7339C186.98 19.6855 187.234 19.7108 187.464 19.8066C187.694 19.9024 187.89 20.0644 188.028 20.2719C188.165 20.4794 188.238 20.7232 188.238 20.9723C188.235 21.3019 188.104 21.6175 187.871 21.8515C187.639 22.0855 187.325 22.2194 186.995 22.2247H186.985Z" fill="#DEDEDE"/>
<g opacity="0.2">
<path d="M186.457 17.6328C184.511 17.6328 182.71 19.2975 180.89 19.2975H176.102V22.6421H180.89C182.71 22.6421 184.511 24.3169 186.457 24.3169C188.761 24.3169 190.481 23.0294 190.481 20.9723C190.481 18.9153 188.761 17.6328 186.457 17.6328ZM186.985 22.2247C186.736 22.2256 186.492 22.1526 186.285 22.0148C186.077 21.8771 185.915 21.6808 185.819 21.4508C185.724 21.2208 185.698 20.9676 185.747 20.7232C185.795 20.4789 185.915 20.2544 186.091 20.0782C186.267 19.9021 186.492 19.7822 186.736 19.7339C186.98 19.6855 187.234 19.7108 187.464 19.8066C187.694 19.9024 187.89 20.0644 188.028 20.2719C188.165 20.4794 188.238 20.7232 188.238 20.9723C188.235 21.3019 188.104 21.6175 187.871 21.8515C187.639 22.0855 187.325 22.2194 186.995 22.2247H186.985Z" fill="black"/>
</g>
<path d="M147.569 21.3281C147.569 21.3281 142.424 30.9494 141.423 32.257C140.422 33.5647 137.993 33.459 136.489 33.459H124.197C122.688 33.459 120.264 33.5697 119.263 32.257C118.262 30.9443 113.117 21.3281 113.117 21.3281H147.569Z" fill="#455A64"/>
<path d="M50.9557 73.4127C47.4351 70.033 35.5959 70.2744 30.5212 75.9274C23.5253 83.6978 32.7291 99.0124 43.8491 95.19C54.9691 91.3677 53.6565 76.018 50.9557 73.4127Z" fill="#263238"/>
<path d="M31.2595 91.0798C29.2829 88.2181 27.8043 84.9791 27.4522 81.6849C27.2355 80.0925 27.5153 78.4721 28.2534 77.0446C28.9914 75.6172 30.1518 74.4521 31.5763 73.7082C33.0259 72.8869 34.5786 72.2628 36.1933 71.8524C37.8048 71.3914 39.4633 71.1147 41.1372 71.0276C44.569 70.8299 47.9818 71.6599 50.9395 73.4115C48.3544 71.0175 44.7282 69.7652 41.1322 69.6998C39.3248 69.6619 37.5204 69.8632 35.7658 70.2983C33.9903 70.7098 32.2818 71.3701 30.6911 72.2598C29.0273 73.2022 27.6797 74.6162 26.8185 76.3235C26.0218 78.052 25.7828 79.9855 26.1345 81.8559C26.7933 85.4871 28.79 88.6204 31.2595 91.0798Z" fill="#263238"/>
<path d="M64.7176 96.3958C73.2324 106.621 80.2786 119.657 84.0557 122.815C86.0272 124.465 114.735 127.005 117.989 127.649C122.953 128.624 115.932 154.053 112.587 153.112C110.405 152.504 77.4219 147.942 71.3464 141.072C66.6791 135.786 59.306 113.003 57.3445 102.994C55.1718 91.8643 61.3228 92.317 64.7176 96.3958Z" fill="#EB9481"/>
<path d="M124.887 154.325C119.194 154.263 113.53 153.501 108.023 152.057C105.006 151.197 106.514 127.503 109.613 126.618C119.168 123.867 132.3 125.829 136.686 129.334C141.071 132.84 130.585 154.32 124.887 154.325Z" fill="#EB9481"/>
<path d="M195.641 113.448C190.29 116.632 183.631 118.04 177.686 119.72C174.427 120.635 171.153 121.494 167.864 122.295C166.355 122.667 164.846 123.014 163.337 123.356C162.422 123.567 160.993 124.156 160.028 123.889C159.918 123.864 159.819 123.805 159.743 123.721C159.668 123.638 159.62 123.533 159.605 123.422C159.6 123.358 159.6 123.294 159.605 123.23C159.57 122.672 175.196 118.095 179.723 112.367C182.011 109.455 184.018 104.662 181.815 101.151C180.497 99.0592 177.832 98.7323 175.624 99.3509C173.32 99.9997 170.886 102.64 173.059 103.706C173.27 103.324 173.979 103.485 173.833 103.963C173.391 105.099 170.947 105.783 169.659 104.28C167.592 101.881 169.071 98.0432 170.72 96.1824C175.332 90.9518 186.543 91.0322 190.285 97.9527C192.467 96.3232 195.354 97.0223 196.42 99.5269C198.472 97.6409 201.45 99.7884 201.953 102.409C202.878 107.036 199.363 111.245 195.641 113.448Z" fill="#DEDEDE"/>
<path d="M168.076 96.3267C167.573 95.7332 163.006 96.7995 164.098 98.947C165.189 101.095 168.835 97.1867 168.076 96.3267Z" fill="#DEDEDE"/>
<path d="M165.528 102.02C164.92 101.804 162.863 104.47 164.256 105.254C165.649 106.039 166.036 102.201 165.528 102.02Z" fill="#DEDEDE"/>
<path d="M190.851 96.2245C191.439 95.9629 191.092 92.6083 189.543 93.0006C187.994 93.3929 190.353 96.4307 190.851 96.2245Z" fill="#DEDEDE"/>
<path d="M164.07 100.749C163.833 100.437 162.641 100.83 163.094 101.509C163.546 102.188 164.356 101.131 164.07 100.749Z" fill="#DEDEDE"/>
<path d="M190.274 91.7827C190.652 91.6872 190.777 90.4399 189.958 90.5908C189.138 90.7417 189.837 91.8934 190.274 91.7827Z" fill="#DEDEDE"/>
<path d="M149.422 128.68L105.571 143.085L103.977 137.487L148.286 124.672L149.422 128.68Z" fill="#A6A6A6"/>
<path d="M200.369 109.844C200.369 109.844 201.525 121.618 197.421 122.789L175.503 129.026L153.585 135.262C149.481 136.429 144.266 125.812 144.266 125.812L200.369 109.844Z" fill="#455A64"/>
<path d="M112.227 126.039C112.227 126.039 135.689 116.539 135.186 126.678C135.035 129.696 130.82 141.887 128.356 141.087C125.172 140.056 125.982 134.64 127.028 131.315C127.028 131.315 120.178 135.475 115.858 131.567C114.208 130.054 112.96 128.154 112.227 126.039Z" fill="#EB9481"/>
<path d="M135.184 125.828C135.265 127.017 135.172 128.212 134.907 129.374C134.671 130.541 134.358 131.692 133.972 132.819C133.226 135.09 132.284 137.291 131.155 139.397C130.852 139.951 130.473 140.459 130.029 140.906C129.767 141.169 129.449 141.369 129.098 141.49C128.91 141.561 128.711 141.598 128.51 141.6C128.311 141.601 128.114 141.569 127.926 141.505C127.25 141.272 126.677 140.807 126.312 140.192C125.991 139.622 125.77 139.001 125.658 138.356C125.475 137.132 125.502 135.885 125.739 134.67C125.945 133.476 126.241 132.299 126.624 131.149L127.237 131.622C126.436 132.068 125.594 132.437 124.723 132.723C123.862 133.014 122.974 133.218 122.072 133.332C121.171 133.434 120.259 133.406 119.366 133.246C118.474 133.088 117.62 132.761 116.852 132.281C117.646 132.645 118.496 132.874 119.366 132.96C120.232 133.03 121.104 132.981 121.956 132.814C122.817 132.66 123.66 132.417 124.471 132.09C125.27 131.773 126.038 131.382 126.765 130.923L127.655 130.35L127.378 131.396C127.055 132.508 126.808 133.64 126.639 134.785C126.444 135.899 126.432 137.038 126.604 138.155C126.79 139.201 127.318 140.268 128.188 140.539C128.932 140.846 129.732 139.825 130.3 138.874C130.89 137.872 131.428 136.84 131.91 135.781C132.413 134.72 132.915 133.654 133.338 132.562C134.178 130.425 135.048 128.192 135.184 125.828Z" fill="#263238"/>
<path d="M128.858 125.315C126.368 126.824 129.572 128.896 129.572 128.896C129.572 128.896 124.241 127.025 122.275 129.575C120.383 132.04 124.347 134.409 124.628 134.58C124.342 134.484 119.398 132.895 117.688 135.661C115.907 138.538 120.293 140.228 120.58 140.338C120.283 140.338 116.37 140.303 115.55 142.702C114.137 146.821 124.14 147.168 126.439 149.849C126.439 149.849 124.573 154.189 124.482 154.34C124.482 154.34 131.765 154.934 135.2 151.639C135.712 151.17 136.047 150.539 136.148 149.852C136.249 149.165 136.109 148.464 135.753 147.867C135.753 147.867 138.801 148.37 140.214 146.238C140.939 145.141 139.827 143.004 139.827 143.004C139.827 143.004 142.286 143.311 143.428 141.334C144.344 139.755 143.086 137.859 143.086 137.859C143.086 137.859 145.601 137.059 145.993 135.143C146.828 131.285 134.179 122.087 128.858 125.315Z" fill="#EB9481"/>
<path d="M142.93 137.523C142.937 137.531 142.947 137.536 142.958 137.537C142.969 137.537 142.98 137.533 142.988 137.526C142.996 137.518 143 137.508 143.001 137.497C143.001 137.487 142.997 137.476 142.99 137.468C139.575 133.444 134.586 130.04 129.411 128.762C129.24 128.722 129.099 128.978 129.28 129.059C134.36 131.392 138.675 133.867 142.93 137.523Z" fill="#263238"/>
<path d="M139.898 142.999C139.949 143.039 140.014 142.964 139.969 142.913C136.448 138.769 130.7 135.108 124.569 134.338C124.363 134.313 124.146 134.499 124.388 134.544C128.421 135.384 136.086 139.71 139.898 142.999Z" fill="#263238"/>
<path d="M120.129 140.431C125.978 141.392 130.927 144.133 135.609 147.684C135.669 147.729 135.73 147.638 135.69 147.583C133.869 145.224 130.66 143.278 128.02 141.97C125.599 140.711 122.89 140.109 120.164 140.225C120.053 140.23 120.003 140.406 120.129 140.431Z" fill="#263238"/>
<path d="M129.567 128.918C128.512 128.654 127.434 128.486 126.348 128.416C125.298 128.306 124.236 128.48 123.275 128.918C122.845 129.141 122.513 129.515 122.345 129.97C122.18 130.432 122.135 130.929 122.214 131.413C122.336 131.886 122.555 132.328 122.858 132.711C123.162 133.094 123.542 133.409 123.974 133.636L126.042 134.838L123.683 134.431C122.637 134.239 121.566 134.22 120.514 134.375C120.025 134.422 119.55 134.57 119.121 134.811C118.693 135.052 118.319 135.38 118.025 135.774C117.757 136.145 117.624 136.597 117.648 137.054C117.672 137.511 117.851 137.947 118.155 138.288C118.857 139.037 119.738 139.594 120.715 139.908L123.376 140.863L120.56 140.833C119.775 140.821 118.992 140.911 118.231 141.1C117.503 141.252 116.835 141.613 116.31 142.141C116.085 142.389 115.934 142.696 115.874 143.025C115.813 143.355 115.846 143.695 115.968 144.007C116.351 144.651 116.909 145.174 117.577 145.515C119.014 146.305 120.513 146.978 122.058 147.527C122.828 147.834 123.602 148.141 124.357 148.483C125.141 148.783 125.851 149.247 126.439 149.846C125.799 149.325 125.062 148.935 124.271 148.699C123.497 148.417 122.707 148.171 121.917 147.925C120.303 147.47 118.735 146.864 117.235 146.114C116.414 145.724 115.725 145.101 115.254 144.324C115.044 143.872 114.971 143.37 115.042 142.878C115.114 142.386 115.327 141.925 115.656 141.552C116.287 140.878 117.105 140.407 118.005 140.199C118.85 139.976 119.72 139.863 120.595 139.862L120.439 140.788C119.286 140.432 118.246 139.782 117.421 138.902C116.974 138.4 116.715 137.758 116.687 137.086C116.686 136.427 116.882 135.782 117.25 135.235C117.62 134.733 118.093 134.315 118.636 134.009C119.18 133.703 119.782 133.516 120.404 133.46C121.564 133.307 122.741 133.346 123.889 133.576L123.597 134.365C123.073 134.064 122.621 133.65 122.273 133.155C121.926 132.66 121.691 132.094 121.586 131.499C121.512 130.897 121.597 130.287 121.832 129.728C122.076 129.158 122.52 128.697 123.079 128.431C124.141 128.014 125.297 127.902 126.419 128.109C127.495 128.259 128.552 128.531 129.567 128.918Z" fill="#263238"/>
<path d="M107.148 124.485L103.044 152.192C103.044 152.192 73.577 147.163 68.7639 141.63C63.9507 136.098 59.0521 114.11 56.6933 103.03C54.3345 91.95 60.4855 88.4798 67.2852 97.6886C74.085 106.897 81.8252 120.929 83.6257 121.754C85.4263 122.579 107.148 124.485 107.148 124.485Z" fill="#DEDEDE"/>
<path opacity="0.1" d="M95.3125 150.703C86.2294 148.807 71.9861 145.336 68.7673 141.65C63.9491 136.117 59.0606 114.129 56.6967 103.054C55.4997 97.4061 56.5106 93.7347 58.7085 92.7188C63.8133 100.62 84.6954 132.974 95.3125 150.703Z" fill="black"/>
<path d="M110.605 124.229C110.534 124.078 102.17 122.625 102.17 122.625C102.17 122.625 94.6264 135.958 94.6264 137.557C94.6264 139.157 94.4604 151.303 94.5861 151.454C94.7119 151.604 104.761 154.24 104.967 153.968C105.173 153.697 105.852 140.6 105.887 139.599C105.922 138.598 110.605 124.229 110.605 124.229Z" fill="#DEDEDE"/>
<path opacity="0.2" d="M110.605 124.229C110.534 124.078 102.17 122.625 102.17 122.625C102.17 122.625 94.6264 135.958 94.6264 137.557C94.6264 139.157 94.4604 151.303 94.5861 151.454C94.7119 151.604 104.761 154.24 104.967 153.968C105.173 153.697 105.852 140.6 105.887 139.599C105.922 138.598 110.605 124.229 110.605 124.229Z" fill="black"/>
<path d="M79.1833 176.243L73.148 143.255C73.148 143.255 79.1833 137.722 78.5597 127.845C78.2277 122.524 68.5813 103.477 63.4111 96.8083C58.5577 90.5567 48.0714 90.8937 41.6036 98.7396C20.7165 124.078 14.2638 157.704 11.5781 176.243H79.1833Z" fill="#DEDEDE"/>
<path d="M48.4609 98.2031C50.1584 100.178 52.204 101.825 54.4962 103.062C56.7558 104.323 59.2709 105.059 61.8542 105.214C63.1395 105.27 64.427 105.179 65.6917 104.943L66.6322 104.736H66.7327C66.7774 104.739 66.8206 104.753 66.8585 104.777C66.883 104.792 66.905 104.81 66.9239 104.832L66.954 104.872C66.9832 104.911 67.01 104.951 67.0345 104.993L67.1602 105.214C67.2407 105.365 67.3111 105.511 67.3815 105.662C67.6582 106.26 67.9096 106.864 68.151 107.467C69.1031 109.898 69.9241 112.377 70.6104 114.896C71.3088 117.411 71.8597 119.966 72.26 122.545C72.664 125.13 72.8323 127.746 72.763 130.361C72.7232 132.993 72.2526 135.601 71.3698 138.081C70.4793 140.581 68.8867 142.771 66.783 144.388L66.8736 144.187L68.6741 160.17L70.4042 176.164L68.3924 160.206L66.4461 144.237V144.111L66.5467 144.036C68.5855 142.463 70.1261 140.334 70.9826 137.905C71.8413 135.473 72.2949 132.916 72.3254 130.336C72.4411 125.166 71.5408 120.006 70.198 115.006C69.522 112.504 68.7128 110.039 67.7738 107.623C67.5374 107.02 67.2709 106.421 67.0194 105.838C66.949 105.692 66.8836 105.546 66.8082 105.405C66.773 105.34 66.7378 105.269 66.6975 105.204C66.6573 105.139 66.6573 105.144 66.6472 105.124C66.6779 105.142 66.7124 105.152 66.7478 105.154L65.7822 105.36C64.4846 105.589 63.1643 105.664 61.8492 105.581C59.2117 105.391 56.6532 104.598 54.3705 103.263C52.1069 101.953 50.1036 100.238 48.4609 98.2031Z" fill="#263238"/>
<path d="M54.713 118.517C54.713 118.815 54.6245 119.107 54.4587 119.355C54.2929 119.603 54.0572 119.796 53.7815 119.911C53.5058 120.025 53.2025 120.055 52.9098 119.996C52.6171 119.938 52.3482 119.795 52.1372 119.584C51.9262 119.373 51.7825 119.104 51.7243 118.811C51.6661 118.518 51.696 118.215 51.8102 117.939C51.9244 117.664 52.1177 117.428 52.3659 117.262C52.614 117.096 52.9057 117.008 53.2041 117.008C53.6043 117.008 53.9881 117.167 54.271 117.45C54.554 117.733 54.713 118.116 54.713 118.517Z" fill="#263238"/>
<path d="M68.9395 119.306C68.9395 119.604 68.851 119.896 68.6852 120.144C68.5194 120.392 68.2838 120.585 68.0081 120.7C67.7324 120.814 67.429 120.844 67.1363 120.786C66.8437 120.727 66.5748 120.584 66.3638 120.373C66.1528 120.162 66.0091 119.893 65.9509 119.6C65.8926 119.307 65.9225 119.004 66.0367 118.728C66.1509 118.453 66.3443 118.217 66.5924 118.051C66.8406 117.885 67.1323 117.797 67.4307 117.797C67.8309 117.797 68.2146 117.956 68.4976 118.239C68.7806 118.522 68.9395 118.906 68.9395 119.306Z" fill="#263238"/>
<path d="M52.7051 129.79C52.7051 130.088 52.6167 130.38 52.4509 130.628C52.2851 130.876 52.0494 131.07 51.7737 131.184C51.498 131.298 51.1946 131.328 50.902 131.27C50.6093 131.212 50.3404 131.068 50.1294 130.857C49.9184 130.646 49.7747 130.377 49.7165 130.084C49.6583 129.792 49.6882 129.488 49.8024 129.213C49.9166 128.937 50.1099 128.701 50.3581 128.536C50.6062 128.37 50.8979 128.281 51.1963 128.281C51.5965 128.281 51.9803 128.44 52.2632 128.723C52.5462 129.006 52.7051 129.39 52.7051 129.79Z" fill="#263238"/>
<path d="M47.9708 143.251C47.9708 143.549 47.8823 143.841 47.7165 144.089C47.5507 144.337 47.315 144.531 47.0393 144.645C46.7636 144.759 46.4603 144.789 46.1676 144.731C45.8749 144.673 45.6061 144.529 45.395 144.318C45.184 144.107 45.0403 143.838 44.9821 143.545C44.9239 143.253 44.9538 142.949 45.068 142.674C45.1822 142.398 45.3756 142.162 45.6237 141.996C45.8718 141.831 46.1635 141.742 46.4619 141.742C46.8621 141.742 47.2459 141.901 47.5288 142.184C47.8118 142.467 47.9708 142.851 47.9708 143.251Z" fill="#263238"/>
<path d="M47.4864 156.509C47.4864 156.807 47.3979 157.099 47.2321 157.347C47.0663 157.595 46.8307 157.789 46.555 157.903C46.2793 158.017 45.9759 158.047 45.6832 157.989C45.3905 157.93 45.1217 157.787 44.9107 157.576C44.6997 157.365 44.556 157.096 44.4977 156.803C44.4395 156.51 44.4694 156.207 44.5836 155.931C44.6978 155.656 44.8912 155.42 45.1393 155.254C45.3874 155.088 45.6792 155 45.9776 155C46.3777 155 46.7615 155.159 47.0445 155.442C47.3274 155.725 47.4864 156.109 47.4864 156.509Z" fill="#263238"/>
<path d="M68.0645 130.931C68.0645 131.229 67.976 131.521 67.8102 131.769C67.6444 132.017 67.4088 132.21 67.1331 132.325C66.8574 132.439 66.554 132.469 66.2613 132.411C65.9687 132.352 65.6998 132.209 65.4888 131.998C65.2778 131.787 65.1341 131.518 65.0759 131.225C65.0176 130.932 65.0475 130.629 65.1617 130.353C65.2759 130.078 65.4693 129.842 65.7174 129.676C65.9656 129.51 66.2573 129.422 66.5557 129.422C66.9559 129.422 67.3396 129.581 67.6226 129.864C67.9056 130.147 68.0645 130.531 68.0645 130.931Z" fill="#263238"/>
<path d="M63.2286 156.235C63.2286 156.534 63.1401 156.826 62.9743 157.074C62.8085 157.322 62.5729 157.515 62.2972 157.629C62.0215 157.744 61.7181 157.773 61.4254 157.715C61.1327 157.657 60.8639 157.513 60.6529 157.302C60.4418 157.091 60.2981 156.822 60.2399 156.53C60.1817 156.237 60.2116 155.934 60.3258 155.658C60.44 155.382 60.6334 155.147 60.8815 154.981C61.1296 154.815 61.4213 154.727 61.7198 154.727C62.1199 154.727 62.5037 154.886 62.7867 155.168C63.0696 155.451 63.2286 155.835 63.2286 156.235Z" fill="#263238"/>
<path d="M46.7984 171.167C47.6234 171.167 48.2922 170.498 48.2922 169.673C48.2922 168.848 47.6234 168.18 46.7984 168.18C45.9735 168.18 45.3047 168.848 45.3047 169.673C45.3047 170.498 45.9735 171.167 46.7984 171.167Z" fill="#263238"/>
<path d="M64.0411 169.399C64.0411 169.698 63.9526 169.99 63.7868 170.238C63.621 170.486 63.3854 170.679 63.1097 170.793C62.834 170.908 62.5306 170.937 62.2379 170.879C61.9452 170.821 61.6764 170.677 61.4654 170.466C61.2544 170.255 61.1106 169.986 61.0524 169.694C60.9942 169.401 61.0241 169.098 61.1383 168.822C61.2525 168.546 61.4459 168.311 61.694 168.145C61.9421 167.979 62.2338 167.891 62.5323 167.891C62.9324 167.891 63.3162 168.05 63.5992 168.333C63.8821 168.615 64.0411 168.999 64.0411 169.399Z" fill="#263238"/>
<path d="M63.588 143.767C63.588 144.065 63.4995 144.357 63.3337 144.605C63.1679 144.853 62.9322 145.046 62.6565 145.161C62.3808 145.275 62.0775 145.305 61.7848 145.246C61.4921 145.188 61.2232 145.045 61.0122 144.834C60.8012 144.623 60.6575 144.354 60.5993 144.061C60.5411 143.768 60.571 143.465 60.6852 143.189C60.7994 142.914 60.9927 142.678 61.2409 142.512C61.489 142.346 61.7807 142.258 62.0791 142.258C62.4793 142.258 62.8631 142.417 63.146 142.7C63.429 142.983 63.588 143.366 63.588 143.767Z" fill="#263238"/>
<path d="M64.4131 92.3629C64.4131 92.3629 66.4248 101.516 64.7501 101.949C59.6603 103.292 52.7298 97.1358 52.2269 96.0646C52.1011 95.7879 51.3266 88.5557 50.718 82.9278C50.3358 79.3116 50.0391 76.3594 50.0391 76.3594L64.4986 81.7308L64.403 91.6538L64.4131 92.3629Z" fill="#EB9481"/>
<path d="M64.5142 81.7308L64.4186 91.6538C61.6526 91.2421 59.0044 90.2523 56.6464 88.7488C54.2885 87.2453 52.2738 85.2619 50.7337 82.9278C50.3514 79.3116 50.0547 76.3594 50.0547 76.3594L51.8653 76.9629L64.5142 81.7308Z" fill="#263238"/>
<path d="M76.3118 66.962C78.3236 84.2682 68.1843 87.4216 64.4525 87.8491C61.0627 88.2414 49.48 89.1366 45.6928 72.1322C41.9057 55.1278 49.319 48.7204 57.0241 47.4228C64.7291 46.1252 74.3302 49.6558 76.3118 66.962Z" fill="#EB9481"/>
<path d="M73.1846 65.6178C72.7858 65.5728 72.3896 65.5074 71.9976 65.4216C71.5708 65.4108 71.1593 65.2607 70.8258 64.9941C70.7378 64.8887 70.6867 64.7575 70.6804 64.6203C70.674 64.4832 70.7127 64.3478 70.7906 64.2347C70.9816 64.0361 71.222 63.8918 71.4871 63.8167C71.7522 63.7416 72.0326 63.7383 72.2994 63.8072C72.8566 63.8639 73.3728 64.1256 73.7478 64.5415C73.8305 64.6415 73.8818 64.7636 73.8953 64.8927C73.9088 65.0217 73.8839 65.1518 73.8238 65.2668C73.7636 65.3817 73.6709 65.4763 73.5572 65.5388C73.4434 65.6012 73.3138 65.6287 73.1846 65.6178Z" fill="#263238"/>
<path d="M61.3081 66.3824C61.6964 66.2839 62.0792 66.1647 62.4548 66.0253C62.8781 65.9558 63.2669 65.749 63.5612 65.4369C63.6333 65.3203 63.665 65.1833 63.6513 65.0469C63.6377 64.9105 63.5795 64.7825 63.4858 64.6825C63.2713 64.5136 63.0159 64.4046 62.7455 64.3666C62.4751 64.3286 62.1995 64.363 61.9468 64.4662C61.4016 64.5982 60.9248 64.928 60.609 65.3916C60.5434 65.5018 60.5111 65.6287 60.5161 65.7569C60.5211 65.885 60.5631 66.009 60.6371 66.1138C60.711 66.2186 60.8137 66.2998 60.9328 66.3474C61.0519 66.3951 61.1822 66.4072 61.3081 66.3824Z" fill="#263238"/>
<path d="M64.1298 69.636C64.1298 69.5908 64.0393 69.6964 64.0443 69.7467C64.165 70.9235 64.0996 72.2966 63.0384 72.7643C63.0032 72.7643 63.0133 72.8397 63.0384 72.8297C64.3662 72.5581 64.4316 70.7324 64.1298 69.636Z" fill="#263238"/>
<path d="M62.9837 68.4688C61.0675 68.4688 61.1831 72.2861 62.9535 72.2961C64.7238 72.3062 64.583 68.4838 62.9837 68.4688Z" fill="#263238"/>
<path d="M62.261 68.6924C61.9341 68.9187 61.6172 69.311 61.2199 69.3613C60.8226 69.4116 60.39 69.0344 60.0732 68.6572C60.038 68.6169 60.0078 68.6572 60.0078 68.7024C60.0078 69.4367 60.3247 70.1811 61.1143 70.2666C61.9039 70.3521 62.3264 69.6781 62.4873 68.9388C62.4974 68.798 62.3767 68.6018 62.261 68.6924Z" fill="#263238"/>
<path d="M70.7198 69.1364C70.7198 69.0912 70.8154 69.1917 70.8154 69.242C70.8154 70.429 70.9864 71.7869 72.0677 72.1591C72.1029 72.1591 72.1029 72.2295 72.0677 72.2245C70.75 72.0836 70.5187 70.258 70.7198 69.1364Z" fill="#263238"/>
<path d="M71.747 67.8738C73.6531 67.6877 73.8845 71.51 72.1192 71.681C70.3539 71.852 70.1527 68.0297 71.747 67.8738Z" fill="#263238"/>
<path d="M72.5679 68.0629C72.8797 68.2439 73.2016 68.596 73.5738 68.596C73.946 68.596 74.2779 68.1635 74.5193 67.751C74.5445 67.7108 74.5797 67.751 74.5797 67.7913C74.6451 68.5205 74.4539 69.3001 73.7599 69.4812C73.0658 69.6622 72.6182 69.0486 72.3969 68.3294C72.3466 68.2188 72.4372 68.0075 72.5679 68.0629Z" fill="#263238"/>
<path d="M64.1553 78.9814C64.4369 79.2631 64.7136 79.6503 65.1612 79.6906C65.6017 79.6891 66.037 79.5948 66.4386 79.414C66.4468 79.4098 66.4561 79.4085 66.4651 79.4103C66.4741 79.4121 66.4821 79.4169 66.488 79.424C66.4939 79.431 66.4972 79.4398 66.4973 79.449C66.4975 79.4581 66.4945 79.4671 66.4889 79.4743C66.3168 79.7041 66.0856 79.883 65.8199 79.9919C65.5542 80.1008 65.264 80.1357 64.9801 80.0929C64.7391 80.0275 64.5232 79.8915 64.3601 79.7024C64.197 79.5133 64.0941 79.2797 64.0648 79.0317C64.0245 78.9613 64.1151 78.9412 64.1553 78.9814Z" fill="#263238"/>
<path d="M68.9323 74.4944C68.9323 74.4944 69.2491 76.2547 69.2843 77.0896C69.2843 77.165 69.0882 77.2103 68.8065 77.2405C68.8065 77.2405 68.8065 77.2405 68.7713 77.2405C68.0605 77.3999 67.3196 77.3608 66.6295 77.1275C65.9394 76.8942 65.3267 76.4757 64.8584 75.9177C64.8475 75.9015 64.8424 75.8821 64.8441 75.8626C64.8457 75.8431 64.854 75.8248 64.8675 75.8107C64.8811 75.7965 64.899 75.7875 64.9184 75.785C64.9378 75.7825 64.9575 75.7868 64.9741 75.797C66.0706 76.4799 67.3584 76.7904 68.6456 76.6822C68.6909 76.4509 67.9968 73.6897 68.1426 73.6646C68.7941 73.6968 69.4385 73.8152 70.0588 74.0166C69.5006 70.3301 68.3589 66.7642 67.861 63.0877C67.8603 63.0619 67.8682 63.0366 67.8835 63.0158C67.8988 62.995 67.9207 62.9799 67.9455 62.973C67.9704 62.9661 67.9969 62.9676 68.0208 62.9775C68.0446 62.9874 68.0645 63.0049 68.0773 63.0274C69.5358 66.6787 70.2701 70.9034 70.944 74.6956C71.0195 75.1784 69.2944 74.6051 68.9323 74.4944Z" fill="#263238"/>
<path d="M68.3774 76.8657C67.9883 77.5191 67.4375 78.0613 66.778 78.4399C66.4123 78.6327 65.9961 78.7083 65.586 78.6562C64.6858 78.5304 64.5802 77.7358 64.6506 77.0367C64.694 76.6638 64.7818 76.2974 64.9121 75.9453C65.9398 76.613 67.1538 76.9355 68.3774 76.8657Z" fill="#263238"/>
<path d="M66.7858 78.4426C66.4201 78.6354 66.004 78.7109 65.5938 78.6589C64.6936 78.5331 64.588 77.7385 64.6584 77.0394C65.5888 77.0243 66.5897 77.5423 66.7858 78.4426Z" fill="#FF9CBD"/>
<path d="M45.4918 72.2895C48.424 72.5158 49.0929 66.3749 49.0929 66.3749C49.0929 66.3749 55.0427 66.3749 57.0092 57.8249C57.0092 57.8249 56.8784 61.8082 54.3738 64.9013C54.3738 64.9013 64.8651 63.7898 69.2859 55.0085C69.2859 55.0085 67.5206 59.4796 65.8709 61.0739C65.8709 61.0739 70.2717 59.8417 72.4092 56.2708C72.4092 56.2708 74.2499 61.3405 75.6632 62.7386C75.6632 62.7386 75.2307 44.3813 58.2212 46.3327C58.2212 46.3327 47.569 47.0369 43.7466 55.4712C39.9243 63.9055 45.4918 72.2895 45.4918 72.2895Z" fill="#263238"/>
<path d="M48.5995 73.1397C48.5995 73.1397 44.6414 67.8186 42.2122 69.242C39.783 70.6653 42.871 78.4659 45.7982 79.4617C46.1648 79.6144 46.5586 79.6914 46.9557 79.6881C47.3529 79.6848 47.7453 79.6012 48.1093 79.4424C48.4734 79.2836 48.8016 79.0529 49.0743 78.7641C49.3469 78.4753 49.5584 78.1343 49.6959 77.7618L48.5995 73.1397Z" fill="#EB9481"/>
<path d="M43.1496 71.4531C43.1389 71.4531 43.1287 71.4574 43.1212 71.4649C43.1136 71.4725 43.1094 71.4827 43.1094 71.4934C43.1094 71.504 43.1136 71.5143 43.1212 71.5218C43.1287 71.5294 43.1389 71.5336 43.1496 71.5336C45.2066 72.293 46.3282 74.1489 47.1329 76.06C46.5092 75.3308 45.6744 74.9385 44.6886 75.6879C44.6383 75.7281 44.6886 75.8086 44.749 75.7935C45.1029 75.6697 45.4865 75.6589 45.8469 75.7625C46.2073 75.8661 46.5266 76.079 46.7607 76.3719C47.1511 76.8629 47.4883 77.394 47.7666 77.9561C47.8672 78.1322 48.1891 78.0265 48.1136 77.8203V77.7751C48.0583 75.2 45.9409 71.6342 43.1496 71.4531Z" fill="#263238"/>
<path d="M47.4074 78.627C47.4087 78.7071 47.3941 78.7866 47.3644 78.861C47.3346 78.9354 47.2904 79.0031 47.2342 79.0602C47.178 79.1173 47.1111 79.1627 47.0372 79.1937C46.9633 79.2246 46.884 79.2406 46.8039 79.2406C46.724 79.2406 46.6448 79.2248 46.571 79.1942C46.4971 79.1636 46.4301 79.1188 46.3736 79.0623C46.317 79.0058 46.2722 78.9387 46.2416 78.8649C46.2111 78.791 46.1953 78.7119 46.1953 78.632C46.1953 78.5521 46.2111 78.4729 46.2416 78.3991C46.2722 78.3253 46.317 78.2582 46.3736 78.2017C46.4301 78.1452 46.4971 78.1003 46.571 78.0698C46.6448 78.0392 46.724 78.0234 46.8039 78.0234C46.9639 78.0234 47.1174 78.087 47.2306 78.2002C47.3438 78.3134 47.4074 78.4669 47.4074 78.627Z" fill="white"/>
<path d="M45.6964 77.5854C45.6974 77.6624 45.6754 77.738 45.6332 77.8024C45.591 77.8669 45.5306 77.9173 45.4596 77.9472C45.3887 77.9771 45.3104 77.9852 45.2348 77.9705C45.1592 77.9557 45.0898 77.9187 45.0353 77.8642C44.9808 77.8098 44.9439 77.7403 44.9291 77.6647C44.9143 77.5891 44.9224 77.5108 44.9523 77.4399C44.9823 77.3689 45.0327 77.3085 45.0971 77.2663C45.1616 77.2242 45.2371 77.2022 45.3141 77.2032C45.4155 77.2032 45.5127 77.2434 45.5844 77.3151C45.6561 77.3868 45.6964 77.484 45.6964 77.5854Z" fill="white"/>
<path d="M43.3138 65.6123C43.1076 65.4765 24.3027 39.5852 22.6933 37.1962C21.9741 36.135 27.7227 19.5933 37.2433 15.0669C44.1135 11.7726 56.6015 14.4835 58.9049 15.4994C61.646 16.7165 72.1272 50.1218 72.1272 50.1218L55.7515 56.8813L43.3138 65.6123Z" fill="#DEDEDE"/>
<g opacity="0.1">
<path d="M44.4902 60.7346C44.1291 60.4264 43.8229 60.0591 43.5849 59.6483C43.3083 59.2459 43.0267 58.8436 42.7349 58.4563C42.14 57.6794 41.4877 56.9481 40.7835 56.2685C40.2668 55.6487 39.5594 55.2172 38.7718 55.0414C38.4244 55.0036 38.0737 55.072 37.7659 55.2375C37.5608 55.3276 37.3734 55.4537 37.2127 55.6097C37.102 55.7505 37.0366 55.9768 36.9361 56.1126C36.9059 56.1629 36.9914 56.2082 37.0165 56.1579C37.0903 55.9141 37.2539 55.7074 37.4742 55.5795C37.6528 55.4868 37.842 55.4159 38.0375 55.3683C38.458 55.2819 38.8955 55.3555 39.2647 55.5745C39.9491 56.0251 40.5527 56.5879 41.0501 57.2392C41.6084 57.8679 42.1767 58.4966 42.74 59.1252C43.3033 59.7539 43.7107 60.4681 44.4198 60.8101C44.4802 60.8604 44.5506 60.7749 44.4902 60.7346Z" fill="black"/>
<path d="M46.4295 60.5279C45.2627 58.895 44.0892 57.2655 42.909 55.6393C41.6604 54.0424 40.599 52.3077 39.7455 50.4691C39.7455 50.4137 39.6348 50.4691 39.66 50.4942C40.3649 52.4028 41.2844 54.2251 42.401 55.926C43.5888 57.5922 44.9073 59.1613 46.344 60.6184C46.356 60.6297 46.3721 60.6358 46.3886 60.6354C46.4051 60.6349 46.4207 60.6279 46.4321 60.6159C46.4434 60.6039 46.4495 60.5879 46.449 60.5713C46.4486 60.5548 46.4415 60.5392 46.4295 60.5279Z" fill="black"/>
<path d="M51.3068 55.497C50.2607 54.129 49.0788 52.8666 47.912 51.6042C46.8897 50.4906 45.7264 49.515 44.4517 48.7023C44.4014 48.6721 44.3562 48.7475 44.4014 48.7827C45.6487 49.688 46.5741 50.9454 47.6001 52.082C48.7167 53.3243 49.8432 54.5967 51.0754 55.7183C51.1058 55.744 51.1446 55.7576 51.1844 55.7565C51.2242 55.7553 51.2621 55.7394 51.2908 55.7119C51.3196 55.6844 51.3371 55.6472 51.3401 55.6075C51.343 55.5678 51.3312 55.5285 51.3068 55.497Z" fill="black"/>
<path d="M55.3594 39.7139C55.122 39.6115 54.865 39.5628 54.6066 39.5713C54.3482 39.5797 54.0949 39.6451 53.8648 39.7629C53.6346 39.8806 53.4333 40.0477 53.2752 40.2522C53.1171 40.4568 53.0062 40.6937 52.9503 40.9461C52.6435 42.2135 53.1766 43.657 53.6041 44.8389C54.076 46.1214 54.7008 47.3423 55.465 48.4751C56.3359 49.7502 57.3727 50.9037 58.548 51.9052C58.5883 51.9454 58.6536 51.9052 58.6134 51.8448C56.9789 50.0577 55.676 47.9935 54.7659 45.7492C54.3058 44.6514 53.9489 43.5132 53.6997 42.3493C53.4935 41.3786 53.6997 39.6737 55.0727 39.8346C56.3753 40.0056 57.0342 41.5094 58.0049 42.2236C58.0049 42.2236 58.0501 42.2236 58.0049 42.1884C57.0442 41.444 56.5614 40.2118 55.3594 39.7139Z" fill="black"/>
<path d="M64.9689 38.8074C64.3599 40.7268 64.4113 42.7949 65.1148 44.6817C65.483 45.7334 65.9583 46.7446 66.5331 47.6993C67.0739 48.7188 67.714 49.6824 68.4442 50.5761C68.4514 50.5834 68.4607 50.588 68.4708 50.5893C68.4808 50.5905 68.491 50.5884 68.4998 50.5832C68.5085 50.578 68.5152 50.57 68.5188 50.5605C68.5224 50.551 68.5227 50.5406 68.5197 50.5309C68.0972 49.525 67.4484 48.6348 67.0109 47.649C66.549 46.6614 66.1607 45.641 65.8491 44.5962C65.5923 43.6688 65.4023 42.7242 65.2807 41.7697C65.1576 40.8039 65.1374 39.8277 65.2204 38.8576C65.2204 38.7269 65.0142 38.6665 64.9689 38.8074Z" fill="black"/>
<path d="M62.5848 46.2895C61.9063 44.6944 61.1147 43.1498 60.216 41.6675C60.1968 41.64 60.168 41.6205 60.1353 41.6129C60.1026 41.6053 60.0682 41.6101 60.0388 41.6263C60.0094 41.6426 59.9871 41.6692 59.9762 41.7009C59.9652 41.7327 59.9664 41.7674 59.9796 41.7983C60.729 43.3423 61.3828 44.9316 62.0366 46.5159C62.6904 48.1001 63.2286 49.7146 63.9729 51.2334C63.9981 51.2837 64.0634 51.2335 64.0584 51.1982C63.782 49.5051 63.2866 47.855 62.5848 46.2895Z" fill="black"/>
</g>
<path d="M71.8104 46.4404C70.709 46.0532 57.3257 46.5762 52.6635 49.4581C48.5243 51.9979 41.2618 59.1397 39.4412 62.112C39.1394 62.615 42.4588 67.8757 43.5351 68.3284C44.1738 68.5949 52.4522 61.257 57.0692 58.2394C61.0072 55.6643 71.1515 54.7188 73.7216 54.578C74.1139 54.5377 72.4642 46.6617 71.8104 46.4404Z" fill="#DEDEDE"/>
<path opacity="0.2" d="M71.8104 46.4404C70.709 46.0532 57.3257 46.5762 52.6635 49.4581C48.5243 51.9979 41.2618 59.1397 39.4412 62.112C39.1394 62.615 42.4588 67.8757 43.5351 68.3284C44.1738 68.5949 52.4522 61.257 57.0692 58.2394C61.0072 55.6643 71.1515 54.7188 73.7216 54.578C74.1139 54.5377 72.4642 46.6617 71.8104 46.4404Z" fill="black"/>
<path d="M61.5935 104.021C61.5935 104.021 60.8995 99.2629 60.4921 98.8606C60.0847 98.4582 54.3512 95.7222 51.6353 91.412C50.9513 90.3257 48.2656 94.1732 48.2656 94.1732C48.2656 94.1732 50.2774 99.6703 54.9296 102.613C59.5818 105.555 65.1493 104.946 66.3262 104.121C66.7084 103.86 65.3958 95.9083 65.26 96.2654C64.9192 97.2139 64.3691 98.0734 63.6506 98.7801C63.4443 98.9913 64.2692 103.654 64.2692 103.654L61.5935 104.021Z" fill="#DEDEDE"/>
<path d="M42.2611 97.1801C32.5543 105.187 3.11224 137.466 4.95803 148.027C6.33105 155.868 14.9816 158.212 22.4352 154.913C28.9281 152.041 44.0314 117.368 48.1656 107.636C52.0986 98.352 51.8019 89.3192 42.2611 97.1801Z" fill="#EB9481"/>
<path d="M42.2611 97.1801C32.5543 105.187 3.11224 137.466 4.95803 148.027C6.33105 155.868 14.9816 158.212 22.4352 154.913C28.9281 152.041 44.0314 117.368 48.1656 107.636C52.0986 98.352 51.8019 89.3192 42.2611 97.1801Z" fill="#DEDEDE"/>
<path d="M47.3445 110.361C47.3505 110.347 47.3507 110.332 47.345 110.317C47.3393 110.303 47.3283 110.292 47.3143 110.286C47.3003 110.28 47.2845 110.28 47.2703 110.285C47.2562 110.291 47.2449 110.302 47.2388 110.316C46.1776 112.775 45.0913 115.225 43.9597 117.654C42.8281 120.083 41.7417 122.538 40.6051 124.967C38.3418 129.808 35.9344 134.578 33.3829 139.275C32.6687 140.593 31.9344 141.896 31.2051 143.203C30.4759 144.511 29.6963 145.819 28.9922 147.156C28.9922 147.197 29.0274 147.232 29.0525 147.197C29.8422 146.11 30.5614 144.959 31.2655 143.822C31.9696 142.685 32.6636 141.559 33.3376 140.407C34.6855 138.109 36.0132 135.79 37.2656 133.436C38.5179 131.082 39.7802 128.643 40.932 126.209C41.8825 124.237 42.813 122.241 43.6629 120.219C43.8541 119.947 44.0452 119.671 44.2313 119.389C44.6034 118.821 44.9656 118.242 45.3277 117.664C46.0419 116.532 46.6705 115.356 47.3394 114.209C47.3797 114.138 47.259 114.058 47.2137 114.133C46.4945 115.26 45.7049 116.351 45.036 117.498L44.1759 118.936C45.3327 116.1 46.3738 113.238 47.3445 110.361Z" fill="#263238"/>
<path d="M7.26639 152.53C0.868996 145.614 9.27815 138.236 15.8465 138.03C31.2818 137.552 53.7079 141.696 66.0752 146.017C70.3149 147.495 71.346 171.812 66.5429 171.666C58.0231 171.445 20.2473 166.557 7.26639 152.53Z" fill="#EB9481"/>
<path d="M60.0078 144.273C60.0078 144.273 61.6273 144.505 70.3835 144.314C76.4187 144.183 91.2605 147.734 97.8037 163.425C100.318 169.461 97.1851 173.831 93.4684 168.042C90.8531 163.964 89.3896 160.911 88.1624 159.819C88.1624 159.819 87.408 167.197 83.6711 169.32C80.403 171.179 77.0063 172.803 73.5067 174.178C73.1104 173.594 72.7509 172.986 72.4304 172.358C70.8777 173.064 69.1568 173.318 67.4661 173.09C65.7754 172.861 64.1837 172.159 62.8746 171.065L60.0078 144.273Z" fill="#EB9481"/>
<path d="M76.173 145.117C78.6072 147.129 83.7171 151.55 86.609 156.594C89.8429 162.202 94.5605 173.87 90.3961 176.209C87.3483 177.929 85.1555 173.629 85.1555 173.629C85.1555 173.629 86.0859 178.864 82.9929 179.815C80.1663 180.68 78.6726 177.255 78.6726 177.255C78.6726 177.255 78.6726 180.524 75.8109 180.836C72.3507 181.208 72.8737 174.298 69.0413 171.637C68.1813 171.049 76.173 145.117 76.173 145.117Z" fill="#EB9481"/>
<path d="M80.1175 159.026C82.094 161.314 85.2474 167.666 85.2273 173.521C85.2273 173.656 85.1217 173.727 85.0966 173.606C84.016 168.57 82.3271 163.684 80.0672 159.056C80.047 159.026 80.0973 159.001 80.1175 159.026Z" fill="#263238"/>
<path d="M74.5581 162.451C76.0669 164.599 79.0192 171.293 78.7929 177.227C78.7929 177.358 78.6822 177.424 78.6621 177.298C77.8413 172.216 76.4459 167.243 74.5028 162.476C74.4877 162.446 74.538 162.421 74.5581 162.451Z" fill="#263238"/>
<path d="M58.339 140.925L53.6818 157.522L52.9827 173.178C52.9827 173.178 3.69461 160.811 4.89663 147.151C5.30904 142.544 9.70474 136.408 19.9848 136.056C30.2649 135.704 58.339 140.925 58.339 140.925Z" fill="#DEDEDE"/>
<path d="M58.4715 141.32C57.4053 141.018 56.3592 140.671 55.2829 140.395C54.2066 140.118 53.1856 139.861 52.1295 139.62C50.007 139.117 47.8494 138.735 45.7019 138.378C41.4513 137.667 37.1675 137.172 32.8669 136.894C31.2927 136.391 29.6631 136.034 28.0638 135.602C28.0185 135.602 28.0085 135.662 28.0638 135.677C29.3714 136.049 30.669 136.487 31.9817 136.844C30.9758 136.783 29.9699 136.728 28.9942 136.693C27.7872 136.643 26.5751 136.693 25.368 136.693C25.3278 136.693 25.3228 136.768 25.368 136.768C26.4393 136.824 27.5156 136.954 28.5818 137.055C29.648 137.156 30.7746 137.236 31.866 137.342C34.0387 137.553 36.2064 137.789 38.364 138.071C42.6692 138.639 46.9743 139.293 51.2292 140.148C52.4212 140.39 53.6182 140.601 54.8101 140.842C56.0021 141.084 57.2393 141.29 58.4414 141.556C58.5721 141.561 58.6023 141.355 58.4715 141.32Z" fill="#263238"/>
<path d="M51.739 172.785C49.682 172.181 47.6501 171.502 45.5981 170.879C43.5461 170.255 41.469 169.601 39.4271 168.902C35.318 167.504 31.2744 165.94 27.2106 164.416C24.8569 163.531 22.473 162.736 20.1192 161.856C20.0588 161.831 20.0136 161.921 20.079 161.946C21.0848 162.379 22.136 162.842 23.162 163.294C24.188 163.747 25.1737 164.149 26.1796 164.587C28.1914 165.467 30.2635 166.287 32.3155 167.102C36.3537 168.713 40.4714 170.118 44.6526 171.311C46.9862 171.975 49.345 172.473 51.7189 172.946C51.8145 172.966 51.8346 172.81 51.739 172.785Z" fill="#263238"/>
<path d="M60.866 140.989C60.7856 140.818 51.9338 139.57 51.9338 139.57C51.9338 139.57 44.8927 154.96 44.9933 156.756C45.0938 158.551 45.6923 172.266 45.8332 172.427C45.974 172.588 56.6665 175.098 56.8677 174.771C57.0688 174.444 56.9381 159.658 56.9129 158.521C56.8878 157.384 60.866 140.989 60.866 140.989Z" fill="#DEDEDE"/>
<path opacity="0.2" d="M60.8162 140.99C60.7358 140.819 51.879 139.602 51.879 139.602C51.879 139.602 44.873 155.012 44.9937 156.812C45.1144 158.613 45.7381 172.318 45.8789 172.479C46.0197 172.64 56.7223 175.114 56.9436 174.787C57.1649 174.46 56.9687 159.674 56.9436 158.537C56.9184 157.401 60.8162 140.99 60.8162 140.99Z" fill="black"/>
<path d="M203.121 165.093V186.583C203.121 188.092 202.547 189.375 201.848 189.375H193.58H185.301C184.602 189.375 184.039 188.132 184.039 186.598V165.093C184.039 163.559 184.602 162.316 185.301 162.316H186.066V160.305H193.58H201.084V162.316H201.848C202.547 162.316 203.121 163.559 203.121 165.093Z" fill="#DEDEDE"/>
<path d="M201.602 157H185.523V160.616H201.602V157Z" fill="#37474F"/>
<path d="M203.121 169.648H184.039V183.223H203.121V169.648Z" fill="#EBEBEB"/>
<path d="M181.911 185.587C181.911 188.403 180.855 189.374 180.317 189.374H175.584H171.143C170.605 189.374 169.544 188.408 169.539 185.587C169.539 182.247 171.928 180.246 171.928 178.415C171.928 177.228 170.776 173.531 171.269 173.531H180.146C180.649 173.531 179.502 177.223 179.502 178.415C179.507 180.251 181.906 182.227 181.911 185.587Z" fill="#C7C7C7"/>
<path d="M171.949 171.077L179.427 171.066C179.714 171.066 179.989 171.179 180.192 171.382C180.395 171.584 180.51 171.859 180.51 172.146L180.513 174.344C180.513 174.364 180.505 174.383 180.491 174.397C180.477 174.411 180.458 174.419 180.438 174.419L170.947 174.433C170.927 174.433 170.908 174.425 170.894 174.411C170.88 174.396 170.872 174.377 170.872 174.357L170.869 172.159C170.868 171.873 170.982 171.597 171.184 171.394C171.387 171.191 171.662 171.077 171.949 171.077Z" fill="#37474F"/>
<path d="M34.0451 166.824L31.8976 165.094C33.5371 163.052 35.4181 160.442 35.7149 159.622C35.393 157.555 33.4617 150.73 32.2345 149.78H24.1875V147.023H32.3754C36.2832 147.023 38.4458 159.33 38.4609 159.456C38.5364 159.934 38.6772 161.066 34.0451 166.824Z" fill="#EBEBEB"/>
<path d="M20.0736 185.074C6.15721 185.074 2.79254 176.021 4.16557 169.684C5.5386 163.347 15.2554 157.9 15.3711 155.828C15.4867 153.756 15.3711 144.451 14.8681 143.818C14.3652 143.184 11.1816 141.957 10.3417 141.957C9.50176 141.957 9.47661 140.891 10.3417 140.891H26.3854C27.2505 140.891 27.2505 141.957 26.3854 141.957C25.5204 141.957 24.9772 143.018 24.8263 144.14C24.7157 144.929 24.5598 154.103 24.7911 155.828C25.0677 157.88 34.6135 163.337 35.9966 169.684C37.3797 176.031 33.9849 185.074 20.0736 185.074Z" fill="#EBEBEB"/>
<path d="M19.7323 182.935C8.02889 182.935 5.20237 175.331 6.3541 170C7.50583 164.669 17.3484 158.699 17.1572 156.969C17.122 156.632 17.0969 149.842 17.0818 149.133H22.9109C22.9109 149.872 22.9511 156.677 22.9913 156.969C23.2277 158.694 31.9386 164.659 33.1055 170C34.2723 175.341 31.4307 182.935 19.7323 182.935Z" fill="#DEDEDE"/>
<path d="M73.6199 184.43C73.5989 185.208 73.4163 185.973 73.0839 186.677C72.7514 187.381 72.2763 188.008 71.6886 188.519C69.1739 190.908 64.7883 192.24 60.1864 192.009C57.0682 191.848 53.0396 190.5 49.1519 189.172C45.2642 187.845 41.472 186.582 38.912 186.607L8.625 186.889V185.033H9.33415V186.18L38.912 185.903C41.5927 185.878 45.3748 187.156 49.3832 188.509C53.2307 189.806 57.204 191.149 60.2266 191.305C64.6424 191.531 68.847 190.269 71.2008 188.011C71.719 187.567 72.1392 187.021 72.4345 186.406C72.7298 185.791 72.8937 185.121 72.9158 184.44L73.6199 184.43Z" fill="#A6A6A6"/>
<path d="M73.3277 182.789C73.5277 183.313 73.6333 183.868 73.6395 184.429H72.9304C72.8921 183.751 72.7141 183.088 72.4078 182.483C72.1014 181.877 71.6732 181.341 71.1499 180.908C68.756 178.7 64.5262 177.513 60.1154 177.825C57.0978 178.031 53.1447 179.45 49.3224 180.843C45.3441 182.271 41.5871 183.619 38.9014 183.639L9.32858 183.916V185.063H8.60938V183.212L38.8914 182.93C41.4513 182.93 45.158 181.577 49.0809 180.169C53.0039 178.761 56.9469 177.347 60.0601 177.151C64.662 176.829 69.113 178.087 71.6277 180.425C72.3681 181.073 72.9498 181.881 73.3277 182.789Z" fill="#A6A6A6"/>
<path d="M73.6171 184.43C73.6063 184.813 73.5152 185.191 73.3497 185.537C73.1843 185.884 72.9482 186.192 72.6565 186.441C70.5945 188.453 65.5701 189.716 60.1635 189.555C57.0654 189.459 53.0519 188.589 49.1743 187.744C45.2966 186.899 41.4843 186.069 38.9042 186.094L8.61719 186.376V185.043H9.32633V185.667L38.9042 185.39C41.5648 185.365 45.3368 186.185 49.3302 187.055C53.1777 187.895 57.1559 188.76 60.1937 188.851C65.3387 189.006 70.2525 187.809 72.1687 185.939C72.3899 185.752 72.5703 185.521 72.6984 185.262C72.8264 185.002 72.8995 184.719 72.913 184.43H73.6171Z" fill="#A6A6A6"/>
<path d="M73.4735 183.647C73.5692 183.896 73.6187 184.16 73.6194 184.426V184.778L8.60938 185.387V183.697L38.8964 183.416C41.4765 183.39 45.1932 182.51 49.1312 181.58C52.9938 180.659 56.9922 179.714 60.0903 179.568C65.4919 179.306 70.5364 180.458 72.6386 182.445C73.0032 182.778 73.2884 183.189 73.4735 183.647ZM72.865 184.079C72.7313 183.643 72.4787 183.253 72.1357 182.953C70.1944 181.122 65.2505 180.021 60.1104 180.272C57.0928 180.418 53.1145 181.358 49.2771 182.284C45.3039 183.224 41.5519 184.115 38.8864 184.14L9.31349 184.416V184.683L72.865 184.079Z" fill="#A6A6A6"/>
<path d="M7.25083 188.093L31.1606 187.872L31.1002 181.781L7.05469 182.008L7.25083 188.093Z" fill="#37474F"/>
</svg>
