<svg width="18" height="18" viewBox="0 0 18 18" fill="none" xmlns="http://www.w3.org/2000/svg">
<path d="M9.00008 17.9999C8.74001 18 8.48447 17.9318 8.25911 17.8019L7.12462 17.1469C6.95032 17.0462 6.75257 16.9932 6.55127 16.9932H5.24079C4.98074 16.9928 4.72535 16.9241 4.50014 16.7941C4.27493 16.6641 4.0878 16.4772 3.95744 16.2522L3.30237 15.1175C3.20152 14.9432 3.05671 14.7984 2.8824 14.6976L1.74774 14.0427C1.52275 13.9123 1.33591 13.7251 1.20588 13.4999C1.07586 13.2747 1.0072 13.0193 1.00677 12.7593V11.4492C1.00673 11.2478 0.953715 11.05 0.853047 10.8756L0.197975 9.74098C0.0682668 9.51557 0 9.26007 0 9.00001C0 8.73994 0.0682668 8.48444 0.197975 8.25903L0.853214 7.12455C0.953752 6.95018 1.0067 6.75246 1.00677 6.55119V5.24071C1.00717 4.98066 1.07581 4.72527 1.20584 4.50006C1.33587 4.27486 1.52273 4.08772 1.74774 3.95736L2.8824 3.30229C3.0567 3.20148 3.20146 3.05666 3.3022 2.88232L3.95727 1.74767C4.08763 1.52265 4.27477 1.33579 4.49997 1.20576C4.72518 1.07573 4.98057 1.00709 5.24062 1.00669H6.55093C6.75223 1.00664 6.94996 0.953625 7.12429 0.85297L8.25894 0.197898C8.48436 0.0682385 8.73986 0 8.99992 0C9.25997 0 9.51547 0.0682385 9.74089 0.197898L10.8755 0.853137C11.05 0.95371 11.2477 1.00666 11.4491 1.00669H12.7594C13.0194 1.00712 13.2748 1.07578 13.5 1.20581C13.7252 1.33583 13.9123 1.52267 14.0427 1.74767L14.6978 2.88232C14.7985 3.05662 14.9433 3.20138 15.1176 3.30212L16.2523 3.95736C16.4773 4.08772 16.6641 4.27486 16.7942 4.50006C16.9242 4.72527 16.9928 4.98066 16.9932 5.24071V6.55102C16.9932 6.75232 17.0463 6.95007 17.147 7.12438L17.802 8.2592C17.9317 8.4846 18 8.74011 18 9.00017C18 9.26024 17.9317 9.51574 17.802 9.74115L17.147 10.8755C17.0462 11.0498 16.9932 11.2476 16.9932 11.449V12.7593C16.9928 13.0193 16.9242 13.2747 16.7942 13.4999C16.6641 13.7252 16.4773 13.9123 16.2523 14.0427L15.1176 14.6977C14.9433 14.7986 14.7985 14.9434 14.6976 15.1177L14.0427 16.2522C13.9124 16.4772 13.7252 16.6641 13.5 16.7941C13.2748 16.9241 13.0194 16.9928 12.7594 16.9932H11.4492C11.2479 16.9932 11.0501 17.0462 10.8757 17.1469L9.74106 17.8019C9.51571 17.9318 9.26016 18 9.00008 17.9999Z" fill="url(#paint0_linear_425_578)"/>
<path d="M8.99886 15.6481C7.67411 15.6481 6.3791 15.2553 5.27761 14.5193C4.17612 13.7833 3.31761 12.7372 2.81064 11.5133C2.30368 10.2894 2.17104 8.9426 2.42949 7.6433C2.68793 6.344 3.32586 5.15052 4.2626 4.21378C5.19935 3.27703 6.39283 2.6391 7.69213 2.38066C8.99143 2.12221 10.3382 2.25486 11.5621 2.76182C12.786 3.26878 13.8321 4.12729 14.5681 5.22878C15.3041 6.33027 15.6969 7.62528 15.6969 8.95003C15.6949 10.7259 14.9886 12.4284 13.7329 13.6841C12.4772 14.9398 10.7747 15.6461 8.99886 15.6481Z" fill="url(#paint1_linear_425_578)"/>
<path d="M11.3772 8.42009C11.3495 8.42012 11.3223 8.41329 11.2979 8.40019C11.2735 8.3871 11.2527 8.36816 11.2374 8.34507L10.4497 7.15817C10.4293 7.12739 10.4197 7.09074 10.4223 7.05391C10.4249 7.01709 10.4396 6.98216 10.4641 6.95455L11.4529 5.83999C11.4925 5.79452 11.5414 5.75808 11.5963 5.73312C11.6512 5.70816 11.7108 5.69527 11.7711 5.69531C11.8011 5.69538 11.831 5.69847 11.8603 5.70452C11.9342 5.71924 12.0029 5.75337 12.0593 5.80339C12.1157 5.85342 12.1577 5.91754 12.1812 5.98919L12.7068 7.57362C12.7194 7.61117 12.7182 7.65196 12.7036 7.68875C12.6889 7.72554 12.6617 7.75594 12.6267 7.77456L11.4556 8.40066C11.4315 8.41354 11.4046 8.42022 11.3772 8.42009Z" fill="url(#paint2_linear_425_578)"/>
<path d="M6.62746 8.42042C6.59999 8.42051 6.57293 8.41372 6.54876 8.40067L5.37777 7.77473C5.34282 7.75611 5.3156 7.7257 5.30095 7.68892C5.2863 7.65213 5.28515 7.61134 5.29773 7.57379L5.82319 5.98936C5.84662 5.91769 5.8887 5.85355 5.94512 5.80352C6.00153 5.7535 6.07024 5.71938 6.14419 5.70469C6.17377 5.69848 6.2039 5.69534 6.23412 5.69531C6.29445 5.69523 6.35409 5.70814 6.40899 5.73316C6.46389 5.75819 6.51276 5.79474 6.55228 5.84033L7.54108 6.95489C7.56549 6.98257 7.58007 7.01754 7.58255 7.05436C7.58503 7.09119 7.57528 7.1278 7.55481 7.15851L6.76779 8.34574C6.75241 8.36884 6.73154 8.38776 6.70705 8.4008C6.68256 8.41383 6.65521 8.42058 6.62746 8.42042Z" fill="url(#paint3_linear_425_578)"/>
<path d="M6.07101 12.434C5.97839 12.4336 5.88835 12.4034 5.8142 12.3479C5.74005 12.2924 5.68573 12.2145 5.65925 12.1257L4.34961 7.67151C4.32562 7.59033 4.3262 7.50386 4.35125 7.423C4.37631 7.34214 4.42472 7.2705 4.49041 7.2171C4.55609 7.1637 4.6361 7.13092 4.72037 7.1229C4.80464 7.11487 4.88941 7.13196 4.96399 7.172L6.57387 8.03304L8.64525 4.91073C8.6844 4.8517 8.73754 4.80328 8.79995 4.76978C8.86236 4.73628 8.93209 4.71875 9.00293 4.71875C9.07376 4.71875 9.14349 4.73628 9.2059 4.76978C9.26831 4.80328 9.32146 4.8517 9.3606 4.91073L11.4318 8.03254L13.0417 7.1715C13.1163 7.13165 13.201 7.11471 13.2851 7.12281C13.3693 7.1309 13.4492 7.16367 13.5148 7.217C13.5804 7.27033 13.6289 7.34185 13.654 7.42259C13.6791 7.50333 13.6798 7.58969 13.6561 7.67084L12.3464 12.1251C12.32 12.2139 12.2656 12.2918 12.1914 12.3473C12.1173 12.4028 12.0272 12.433 11.9345 12.4333L6.07101 12.434Z" fill="url(#paint4_linear_425_578)"/>
<path d="M8.99833 10.3607C8.96958 10.3606 8.94133 10.3532 8.91626 10.3391C8.8912 10.325 8.87017 10.3047 8.85516 10.2802L8.04788 8.94844C8.03189 8.9223 8.02344 8.89226 8.02344 8.86162C8.02344 8.83098 8.03189 8.80094 8.04788 8.7748L8.85516 7.44389C8.87009 7.41928 8.8911 7.39894 8.91618 7.38482C8.94126 7.3707 8.96955 7.36328 8.99833 7.36328C9.02711 7.36328 9.05541 7.3707 9.08049 7.38482C9.10556 7.39894 9.12658 7.41928 9.14151 7.44389L9.94896 8.7748C9.96483 8.80097 9.97323 8.831 9.97323 8.86162C9.97323 8.89223 9.96483 8.92226 9.94896 8.94844L9.14151 10.2795C9.12658 10.3042 9.10558 10.3246 9.08051 10.3388C9.05545 10.353 9.02715 10.3606 8.99833 10.3607Z" fill="url(#paint5_linear_425_578)"/>
<path d="M12.3428 12.1268L12.6587 11.0527H5.33984L5.65566 12.1268C5.68214 12.2155 5.73646 12.2934 5.81061 12.3489C5.88476 12.4044 5.9748 12.4346 6.06742 12.435H11.9309C12.0236 12.4347 12.1137 12.4045 12.1879 12.349C12.262 12.2935 12.3164 12.2156 12.3428 12.1268Z" fill="url(#paint6_linear_425_578)"/>
<defs>
<linearGradient id="paint0_linear_425_578" x1="2.81709" y1="2.81701" x2="15.1831" y2="15.183" gradientUnits="userSpaceOnUse">
<stop stop-color="#FCEA73"/>
<stop offset="0.369" stop-color="#FCCD5E"/>
<stop offset="0.76" stop-color="#FBB54C"/>
<stop offset="1" stop-color="#FBAC46"/>
</linearGradient>
<linearGradient id="paint1_linear_425_578" x1="4.26483" y1="4.216" x2="13.7329" y2="13.6841" gradientUnits="userSpaceOnUse">
<stop stop-color="#F15550"/>
<stop offset="1" stop-color="#C61F43"/>
</linearGradient>
<linearGradient id="paint2_linear_425_578" x1="10.4219" y1="7.05753" x2="12.7155" y2="7.05753" gradientUnits="userSpaceOnUse">
<stop stop-color="#FCEA73"/>
<stop offset="0.096" stop-color="#FCD967"/>
<stop offset="0.252" stop-color="#FBC558"/>
<stop offset="0.428" stop-color="#FBB74E"/>
<stop offset="0.643" stop-color="#FBAF48"/>
<stop offset="1" stop-color="#FBAC46"/>
</linearGradient>
<linearGradient id="paint3_linear_425_578" x1="5.28919" y1="7.0577" x2="7.58277" y2="7.0577" gradientUnits="userSpaceOnUse">
<stop stop-color="#FCEA73"/>
<stop offset="0.096" stop-color="#FCD967"/>
<stop offset="0.252" stop-color="#FBC558"/>
<stop offset="0.428" stop-color="#FBB74E"/>
<stop offset="0.643" stop-color="#FBAF48"/>
<stop offset="1" stop-color="#FBAC46"/>
</linearGradient>
<linearGradient id="paint4_linear_425_578" x1="5.79237" y1="5.91193" x2="12.2131" y2="12.3325" gradientUnits="userSpaceOnUse">
<stop stop-color="#FCEA73"/>
<stop offset="0.249" stop-color="#FCE670"/>
<stop offset="0.508" stop-color="#FCD967"/>
<stop offset="0.769" stop-color="#FBC558"/>
<stop offset="1" stop-color="#FBAC46"/>
</linearGradient>
<linearGradient id="paint5_linear_425_578" x1="8.21449" y1="8.07853" x2="9.78218" y2="9.64622" gradientUnits="userSpaceOnUse">
<stop stop-color="#77FFFF"/>
<stop offset="0.142" stop-color="#70E8FF"/>
<stop offset="0.361" stop-color="#67CBFF"/>
<stop offset="0.578" stop-color="#60B7FF"/>
<stop offset="0.793" stop-color="#5CAAFF"/>
<stop offset="1" stop-color="#5BA6FF"/>
</linearGradient>
<linearGradient id="paint6_linear_425_578" x1="8.99917" y1="11.0527" x2="8.99917" y2="12.435" gradientUnits="userSpaceOnUse">
<stop stop-color="#FBAC46"/>
<stop offset="1" stop-color="#D38B23"/>
</linearGradient>
</defs>
</svg>
