<svg width="14" height="14" viewBox="0 0 14 14" fill="none" xmlns="http://www.w3.org/2000/svg">
<path d="M6.99608 13.9882C5.36142 13.988 3.72885 13.8711 2.11083 13.6384C1.6671 13.5726 1.25629 13.3659 0.939098 13.0487C0.621902 12.7315 0.415136 12.3207 0.349344 11.8769C-0.116448 8.63812 -0.116448 5.34934 0.349344 2.11054C0.415136 1.6668 0.621902 1.256 0.939098 0.938802C1.25629 0.621605 1.6671 0.41484 2.11083 0.349048C5.34966 -0.116349 8.63839 -0.116349 11.8772 0.349048C12.321 0.41484 12.7318 0.621605 13.049 0.938802C13.3662 1.256 13.5729 1.6668 13.6387 2.11054C14.1045 5.34934 14.1045 8.63812 13.6387 11.8769C13.5729 12.3207 13.3662 12.7315 13.049 13.0487C12.7318 13.3659 12.321 13.5726 11.8772 13.6384C10.2606 13.8709 8.62938 13.9878 6.99608 13.9882Z" fill="#FBB03B"/>
<path d="M7.40721 3.74945L7.98752 5.52741C8.01241 5.61643 8.06655 5.69448 8.14121 5.74898C8.21587 5.80348 8.30671 5.83126 8.39908 5.82785H10.2717C10.3741 5.79862 10.4838 5.81023 10.5779 5.86022C10.6719 5.91021 10.7429 5.9947 10.7759 6.09593C10.8089 6.19717 10.8014 6.30726 10.755 6.40309C10.7086 6.49892 10.6268 6.57302 10.5269 6.60982L9.01231 7.70869C8.93631 7.76005 8.87964 7.83532 8.85131 7.92256C8.82298 8.0098 8.8246 8.104 8.85592 8.19022L9.4321 9.96817C9.49073 10.0568 9.51282 10.1646 9.49376 10.2691C9.4747 10.3736 9.41597 10.4667 9.32984 10.5289C9.24372 10.5911 9.13688 10.6176 9.03167 10.6028C8.92647 10.5881 8.83104 10.5332 8.76537 10.4497L7.25082 9.35082C7.1785 9.29442 7.08942 9.26379 6.99771 9.26379C6.906 9.26379 6.81691 9.29442 6.7446 9.35082L5.22593 10.4497C5.15804 10.526 5.06421 10.5743 4.96268 10.5852C4.86115 10.5962 4.75918 10.569 4.67657 10.509C4.59396 10.449 4.53662 10.3604 4.51569 10.2604C4.49476 10.1605 4.51173 10.0563 4.56332 9.96817L5.1395 8.19022C5.17082 8.104 5.17244 8.0098 5.14411 7.92256C5.11577 7.83532 5.05911 7.76005 4.98311 7.70869L3.46856 6.60982C3.36863 6.57302 3.28686 6.49892 3.24042 6.40309C3.19398 6.30726 3.18649 6.19717 3.21952 6.09593C3.25256 5.9947 3.32354 5.91021 3.41757 5.86022C3.51159 5.81023 3.62133 5.79862 3.72373 5.82785H5.59634C5.68871 5.83126 5.77955 5.80348 5.85421 5.74898C5.92887 5.69448 5.98301 5.61643 6.0079 5.52741L6.58409 3.74945C6.58409 3.6403 6.62745 3.53562 6.70463 3.45843C6.78182 3.38125 6.8865 3.33789 6.99565 3.33789C7.1048 3.33789 7.20949 3.38125 7.28667 3.45843C7.36385 3.53562 7.40721 3.6403 7.40721 3.74945Z" fill="#F6FFB8"/>
</svg>
