<svg width="21" height="27" viewBox="0 0 21 27" fill="none" xmlns="http://www.w3.org/2000/svg">
<path d="M3.97604 16.5834C3.27821 17.4636 2.78593 18.7488 2.49382 19.6668C2.27743 20.3688 1.7473 20.9412 1.05487 21.2274L0.335394 21.5298C0.12983 21.6108 0 21.8106 0 22.0266V26.46C0 26.622 0.0703244 26.7732 0.194745 26.8758C0.297527 26.9568 0.416538 27 0.540958 27C0.573416 27 0.611283 26.9946 0.64374 26.9892L4.61978 26.2224C5.5881 26.0388 6.46445 25.5636 7.15147 24.8562L17.711 13.9536C17.8083 13.851 17.857 13.716 17.857 13.581H20.459C20.762 13.581 21 13.338 21 13.041V11.6802C21 11.3778 20.762 11.1402 20.459 11.1402H1.10355C0.806028 11.1402 0.562597 11.3778 0.562597 11.6802V13.041C0.562597 13.338 0.806028 13.581 1.10355 13.581H4.33849V15.5898C4.33849 15.9462 4.21407 16.2864 3.97604 16.5834ZM11.1167 15.4602L11.9822 13.8348C12.0255 13.7538 12.0471 13.6674 12.0471 13.581H14.3408L11.1167 15.4602ZM9.26661 13.581L7.96832 15.4332C7.79521 15.6762 7.55719 15.8598 7.28671 15.9624V13.581H9.26661ZM1.82303 10.0602H19.745C19.0742 6.3342 16.1206 3.3966 12.3879 2.727C12.5394 2.4624 12.6206 2.16 12.6206 1.836C12.6206 0.8208 11.7983 0 10.7813 0C9.76971 0 8.94745 0.8208 8.94745 1.836C8.94745 2.16 9.02859 2.4624 9.18006 2.727C5.44745 3.3912 2.49382 6.3342 1.82303 10.0602ZM10.0294 1.836C10.0294 1.4202 10.3648 1.08 10.7813 1.08C11.1978 1.08 11.5386 1.4202 11.5386 1.836C11.5386 2.2464 11.1978 2.5866 10.7813 2.5866C10.3648 2.5866 10.0294 2.2464 10.0294 1.836Z" fill="black"/>
</svg>
